M48
; DRILL file {KiCad 9.0.4} date 2025-10-26T17:47:47+0100
; FORMAT={-:-/ absolute / metric / decimal}
; #@! TF.CreationDate,2025-10-26T17:47:47+01:00
; #@! TF.GenerationSoftware,Kicad,Pcbnew,9.0.4
; #@! TF.FileFunction,Plated,1,4,PTH
FMAT,2
METRIC
; #@! TA.AperFunction,Plated,PTH,ViaDrill
T1C0.200
; #@! TA.AperFunction,Plated,PTH,ComponentDrill
T2C0.200
; #@! TA.AperFunction,Plated,PTH,ViaDrill
T3C0.300
; #@! TA.AperFunction,Plated,PTH,ViaDrill
T4C0.400
; #@! TA.AperFunction,Plated,PTH,ComponentDrill
T5C0.500
; #@! TA.AperFunction,Plated,PTH,ComponentDrill
T6C0.600
; #@! TA.AperFunction,Plated,PTH,ComponentDrill
T7C1.000
%
G90
G05
T1
X88.39Y-116.74
X102.16Y-99.23
X102.25Y-97.24
X102.31Y-100.93
X106.0Y-99.22
X106.07Y-97.24
X106.1Y-101.15
X141.383Y-86.752
X142.04Y-87.988
X142.619Y-86.095
X142.698Y-89.225
X143.277Y-87.331
X143.855Y-85.438
X143.934Y-88.567
X144.513Y-86.674
X145.17Y-87.91
T2
X141.712Y-87.37
X142.001Y-86.424
X142.369Y-88.606
X142.659Y-87.66
X142.948Y-86.713
X143.237Y-85.766
X143.316Y-88.896
X143.605Y-87.949
X143.895Y-87.003
X144.184Y-86.056
X144.552Y-88.239
X144.841Y-87.292
T3
X82.57Y-121.09
X85.32Y-123.52
X86.62Y-123.22
X88.25Y-112.97
X88.7Y-122.69
X89.09Y-107.07
X89.38Y-109.29
X92.13Y-102.83
X94.41Y-105.25
X94.91Y-97.63
X95.79Y-99.5
X96.94Y-120.43
X96.95Y-117.61
X98.63Y-107.15
X98.77Y-92.09
X98.89Y-100.99
X98.92Y-103.44
X99.23Y-122.91
X99.24Y-90.41
X99.55Y-107.8
X99.58Y-89.23
X99.59Y-102.3
X99.62Y-94.66
X99.65Y-100.08
X100.08Y-117.59
X100.1Y-92.74
X100.76Y-103.06
X100.96Y-120.78
X101.048Y-100.55
X101.18Y-108.24
X101.73Y-117.64
X101.86Y-123.73
X102.03Y-104.54
X102.27Y-103.71
X102.81Y-92.43
X103.14Y-84.9
X103.3Y-89.28
X103.349Y-94.94
X103.819Y-104.27
X104.11Y-106.46
X104.21Y-91.35
X104.681Y-104.359
X104.78Y-85.05
X104.79Y-107.39
X104.81Y-122.95
X105.11Y-92.15
X105.33Y-106.58
X105.6Y-108.32
X106.94Y-106.45
X107.2Y-85.04
X108.0Y-95.64
X108.85Y-93.89
X108.85Y-99.96
X110.07Y-75.71
X110.07Y-99.98
X110.57Y-106.97
X110.75Y-72.63
X111.18Y-101.96
X111.35Y-89.42
X111.94Y-96.92
X112.15Y-86.16
X112.41Y-102.41
X112.51Y-88.02
X112.88Y-94.15
X112.89Y-96.96
X112.9Y-93.22
X112.915Y-98.155
X112.92Y-95.18
X112.95Y-92.26
X112.99Y-99.56
X113.24Y-101.43
X114.42Y-101.13
X114.49Y-99.35
X114.62Y-118.45
X114.78Y-69.3
X114.87Y-103.9
X114.89Y-104.99
X114.96Y-97.73
X115.38Y-91.43
X115.67Y-117.35
X116.87Y-105.97
X117.45Y-91.55
X119.05Y-108.1
X119.08Y-72.67
X119.43Y-76.41
X119.7Y-90.87
X119.85Y-83.17
X119.87Y-70.46
X120.88Y-98.88
X121.47Y-85.88
X122.66Y-110.2
X122.92Y-70.07
X123.06Y-104.86
X123.87Y-115.85
X123.99Y-75.75
X124.21Y-49.553
X124.37Y-68.45
X124.89Y-112.0
X125.54Y-91.42
X125.98Y-92.3
X126.47Y-49.31
X126.49Y-68.62
X126.52Y-93.13
X126.65Y-46.73
X128.13Y-93.37
X129.2Y-70.08
X129.35Y-50.22
X129.92Y-112.22
X130.53Y-110.47
X130.53Y-115.03
X130.6Y-70.21
X131.4Y-73.6
X131.4Y-114.82
X132.08Y-109.8
X132.12Y-112.23
X132.54Y-69.74
X133.46Y-76.12
X134.19Y-74.46
X134.64Y-72.24
X135.48Y-69.47
X135.89Y-72.11
X136.395Y-99.895
X138.101Y-64.703
X138.76Y-101.29
X139.15Y-112.44
X139.461Y-70.933
X142.32Y-112.56
X143.68Y-102.37
X144.63Y-73.11
X145.02Y-113.29
X145.02Y-114.29
X145.98Y-111.81
X147.45Y-109.59
X148.1Y-103.5
X149.19Y-105.54
X149.86Y-112.26
X151.59Y-102.415
X152.11Y-96.29
X152.78Y-98.495
X152.94Y-92.11
X153.53Y-98.061
X154.4Y-91.32
X154.76Y-96.55
X154.77Y-115.51
X154.94Y-92.6
X157.3Y-103.965
X157.71Y-97.181
X158.67Y-99.245
X160.53Y-120.47
X161.265Y-119.145
X161.93Y-123.06
X162.82Y-118.66
X164.675Y-123.525
X166.72Y-123.49
X167.909Y-123.491
X169.819Y-123.519
X169.995Y-121.055
T4
X118.5Y-57.53
X118.88Y-67.35
X121.87Y-122.66
X135.42Y-57.7
X135.68Y-67.64
X139.35Y-109.5
X140.35Y-106.94
X140.76Y-105.17
X150.67Y-109.07
X152.97Y-115.54
X153.36Y-108.33
X155.6Y-105.64
X156.38Y-110.49
X157.08Y-107.42
X158.08Y-111.09
X159.02Y-107.49
X159.39Y-114.01
X162.18Y-110.78
X168.14Y-118.21
T5
X128.226Y-86.848
X128.695Y-87.731
X129.165Y-88.613
X129.634Y-89.496
X130.104Y-90.379
X130.573Y-91.262
X130.82Y-79.09
X131.043Y-92.145
X131.512Y-93.028
X131.703Y-78.621
X131.982Y-93.911
X132.451Y-94.794
X132.586Y-78.151
X132.921Y-95.677
X133.39Y-96.56
X133.469Y-77.682
X134.352Y-77.212
X135.235Y-76.743
X136.118Y-76.273
X137.001Y-75.804
X137.884Y-75.334
X138.767Y-74.865
X139.649Y-74.395
X140.532Y-73.926
X140.992Y-100.203
X141.415Y-73.456
X141.875Y-99.734
X142.298Y-72.987
X142.758Y-99.264
X143.641Y-98.795
X144.523Y-98.325
X145.406Y-97.856
X146.289Y-97.386
X147.172Y-96.917
X148.055Y-96.447
X148.938Y-95.978
X149.821Y-95.508
X150.704Y-95.039
X151.587Y-94.569
X152.47Y-94.1
T7
X92.089Y-112.18
X92.089Y-107.1
X92.089Y-114.72
X92.089Y-117.26
X92.089Y-119.8
X92.089Y-109.64
X94.629Y-112.18
X94.629Y-109.64
X94.629Y-114.72
X94.629Y-117.26
X94.629Y-107.1
X94.629Y-119.8
X101.52Y-112.43
X101.52Y-114.97
X104.06Y-112.43
X104.06Y-114.97
X106.6Y-112.43
X106.6Y-114.97
X109.14Y-112.43
X109.14Y-114.97
X111.68Y-112.43
X111.68Y-114.97
X113.059Y-71.88
X113.059Y-74.42
X113.059Y-76.96
X113.059Y-79.5
X113.059Y-82.04
X113.059Y-84.58
X114.22Y-112.43
X114.22Y-114.97
X115.599Y-71.88
X115.599Y-74.42
X115.599Y-76.96
X115.599Y-79.5
X115.599Y-82.04
X115.599Y-84.58
X143.889Y-117.667
X146.389Y-117.667
T6
X126.809Y-118.205G85X126.809Y-117.105
G05
X126.809Y-122.235G85X126.809Y-121.435
G05
X135.449Y-118.205G85X135.449Y-117.105
G05
X135.449Y-122.235G85X135.449Y-121.435
G05
M30
