%TF.GenerationSoftware,KiCad,Pcbnew,9.0.4*%
%TF.CreationDate,2025-10-26T18:47:36+01:00*%
%TF.ProjectId,esp32_fpga,65737033-325f-4667-9067-612e6b696361,rev?*%
%TF.SameCoordinates,Original*%
%TF.FileFunction,Copper,L1,Top*%
%TF.FilePolarity,Positive*%
%FSLAX46Y46*%
G04 Gerber Fmt 4.6, Leading zero omitted, Abs format (unit mm)*
G04 Created by KiCad (PCBNEW 9.0.4) date 2025-10-26 18:47:36*
%MOMM*%
%LPD*%
G01*
G04 APERTURE LIST*
G04 Aperture macros list*
%AMRoundRect*
0 Rectangle with rounded corners*
0 $1 Rounding radius*
0 $2 $3 $4 $5 $6 $7 $8 $9 X,Y pos of 4 corners*
0 Add a 4 corners polygon primitive as box body*
4,1,4,$2,$3,$4,$5,$6,$7,$8,$9,$2,$3,0*
0 Add four circle primitives for the rounded corners*
1,1,$1+$1,$2,$3*
1,1,$1+$1,$4,$5*
1,1,$1+$1,$6,$7*
1,1,$1+$1,$8,$9*
0 Add four rect primitives between the rounded corners*
20,1,$1+$1,$2,$3,$4,$5,0*
20,1,$1+$1,$4,$5,$6,$7,0*
20,1,$1+$1,$6,$7,$8,$9,0*
20,1,$1+$1,$8,$9,$2,$3,0*%
%AMRotRect*
0 Rectangle, with rotation*
0 The origin of the aperture is its center*
0 $1 length*
0 $2 width*
0 $3 Rotation angle, in degrees counterclockwise*
0 Add horizontal line*
21,1,$1,$2,0,0,$3*%
G04 Aperture macros list end*
%TA.AperFunction,ComponentPad*%
%ADD10RoundRect,0.250000X-0.405000X-0.405000X0.405000X-0.405000X0.405000X0.405000X-0.405000X0.405000X0*%
%TD*%
%TA.AperFunction,ComponentPad*%
%ADD11C,1.310000*%
%TD*%
%TA.AperFunction,ComponentPad*%
%ADD12RoundRect,0.250000X-0.405000X0.405000X-0.405000X-0.405000X0.405000X-0.405000X0.405000X0.405000X0*%
%TD*%
%TA.AperFunction,ComponentPad*%
%ADD13RoundRect,0.250000X0.405000X-0.405000X0.405000X0.405000X-0.405000X0.405000X-0.405000X-0.405000X0*%
%TD*%
%TA.AperFunction,ComponentPad*%
%ADD14R,1.700000X1.700000*%
%TD*%
%TA.AperFunction,ComponentPad*%
%ADD15C,1.700000*%
%TD*%
%TA.AperFunction,SMDPad,CuDef*%
%ADD16R,0.700000X1.100000*%
%TD*%
%TA.AperFunction,SMDPad,CuDef*%
%ADD17R,0.900000X0.930000*%
%TD*%
%TA.AperFunction,SMDPad,CuDef*%
%ADD18R,1.050000X0.780000*%
%TD*%
%TA.AperFunction,SMDPad,CuDef*%
%ADD19R,0.700000X3.330000*%
%TD*%
%TA.AperFunction,SMDPad,CuDef*%
%ADD20R,0.860000X2.800000*%
%TD*%
%TA.AperFunction,SMDPad,CuDef*%
%ADD21R,1.140000X1.830000*%
%TD*%
%TA.AperFunction,SMDPad,CuDef*%
%ADD22RoundRect,0.140000X0.140000X0.170000X-0.140000X0.170000X-0.140000X-0.170000X0.140000X-0.170000X0*%
%TD*%
%TA.AperFunction,ComponentPad*%
%ADD23C,0.400000*%
%TD*%
%TA.AperFunction,HeatsinkPad*%
%ADD24O,1.000000X1.800000*%
%TD*%
%TA.AperFunction,HeatsinkPad*%
%ADD25O,1.000000X2.100000*%
%TD*%
%TA.AperFunction,ComponentPad*%
%ADD26RotRect,0.850000X0.850000X118.000000*%
%TD*%
%TA.AperFunction,ComponentPad*%
%ADD27C,0.850000*%
%TD*%
%TA.AperFunction,ComponentPad*%
%ADD28RoundRect,0.250000X-0.600000X-0.750000X0.600000X-0.750000X0.600000X0.750000X-0.600000X0.750000X0*%
%TD*%
%TA.AperFunction,ComponentPad*%
%ADD29O,1.700000X2.000000*%
%TD*%
%TA.AperFunction,ComponentPad*%
%ADD30RotRect,0.850000X0.850000X28.000000*%
%TD*%
%TA.AperFunction,ViaPad*%
%ADD31C,0.800000*%
%TD*%
%TA.AperFunction,ViaPad*%
%ADD32C,0.500000*%
%TD*%
%TA.AperFunction,ViaPad*%
%ADD33C,0.400000*%
%TD*%
%TA.AperFunction,Conductor*%
%ADD34C,0.250000*%
%TD*%
%TA.AperFunction,Conductor*%
%ADD35C,0.200000*%
%TD*%
G04 APERTURE END LIST*
D10*
%TO.P,PMOD3,1,Pin_1*%
%TO.N,/PIN_P42*%
X101520000Y-114970000D03*
D11*
%TO.P,PMOD3,2,Pin_2*%
%TO.N,/PIN_P38*%
X101520000Y-112430000D03*
%TO.P,PMOD3,3,Pin_3*%
%TO.N,/PIN_P43*%
X104060000Y-114970000D03*
%TO.P,PMOD3,4,Pin_4*%
%TO.N,/PIN_P36*%
X104060000Y-112430000D03*
%TO.P,PMOD3,5,Pin_5*%
%TO.N,/PIN_P32*%
X106600000Y-114970000D03*
%TO.P,PMOD3,6,Pin_6*%
%TO.N,/PIN_P31*%
X106600000Y-112430000D03*
%TO.P,PMOD3,7,Pin_7*%
%TO.N,/PIN_P13*%
X109140000Y-114970000D03*
%TO.P,PMOD3,8,Pin_8*%
%TO.N,/PIN_P20*%
X109140000Y-112430000D03*
%TO.P,PMOD3,9,Pin_9*%
%TO.N,GND*%
X111680000Y-114970000D03*
%TO.P,PMOD3,10,Pin_10*%
X111680000Y-112430000D03*
%TO.P,PMOD3,11,Pin_11*%
%TO.N,+3.3V*%
X114220000Y-114970000D03*
%TO.P,PMOD3,12,Pin_12*%
X114220000Y-112430000D03*
%TD*%
D12*
%TO.P,PMOD2,1,Pin_1*%
%TO.N,/PIN_P4*%
X92088524Y-107099999D03*
D11*
%TO.P,PMOD2,2,Pin_2*%
%TO.N,/PIN_P3*%
X94628524Y-107099999D03*
%TO.P,PMOD2,3,Pin_3*%
%TO.N,/PIN_P48*%
X92088524Y-109639999D03*
%TO.P,PMOD2,4,Pin_4*%
%TO.N,/PIN_P45*%
X94628524Y-109639999D03*
%TO.P,PMOD2,5,Pin_5*%
%TO.N,/PIN_P47*%
X92088524Y-112179999D03*
%TO.P,PMOD2,6,Pin_6*%
%TO.N,/PIN_P44*%
X94628524Y-112179999D03*
%TO.P,PMOD2,7,Pin_7*%
%TO.N,/PIN_P46*%
X92088524Y-114719999D03*
%TO.P,PMOD2,8,Pin_8*%
%TO.N,/PIN_P2*%
X94628524Y-114719999D03*
%TO.P,PMOD2,9,Pin_9*%
%TO.N,GND*%
X92088524Y-117259999D03*
%TO.P,PMOD2,10,Pin_10*%
X94628524Y-117259999D03*
%TO.P,PMOD2,11,Pin_11*%
%TO.N,+3.3V*%
X92088524Y-119799999D03*
%TO.P,PMOD2,12,Pin_12*%
X94628524Y-119799999D03*
%TD*%
D13*
%TO.P,PMOD1,1,Pin_1*%
%TO.N,/PIN_P19*%
X115598524Y-84580000D03*
D11*
%TO.P,PMOD1,2,Pin_2*%
%TO.N,/PIN_P18*%
X113058524Y-84580000D03*
%TO.P,PMOD1,3,Pin_3*%
%TO.N,/PIN_P12*%
X115598524Y-82040000D03*
%TO.P,PMOD1,4,Pin_4*%
%TO.N,/PIN_P21*%
X113058524Y-82040000D03*
%TO.P,PMOD1,5,Pin_5*%
%TO.N,/PIN_P11*%
X115598524Y-79500000D03*
%TO.P,PMOD1,6,Pin_6*%
%TO.N,/PIN_P10*%
X113058524Y-79500000D03*
%TO.P,PMOD1,7,Pin_7*%
%TO.N,/PIN_P9*%
X115598524Y-76960000D03*
%TO.P,PMOD1,8,Pin_8*%
%TO.N,/PIN_P6*%
X113058524Y-76960000D03*
%TO.P,PMOD1,9,Pin_9*%
%TO.N,GND*%
X115598524Y-74420000D03*
%TO.P,PMOD1,10,Pin_10*%
X113058524Y-74420000D03*
%TO.P,PMOD1,11,Pin_11*%
%TO.N,+3.3V*%
X115598524Y-71880000D03*
%TO.P,PMOD1,12,Pin_12*%
X113058524Y-71880000D03*
%TD*%
D14*
%TO.P,J4,1,Pin_1*%
%TO.N,GND*%
X119440000Y-79860000D03*
D15*
%TO.P,J4,2,Pin_2*%
%TO.N,+3.3V*%
X121980000Y-79860000D03*
%TO.P,J4,3,Pin_3*%
%TO.N,/SCL*%
X124520000Y-79860000D03*
%TO.P,J4,4,Pin_4*%
%TO.N,/SDA*%
X127060000Y-79860000D03*
%TD*%
D16*
%TO.P,J6,1,DAT2*%
%TO.N,unconnected-(J6-DAT2-Pad1)*%
X129410000Y-67305000D03*
%TO.P,J6,2,CD/DAT3*%
%TO.N,/SPI2_CS*%
X128310000Y-67305000D03*
%TO.P,J6,3,CMD*%
%TO.N,/SPI2_MOSI*%
X127210000Y-67305000D03*
%TO.P,J6,4,VDD*%
%TO.N,+3.3V*%
X126110000Y-67305000D03*
%TO.P,J6,5,CLK*%
%TO.N,/SPI2_CLK*%
X125010000Y-67305000D03*
%TO.P,J6,6,VSS*%
%TO.N,GND*%
X123910000Y-67305000D03*
%TO.P,J6,7,DAT0*%
%TO.N,/SPI2_MISO*%
X122810000Y-67305000D03*
%TO.P,J6,8,DAT1*%
%TO.N,unconnected-(J6-DAT1-Pad8)*%
X121710000Y-67305000D03*
D17*
%TO.P,J6,9,DETECT_LEVER*%
%TO.N,unconnected-(J6-DETECT_LEVER-Pad9)*%
X131200000Y-54840000D03*
D18*
%TO.P,J6,10,DETECT_SWITCH*%
%TO.N,unconnected-(J6-DETECT_SWITCH-Pad10)*%
X126935000Y-54765000D03*
D19*
%TO.P,J6,11,11*%
%TO.N,GND*%
X120550000Y-56040000D03*
D20*
%TO.P,J6,12,12*%
X120630000Y-66805000D03*
D21*
%TO.P,J6,13,13*%
X133290000Y-67290000D03*
D19*
%TO.P,J6,14,14*%
X133510000Y-56040000D03*
%TD*%
D22*
%TO.P,C11,1*%
%TO.N,+3.3V*%
X122030000Y-70290000D03*
%TO.P,C11,2*%
%TO.N,GND*%
X121070000Y-70290000D03*
%TD*%
D23*
%TO.P,U1,41_10*%
%TO.N,GND*%
X143894676Y-87002502D03*
%TO.P,U1,41_11*%
X144551936Y-88238630D03*
%TO.P,U1,41_12*%
X143237416Y-85766377D03*
%TO.P,U1,41_13*%
X143315810Y-88895890D03*
%TO.P,U1,41_14*%
X142658550Y-87659764D03*
%TO.P,U1,41_15*%
X142001290Y-86423637D03*
%TO.P,U1,41_16*%
X144841370Y-87291937D03*
%TO.P,U1,41_17*%
X144184110Y-86055810D03*
%TO.P,U1,41_18*%
X143605244Y-87949198D03*
%TO.P,U1,41_19*%
X142947984Y-86713070D03*
%TO.P,U1,41_20*%
X142369117Y-88606457D03*
%TO.P,U1,41_21*%
X141711857Y-87370330D03*
%TD*%
D24*
%TO.P,J3,S1,SHIELD*%
%TO.N,GND*%
X135448524Y-121835000D03*
D25*
X135448524Y-117655000D03*
D24*
X126808524Y-121835000D03*
D25*
X126808524Y-117655000D03*
%TD*%
D26*
%TO.P,J8,1,Pin_1*%
%TO.N,GND*%
X142298318Y-72986870D03*
D27*
%TO.P,J8,2,Pin_2*%
%TO.N,/GPIO1*%
X141415371Y-73456342D03*
%TO.P,J8,3,Pin_3*%
%TO.N,/GPIO2*%
X140532423Y-73925813D03*
%TO.P,J8,4,Pin_4*%
%TO.N,/UART_TX*%
X139649475Y-74395285D03*
%TO.P,J8,5,Pin_5*%
%TO.N,/UART_RX*%
X138766527Y-74864755D03*
%TO.P,J8,6,Pin_6*%
%TO.N,/GPIO42*%
X137883580Y-75334228D03*
%TO.P,J8,7,Pin_7*%
%TO.N,/GPIO41*%
X137000633Y-75803699D03*
%TO.P,J8,8,Pin_8*%
%TO.N,/GPIO40*%
X136117685Y-76273171D03*
%TO.P,J8,9,Pin_9*%
%TO.N,/SPI2_CS*%
X135234737Y-76742643D03*
%TO.P,J8,10,Pin_10*%
%TO.N,/GPIO38*%
X134351789Y-77212115D03*
%TO.P,J8,11,Pin_11*%
%TO.N,/SPI2_MISO*%
X133468842Y-77681586D03*
%TO.P,J8,12,Pin_12*%
%TO.N,/SPI2_CLK*%
X132585895Y-78151057D03*
%TO.P,J8,13,Pin_13*%
%TO.N,/SPI2_MOSI*%
X131702947Y-78620529D03*
%TO.P,J8,14,Pin_14*%
%TO.N,/GPIO0*%
X130820000Y-79090000D03*
%TD*%
D26*
%TO.P,J2,1,Pin_1*%
%TO.N,GND*%
X152470000Y-94100000D03*
D27*
%TO.P,J2,2,Pin_2*%
%TO.N,+3.3V*%
X151587053Y-94569472D03*
%TO.P,J2,3,Pin_3*%
%TO.N,/NRST*%
X150704105Y-95038943D03*
%TO.P,J2,4,Pin_4*%
%TO.N,/ADC*%
X149821157Y-95508415D03*
%TO.P,J2,5,Pin_5*%
%TO.N,/GPIO5*%
X148938209Y-95977885D03*
%TO.P,J2,6,Pin_6*%
%TO.N,/GPIO6*%
X148055262Y-96447358D03*
%TO.P,J2,7,Pin_7*%
%TO.N,/GPIO7*%
X147172315Y-96916829D03*
%TO.P,J2,8,Pin_8*%
%TO.N,/CDONE*%
X146289367Y-97386301D03*
%TO.P,J2,9,Pin_9*%
%TO.N,/CRESET*%
X145406419Y-97855773D03*
%TO.P,J2,10,Pin_10*%
%TO.N,/GPIO17*%
X144523471Y-98325245D03*
%TO.P,J2,11,Pin_11*%
%TO.N,/GPIO18*%
X143640524Y-98794716D03*
%TO.P,J2,12,Pin_12*%
%TO.N,/GPIO8*%
X142757577Y-99264187D03*
%TO.P,J2,13,Pin_13*%
%TO.N,/USB D-*%
X141874629Y-99733659D03*
%TO.P,J2,14,Pin_14*%
%TO.N,/USB D+*%
X140991682Y-100203130D03*
%TD*%
D28*
%TO.P,BT1,1,Pin_1*%
%TO.N,GND*%
X143888524Y-117667500D03*
D29*
%TO.P,BT1,2,Pin_2*%
%TO.N,/ADC*%
X146388524Y-117667500D03*
%TD*%
D30*
%TO.P,J5,1,Pin_1*%
%TO.N,/GPIO3*%
X133390000Y-96560000D03*
D27*
%TO.P,J5,2,Pin_2*%
%TO.N,/SCL*%
X132920528Y-95677053D03*
%TO.P,J5,3,Pin_3*%
%TO.N,/GPIO9*%
X132451057Y-94794105D03*
%TO.P,J5,4,Pin_4*%
%TO.N,/SPI_CS*%
X131981585Y-93911157D03*
%TO.P,J5,5,Pin_5*%
%TO.N,/SPI_MOSI*%
X131512115Y-93028209D03*
%TO.P,J5,6,Pin_6*%
%TO.N,/SPI_CLK*%
X131042642Y-92145262D03*
%TO.P,J5,7,Pin_7*%
%TO.N,/SPI_MISO*%
X130573171Y-91262315D03*
%TO.P,J5,8,Pin_8*%
%TO.N,/GPIO14*%
X130103699Y-90379367D03*
%TO.P,J5,9,Pin_9*%
%TO.N,/GPIO21*%
X129634227Y-89496419D03*
%TO.P,J5,10,Pin_10*%
%TO.N,/GPIO47*%
X129164755Y-88613471D03*
%TO.P,J5,11,Pin_11*%
%TO.N,/GPIO48*%
X128695284Y-87730524D03*
%TO.P,J5,12,Pin_12*%
%TO.N,/SDA*%
X128225813Y-86847577D03*
%TD*%
D31*
%TO.N,GND*%
X119810000Y-77490000D03*
%TO.N,+3.3V*%
X120960000Y-82030000D03*
D32*
%TO.N,GND*%
X119870000Y-70460000D03*
D33*
X106070000Y-97240000D03*
D32*
X104110000Y-106460000D03*
D31*
X168140000Y-118210000D03*
D33*
X142619354Y-86095007D03*
D32*
X124210273Y-49552617D03*
D31*
X152970000Y-115540000D03*
X140350000Y-106940000D03*
D32*
X103140000Y-84900000D03*
D33*
X106000000Y-99220000D03*
D31*
X118880000Y-67350000D03*
D33*
X142040487Y-87988394D03*
X145170000Y-87910000D03*
X102310000Y-100930000D03*
D31*
X159020000Y-107490000D03*
D32*
X169995000Y-121055000D03*
D33*
X143855480Y-85437747D03*
X142697747Y-89224521D03*
D32*
X123060000Y-104860000D03*
X152780000Y-98495000D03*
X102810000Y-92430000D03*
D31*
X155600000Y-105640000D03*
D32*
X106940000Y-106450000D03*
X99550000Y-107800000D03*
X147450000Y-109590000D03*
X122660000Y-110200000D03*
D31*
X135420000Y-57700000D03*
X121870000Y-122660000D03*
D32*
X88700000Y-122690000D03*
D33*
X102250000Y-97240000D03*
D32*
X114420000Y-101130000D03*
X123990000Y-75750000D03*
D31*
X135680000Y-67640000D03*
D32*
X111180000Y-101960000D03*
X82570000Y-121090000D03*
X135890000Y-72110000D03*
X132120000Y-112230000D03*
D33*
X102160000Y-99230000D03*
D32*
X96950000Y-117610000D03*
D33*
X143933874Y-88567261D03*
X143276614Y-87331133D03*
D32*
X151590000Y-102415000D03*
D33*
X106100000Y-101150000D03*
D32*
X129350000Y-50220000D03*
X105330000Y-106580000D03*
X158670000Y-99245000D03*
X132540000Y-69740000D03*
X129920000Y-112220000D03*
X110570000Y-106970000D03*
X100100000Y-92740000D03*
D31*
X139350000Y-109500000D03*
D32*
X144630000Y-73110000D03*
X114620000Y-118450000D03*
D31*
X150670000Y-109070000D03*
D32*
X110070000Y-75710000D03*
D33*
X88390000Y-116740000D03*
D32*
X167908524Y-123491476D03*
D31*
X162180000Y-110780000D03*
X159390000Y-114010000D03*
D32*
X123870000Y-115850000D03*
X138101476Y-64703238D03*
X164675000Y-123525000D03*
X154400000Y-91320000D03*
X157710000Y-97181476D03*
D31*
X140760000Y-105170000D03*
D32*
X154760000Y-96550000D03*
D33*
X141383226Y-86752267D03*
D31*
X118500000Y-57530000D03*
D32*
X116870000Y-105970000D03*
X98920000Y-103440000D03*
X120880000Y-98880000D03*
X124370000Y-68450000D03*
D33*
X144512740Y-86673873D03*
D32*
%TO.N,/ADC*%
X145020000Y-114290000D03*
X145980000Y-111810000D03*
X145020000Y-113290000D03*
%TO.N,+4V*%
X149860000Y-112260000D03*
X139150000Y-112440000D03*
X142320000Y-112560000D03*
X148100000Y-103500000D03*
%TO.N,+3.3V*%
X86620000Y-123220000D03*
X153530000Y-98061476D03*
D31*
X157080000Y-107420000D03*
D32*
X99230000Y-122910000D03*
X152940000Y-92110000D03*
D31*
X153360000Y-108330000D03*
D32*
X114870000Y-103900000D03*
X114960000Y-97730000D03*
X169818524Y-123518524D03*
X154940000Y-92600000D03*
X99620000Y-94660000D03*
X161930000Y-123060000D03*
X101860000Y-123730000D03*
X107200000Y-85040000D03*
X104780000Y-85050000D03*
D31*
X158080000Y-111090000D03*
D32*
X85320000Y-123520000D03*
X139461476Y-70933238D03*
X126490000Y-68620000D03*
X157300000Y-103965000D03*
D31*
X156380000Y-110490000D03*
D32*
X114890000Y-104990000D03*
X115670000Y-117350000D03*
X122920000Y-70070000D03*
X110750000Y-72630000D03*
X96940000Y-120430000D03*
X113240000Y-101430000D03*
X112410000Y-102410000D03*
X101180000Y-108240000D03*
X134640000Y-72240000D03*
X126650000Y-46730000D03*
X135480000Y-69470000D03*
X104810000Y-122950000D03*
X119050000Y-108100000D03*
X103818524Y-104270000D03*
X110070000Y-99980000D03*
X126470000Y-49310000D03*
X152110000Y-96290000D03*
X166720000Y-123490000D03*
X98630000Y-107150000D03*
X102270000Y-103710000D03*
%TO.N,+1V2*%
X103348524Y-94940000D03*
X104680512Y-104359488D03*
%TO.N,Net-(D1-RK)*%
X99650000Y-100080000D03*
X100080000Y-117590000D03*
%TO.N,Net-(D1-GK)*%
X101730000Y-117640000D03*
X101047524Y-100550000D03*
%TO.N,Net-(D1-BK)*%
X100960000Y-120780000D03*
X98890000Y-100990000D03*
%TO.N,/CDONE*%
X136395000Y-99895000D03*
X104210000Y-91350000D03*
X119700000Y-90870000D03*
%TO.N,/FPGA_P13*%
X111940000Y-96920000D03*
X108000000Y-95640000D03*
%TO.N,/FPGA_P21*%
X104790000Y-107390000D03*
X108850000Y-99960000D03*
%TO.N,/~{PSRAM_CS}*%
X99590000Y-102300000D03*
X115380000Y-91430000D03*
%TO.N,/SPI_CS*%
X126520000Y-93130000D03*
X112880000Y-94150000D03*
%TO.N,/SPI_CLK*%
X125980000Y-92300000D03*
X112900000Y-93220000D03*
%TO.N,/SPI_MISO*%
X125540000Y-91420000D03*
X112950000Y-92260000D03*
%TO.N,/SPI_MOSI*%
X128130000Y-93370000D03*
X112920000Y-95180000D03*
%TO.N,/CRESET*%
X105110000Y-92150000D03*
X138760000Y-101290000D03*
X117450000Y-91550000D03*
%TO.N,/FPGA_P36*%
X100760000Y-103060000D03*
X102030000Y-104540000D03*
%TO.N,/SPI2_CS*%
X130600000Y-70210000D03*
%TO.N,/SPI2_MOSI*%
X129200000Y-70080000D03*
%TO.N,/SPI2_MISO*%
X134190000Y-74460000D03*
X133460000Y-76120000D03*
%TO.N,/SPI2_CLK*%
X131400000Y-73600000D03*
%TO.N,/USB D+*%
X130530000Y-110470000D03*
X130530000Y-115030000D03*
%TO.N,/USB D-*%
X131400000Y-114820000D03*
X132080000Y-109800000D03*
%TO.N,/SCL*%
X121470000Y-85880000D03*
%TO.N,/PIN_P4*%
X99580000Y-89230000D03*
%TO.N,/PIN_P2*%
X98770000Y-92090000D03*
%TO.N,/PIN_P3*%
X99240000Y-90410000D03*
%TO.N,/PIN_P20*%
X160530000Y-120470000D03*
X112990000Y-99560000D03*
%TO.N,/PIN_P19*%
X114490000Y-99350000D03*
X162820000Y-118660000D03*
%TO.N,/PIN_P18*%
X112510000Y-88020000D03*
X161265000Y-119145000D03*
X112150000Y-86160000D03*
X112915000Y-98155000D03*
%TO.N,/PIN_P46*%
X92130000Y-102830000D03*
%TO.N,/PIN_P44*%
X95790000Y-99500000D03*
X94410000Y-105250000D03*
X88250000Y-112970000D03*
%TO.N,/PIN_P10*%
X114780000Y-69300000D03*
%TO.N,/PIN_P21*%
X108850000Y-93890000D03*
X111350000Y-89420000D03*
X105600000Y-108320000D03*
%TO.N,/PIN_P6*%
X103300000Y-89280000D03*
%TO.N,/PIN_P9*%
X119080000Y-72670000D03*
%TO.N,/PIN_P47*%
X89090000Y-107070000D03*
X94910000Y-97630000D03*
X89380000Y-109290000D03*
%TO.N,/PIN_P13*%
X112890000Y-96960000D03*
%TO.N,Net-(U3-PWRGD)*%
X154770000Y-115510000D03*
X124890000Y-112000000D03*
X149190000Y-105540000D03*
X143680000Y-102370000D03*
%TD*%
D34*
%TO.N,GND*%
X133290000Y-67290000D02*
X135330000Y-67290000D01*
X133510000Y-56040000D02*
X133760000Y-56040000D01*
D35*
X121070000Y-70290000D02*
X120040000Y-70290000D01*
X123910000Y-67990000D02*
X124370000Y-68450000D01*
D34*
X135330000Y-67290000D02*
X135680000Y-67640000D01*
X120630000Y-66805000D02*
X119425000Y-66805000D01*
D35*
X123910000Y-67305000D02*
X123910000Y-67990000D01*
D34*
X119425000Y-66805000D02*
X118880000Y-67350000D01*
X119990000Y-56040000D02*
X118500000Y-57530000D01*
X120550000Y-56040000D02*
X119990000Y-56040000D01*
D35*
X120040000Y-70290000D02*
X119870000Y-70460000D01*
D34*
X133760000Y-56040000D02*
X135420000Y-57700000D01*
D35*
%TO.N,/ADC*%
X145980000Y-112330000D02*
X145020000Y-113290000D01*
X146388524Y-115658524D02*
X146388524Y-117667500D01*
X145020000Y-114290000D02*
X146388524Y-115658524D01*
X145980000Y-111810000D02*
X145980000Y-112330000D01*
%TO.N,+4V*%
X148100000Y-103500000D02*
X148100000Y-110500000D01*
D34*
X139150000Y-112440000D02*
X142200000Y-112440000D01*
D35*
X148100000Y-110500000D02*
X149860000Y-112260000D01*
D34*
X142200000Y-112440000D02*
X142320000Y-112560000D01*
D35*
%TO.N,+3.3V*%
X122700000Y-70290000D02*
X122920000Y-70070000D01*
X126110000Y-68240000D02*
X126490000Y-68620000D01*
X126110000Y-67305000D02*
X126110000Y-68240000D01*
X122030000Y-70290000D02*
X122700000Y-70290000D01*
%TO.N,+1V2*%
X104680512Y-104359488D02*
X104348524Y-104027500D01*
X104348524Y-95940000D02*
X103348524Y-94940000D01*
X104348524Y-104027500D02*
X104348524Y-95940000D01*
%TO.N,Net-(D1-RK)*%
X100179000Y-100609000D02*
X100179000Y-117491000D01*
X99650000Y-100080000D02*
X100179000Y-100609000D01*
X100179000Y-117491000D02*
X100080000Y-117590000D01*
%TO.N,Net-(D1-GK)*%
X102851000Y-116519000D02*
X101730000Y-117640000D01*
X101047524Y-100550000D02*
X102851000Y-102353476D01*
X102851000Y-102353476D02*
X102851000Y-116519000D01*
%TO.N,Net-(D1-BK)*%
X98049000Y-103489341D02*
X98049000Y-117869000D01*
X98890000Y-102648341D02*
X98049000Y-103489341D01*
X98890000Y-100990000D02*
X98890000Y-102648341D01*
X98049000Y-117869000D02*
X100960000Y-120780000D01*
%TO.N,/CDONE*%
X142468297Y-101871000D02*
X146289367Y-98049930D01*
X146289367Y-98049930D02*
X146289367Y-97386301D01*
X104210000Y-91350000D02*
X105350000Y-90210000D01*
X136395000Y-99895000D02*
X138371000Y-101871000D01*
X138371000Y-101871000D02*
X142468297Y-101871000D01*
X119040000Y-90210000D02*
X119700000Y-90870000D01*
X105350000Y-90210000D02*
X119040000Y-90210000D01*
%TO.N,/FPGA_P13*%
X111940000Y-96920000D02*
X109960000Y-96920000D01*
X108680000Y-95640000D02*
X108000000Y-95640000D01*
X109960000Y-96920000D02*
X108680000Y-95640000D01*
%TO.N,/FPGA_P21*%
X108870000Y-99980000D02*
X108870000Y-105380000D01*
X108870000Y-105380000D02*
X106860000Y-107390000D01*
X108850000Y-99960000D02*
X108870000Y-99980000D01*
X106860000Y-107390000D02*
X104790000Y-107390000D01*
%TO.N,/~{PSRAM_CS}*%
X108570000Y-92870000D02*
X110010000Y-91430000D01*
X99600000Y-100851659D02*
X99069000Y-100320659D01*
X104596865Y-92870000D02*
X108570000Y-92870000D01*
X110010000Y-91430000D02*
X115380000Y-91430000D01*
X99280000Y-98186865D02*
X104596865Y-92870000D01*
X99600000Y-102290000D02*
X99600000Y-100851659D01*
X99280000Y-99628341D02*
X99280000Y-98186865D01*
X99590000Y-102300000D02*
X99600000Y-102290000D01*
X99069000Y-99839341D02*
X99280000Y-99628341D01*
X99069000Y-100320659D02*
X99069000Y-99839341D01*
%TO.N,/SPI_CS*%
X112880000Y-94150000D02*
X125500000Y-94150000D01*
X125500000Y-94150000D02*
X126520000Y-93130000D01*
%TO.N,/SPI_CLK*%
X112900000Y-93220000D02*
X125060000Y-93220000D01*
X125060000Y-93220000D02*
X125980000Y-92300000D01*
%TO.N,/SPI_MISO*%
X112950000Y-92260000D02*
X124700000Y-92260000D01*
X124700000Y-92260000D02*
X125540000Y-91420000D01*
%TO.N,/SPI_MOSI*%
X112920000Y-95180000D02*
X126320000Y-95180000D01*
X126320000Y-95180000D02*
X128130000Y-93370000D01*
%TO.N,/CRESET*%
X105110000Y-92150000D02*
X106560000Y-90700000D01*
X145406419Y-98469016D02*
X145406419Y-97855773D01*
X106560000Y-90700000D02*
X116600000Y-90700000D01*
X116600000Y-90700000D02*
X117450000Y-91550000D01*
X142585435Y-101290000D02*
X145406419Y-98469016D01*
X138760000Y-101290000D02*
X142585435Y-101290000D01*
%TO.N,/FPGA_P36*%
X102030000Y-104330000D02*
X100760000Y-103060000D01*
X102030000Y-104540000D02*
X102030000Y-104330000D01*
%TO.N,/SPI2_CS*%
X130600000Y-70210000D02*
X128310000Y-67920000D01*
X128310000Y-67920000D02*
X128310000Y-67305000D01*
%TO.N,/SPI2_MOSI*%
X129200000Y-70080000D02*
X127210000Y-68090000D01*
X127210000Y-68090000D02*
X127210000Y-67305000D01*
%TO.N,/SPI2_MISO*%
X122810000Y-68055000D02*
X122810000Y-67305000D01*
X133460000Y-75190000D02*
X134190000Y-74460000D01*
X133460000Y-76120000D02*
X130875000Y-76120000D01*
X133460000Y-76120000D02*
X133460000Y-75190000D01*
X130875000Y-76120000D02*
X122810000Y-68055000D01*
%TO.N,/SPI2_CLK*%
X131400000Y-73600000D02*
X130555000Y-73600000D01*
X125010000Y-68055000D02*
X125010000Y-67305000D01*
X130555000Y-73600000D02*
X125010000Y-68055000D01*
%TO.N,/USB D+*%
X130530000Y-110470000D02*
X130530000Y-115030000D01*
%TO.N,/USB D-*%
X132080000Y-109800000D02*
X131400000Y-110480000D01*
X131400000Y-110480000D02*
X131400000Y-114820000D01*
%TO.N,/SCL*%
X131283975Y-95693975D02*
X132890000Y-95693975D01*
X121470000Y-85880000D02*
X131283975Y-95693975D01*
%TO.N,/PIN_P4*%
X98357615Y-90452385D02*
X99580000Y-89230000D01*
X93357523Y-101005099D02*
X97070000Y-97292622D01*
X93357523Y-105831000D02*
X93357523Y-101005099D01*
X92088524Y-107099999D02*
X93357523Y-105831000D01*
X97070000Y-97292622D02*
X97070000Y-92695766D01*
X97070000Y-92695766D02*
X98357615Y-90452385D01*
%TO.N,/PIN_P2*%
X95779523Y-113569001D02*
X95779523Y-105260477D01*
X95779523Y-105260477D02*
X98030000Y-103010000D01*
X98030000Y-92830000D02*
X98770000Y-92090000D01*
X98030000Y-103010000D02*
X98030000Y-92830000D01*
X94628524Y-114720000D02*
X95779523Y-113569001D01*
%TO.N,/PIN_P3*%
X97570000Y-102956442D02*
X97570000Y-92483536D01*
X98113646Y-91536354D02*
X99240000Y-90410000D01*
X94628525Y-105897917D02*
X97570000Y-102956442D01*
X97570000Y-92483536D02*
X98113646Y-91536354D01*
X94628525Y-107099998D02*
X94628525Y-105897917D01*
%TO.N,/PIN_P20*%
X111829000Y-109741000D02*
X111829000Y-100721000D01*
X115552240Y-120470000D02*
X110291000Y-115208760D01*
X111829000Y-100721000D02*
X112990000Y-99560000D01*
X110291000Y-113581000D02*
X109140000Y-112430000D01*
X110291000Y-115208760D02*
X110291000Y-113581000D01*
X160530000Y-120470000D02*
X115552240Y-120470000D01*
X109140000Y-112430000D02*
X111829000Y-109741000D01*
%TO.N,/PIN_P19*%
X162820000Y-118660000D02*
X161990000Y-117830000D01*
X161990000Y-117830000D02*
X160740000Y-117830000D01*
X115471000Y-110561000D02*
X115471000Y-100331000D01*
X160740000Y-117830000D02*
X159370000Y-119200000D01*
X159370000Y-119200000D02*
X124110000Y-119200000D01*
X115471000Y-100331000D02*
X114490000Y-99350000D01*
X124110000Y-119200000D02*
X115471000Y-110561000D01*
%TO.N,/PIN_P18*%
X112150000Y-87660000D02*
X112510000Y-88020000D01*
X113821000Y-110071000D02*
X113821000Y-99061000D01*
X113821000Y-99061000D02*
X112915000Y-98155000D01*
X160590000Y-119820000D02*
X123560000Y-119820000D01*
X114909000Y-111169000D02*
X114909000Y-111159000D01*
X161265000Y-119145000D02*
X160590000Y-119820000D01*
X112150000Y-86160000D02*
X112150000Y-87660000D01*
X123560000Y-119820000D02*
X114909000Y-111169000D01*
X114909000Y-111159000D02*
X113821000Y-110071000D01*
%TO.N,/PIN_P46*%
X90937524Y-106236158D02*
X90937524Y-105102476D01*
X87090000Y-110083682D02*
X90937524Y-106236158D01*
X87090000Y-113808176D02*
X87090000Y-110083682D01*
X91830000Y-103130000D02*
X92130000Y-102830000D01*
X91830000Y-104210000D02*
X91830000Y-103130000D01*
X90937524Y-105102476D02*
X91830000Y-104210000D01*
X88001823Y-114719999D02*
X87090000Y-113808176D01*
X92088524Y-114719999D02*
X88001823Y-114719999D01*
%TO.N,/PIN_P44*%
X89488999Y-113568999D02*
X93239525Y-113568999D01*
X93239525Y-113568999D02*
X94628523Y-112180001D01*
X95790000Y-103870000D02*
X95790000Y-99500000D01*
X88250000Y-112970000D02*
X88890000Y-112970000D01*
X94410000Y-105250000D02*
X95790000Y-103870000D01*
X88890000Y-112970000D02*
X89488999Y-113568999D01*
%TO.N,/PIN_P10*%
X114447524Y-78111000D02*
X113058524Y-79500000D01*
X114780000Y-69300000D02*
X114447524Y-69632476D01*
X114447524Y-69632476D02*
X114447524Y-78111000D01*
%TO.N,/PIN_P21*%
X106393862Y-108320000D02*
X109451000Y-105262862D01*
X105600000Y-108320000D02*
X106393862Y-108320000D01*
X107419000Y-95321000D02*
X108850000Y-93890000D01*
X107419000Y-95880659D02*
X107419000Y-95321000D01*
X111350000Y-83748524D02*
X113058524Y-82040000D01*
X109451000Y-97912659D02*
X107419000Y-95880659D01*
X109451000Y-105262862D02*
X109451000Y-97912659D01*
X111350000Y-89420000D02*
X111350000Y-83748524D01*
%TO.N,/PIN_P6*%
X103770000Y-88810000D02*
X103770000Y-85180000D01*
X111990000Y-76960000D02*
X113058524Y-76960000D01*
X103770000Y-85180000D02*
X111990000Y-76960000D01*
X103300000Y-89280000D02*
X103770000Y-88810000D01*
%TO.N,/PIN_P9*%
X119080000Y-72670000D02*
X119080000Y-73478524D01*
X119080000Y-73478524D02*
X115598524Y-76960000D01*
%TO.N,/PIN_P47*%
X89380000Y-109471475D02*
X89380000Y-109290000D01*
X90030000Y-106130000D02*
X90030000Y-105546138D01*
X90030000Y-105546138D02*
X91502000Y-104074138D01*
X91502000Y-104074138D02*
X91502000Y-102396760D01*
X94910000Y-98988760D02*
X94910000Y-97630000D01*
X92088523Y-112179998D02*
X89380000Y-109471475D01*
X89090000Y-107070000D02*
X90030000Y-106130000D01*
X91502000Y-102396760D02*
X94910000Y-98988760D01*
%TO.N,/PIN_P13*%
X110599000Y-100272659D02*
X111920000Y-98951659D01*
X109140000Y-114970000D02*
X107989000Y-113819000D01*
X110599000Y-104578724D02*
X110599000Y-100272659D01*
X111920000Y-97930000D02*
X112890000Y-96960000D01*
X107989000Y-107188724D02*
X110599000Y-104578724D01*
X107989000Y-113819000D02*
X107989000Y-107188724D01*
X111920000Y-98951659D02*
X111920000Y-97930000D01*
%TO.N,Net-(U3-PWRGD)*%
X140021631Y-105016000D02*
X142667631Y-102370000D01*
X124890000Y-112000000D02*
X131874000Y-105016000D01*
X154140000Y-110490000D02*
X154140000Y-114880000D01*
X149190000Y-105540000D02*
X154140000Y-110490000D01*
X154140000Y-114880000D02*
X154770000Y-115510000D01*
X131874000Y-105016000D02*
X140021631Y-105016000D01*
X142667631Y-102370000D02*
X143680000Y-102370000D01*
%TD*%
M02*
