%TF.GenerationSoftware,KiCad,Pcbnew,9.0.4*%
%TF.CreationDate,2025-10-26T18:47:36+01:00*%
%TF.ProjectId,esp32_fpga,65737033-325f-4667-9067-612e6b696361,rev?*%
%TF.SameCoordinates,Original*%
%TF.FileFunction,Legend,Bot*%
%TF.FilePolarity,Positive*%
%FSLAX46Y46*%
G04 Gerber Fmt 4.6, Leading zero omitted, Abs format (unit mm)*
G04 Created by KiCad (PCBNEW 9.0.4) date 2025-10-26 18:47:36*
%MOMM*%
%LPD*%
G01*
G04 APERTURE LIST*
%ADD10C,0.300000*%
%ADD11C,0.250000*%
%ADD12C,0.150000*%
%ADD13C,0.254000*%
%ADD14C,0.080430*%
%ADD15C,0.120000*%
%ADD16C,0.100000*%
%ADD17C,0.127000*%
%ADD18C,0.200000*%
G04 APERTURE END LIST*
D10*
X150835489Y-123449400D02*
X149692632Y-123449400D01*
X150264060Y-124020828D02*
X150264060Y-122877971D01*
X140505489Y-123669400D02*
X139362632Y-123669400D01*
D11*
X138055380Y-124087431D02*
X137245857Y-124087431D01*
X137245857Y-124087431D02*
X137150619Y-124039812D01*
X137150619Y-124039812D02*
X137103000Y-123992193D01*
X137103000Y-123992193D02*
X137055380Y-123896955D01*
X137055380Y-123896955D02*
X137055380Y-123706479D01*
X137055380Y-123706479D02*
X137103000Y-123611241D01*
X137103000Y-123611241D02*
X137150619Y-123563622D01*
X137150619Y-123563622D02*
X137245857Y-123516003D01*
X137245857Y-123516003D02*
X138055380Y-123516003D01*
X137103000Y-123087431D02*
X137055380Y-122944574D01*
X137055380Y-122944574D02*
X137055380Y-122706479D01*
X137055380Y-122706479D02*
X137103000Y-122611241D01*
X137103000Y-122611241D02*
X137150619Y-122563622D01*
X137150619Y-122563622D02*
X137245857Y-122516003D01*
X137245857Y-122516003D02*
X137341095Y-122516003D01*
X137341095Y-122516003D02*
X137436333Y-122563622D01*
X137436333Y-122563622D02*
X137483952Y-122611241D01*
X137483952Y-122611241D02*
X137531571Y-122706479D01*
X137531571Y-122706479D02*
X137579190Y-122896955D01*
X137579190Y-122896955D02*
X137626809Y-122992193D01*
X137626809Y-122992193D02*
X137674428Y-123039812D01*
X137674428Y-123039812D02*
X137769666Y-123087431D01*
X137769666Y-123087431D02*
X137864904Y-123087431D01*
X137864904Y-123087431D02*
X137960142Y-123039812D01*
X137960142Y-123039812D02*
X138007761Y-122992193D01*
X138007761Y-122992193D02*
X138055380Y-122896955D01*
X138055380Y-122896955D02*
X138055380Y-122658860D01*
X138055380Y-122658860D02*
X138007761Y-122516003D01*
X137579190Y-121754098D02*
X137531571Y-121611241D01*
X137531571Y-121611241D02*
X137483952Y-121563622D01*
X137483952Y-121563622D02*
X137388714Y-121516003D01*
X137388714Y-121516003D02*
X137245857Y-121516003D01*
X137245857Y-121516003D02*
X137150619Y-121563622D01*
X137150619Y-121563622D02*
X137103000Y-121611241D01*
X137103000Y-121611241D02*
X137055380Y-121706479D01*
X137055380Y-121706479D02*
X137055380Y-122087431D01*
X137055380Y-122087431D02*
X138055380Y-122087431D01*
X138055380Y-122087431D02*
X138055380Y-121754098D01*
X138055380Y-121754098D02*
X138007761Y-121658860D01*
X138007761Y-121658860D02*
X137960142Y-121611241D01*
X137960142Y-121611241D02*
X137864904Y-121563622D01*
X137864904Y-121563622D02*
X137769666Y-121563622D01*
X137769666Y-121563622D02*
X137674428Y-121611241D01*
X137674428Y-121611241D02*
X137626809Y-121658860D01*
X137626809Y-121658860D02*
X137579190Y-121754098D01*
X137579190Y-121754098D02*
X137579190Y-122087431D01*
X136960142Y-121325527D02*
X136960142Y-120563622D01*
X137055380Y-120325526D02*
X138055380Y-120325526D01*
X138055380Y-120325526D02*
X138055380Y-119944574D01*
X138055380Y-119944574D02*
X138007761Y-119849336D01*
X138007761Y-119849336D02*
X137960142Y-119801717D01*
X137960142Y-119801717D02*
X137864904Y-119754098D01*
X137864904Y-119754098D02*
X137722047Y-119754098D01*
X137722047Y-119754098D02*
X137626809Y-119801717D01*
X137626809Y-119801717D02*
X137579190Y-119849336D01*
X137579190Y-119849336D02*
X137531571Y-119944574D01*
X137531571Y-119944574D02*
X137531571Y-120325526D01*
X138055380Y-119420764D02*
X137055380Y-119182669D01*
X137055380Y-119182669D02*
X137769666Y-118992193D01*
X137769666Y-118992193D02*
X137055380Y-118801717D01*
X137055380Y-118801717D02*
X138055380Y-118563622D01*
X137055380Y-117611241D02*
X137531571Y-117944574D01*
X137055380Y-118182669D02*
X138055380Y-118182669D01*
X138055380Y-118182669D02*
X138055380Y-117801717D01*
X138055380Y-117801717D02*
X138007761Y-117706479D01*
X138007761Y-117706479D02*
X137960142Y-117658860D01*
X137960142Y-117658860D02*
X137864904Y-117611241D01*
X137864904Y-117611241D02*
X137722047Y-117611241D01*
X137722047Y-117611241D02*
X137626809Y-117658860D01*
X137626809Y-117658860D02*
X137579190Y-117706479D01*
X137579190Y-117706479D02*
X137531571Y-117801717D01*
X137531571Y-117801717D02*
X137531571Y-118182669D01*
D10*
X151468346Y-101290828D02*
X151968346Y-100576542D01*
X152325489Y-101290828D02*
X152325489Y-99790828D01*
X152325489Y-99790828D02*
X151754060Y-99790828D01*
X151754060Y-99790828D02*
X151611203Y-99862257D01*
X151611203Y-99862257D02*
X151539774Y-99933685D01*
X151539774Y-99933685D02*
X151468346Y-100076542D01*
X151468346Y-100076542D02*
X151468346Y-100290828D01*
X151468346Y-100290828D02*
X151539774Y-100433685D01*
X151539774Y-100433685D02*
X151611203Y-100505114D01*
X151611203Y-100505114D02*
X151754060Y-100576542D01*
X151754060Y-100576542D02*
X152325489Y-100576542D01*
X150896917Y-101219400D02*
X150682632Y-101290828D01*
X150682632Y-101290828D02*
X150325489Y-101290828D01*
X150325489Y-101290828D02*
X150182632Y-101219400D01*
X150182632Y-101219400D02*
X150111203Y-101147971D01*
X150111203Y-101147971D02*
X150039774Y-101005114D01*
X150039774Y-101005114D02*
X150039774Y-100862257D01*
X150039774Y-100862257D02*
X150111203Y-100719400D01*
X150111203Y-100719400D02*
X150182632Y-100647971D01*
X150182632Y-100647971D02*
X150325489Y-100576542D01*
X150325489Y-100576542D02*
X150611203Y-100505114D01*
X150611203Y-100505114D02*
X150754060Y-100433685D01*
X150754060Y-100433685D02*
X150825489Y-100362257D01*
X150825489Y-100362257D02*
X150896917Y-100219400D01*
X150896917Y-100219400D02*
X150896917Y-100076542D01*
X150896917Y-100076542D02*
X150825489Y-99933685D01*
X150825489Y-99933685D02*
X150754060Y-99862257D01*
X150754060Y-99862257D02*
X150611203Y-99790828D01*
X150611203Y-99790828D02*
X150254060Y-99790828D01*
X150254060Y-99790828D02*
X150039774Y-99862257D01*
X149611203Y-99790828D02*
X148754061Y-99790828D01*
X149182632Y-101290828D02*
X149182632Y-99790828D01*
X126145489Y-71455114D02*
X125931203Y-71526542D01*
X125931203Y-71526542D02*
X125859774Y-71597971D01*
X125859774Y-71597971D02*
X125788346Y-71740828D01*
X125788346Y-71740828D02*
X125788346Y-71955114D01*
X125788346Y-71955114D02*
X125859774Y-72097971D01*
X125859774Y-72097971D02*
X125931203Y-72169400D01*
X125931203Y-72169400D02*
X126074060Y-72240828D01*
X126074060Y-72240828D02*
X126645489Y-72240828D01*
X126645489Y-72240828D02*
X126645489Y-70740828D01*
X126645489Y-70740828D02*
X126145489Y-70740828D01*
X126145489Y-70740828D02*
X126002632Y-70812257D01*
X126002632Y-70812257D02*
X125931203Y-70883685D01*
X125931203Y-70883685D02*
X125859774Y-71026542D01*
X125859774Y-71026542D02*
X125859774Y-71169400D01*
X125859774Y-71169400D02*
X125931203Y-71312257D01*
X125931203Y-71312257D02*
X126002632Y-71383685D01*
X126002632Y-71383685D02*
X126145489Y-71455114D01*
X126145489Y-71455114D02*
X126645489Y-71455114D01*
X124859774Y-70740828D02*
X124574060Y-70740828D01*
X124574060Y-70740828D02*
X124431203Y-70812257D01*
X124431203Y-70812257D02*
X124288346Y-70955114D01*
X124288346Y-70955114D02*
X124216917Y-71240828D01*
X124216917Y-71240828D02*
X124216917Y-71740828D01*
X124216917Y-71740828D02*
X124288346Y-72026542D01*
X124288346Y-72026542D02*
X124431203Y-72169400D01*
X124431203Y-72169400D02*
X124574060Y-72240828D01*
X124574060Y-72240828D02*
X124859774Y-72240828D01*
X124859774Y-72240828D02*
X125002632Y-72169400D01*
X125002632Y-72169400D02*
X125145489Y-72026542D01*
X125145489Y-72026542D02*
X125216917Y-71740828D01*
X125216917Y-71740828D02*
X125216917Y-71240828D01*
X125216917Y-71240828D02*
X125145489Y-70955114D01*
X125145489Y-70955114D02*
X125002632Y-70812257D01*
X125002632Y-70812257D02*
X124859774Y-70740828D01*
X123288345Y-70740828D02*
X123002631Y-70740828D01*
X123002631Y-70740828D02*
X122859774Y-70812257D01*
X122859774Y-70812257D02*
X122716917Y-70955114D01*
X122716917Y-70955114D02*
X122645488Y-71240828D01*
X122645488Y-71240828D02*
X122645488Y-71740828D01*
X122645488Y-71740828D02*
X122716917Y-72026542D01*
X122716917Y-72026542D02*
X122859774Y-72169400D01*
X122859774Y-72169400D02*
X123002631Y-72240828D01*
X123002631Y-72240828D02*
X123288345Y-72240828D01*
X123288345Y-72240828D02*
X123431203Y-72169400D01*
X123431203Y-72169400D02*
X123574060Y-72026542D01*
X123574060Y-72026542D02*
X123645488Y-71740828D01*
X123645488Y-71740828D02*
X123645488Y-71240828D01*
X123645488Y-71240828D02*
X123574060Y-70955114D01*
X123574060Y-70955114D02*
X123431203Y-70812257D01*
X123431203Y-70812257D02*
X123288345Y-70740828D01*
X122216916Y-70740828D02*
X121359774Y-70740828D01*
X121788345Y-72240828D02*
X121788345Y-70740828D01*
D12*
X110203332Y-117894819D02*
X110203332Y-116894819D01*
X110203332Y-116894819D02*
X109822380Y-116894819D01*
X109822380Y-116894819D02*
X109727142Y-116942438D01*
X109727142Y-116942438D02*
X109679523Y-116990057D01*
X109679523Y-116990057D02*
X109631904Y-117085295D01*
X109631904Y-117085295D02*
X109631904Y-117228152D01*
X109631904Y-117228152D02*
X109679523Y-117323390D01*
X109679523Y-117323390D02*
X109727142Y-117371009D01*
X109727142Y-117371009D02*
X109822380Y-117418628D01*
X109822380Y-117418628D02*
X110203332Y-117418628D01*
X109203332Y-117894819D02*
X109203332Y-116894819D01*
X109203332Y-116894819D02*
X108869999Y-117609104D01*
X108869999Y-117609104D02*
X108536666Y-116894819D01*
X108536666Y-116894819D02*
X108536666Y-117894819D01*
X107869999Y-116894819D02*
X107679523Y-116894819D01*
X107679523Y-116894819D02*
X107584285Y-116942438D01*
X107584285Y-116942438D02*
X107489047Y-117037676D01*
X107489047Y-117037676D02*
X107441428Y-117228152D01*
X107441428Y-117228152D02*
X107441428Y-117561485D01*
X107441428Y-117561485D02*
X107489047Y-117751961D01*
X107489047Y-117751961D02*
X107584285Y-117847200D01*
X107584285Y-117847200D02*
X107679523Y-117894819D01*
X107679523Y-117894819D02*
X107869999Y-117894819D01*
X107869999Y-117894819D02*
X107965237Y-117847200D01*
X107965237Y-117847200D02*
X108060475Y-117751961D01*
X108060475Y-117751961D02*
X108108094Y-117561485D01*
X108108094Y-117561485D02*
X108108094Y-117228152D01*
X108108094Y-117228152D02*
X108060475Y-117037676D01*
X108060475Y-117037676D02*
X107965237Y-116942438D01*
X107965237Y-116942438D02*
X107869999Y-116894819D01*
X107012856Y-117894819D02*
X107012856Y-116894819D01*
X107012856Y-116894819D02*
X106774761Y-116894819D01*
X106774761Y-116894819D02*
X106631904Y-116942438D01*
X106631904Y-116942438D02*
X106536666Y-117037676D01*
X106536666Y-117037676D02*
X106489047Y-117132914D01*
X106489047Y-117132914D02*
X106441428Y-117323390D01*
X106441428Y-117323390D02*
X106441428Y-117466247D01*
X106441428Y-117466247D02*
X106489047Y-117656723D01*
X106489047Y-117656723D02*
X106536666Y-117751961D01*
X106536666Y-117751961D02*
X106631904Y-117847200D01*
X106631904Y-117847200D02*
X106774761Y-117894819D01*
X106774761Y-117894819D02*
X107012856Y-117894819D01*
X106108094Y-116894819D02*
X105489047Y-116894819D01*
X105489047Y-116894819D02*
X105822380Y-117275771D01*
X105822380Y-117275771D02*
X105679523Y-117275771D01*
X105679523Y-117275771D02*
X105584285Y-117323390D01*
X105584285Y-117323390D02*
X105536666Y-117371009D01*
X105536666Y-117371009D02*
X105489047Y-117466247D01*
X105489047Y-117466247D02*
X105489047Y-117704342D01*
X105489047Y-117704342D02*
X105536666Y-117799580D01*
X105536666Y-117799580D02*
X105584285Y-117847200D01*
X105584285Y-117847200D02*
X105679523Y-117894819D01*
X105679523Y-117894819D02*
X105965237Y-117894819D01*
X105965237Y-117894819D02*
X106060475Y-117847200D01*
X106060475Y-117847200D02*
X106108094Y-117799580D01*
X90073343Y-111116666D02*
X89073343Y-111116666D01*
X89073343Y-111116666D02*
X89073343Y-111497618D01*
X89073343Y-111497618D02*
X89120962Y-111592856D01*
X89120962Y-111592856D02*
X89168581Y-111640475D01*
X89168581Y-111640475D02*
X89263819Y-111688094D01*
X89263819Y-111688094D02*
X89406676Y-111688094D01*
X89406676Y-111688094D02*
X89501914Y-111640475D01*
X89501914Y-111640475D02*
X89549533Y-111592856D01*
X89549533Y-111592856D02*
X89597152Y-111497618D01*
X89597152Y-111497618D02*
X89597152Y-111116666D01*
X90073343Y-112116666D02*
X89073343Y-112116666D01*
X89073343Y-112116666D02*
X89787628Y-112449999D01*
X89787628Y-112449999D02*
X89073343Y-112783332D01*
X89073343Y-112783332D02*
X90073343Y-112783332D01*
X89073343Y-113449999D02*
X89073343Y-113640475D01*
X89073343Y-113640475D02*
X89120962Y-113735713D01*
X89120962Y-113735713D02*
X89216200Y-113830951D01*
X89216200Y-113830951D02*
X89406676Y-113878570D01*
X89406676Y-113878570D02*
X89740009Y-113878570D01*
X89740009Y-113878570D02*
X89930485Y-113830951D01*
X89930485Y-113830951D02*
X90025724Y-113735713D01*
X90025724Y-113735713D02*
X90073343Y-113640475D01*
X90073343Y-113640475D02*
X90073343Y-113449999D01*
X90073343Y-113449999D02*
X90025724Y-113354761D01*
X90025724Y-113354761D02*
X89930485Y-113259523D01*
X89930485Y-113259523D02*
X89740009Y-113211904D01*
X89740009Y-113211904D02*
X89406676Y-113211904D01*
X89406676Y-113211904D02*
X89216200Y-113259523D01*
X89216200Y-113259523D02*
X89120962Y-113354761D01*
X89120962Y-113354761D02*
X89073343Y-113449999D01*
X90073343Y-114307142D02*
X89073343Y-114307142D01*
X89073343Y-114307142D02*
X89073343Y-114545237D01*
X89073343Y-114545237D02*
X89120962Y-114688094D01*
X89120962Y-114688094D02*
X89216200Y-114783332D01*
X89216200Y-114783332D02*
X89311438Y-114830951D01*
X89311438Y-114830951D02*
X89501914Y-114878570D01*
X89501914Y-114878570D02*
X89644771Y-114878570D01*
X89644771Y-114878570D02*
X89835247Y-114830951D01*
X89835247Y-114830951D02*
X89930485Y-114783332D01*
X89930485Y-114783332D02*
X90025724Y-114688094D01*
X90025724Y-114688094D02*
X90073343Y-114545237D01*
X90073343Y-114545237D02*
X90073343Y-114307142D01*
X89168581Y-115259523D02*
X89120962Y-115307142D01*
X89120962Y-115307142D02*
X89073343Y-115402380D01*
X89073343Y-115402380D02*
X89073343Y-115640475D01*
X89073343Y-115640475D02*
X89120962Y-115735713D01*
X89120962Y-115735713D02*
X89168581Y-115783332D01*
X89168581Y-115783332D02*
X89263819Y-115830951D01*
X89263819Y-115830951D02*
X89359057Y-115830951D01*
X89359057Y-115830951D02*
X89501914Y-115783332D01*
X89501914Y-115783332D02*
X90073343Y-115211904D01*
X90073343Y-115211904D02*
X90073343Y-115830951D01*
X118523343Y-75896667D02*
X117523343Y-75896667D01*
X117523343Y-75896667D02*
X117523343Y-76277619D01*
X117523343Y-76277619D02*
X117570962Y-76372857D01*
X117570962Y-76372857D02*
X117618581Y-76420476D01*
X117618581Y-76420476D02*
X117713819Y-76468095D01*
X117713819Y-76468095D02*
X117856676Y-76468095D01*
X117856676Y-76468095D02*
X117951914Y-76420476D01*
X117951914Y-76420476D02*
X117999533Y-76372857D01*
X117999533Y-76372857D02*
X118047152Y-76277619D01*
X118047152Y-76277619D02*
X118047152Y-75896667D01*
X118523343Y-76896667D02*
X117523343Y-76896667D01*
X117523343Y-76896667D02*
X118237628Y-77230000D01*
X118237628Y-77230000D02*
X117523343Y-77563333D01*
X117523343Y-77563333D02*
X118523343Y-77563333D01*
X117523343Y-78230000D02*
X117523343Y-78420476D01*
X117523343Y-78420476D02*
X117570962Y-78515714D01*
X117570962Y-78515714D02*
X117666200Y-78610952D01*
X117666200Y-78610952D02*
X117856676Y-78658571D01*
X117856676Y-78658571D02*
X118190009Y-78658571D01*
X118190009Y-78658571D02*
X118380485Y-78610952D01*
X118380485Y-78610952D02*
X118475724Y-78515714D01*
X118475724Y-78515714D02*
X118523343Y-78420476D01*
X118523343Y-78420476D02*
X118523343Y-78230000D01*
X118523343Y-78230000D02*
X118475724Y-78134762D01*
X118475724Y-78134762D02*
X118380485Y-78039524D01*
X118380485Y-78039524D02*
X118190009Y-77991905D01*
X118190009Y-77991905D02*
X117856676Y-77991905D01*
X117856676Y-77991905D02*
X117666200Y-78039524D01*
X117666200Y-78039524D02*
X117570962Y-78134762D01*
X117570962Y-78134762D02*
X117523343Y-78230000D01*
X118523343Y-79087143D02*
X117523343Y-79087143D01*
X117523343Y-79087143D02*
X117523343Y-79325238D01*
X117523343Y-79325238D02*
X117570962Y-79468095D01*
X117570962Y-79468095D02*
X117666200Y-79563333D01*
X117666200Y-79563333D02*
X117761438Y-79610952D01*
X117761438Y-79610952D02*
X117951914Y-79658571D01*
X117951914Y-79658571D02*
X118094771Y-79658571D01*
X118094771Y-79658571D02*
X118285247Y-79610952D01*
X118285247Y-79610952D02*
X118380485Y-79563333D01*
X118380485Y-79563333D02*
X118475724Y-79468095D01*
X118475724Y-79468095D02*
X118523343Y-79325238D01*
X118523343Y-79325238D02*
X118523343Y-79087143D01*
X118523343Y-80610952D02*
X118523343Y-80039524D01*
X118523343Y-80325238D02*
X117523343Y-80325238D01*
X117523343Y-80325238D02*
X117666200Y-80230000D01*
X117666200Y-80230000D02*
X117761438Y-80134762D01*
X117761438Y-80134762D02*
X117809057Y-80039524D01*
X116124819Y-79526666D02*
X116839104Y-79526666D01*
X116839104Y-79526666D02*
X116981961Y-79479047D01*
X116981961Y-79479047D02*
X117077200Y-79383809D01*
X117077200Y-79383809D02*
X117124819Y-79240952D01*
X117124819Y-79240952D02*
X117124819Y-79145714D01*
X116458152Y-80431428D02*
X117124819Y-80431428D01*
X116077200Y-80193333D02*
X116791485Y-79955238D01*
X116791485Y-79955238D02*
X116791485Y-80574285D01*
X138194819Y-68070380D02*
X137718628Y-67737047D01*
X138194819Y-67498952D02*
X137194819Y-67498952D01*
X137194819Y-67498952D02*
X137194819Y-67879904D01*
X137194819Y-67879904D02*
X137242438Y-67975142D01*
X137242438Y-67975142D02*
X137290057Y-68022761D01*
X137290057Y-68022761D02*
X137385295Y-68070380D01*
X137385295Y-68070380D02*
X137528152Y-68070380D01*
X137528152Y-68070380D02*
X137623390Y-68022761D01*
X137623390Y-68022761D02*
X137671009Y-67975142D01*
X137671009Y-67975142D02*
X137718628Y-67879904D01*
X137718628Y-67879904D02*
X137718628Y-67498952D01*
X138194819Y-69022761D02*
X138194819Y-68451333D01*
X138194819Y-68737047D02*
X137194819Y-68737047D01*
X137194819Y-68737047D02*
X137337676Y-68641809D01*
X137337676Y-68641809D02*
X137432914Y-68546571D01*
X137432914Y-68546571D02*
X137480533Y-68451333D01*
X137528152Y-69879904D02*
X138194819Y-69879904D01*
X137147200Y-69641809D02*
X137861485Y-69403714D01*
X137861485Y-69403714D02*
X137861485Y-70022761D01*
X125506666Y-48539580D02*
X125554285Y-48587200D01*
X125554285Y-48587200D02*
X125697142Y-48634819D01*
X125697142Y-48634819D02*
X125792380Y-48634819D01*
X125792380Y-48634819D02*
X125935237Y-48587200D01*
X125935237Y-48587200D02*
X126030475Y-48491961D01*
X126030475Y-48491961D02*
X126078094Y-48396723D01*
X126078094Y-48396723D02*
X126125713Y-48206247D01*
X126125713Y-48206247D02*
X126125713Y-48063390D01*
X126125713Y-48063390D02*
X126078094Y-47872914D01*
X126078094Y-47872914D02*
X126030475Y-47777676D01*
X126030475Y-47777676D02*
X125935237Y-47682438D01*
X125935237Y-47682438D02*
X125792380Y-47634819D01*
X125792380Y-47634819D02*
X125697142Y-47634819D01*
X125697142Y-47634819D02*
X125554285Y-47682438D01*
X125554285Y-47682438D02*
X125506666Y-47730057D01*
X124649523Y-47968152D02*
X124649523Y-48634819D01*
X124887618Y-47587200D02*
X125125713Y-48301485D01*
X125125713Y-48301485D02*
X124506666Y-48301485D01*
X147633762Y-112080057D02*
X147729000Y-112032438D01*
X147729000Y-112032438D02*
X147824238Y-111937200D01*
X147824238Y-111937200D02*
X147967095Y-111794342D01*
X147967095Y-111794342D02*
X148062333Y-111746723D01*
X148062333Y-111746723D02*
X148157571Y-111746723D01*
X148109952Y-111984819D02*
X148205190Y-111937200D01*
X148205190Y-111937200D02*
X148300428Y-111841961D01*
X148300428Y-111841961D02*
X148348047Y-111651485D01*
X148348047Y-111651485D02*
X148348047Y-111318152D01*
X148348047Y-111318152D02*
X148300428Y-111127676D01*
X148300428Y-111127676D02*
X148205190Y-111032438D01*
X148205190Y-111032438D02*
X148109952Y-110984819D01*
X148109952Y-110984819D02*
X147919476Y-110984819D01*
X147919476Y-110984819D02*
X147824238Y-111032438D01*
X147824238Y-111032438D02*
X147729000Y-111127676D01*
X147729000Y-111127676D02*
X147681381Y-111318152D01*
X147681381Y-111318152D02*
X147681381Y-111651485D01*
X147681381Y-111651485D02*
X147729000Y-111841961D01*
X147729000Y-111841961D02*
X147824238Y-111937200D01*
X147824238Y-111937200D02*
X147919476Y-111984819D01*
X147919476Y-111984819D02*
X148109952Y-111984819D01*
X146729000Y-111984819D02*
X147300428Y-111984819D01*
X147014714Y-111984819D02*
X147014714Y-110984819D01*
X147014714Y-110984819D02*
X147109952Y-111127676D01*
X147109952Y-111127676D02*
X147205190Y-111222914D01*
X147205190Y-111222914D02*
X147300428Y-111270533D01*
X116282857Y-98324819D02*
X116616190Y-97848628D01*
X116854285Y-98324819D02*
X116854285Y-97324819D01*
X116854285Y-97324819D02*
X116473333Y-97324819D01*
X116473333Y-97324819D02*
X116378095Y-97372438D01*
X116378095Y-97372438D02*
X116330476Y-97420057D01*
X116330476Y-97420057D02*
X116282857Y-97515295D01*
X116282857Y-97515295D02*
X116282857Y-97658152D01*
X116282857Y-97658152D02*
X116330476Y-97753390D01*
X116330476Y-97753390D02*
X116378095Y-97801009D01*
X116378095Y-97801009D02*
X116473333Y-97848628D01*
X116473333Y-97848628D02*
X116854285Y-97848628D01*
X115330476Y-98324819D02*
X115901904Y-98324819D01*
X115616190Y-98324819D02*
X115616190Y-97324819D01*
X115616190Y-97324819D02*
X115711428Y-97467676D01*
X115711428Y-97467676D02*
X115806666Y-97562914D01*
X115806666Y-97562914D02*
X115901904Y-97610533D01*
X114949523Y-97420057D02*
X114901904Y-97372438D01*
X114901904Y-97372438D02*
X114806666Y-97324819D01*
X114806666Y-97324819D02*
X114568571Y-97324819D01*
X114568571Y-97324819D02*
X114473333Y-97372438D01*
X114473333Y-97372438D02*
X114425714Y-97420057D01*
X114425714Y-97420057D02*
X114378095Y-97515295D01*
X114378095Y-97515295D02*
X114378095Y-97610533D01*
X114378095Y-97610533D02*
X114425714Y-97753390D01*
X114425714Y-97753390D02*
X114997142Y-98324819D01*
X114997142Y-98324819D02*
X114378095Y-98324819D01*
X145660428Y-106882319D02*
X145660428Y-107691842D01*
X145660428Y-107691842D02*
X145612809Y-107787080D01*
X145612809Y-107787080D02*
X145565190Y-107834700D01*
X145565190Y-107834700D02*
X145469952Y-107882319D01*
X145469952Y-107882319D02*
X145279476Y-107882319D01*
X145279476Y-107882319D02*
X145184238Y-107834700D01*
X145184238Y-107834700D02*
X145136619Y-107787080D01*
X145136619Y-107787080D02*
X145089000Y-107691842D01*
X145089000Y-107691842D02*
X145089000Y-106882319D01*
X144708047Y-106882319D02*
X144041381Y-106882319D01*
X144041381Y-106882319D02*
X144469952Y-107882319D01*
X99774819Y-120021905D02*
X98774819Y-120021905D01*
X98774819Y-120021905D02*
X98774819Y-120260000D01*
X98774819Y-120260000D02*
X98822438Y-120402857D01*
X98822438Y-120402857D02*
X98917676Y-120498095D01*
X98917676Y-120498095D02*
X99012914Y-120545714D01*
X99012914Y-120545714D02*
X99203390Y-120593333D01*
X99203390Y-120593333D02*
X99346247Y-120593333D01*
X99346247Y-120593333D02*
X99536723Y-120545714D01*
X99536723Y-120545714D02*
X99631961Y-120498095D01*
X99631961Y-120498095D02*
X99727200Y-120402857D01*
X99727200Y-120402857D02*
X99774819Y-120260000D01*
X99774819Y-120260000D02*
X99774819Y-120021905D01*
X99774819Y-121545714D02*
X99774819Y-120974286D01*
X99774819Y-121260000D02*
X98774819Y-121260000D01*
X98774819Y-121260000D02*
X98917676Y-121164762D01*
X98917676Y-121164762D02*
X99012914Y-121069524D01*
X99012914Y-121069524D02*
X99060533Y-120974286D01*
X155073343Y-112759405D02*
X154073343Y-112759405D01*
X154073343Y-112759405D02*
X154073343Y-112997500D01*
X154073343Y-112997500D02*
X154120962Y-113140357D01*
X154120962Y-113140357D02*
X154216200Y-113235595D01*
X154216200Y-113235595D02*
X154311438Y-113283214D01*
X154311438Y-113283214D02*
X154501914Y-113330833D01*
X154501914Y-113330833D02*
X154644771Y-113330833D01*
X154644771Y-113330833D02*
X154835247Y-113283214D01*
X154835247Y-113283214D02*
X154930485Y-113235595D01*
X154930485Y-113235595D02*
X155025724Y-113140357D01*
X155025724Y-113140357D02*
X155073343Y-112997500D01*
X155073343Y-112997500D02*
X155073343Y-112759405D01*
X154168581Y-113711786D02*
X154120962Y-113759405D01*
X154120962Y-113759405D02*
X154073343Y-113854643D01*
X154073343Y-113854643D02*
X154073343Y-114092738D01*
X154073343Y-114092738D02*
X154120962Y-114187976D01*
X154120962Y-114187976D02*
X154168581Y-114235595D01*
X154168581Y-114235595D02*
X154263819Y-114283214D01*
X154263819Y-114283214D02*
X154359057Y-114283214D01*
X154359057Y-114283214D02*
X154501914Y-114235595D01*
X154501914Y-114235595D02*
X155073343Y-113664167D01*
X155073343Y-113664167D02*
X155073343Y-114283214D01*
X137854819Y-64970143D02*
X136854819Y-64970143D01*
X136854819Y-64970143D02*
X136854819Y-65208238D01*
X136854819Y-65208238D02*
X136902438Y-65351095D01*
X136902438Y-65351095D02*
X136997676Y-65446333D01*
X136997676Y-65446333D02*
X137092914Y-65493952D01*
X137092914Y-65493952D02*
X137283390Y-65541571D01*
X137283390Y-65541571D02*
X137426247Y-65541571D01*
X137426247Y-65541571D02*
X137616723Y-65493952D01*
X137616723Y-65493952D02*
X137711961Y-65446333D01*
X137711961Y-65446333D02*
X137807200Y-65351095D01*
X137807200Y-65351095D02*
X137854819Y-65208238D01*
X137854819Y-65208238D02*
X137854819Y-64970143D01*
X136854819Y-65874905D02*
X136854819Y-66493952D01*
X136854819Y-66493952D02*
X137235771Y-66160619D01*
X137235771Y-66160619D02*
X137235771Y-66303476D01*
X137235771Y-66303476D02*
X137283390Y-66398714D01*
X137283390Y-66398714D02*
X137331009Y-66446333D01*
X137331009Y-66446333D02*
X137426247Y-66493952D01*
X137426247Y-66493952D02*
X137664342Y-66493952D01*
X137664342Y-66493952D02*
X137759580Y-66446333D01*
X137759580Y-66446333D02*
X137807200Y-66398714D01*
X137807200Y-66398714D02*
X137854819Y-66303476D01*
X137854819Y-66303476D02*
X137854819Y-66017762D01*
X137854819Y-66017762D02*
X137807200Y-65922524D01*
X137807200Y-65922524D02*
X137759580Y-65874905D01*
X157497928Y-110404819D02*
X157497928Y-111214342D01*
X157497928Y-111214342D02*
X157450309Y-111309580D01*
X157450309Y-111309580D02*
X157402690Y-111357200D01*
X157402690Y-111357200D02*
X157307452Y-111404819D01*
X157307452Y-111404819D02*
X157116976Y-111404819D01*
X157116976Y-111404819D02*
X157021738Y-111357200D01*
X157021738Y-111357200D02*
X156974119Y-111309580D01*
X156974119Y-111309580D02*
X156926500Y-111214342D01*
X156926500Y-111214342D02*
X156926500Y-110404819D01*
X156021738Y-110738152D02*
X156021738Y-111404819D01*
X156259833Y-110357200D02*
X156497928Y-111071485D01*
X156497928Y-111071485D02*
X155878881Y-111071485D01*
X84826666Y-121417319D02*
X85159999Y-120941128D01*
X85398094Y-121417319D02*
X85398094Y-120417319D01*
X85398094Y-120417319D02*
X85017142Y-120417319D01*
X85017142Y-120417319D02*
X84921904Y-120464938D01*
X84921904Y-120464938D02*
X84874285Y-120512557D01*
X84874285Y-120512557D02*
X84826666Y-120607795D01*
X84826666Y-120607795D02*
X84826666Y-120750652D01*
X84826666Y-120750652D02*
X84874285Y-120845890D01*
X84874285Y-120845890D02*
X84921904Y-120893509D01*
X84921904Y-120893509D02*
X85017142Y-120941128D01*
X85017142Y-120941128D02*
X85398094Y-120941128D01*
X83969523Y-120417319D02*
X84159999Y-120417319D01*
X84159999Y-120417319D02*
X84255237Y-120464938D01*
X84255237Y-120464938D02*
X84302856Y-120512557D01*
X84302856Y-120512557D02*
X84398094Y-120655414D01*
X84398094Y-120655414D02*
X84445713Y-120845890D01*
X84445713Y-120845890D02*
X84445713Y-121226842D01*
X84445713Y-121226842D02*
X84398094Y-121322080D01*
X84398094Y-121322080D02*
X84350475Y-121369700D01*
X84350475Y-121369700D02*
X84255237Y-121417319D01*
X84255237Y-121417319D02*
X84064761Y-121417319D01*
X84064761Y-121417319D02*
X83969523Y-121369700D01*
X83969523Y-121369700D02*
X83921904Y-121322080D01*
X83921904Y-121322080D02*
X83874285Y-121226842D01*
X83874285Y-121226842D02*
X83874285Y-120988747D01*
X83874285Y-120988747D02*
X83921904Y-120893509D01*
X83921904Y-120893509D02*
X83969523Y-120845890D01*
X83969523Y-120845890D02*
X84064761Y-120798271D01*
X84064761Y-120798271D02*
X84255237Y-120798271D01*
X84255237Y-120798271D02*
X84350475Y-120845890D01*
X84350475Y-120845890D02*
X84398094Y-120893509D01*
X84398094Y-120893509D02*
X84445713Y-120988747D01*
X161052690Y-114539580D02*
X161100309Y-114587200D01*
X161100309Y-114587200D02*
X161243166Y-114634819D01*
X161243166Y-114634819D02*
X161338404Y-114634819D01*
X161338404Y-114634819D02*
X161481261Y-114587200D01*
X161481261Y-114587200D02*
X161576499Y-114491961D01*
X161576499Y-114491961D02*
X161624118Y-114396723D01*
X161624118Y-114396723D02*
X161671737Y-114206247D01*
X161671737Y-114206247D02*
X161671737Y-114063390D01*
X161671737Y-114063390D02*
X161624118Y-113872914D01*
X161624118Y-113872914D02*
X161576499Y-113777676D01*
X161576499Y-113777676D02*
X161481261Y-113682438D01*
X161481261Y-113682438D02*
X161338404Y-113634819D01*
X161338404Y-113634819D02*
X161243166Y-113634819D01*
X161243166Y-113634819D02*
X161100309Y-113682438D01*
X161100309Y-113682438D02*
X161052690Y-113730057D01*
X160100309Y-114634819D02*
X160671737Y-114634819D01*
X160386023Y-114634819D02*
X160386023Y-113634819D01*
X160386023Y-113634819D02*
X160481261Y-113777676D01*
X160481261Y-113777676D02*
X160576499Y-113872914D01*
X160576499Y-113872914D02*
X160671737Y-113920533D01*
X101909580Y-93377142D02*
X101957200Y-93329523D01*
X101957200Y-93329523D02*
X102004819Y-93186666D01*
X102004819Y-93186666D02*
X102004819Y-93091428D01*
X102004819Y-93091428D02*
X101957200Y-92948571D01*
X101957200Y-92948571D02*
X101861961Y-92853333D01*
X101861961Y-92853333D02*
X101766723Y-92805714D01*
X101766723Y-92805714D02*
X101576247Y-92758095D01*
X101576247Y-92758095D02*
X101433390Y-92758095D01*
X101433390Y-92758095D02*
X101242914Y-92805714D01*
X101242914Y-92805714D02*
X101147676Y-92853333D01*
X101147676Y-92853333D02*
X101052438Y-92948571D01*
X101052438Y-92948571D02*
X101004819Y-93091428D01*
X101004819Y-93091428D02*
X101004819Y-93186666D01*
X101004819Y-93186666D02*
X101052438Y-93329523D01*
X101052438Y-93329523D02*
X101100057Y-93377142D01*
X102004819Y-94329523D02*
X102004819Y-93758095D01*
X102004819Y-94043809D02*
X101004819Y-94043809D01*
X101004819Y-94043809D02*
X101147676Y-93948571D01*
X101147676Y-93948571D02*
X101242914Y-93853333D01*
X101242914Y-93853333D02*
X101290533Y-93758095D01*
X101433390Y-94900952D02*
X101385771Y-94805714D01*
X101385771Y-94805714D02*
X101338152Y-94758095D01*
X101338152Y-94758095D02*
X101242914Y-94710476D01*
X101242914Y-94710476D02*
X101195295Y-94710476D01*
X101195295Y-94710476D02*
X101100057Y-94758095D01*
X101100057Y-94758095D02*
X101052438Y-94805714D01*
X101052438Y-94805714D02*
X101004819Y-94900952D01*
X101004819Y-94900952D02*
X101004819Y-95091428D01*
X101004819Y-95091428D02*
X101052438Y-95186666D01*
X101052438Y-95186666D02*
X101100057Y-95234285D01*
X101100057Y-95234285D02*
X101195295Y-95281904D01*
X101195295Y-95281904D02*
X101242914Y-95281904D01*
X101242914Y-95281904D02*
X101338152Y-95234285D01*
X101338152Y-95234285D02*
X101385771Y-95186666D01*
X101385771Y-95186666D02*
X101433390Y-95091428D01*
X101433390Y-95091428D02*
X101433390Y-94900952D01*
X101433390Y-94900952D02*
X101481009Y-94805714D01*
X101481009Y-94805714D02*
X101528628Y-94758095D01*
X101528628Y-94758095D02*
X101623866Y-94710476D01*
X101623866Y-94710476D02*
X101814342Y-94710476D01*
X101814342Y-94710476D02*
X101909580Y-94758095D01*
X101909580Y-94758095D02*
X101957200Y-94805714D01*
X101957200Y-94805714D02*
X102004819Y-94900952D01*
X102004819Y-94900952D02*
X102004819Y-95091428D01*
X102004819Y-95091428D02*
X101957200Y-95186666D01*
X101957200Y-95186666D02*
X101909580Y-95234285D01*
X101909580Y-95234285D02*
X101814342Y-95281904D01*
X101814342Y-95281904D02*
X101623866Y-95281904D01*
X101623866Y-95281904D02*
X101528628Y-95234285D01*
X101528628Y-95234285D02*
X101481009Y-95186666D01*
X101481009Y-95186666D02*
X101433390Y-95091428D01*
X124921904Y-119766819D02*
X124350476Y-119766819D01*
X124636190Y-120766819D02*
X124636190Y-119766819D01*
X124017142Y-120766819D02*
X124017142Y-119766819D01*
X124017142Y-119766819D02*
X123636190Y-119766819D01*
X123636190Y-119766819D02*
X123540952Y-119814438D01*
X123540952Y-119814438D02*
X123493333Y-119862057D01*
X123493333Y-119862057D02*
X123445714Y-119957295D01*
X123445714Y-119957295D02*
X123445714Y-120100152D01*
X123445714Y-120100152D02*
X123493333Y-120195390D01*
X123493333Y-120195390D02*
X123540952Y-120243009D01*
X123540952Y-120243009D02*
X123636190Y-120290628D01*
X123636190Y-120290628D02*
X124017142Y-120290628D01*
X122874285Y-120195390D02*
X122969523Y-120147771D01*
X122969523Y-120147771D02*
X123017142Y-120100152D01*
X123017142Y-120100152D02*
X123064761Y-120004914D01*
X123064761Y-120004914D02*
X123064761Y-119957295D01*
X123064761Y-119957295D02*
X123017142Y-119862057D01*
X123017142Y-119862057D02*
X122969523Y-119814438D01*
X122969523Y-119814438D02*
X122874285Y-119766819D01*
X122874285Y-119766819D02*
X122683809Y-119766819D01*
X122683809Y-119766819D02*
X122588571Y-119814438D01*
X122588571Y-119814438D02*
X122540952Y-119862057D01*
X122540952Y-119862057D02*
X122493333Y-119957295D01*
X122493333Y-119957295D02*
X122493333Y-120004914D01*
X122493333Y-120004914D02*
X122540952Y-120100152D01*
X122540952Y-120100152D02*
X122588571Y-120147771D01*
X122588571Y-120147771D02*
X122683809Y-120195390D01*
X122683809Y-120195390D02*
X122874285Y-120195390D01*
X122874285Y-120195390D02*
X122969523Y-120243009D01*
X122969523Y-120243009D02*
X123017142Y-120290628D01*
X123017142Y-120290628D02*
X123064761Y-120385866D01*
X123064761Y-120385866D02*
X123064761Y-120576342D01*
X123064761Y-120576342D02*
X123017142Y-120671580D01*
X123017142Y-120671580D02*
X122969523Y-120719200D01*
X122969523Y-120719200D02*
X122874285Y-120766819D01*
X122874285Y-120766819D02*
X122683809Y-120766819D01*
X122683809Y-120766819D02*
X122588571Y-120719200D01*
X122588571Y-120719200D02*
X122540952Y-120671580D01*
X122540952Y-120671580D02*
X122493333Y-120576342D01*
X122493333Y-120576342D02*
X122493333Y-120385866D01*
X122493333Y-120385866D02*
X122540952Y-120290628D01*
X122540952Y-120290628D02*
X122588571Y-120243009D01*
X122588571Y-120243009D02*
X122683809Y-120195390D01*
X101501381Y-106677080D02*
X101549000Y-106724700D01*
X101549000Y-106724700D02*
X101691857Y-106772319D01*
X101691857Y-106772319D02*
X101787095Y-106772319D01*
X101787095Y-106772319D02*
X101929952Y-106724700D01*
X101929952Y-106724700D02*
X102025190Y-106629461D01*
X102025190Y-106629461D02*
X102072809Y-106534223D01*
X102072809Y-106534223D02*
X102120428Y-106343747D01*
X102120428Y-106343747D02*
X102120428Y-106200890D01*
X102120428Y-106200890D02*
X102072809Y-106010414D01*
X102072809Y-106010414D02*
X102025190Y-105915176D01*
X102025190Y-105915176D02*
X101929952Y-105819938D01*
X101929952Y-105819938D02*
X101787095Y-105772319D01*
X101787095Y-105772319D02*
X101691857Y-105772319D01*
X101691857Y-105772319D02*
X101549000Y-105819938D01*
X101549000Y-105819938D02*
X101501381Y-105867557D01*
X101120428Y-105867557D02*
X101072809Y-105819938D01*
X101072809Y-105819938D02*
X100977571Y-105772319D01*
X100977571Y-105772319D02*
X100739476Y-105772319D01*
X100739476Y-105772319D02*
X100644238Y-105819938D01*
X100644238Y-105819938D02*
X100596619Y-105867557D01*
X100596619Y-105867557D02*
X100549000Y-105962795D01*
X100549000Y-105962795D02*
X100549000Y-106058033D01*
X100549000Y-106058033D02*
X100596619Y-106200890D01*
X100596619Y-106200890D02*
X101168047Y-106772319D01*
X101168047Y-106772319D02*
X100549000Y-106772319D01*
X99691857Y-105772319D02*
X99882333Y-105772319D01*
X99882333Y-105772319D02*
X99977571Y-105819938D01*
X99977571Y-105819938D02*
X100025190Y-105867557D01*
X100025190Y-105867557D02*
X100120428Y-106010414D01*
X100120428Y-106010414D02*
X100168047Y-106200890D01*
X100168047Y-106200890D02*
X100168047Y-106581842D01*
X100168047Y-106581842D02*
X100120428Y-106677080D01*
X100120428Y-106677080D02*
X100072809Y-106724700D01*
X100072809Y-106724700D02*
X99977571Y-106772319D01*
X99977571Y-106772319D02*
X99787095Y-106772319D01*
X99787095Y-106772319D02*
X99691857Y-106724700D01*
X99691857Y-106724700D02*
X99644238Y-106677080D01*
X99644238Y-106677080D02*
X99596619Y-106581842D01*
X99596619Y-106581842D02*
X99596619Y-106343747D01*
X99596619Y-106343747D02*
X99644238Y-106248509D01*
X99644238Y-106248509D02*
X99691857Y-106200890D01*
X99691857Y-106200890D02*
X99787095Y-106153271D01*
X99787095Y-106153271D02*
X99977571Y-106153271D01*
X99977571Y-106153271D02*
X100072809Y-106200890D01*
X100072809Y-106200890D02*
X100120428Y-106248509D01*
X100120428Y-106248509D02*
X100168047Y-106343747D01*
X145853343Y-105957142D02*
X145377152Y-105623809D01*
X145853343Y-105385714D02*
X144853343Y-105385714D01*
X144853343Y-105385714D02*
X144853343Y-105766666D01*
X144853343Y-105766666D02*
X144900962Y-105861904D01*
X144900962Y-105861904D02*
X144948581Y-105909523D01*
X144948581Y-105909523D02*
X145043819Y-105957142D01*
X145043819Y-105957142D02*
X145186676Y-105957142D01*
X145186676Y-105957142D02*
X145281914Y-105909523D01*
X145281914Y-105909523D02*
X145329533Y-105861904D01*
X145329533Y-105861904D02*
X145377152Y-105766666D01*
X145377152Y-105766666D02*
X145377152Y-105385714D01*
X145853343Y-106909523D02*
X145853343Y-106338095D01*
X145853343Y-106623809D02*
X144853343Y-106623809D01*
X144853343Y-106623809D02*
X144996200Y-106528571D01*
X144996200Y-106528571D02*
X145091438Y-106433333D01*
X145091438Y-106433333D02*
X145139057Y-106338095D01*
X144853343Y-107766666D02*
X144853343Y-107576190D01*
X144853343Y-107576190D02*
X144900962Y-107480952D01*
X144900962Y-107480952D02*
X144948581Y-107433333D01*
X144948581Y-107433333D02*
X145091438Y-107338095D01*
X145091438Y-107338095D02*
X145281914Y-107290476D01*
X145281914Y-107290476D02*
X145662866Y-107290476D01*
X145662866Y-107290476D02*
X145758104Y-107338095D01*
X145758104Y-107338095D02*
X145805724Y-107385714D01*
X145805724Y-107385714D02*
X145853343Y-107480952D01*
X145853343Y-107480952D02*
X145853343Y-107671428D01*
X145853343Y-107671428D02*
X145805724Y-107766666D01*
X145805724Y-107766666D02*
X145758104Y-107814285D01*
X145758104Y-107814285D02*
X145662866Y-107861904D01*
X145662866Y-107861904D02*
X145424771Y-107861904D01*
X145424771Y-107861904D02*
X145329533Y-107814285D01*
X145329533Y-107814285D02*
X145281914Y-107766666D01*
X145281914Y-107766666D02*
X145234295Y-107671428D01*
X145234295Y-107671428D02*
X145234295Y-107480952D01*
X145234295Y-107480952D02*
X145281914Y-107385714D01*
X145281914Y-107385714D02*
X145329533Y-107338095D01*
X145329533Y-107338095D02*
X145424771Y-107290476D01*
X161150755Y-84437987D02*
X160435988Y-84818035D01*
X160435988Y-84818035D02*
X160329542Y-84820701D01*
X160329542Y-84820701D02*
X160265141Y-84801012D01*
X160265141Y-84801012D02*
X160178385Y-84739278D01*
X160178385Y-84739278D02*
X160088961Y-84571097D01*
X160088961Y-84571097D02*
X160086295Y-84464651D01*
X160086295Y-84464651D02*
X160105984Y-84400250D01*
X160105984Y-84400250D02*
X160167719Y-84313493D01*
X160167719Y-84313493D02*
X160882486Y-83933445D01*
X159530067Y-83519969D02*
X159798336Y-84024511D01*
X159664201Y-83772240D02*
X160547149Y-83302768D01*
X160547149Y-83302768D02*
X160465725Y-83453926D01*
X160465725Y-83453926D02*
X160426347Y-83582728D01*
X160426347Y-83582728D02*
X160429013Y-83689174D01*
X110706381Y-103652080D02*
X110754000Y-103699700D01*
X110754000Y-103699700D02*
X110896857Y-103747319D01*
X110896857Y-103747319D02*
X110992095Y-103747319D01*
X110992095Y-103747319D02*
X111134952Y-103699700D01*
X111134952Y-103699700D02*
X111230190Y-103604461D01*
X111230190Y-103604461D02*
X111277809Y-103509223D01*
X111277809Y-103509223D02*
X111325428Y-103318747D01*
X111325428Y-103318747D02*
X111325428Y-103175890D01*
X111325428Y-103175890D02*
X111277809Y-102985414D01*
X111277809Y-102985414D02*
X111230190Y-102890176D01*
X111230190Y-102890176D02*
X111134952Y-102794938D01*
X111134952Y-102794938D02*
X110992095Y-102747319D01*
X110992095Y-102747319D02*
X110896857Y-102747319D01*
X110896857Y-102747319D02*
X110754000Y-102794938D01*
X110754000Y-102794938D02*
X110706381Y-102842557D01*
X110325428Y-102842557D02*
X110277809Y-102794938D01*
X110277809Y-102794938D02*
X110182571Y-102747319D01*
X110182571Y-102747319D02*
X109944476Y-102747319D01*
X109944476Y-102747319D02*
X109849238Y-102794938D01*
X109849238Y-102794938D02*
X109801619Y-102842557D01*
X109801619Y-102842557D02*
X109754000Y-102937795D01*
X109754000Y-102937795D02*
X109754000Y-103033033D01*
X109754000Y-103033033D02*
X109801619Y-103175890D01*
X109801619Y-103175890D02*
X110373047Y-103747319D01*
X110373047Y-103747319D02*
X109754000Y-103747319D01*
X108801619Y-103747319D02*
X109373047Y-103747319D01*
X109087333Y-103747319D02*
X109087333Y-102747319D01*
X109087333Y-102747319D02*
X109182571Y-102890176D01*
X109182571Y-102890176D02*
X109277809Y-102985414D01*
X109277809Y-102985414D02*
X109373047Y-103033033D01*
X114787857Y-116789580D02*
X114835476Y-116837200D01*
X114835476Y-116837200D02*
X114978333Y-116884819D01*
X114978333Y-116884819D02*
X115073571Y-116884819D01*
X115073571Y-116884819D02*
X115216428Y-116837200D01*
X115216428Y-116837200D02*
X115311666Y-116741961D01*
X115311666Y-116741961D02*
X115359285Y-116646723D01*
X115359285Y-116646723D02*
X115406904Y-116456247D01*
X115406904Y-116456247D02*
X115406904Y-116313390D01*
X115406904Y-116313390D02*
X115359285Y-116122914D01*
X115359285Y-116122914D02*
X115311666Y-116027676D01*
X115311666Y-116027676D02*
X115216428Y-115932438D01*
X115216428Y-115932438D02*
X115073571Y-115884819D01*
X115073571Y-115884819D02*
X114978333Y-115884819D01*
X114978333Y-115884819D02*
X114835476Y-115932438D01*
X114835476Y-115932438D02*
X114787857Y-115980057D01*
X114454523Y-115884819D02*
X113835476Y-115884819D01*
X113835476Y-115884819D02*
X114168809Y-116265771D01*
X114168809Y-116265771D02*
X114025952Y-116265771D01*
X114025952Y-116265771D02*
X113930714Y-116313390D01*
X113930714Y-116313390D02*
X113883095Y-116361009D01*
X113883095Y-116361009D02*
X113835476Y-116456247D01*
X113835476Y-116456247D02*
X113835476Y-116694342D01*
X113835476Y-116694342D02*
X113883095Y-116789580D01*
X113883095Y-116789580D02*
X113930714Y-116837200D01*
X113930714Y-116837200D02*
X114025952Y-116884819D01*
X114025952Y-116884819D02*
X114311666Y-116884819D01*
X114311666Y-116884819D02*
X114406904Y-116837200D01*
X114406904Y-116837200D02*
X114454523Y-116789580D01*
X112883095Y-116884819D02*
X113454523Y-116884819D01*
X113168809Y-116884819D02*
X113168809Y-115884819D01*
X113168809Y-115884819D02*
X113264047Y-116027676D01*
X113264047Y-116027676D02*
X113359285Y-116122914D01*
X113359285Y-116122914D02*
X113454523Y-116170533D01*
X171338104Y-122143333D02*
X171385724Y-122095714D01*
X171385724Y-122095714D02*
X171433343Y-121952857D01*
X171433343Y-121952857D02*
X171433343Y-121857619D01*
X171433343Y-121857619D02*
X171385724Y-121714762D01*
X171385724Y-121714762D02*
X171290485Y-121619524D01*
X171290485Y-121619524D02*
X171195247Y-121571905D01*
X171195247Y-121571905D02*
X171004771Y-121524286D01*
X171004771Y-121524286D02*
X170861914Y-121524286D01*
X170861914Y-121524286D02*
X170671438Y-121571905D01*
X170671438Y-121571905D02*
X170576200Y-121619524D01*
X170576200Y-121619524D02*
X170480962Y-121714762D01*
X170480962Y-121714762D02*
X170433343Y-121857619D01*
X170433343Y-121857619D02*
X170433343Y-121952857D01*
X170433343Y-121952857D02*
X170480962Y-122095714D01*
X170480962Y-122095714D02*
X170528581Y-122143333D01*
X170433343Y-123048095D02*
X170433343Y-122571905D01*
X170433343Y-122571905D02*
X170909533Y-122524286D01*
X170909533Y-122524286D02*
X170861914Y-122571905D01*
X170861914Y-122571905D02*
X170814295Y-122667143D01*
X170814295Y-122667143D02*
X170814295Y-122905238D01*
X170814295Y-122905238D02*
X170861914Y-123000476D01*
X170861914Y-123000476D02*
X170909533Y-123048095D01*
X170909533Y-123048095D02*
X171004771Y-123095714D01*
X171004771Y-123095714D02*
X171242866Y-123095714D01*
X171242866Y-123095714D02*
X171338104Y-123048095D01*
X171338104Y-123048095D02*
X171385724Y-123000476D01*
X171385724Y-123000476D02*
X171433343Y-122905238D01*
X171433343Y-122905238D02*
X171433343Y-122667143D01*
X171433343Y-122667143D02*
X171385724Y-122571905D01*
X171385724Y-122571905D02*
X171338104Y-122524286D01*
X103018104Y-104644642D02*
X103065724Y-104597023D01*
X103065724Y-104597023D02*
X103113343Y-104454166D01*
X103113343Y-104454166D02*
X103113343Y-104358928D01*
X103113343Y-104358928D02*
X103065724Y-104216071D01*
X103065724Y-104216071D02*
X102970485Y-104120833D01*
X102970485Y-104120833D02*
X102875247Y-104073214D01*
X102875247Y-104073214D02*
X102684771Y-104025595D01*
X102684771Y-104025595D02*
X102541914Y-104025595D01*
X102541914Y-104025595D02*
X102351438Y-104073214D01*
X102351438Y-104073214D02*
X102256200Y-104120833D01*
X102256200Y-104120833D02*
X102160962Y-104216071D01*
X102160962Y-104216071D02*
X102113343Y-104358928D01*
X102113343Y-104358928D02*
X102113343Y-104454166D01*
X102113343Y-104454166D02*
X102160962Y-104597023D01*
X102160962Y-104597023D02*
X102208581Y-104644642D01*
X102208581Y-105025595D02*
X102160962Y-105073214D01*
X102160962Y-105073214D02*
X102113343Y-105168452D01*
X102113343Y-105168452D02*
X102113343Y-105406547D01*
X102113343Y-105406547D02*
X102160962Y-105501785D01*
X102160962Y-105501785D02*
X102208581Y-105549404D01*
X102208581Y-105549404D02*
X102303819Y-105597023D01*
X102303819Y-105597023D02*
X102399057Y-105597023D01*
X102399057Y-105597023D02*
X102541914Y-105549404D01*
X102541914Y-105549404D02*
X103113343Y-104977976D01*
X103113343Y-104977976D02*
X103113343Y-105597023D01*
X102113343Y-106501785D02*
X102113343Y-106025595D01*
X102113343Y-106025595D02*
X102589533Y-105977976D01*
X102589533Y-105977976D02*
X102541914Y-106025595D01*
X102541914Y-106025595D02*
X102494295Y-106120833D01*
X102494295Y-106120833D02*
X102494295Y-106358928D01*
X102494295Y-106358928D02*
X102541914Y-106454166D01*
X102541914Y-106454166D02*
X102589533Y-106501785D01*
X102589533Y-106501785D02*
X102684771Y-106549404D01*
X102684771Y-106549404D02*
X102922866Y-106549404D01*
X102922866Y-106549404D02*
X103018104Y-106501785D01*
X103018104Y-106501785D02*
X103065724Y-106454166D01*
X103065724Y-106454166D02*
X103113343Y-106358928D01*
X103113343Y-106358928D02*
X103113343Y-106120833D01*
X103113343Y-106120833D02*
X103065724Y-106025595D01*
X103065724Y-106025595D02*
X103018104Y-105977976D01*
X86847618Y-116316795D02*
X86847618Y-115516795D01*
X86847618Y-115516795D02*
X86580952Y-116088223D01*
X86580952Y-116088223D02*
X86314285Y-115516795D01*
X86314285Y-115516795D02*
X86314285Y-116316795D01*
X85933332Y-116316795D02*
X85933332Y-115516795D01*
X85476189Y-116316795D02*
X85819047Y-115859652D01*
X85476189Y-115516795D02*
X85933332Y-115973938D01*
X85209523Y-115516795D02*
X84714285Y-115516795D01*
X84714285Y-115516795D02*
X84980951Y-115821557D01*
X84980951Y-115821557D02*
X84866666Y-115821557D01*
X84866666Y-115821557D02*
X84790475Y-115859652D01*
X84790475Y-115859652D02*
X84752380Y-115897747D01*
X84752380Y-115897747D02*
X84714285Y-115973938D01*
X84714285Y-115973938D02*
X84714285Y-116164414D01*
X84714285Y-116164414D02*
X84752380Y-116240604D01*
X84752380Y-116240604D02*
X84790475Y-116278700D01*
X84790475Y-116278700D02*
X84866666Y-116316795D01*
X84866666Y-116316795D02*
X85095237Y-116316795D01*
X85095237Y-116316795D02*
X85171428Y-116278700D01*
X85171428Y-116278700D02*
X85209523Y-116240604D01*
X143033881Y-106182319D02*
X143367214Y-105706128D01*
X143605309Y-106182319D02*
X143605309Y-105182319D01*
X143605309Y-105182319D02*
X143224357Y-105182319D01*
X143224357Y-105182319D02*
X143129119Y-105229938D01*
X143129119Y-105229938D02*
X143081500Y-105277557D01*
X143081500Y-105277557D02*
X143033881Y-105372795D01*
X143033881Y-105372795D02*
X143033881Y-105515652D01*
X143033881Y-105515652D02*
X143081500Y-105610890D01*
X143081500Y-105610890D02*
X143129119Y-105658509D01*
X143129119Y-105658509D02*
X143224357Y-105706128D01*
X143224357Y-105706128D02*
X143605309Y-105706128D01*
X142081500Y-106182319D02*
X142652928Y-106182319D01*
X142367214Y-106182319D02*
X142367214Y-105182319D01*
X142367214Y-105182319D02*
X142462452Y-105325176D01*
X142462452Y-105325176D02*
X142557690Y-105420414D01*
X142557690Y-105420414D02*
X142652928Y-105468033D01*
X141176738Y-105182319D02*
X141652928Y-105182319D01*
X141652928Y-105182319D02*
X141700547Y-105658509D01*
X141700547Y-105658509D02*
X141652928Y-105610890D01*
X141652928Y-105610890D02*
X141557690Y-105563271D01*
X141557690Y-105563271D02*
X141319595Y-105563271D01*
X141319595Y-105563271D02*
X141224357Y-105610890D01*
X141224357Y-105610890D02*
X141176738Y-105658509D01*
X141176738Y-105658509D02*
X141129119Y-105753747D01*
X141129119Y-105753747D02*
X141129119Y-105991842D01*
X141129119Y-105991842D02*
X141176738Y-106087080D01*
X141176738Y-106087080D02*
X141224357Y-106134700D01*
X141224357Y-106134700D02*
X141319595Y-106182319D01*
X141319595Y-106182319D02*
X141557690Y-106182319D01*
X141557690Y-106182319D02*
X141652928Y-106134700D01*
X141652928Y-106134700D02*
X141700547Y-106087080D01*
X100860428Y-107114819D02*
X100860428Y-107924342D01*
X100860428Y-107924342D02*
X100812809Y-108019580D01*
X100812809Y-108019580D02*
X100765190Y-108067200D01*
X100765190Y-108067200D02*
X100669952Y-108114819D01*
X100669952Y-108114819D02*
X100479476Y-108114819D01*
X100479476Y-108114819D02*
X100384238Y-108067200D01*
X100384238Y-108067200D02*
X100336619Y-108019580D01*
X100336619Y-108019580D02*
X100289000Y-107924342D01*
X100289000Y-107924342D02*
X100289000Y-107114819D01*
X99336619Y-107114819D02*
X99812809Y-107114819D01*
X99812809Y-107114819D02*
X99860428Y-107591009D01*
X99860428Y-107591009D02*
X99812809Y-107543390D01*
X99812809Y-107543390D02*
X99717571Y-107495771D01*
X99717571Y-107495771D02*
X99479476Y-107495771D01*
X99479476Y-107495771D02*
X99384238Y-107543390D01*
X99384238Y-107543390D02*
X99336619Y-107591009D01*
X99336619Y-107591009D02*
X99289000Y-107686247D01*
X99289000Y-107686247D02*
X99289000Y-107924342D01*
X99289000Y-107924342D02*
X99336619Y-108019580D01*
X99336619Y-108019580D02*
X99384238Y-108067200D01*
X99384238Y-108067200D02*
X99479476Y-108114819D01*
X99479476Y-108114819D02*
X99717571Y-108114819D01*
X99717571Y-108114819D02*
X99812809Y-108067200D01*
X99812809Y-108067200D02*
X99860428Y-108019580D01*
X119893343Y-109418095D02*
X120702866Y-109418095D01*
X120702866Y-109418095D02*
X120798104Y-109465714D01*
X120798104Y-109465714D02*
X120845724Y-109513333D01*
X120845724Y-109513333D02*
X120893343Y-109608571D01*
X120893343Y-109608571D02*
X120893343Y-109799047D01*
X120893343Y-109799047D02*
X120845724Y-109894285D01*
X120845724Y-109894285D02*
X120798104Y-109941904D01*
X120798104Y-109941904D02*
X120702866Y-109989523D01*
X120702866Y-109989523D02*
X119893343Y-109989523D01*
X119893343Y-110370476D02*
X119893343Y-110989523D01*
X119893343Y-110989523D02*
X120274295Y-110656190D01*
X120274295Y-110656190D02*
X120274295Y-110799047D01*
X120274295Y-110799047D02*
X120321914Y-110894285D01*
X120321914Y-110894285D02*
X120369533Y-110941904D01*
X120369533Y-110941904D02*
X120464771Y-110989523D01*
X120464771Y-110989523D02*
X120702866Y-110989523D01*
X120702866Y-110989523D02*
X120798104Y-110941904D01*
X120798104Y-110941904D02*
X120845724Y-110894285D01*
X120845724Y-110894285D02*
X120893343Y-110799047D01*
X120893343Y-110799047D02*
X120893343Y-110513333D01*
X120893343Y-110513333D02*
X120845724Y-110418095D01*
X120845724Y-110418095D02*
X120798104Y-110370476D01*
X113768343Y-100188095D02*
X114577866Y-100188095D01*
X114577866Y-100188095D02*
X114673104Y-100235714D01*
X114673104Y-100235714D02*
X114720724Y-100283333D01*
X114720724Y-100283333D02*
X114768343Y-100378571D01*
X114768343Y-100378571D02*
X114768343Y-100569047D01*
X114768343Y-100569047D02*
X114720724Y-100664285D01*
X114720724Y-100664285D02*
X114673104Y-100711904D01*
X114673104Y-100711904D02*
X114577866Y-100759523D01*
X114577866Y-100759523D02*
X113768343Y-100759523D01*
X113768343Y-101664285D02*
X113768343Y-101473809D01*
X113768343Y-101473809D02*
X113815962Y-101378571D01*
X113815962Y-101378571D02*
X113863581Y-101330952D01*
X113863581Y-101330952D02*
X114006438Y-101235714D01*
X114006438Y-101235714D02*
X114196914Y-101188095D01*
X114196914Y-101188095D02*
X114577866Y-101188095D01*
X114577866Y-101188095D02*
X114673104Y-101235714D01*
X114673104Y-101235714D02*
X114720724Y-101283333D01*
X114720724Y-101283333D02*
X114768343Y-101378571D01*
X114768343Y-101378571D02*
X114768343Y-101569047D01*
X114768343Y-101569047D02*
X114720724Y-101664285D01*
X114720724Y-101664285D02*
X114673104Y-101711904D01*
X114673104Y-101711904D02*
X114577866Y-101759523D01*
X114577866Y-101759523D02*
X114339771Y-101759523D01*
X114339771Y-101759523D02*
X114244533Y-101711904D01*
X114244533Y-101711904D02*
X114196914Y-101664285D01*
X114196914Y-101664285D02*
X114149295Y-101569047D01*
X114149295Y-101569047D02*
X114149295Y-101378571D01*
X114149295Y-101378571D02*
X114196914Y-101283333D01*
X114196914Y-101283333D02*
X114244533Y-101235714D01*
X114244533Y-101235714D02*
X114339771Y-101188095D01*
X154225190Y-109744819D02*
X154558523Y-109268628D01*
X154796618Y-109744819D02*
X154796618Y-108744819D01*
X154796618Y-108744819D02*
X154415666Y-108744819D01*
X154415666Y-108744819D02*
X154320428Y-108792438D01*
X154320428Y-108792438D02*
X154272809Y-108840057D01*
X154272809Y-108840057D02*
X154225190Y-108935295D01*
X154225190Y-108935295D02*
X154225190Y-109078152D01*
X154225190Y-109078152D02*
X154272809Y-109173390D01*
X154272809Y-109173390D02*
X154320428Y-109221009D01*
X154320428Y-109221009D02*
X154415666Y-109268628D01*
X154415666Y-109268628D02*
X154796618Y-109268628D01*
X153272809Y-109744819D02*
X153844237Y-109744819D01*
X153558523Y-109744819D02*
X153558523Y-108744819D01*
X153558523Y-108744819D02*
X153653761Y-108887676D01*
X153653761Y-108887676D02*
X153748999Y-108982914D01*
X153748999Y-108982914D02*
X153844237Y-109030533D01*
X103663343Y-86748333D02*
X103187152Y-86415000D01*
X103663343Y-86176905D02*
X102663343Y-86176905D01*
X102663343Y-86176905D02*
X102663343Y-86557857D01*
X102663343Y-86557857D02*
X102710962Y-86653095D01*
X102710962Y-86653095D02*
X102758581Y-86700714D01*
X102758581Y-86700714D02*
X102853819Y-86748333D01*
X102853819Y-86748333D02*
X102996676Y-86748333D01*
X102996676Y-86748333D02*
X103091914Y-86700714D01*
X103091914Y-86700714D02*
X103139533Y-86653095D01*
X103139533Y-86653095D02*
X103187152Y-86557857D01*
X103187152Y-86557857D02*
X103187152Y-86176905D01*
X103663343Y-87224524D02*
X103663343Y-87415000D01*
X103663343Y-87415000D02*
X103615724Y-87510238D01*
X103615724Y-87510238D02*
X103568104Y-87557857D01*
X103568104Y-87557857D02*
X103425247Y-87653095D01*
X103425247Y-87653095D02*
X103234771Y-87700714D01*
X103234771Y-87700714D02*
X102853819Y-87700714D01*
X102853819Y-87700714D02*
X102758581Y-87653095D01*
X102758581Y-87653095D02*
X102710962Y-87605476D01*
X102710962Y-87605476D02*
X102663343Y-87510238D01*
X102663343Y-87510238D02*
X102663343Y-87319762D01*
X102663343Y-87319762D02*
X102710962Y-87224524D01*
X102710962Y-87224524D02*
X102758581Y-87176905D01*
X102758581Y-87176905D02*
X102853819Y-87129286D01*
X102853819Y-87129286D02*
X103091914Y-87129286D01*
X103091914Y-87129286D02*
X103187152Y-87176905D01*
X103187152Y-87176905D02*
X103234771Y-87224524D01*
X103234771Y-87224524D02*
X103282390Y-87319762D01*
X103282390Y-87319762D02*
X103282390Y-87510238D01*
X103282390Y-87510238D02*
X103234771Y-87605476D01*
X103234771Y-87605476D02*
X103187152Y-87653095D01*
X103187152Y-87653095D02*
X103091914Y-87700714D01*
X121313332Y-75217200D02*
X121170475Y-75264819D01*
X121170475Y-75264819D02*
X120932380Y-75264819D01*
X120932380Y-75264819D02*
X120837142Y-75217200D01*
X120837142Y-75217200D02*
X120789523Y-75169580D01*
X120789523Y-75169580D02*
X120741904Y-75074342D01*
X120741904Y-75074342D02*
X120741904Y-74979104D01*
X120741904Y-74979104D02*
X120789523Y-74883866D01*
X120789523Y-74883866D02*
X120837142Y-74836247D01*
X120837142Y-74836247D02*
X120932380Y-74788628D01*
X120932380Y-74788628D02*
X121122856Y-74741009D01*
X121122856Y-74741009D02*
X121218094Y-74693390D01*
X121218094Y-74693390D02*
X121265713Y-74645771D01*
X121265713Y-74645771D02*
X121313332Y-74550533D01*
X121313332Y-74550533D02*
X121313332Y-74455295D01*
X121313332Y-74455295D02*
X121265713Y-74360057D01*
X121265713Y-74360057D02*
X121218094Y-74312438D01*
X121218094Y-74312438D02*
X121122856Y-74264819D01*
X121122856Y-74264819D02*
X120884761Y-74264819D01*
X120884761Y-74264819D02*
X120741904Y-74312438D01*
X120408570Y-74264819D02*
X120170475Y-75264819D01*
X120170475Y-75264819D02*
X119979999Y-74550533D01*
X119979999Y-74550533D02*
X119789523Y-75264819D01*
X119789523Y-75264819D02*
X119551428Y-74264819D01*
X119218094Y-74360057D02*
X119170475Y-74312438D01*
X119170475Y-74312438D02*
X119075237Y-74264819D01*
X119075237Y-74264819D02*
X118837142Y-74264819D01*
X118837142Y-74264819D02*
X118741904Y-74312438D01*
X118741904Y-74312438D02*
X118694285Y-74360057D01*
X118694285Y-74360057D02*
X118646666Y-74455295D01*
X118646666Y-74455295D02*
X118646666Y-74550533D01*
X118646666Y-74550533D02*
X118694285Y-74693390D01*
X118694285Y-74693390D02*
X119265713Y-75264819D01*
X119265713Y-75264819D02*
X118646666Y-75264819D01*
X156062819Y-120368095D02*
X156062819Y-120939523D01*
X157062819Y-120653809D02*
X156062819Y-120653809D01*
X157062819Y-121272857D02*
X156062819Y-121272857D01*
X156062819Y-121272857D02*
X156062819Y-121653809D01*
X156062819Y-121653809D02*
X156110438Y-121749047D01*
X156110438Y-121749047D02*
X156158057Y-121796666D01*
X156158057Y-121796666D02*
X156253295Y-121844285D01*
X156253295Y-121844285D02*
X156396152Y-121844285D01*
X156396152Y-121844285D02*
X156491390Y-121796666D01*
X156491390Y-121796666D02*
X156539009Y-121749047D01*
X156539009Y-121749047D02*
X156586628Y-121653809D01*
X156586628Y-121653809D02*
X156586628Y-121272857D01*
X156062819Y-122177619D02*
X156062819Y-122844285D01*
X156062819Y-122844285D02*
X157062819Y-122415714D01*
X109738104Y-73597142D02*
X109785724Y-73549523D01*
X109785724Y-73549523D02*
X109833343Y-73406666D01*
X109833343Y-73406666D02*
X109833343Y-73311428D01*
X109833343Y-73311428D02*
X109785724Y-73168571D01*
X109785724Y-73168571D02*
X109690485Y-73073333D01*
X109690485Y-73073333D02*
X109595247Y-73025714D01*
X109595247Y-73025714D02*
X109404771Y-72978095D01*
X109404771Y-72978095D02*
X109261914Y-72978095D01*
X109261914Y-72978095D02*
X109071438Y-73025714D01*
X109071438Y-73025714D02*
X108976200Y-73073333D01*
X108976200Y-73073333D02*
X108880962Y-73168571D01*
X108880962Y-73168571D02*
X108833343Y-73311428D01*
X108833343Y-73311428D02*
X108833343Y-73406666D01*
X108833343Y-73406666D02*
X108880962Y-73549523D01*
X108880962Y-73549523D02*
X108928581Y-73597142D01*
X108833343Y-73930476D02*
X108833343Y-74549523D01*
X108833343Y-74549523D02*
X109214295Y-74216190D01*
X109214295Y-74216190D02*
X109214295Y-74359047D01*
X109214295Y-74359047D02*
X109261914Y-74454285D01*
X109261914Y-74454285D02*
X109309533Y-74501904D01*
X109309533Y-74501904D02*
X109404771Y-74549523D01*
X109404771Y-74549523D02*
X109642866Y-74549523D01*
X109642866Y-74549523D02*
X109738104Y-74501904D01*
X109738104Y-74501904D02*
X109785724Y-74454285D01*
X109785724Y-74454285D02*
X109833343Y-74359047D01*
X109833343Y-74359047D02*
X109833343Y-74073333D01*
X109833343Y-74073333D02*
X109785724Y-73978095D01*
X109785724Y-73978095D02*
X109738104Y-73930476D01*
X108833343Y-75168571D02*
X108833343Y-75263809D01*
X108833343Y-75263809D02*
X108880962Y-75359047D01*
X108880962Y-75359047D02*
X108928581Y-75406666D01*
X108928581Y-75406666D02*
X109023819Y-75454285D01*
X109023819Y-75454285D02*
X109214295Y-75501904D01*
X109214295Y-75501904D02*
X109452390Y-75501904D01*
X109452390Y-75501904D02*
X109642866Y-75454285D01*
X109642866Y-75454285D02*
X109738104Y-75406666D01*
X109738104Y-75406666D02*
X109785724Y-75359047D01*
X109785724Y-75359047D02*
X109833343Y-75263809D01*
X109833343Y-75263809D02*
X109833343Y-75168571D01*
X109833343Y-75168571D02*
X109785724Y-75073333D01*
X109785724Y-75073333D02*
X109738104Y-75025714D01*
X109738104Y-75025714D02*
X109642866Y-74978095D01*
X109642866Y-74978095D02*
X109452390Y-74930476D01*
X109452390Y-74930476D02*
X109214295Y-74930476D01*
X109214295Y-74930476D02*
X109023819Y-74978095D01*
X109023819Y-74978095D02*
X108928581Y-75025714D01*
X108928581Y-75025714D02*
X108880962Y-75073333D01*
X108880962Y-75073333D02*
X108833343Y-75168571D01*
X167636142Y-118204295D02*
X167636142Y-117404295D01*
X167636142Y-117404295D02*
X167369476Y-117975723D01*
X167369476Y-117975723D02*
X167102809Y-117404295D01*
X167102809Y-117404295D02*
X167102809Y-118204295D01*
X166721856Y-118204295D02*
X166721856Y-117404295D01*
X166264713Y-118204295D02*
X166607571Y-117747152D01*
X166264713Y-117404295D02*
X166721856Y-117861438D01*
X165959952Y-117480485D02*
X165921856Y-117442390D01*
X165921856Y-117442390D02*
X165845666Y-117404295D01*
X165845666Y-117404295D02*
X165655190Y-117404295D01*
X165655190Y-117404295D02*
X165578999Y-117442390D01*
X165578999Y-117442390D02*
X165540904Y-117480485D01*
X165540904Y-117480485D02*
X165502809Y-117556676D01*
X165502809Y-117556676D02*
X165502809Y-117632866D01*
X165502809Y-117632866D02*
X165540904Y-117747152D01*
X165540904Y-117747152D02*
X165998047Y-118204295D01*
X165998047Y-118204295D02*
X165502809Y-118204295D01*
X136669580Y-70673333D02*
X136717200Y-70625714D01*
X136717200Y-70625714D02*
X136764819Y-70482857D01*
X136764819Y-70482857D02*
X136764819Y-70387619D01*
X136764819Y-70387619D02*
X136717200Y-70244762D01*
X136717200Y-70244762D02*
X136621961Y-70149524D01*
X136621961Y-70149524D02*
X136526723Y-70101905D01*
X136526723Y-70101905D02*
X136336247Y-70054286D01*
X136336247Y-70054286D02*
X136193390Y-70054286D01*
X136193390Y-70054286D02*
X136002914Y-70101905D01*
X136002914Y-70101905D02*
X135907676Y-70149524D01*
X135907676Y-70149524D02*
X135812438Y-70244762D01*
X135812438Y-70244762D02*
X135764819Y-70387619D01*
X135764819Y-70387619D02*
X135764819Y-70482857D01*
X135764819Y-70482857D02*
X135812438Y-70625714D01*
X135812438Y-70625714D02*
X135860057Y-70673333D01*
X136193390Y-71244762D02*
X136145771Y-71149524D01*
X136145771Y-71149524D02*
X136098152Y-71101905D01*
X136098152Y-71101905D02*
X136002914Y-71054286D01*
X136002914Y-71054286D02*
X135955295Y-71054286D01*
X135955295Y-71054286D02*
X135860057Y-71101905D01*
X135860057Y-71101905D02*
X135812438Y-71149524D01*
X135812438Y-71149524D02*
X135764819Y-71244762D01*
X135764819Y-71244762D02*
X135764819Y-71435238D01*
X135764819Y-71435238D02*
X135812438Y-71530476D01*
X135812438Y-71530476D02*
X135860057Y-71578095D01*
X135860057Y-71578095D02*
X135955295Y-71625714D01*
X135955295Y-71625714D02*
X136002914Y-71625714D01*
X136002914Y-71625714D02*
X136098152Y-71578095D01*
X136098152Y-71578095D02*
X136145771Y-71530476D01*
X136145771Y-71530476D02*
X136193390Y-71435238D01*
X136193390Y-71435238D02*
X136193390Y-71244762D01*
X136193390Y-71244762D02*
X136241009Y-71149524D01*
X136241009Y-71149524D02*
X136288628Y-71101905D01*
X136288628Y-71101905D02*
X136383866Y-71054286D01*
X136383866Y-71054286D02*
X136574342Y-71054286D01*
X136574342Y-71054286D02*
X136669580Y-71101905D01*
X136669580Y-71101905D02*
X136717200Y-71149524D01*
X136717200Y-71149524D02*
X136764819Y-71244762D01*
X136764819Y-71244762D02*
X136764819Y-71435238D01*
X136764819Y-71435238D02*
X136717200Y-71530476D01*
X136717200Y-71530476D02*
X136669580Y-71578095D01*
X136669580Y-71578095D02*
X136574342Y-71625714D01*
X136574342Y-71625714D02*
X136383866Y-71625714D01*
X136383866Y-71625714D02*
X136288628Y-71578095D01*
X136288628Y-71578095D02*
X136241009Y-71530476D01*
X136241009Y-71530476D02*
X136193390Y-71435238D01*
X105668104Y-104669642D02*
X105715724Y-104622023D01*
X105715724Y-104622023D02*
X105763343Y-104479166D01*
X105763343Y-104479166D02*
X105763343Y-104383928D01*
X105763343Y-104383928D02*
X105715724Y-104241071D01*
X105715724Y-104241071D02*
X105620485Y-104145833D01*
X105620485Y-104145833D02*
X105525247Y-104098214D01*
X105525247Y-104098214D02*
X105334771Y-104050595D01*
X105334771Y-104050595D02*
X105191914Y-104050595D01*
X105191914Y-104050595D02*
X105001438Y-104098214D01*
X105001438Y-104098214D02*
X104906200Y-104145833D01*
X104906200Y-104145833D02*
X104810962Y-104241071D01*
X104810962Y-104241071D02*
X104763343Y-104383928D01*
X104763343Y-104383928D02*
X104763343Y-104479166D01*
X104763343Y-104479166D02*
X104810962Y-104622023D01*
X104810962Y-104622023D02*
X104858581Y-104669642D01*
X104858581Y-105050595D02*
X104810962Y-105098214D01*
X104810962Y-105098214D02*
X104763343Y-105193452D01*
X104763343Y-105193452D02*
X104763343Y-105431547D01*
X104763343Y-105431547D02*
X104810962Y-105526785D01*
X104810962Y-105526785D02*
X104858581Y-105574404D01*
X104858581Y-105574404D02*
X104953819Y-105622023D01*
X104953819Y-105622023D02*
X105049057Y-105622023D01*
X105049057Y-105622023D02*
X105191914Y-105574404D01*
X105191914Y-105574404D02*
X105763343Y-105002976D01*
X105763343Y-105002976D02*
X105763343Y-105622023D01*
X104858581Y-106002976D02*
X104810962Y-106050595D01*
X104810962Y-106050595D02*
X104763343Y-106145833D01*
X104763343Y-106145833D02*
X104763343Y-106383928D01*
X104763343Y-106383928D02*
X104810962Y-106479166D01*
X104810962Y-106479166D02*
X104858581Y-106526785D01*
X104858581Y-106526785D02*
X104953819Y-106574404D01*
X104953819Y-106574404D02*
X105049057Y-106574404D01*
X105049057Y-106574404D02*
X105191914Y-106526785D01*
X105191914Y-106526785D02*
X105763343Y-105955357D01*
X105763343Y-105955357D02*
X105763343Y-106574404D01*
X131461857Y-114714819D02*
X131461857Y-115429104D01*
X131461857Y-115429104D02*
X131509476Y-115571961D01*
X131509476Y-115571961D02*
X131604714Y-115667200D01*
X131604714Y-115667200D02*
X131747571Y-115714819D01*
X131747571Y-115714819D02*
X131842809Y-115714819D01*
X131080904Y-114714819D02*
X130461857Y-114714819D01*
X130461857Y-114714819D02*
X130795190Y-115095771D01*
X130795190Y-115095771D02*
X130652333Y-115095771D01*
X130652333Y-115095771D02*
X130557095Y-115143390D01*
X130557095Y-115143390D02*
X130509476Y-115191009D01*
X130509476Y-115191009D02*
X130461857Y-115286247D01*
X130461857Y-115286247D02*
X130461857Y-115524342D01*
X130461857Y-115524342D02*
X130509476Y-115619580D01*
X130509476Y-115619580D02*
X130557095Y-115667200D01*
X130557095Y-115667200D02*
X130652333Y-115714819D01*
X130652333Y-115714819D02*
X130938047Y-115714819D01*
X130938047Y-115714819D02*
X131033285Y-115667200D01*
X131033285Y-115667200D02*
X131080904Y-115619580D01*
X127327618Y-55640295D02*
X127327618Y-54840295D01*
X127327618Y-54840295D02*
X127060952Y-55411723D01*
X127060952Y-55411723D02*
X126794285Y-54840295D01*
X126794285Y-54840295D02*
X126794285Y-55640295D01*
X126413332Y-55640295D02*
X126413332Y-54840295D01*
X125956189Y-55640295D02*
X126299047Y-55183152D01*
X125956189Y-54840295D02*
X126413332Y-55297438D01*
X125194285Y-55640295D02*
X125651428Y-55640295D01*
X125422856Y-55640295D02*
X125422856Y-54840295D01*
X125422856Y-54840295D02*
X125499047Y-54954580D01*
X125499047Y-54954580D02*
X125575237Y-55030771D01*
X125575237Y-55030771D02*
X125651428Y-55068866D01*
X100373343Y-90049523D02*
X99897152Y-89716190D01*
X100373343Y-89478095D02*
X99373343Y-89478095D01*
X99373343Y-89478095D02*
X99373343Y-89859047D01*
X99373343Y-89859047D02*
X99420962Y-89954285D01*
X99420962Y-89954285D02*
X99468581Y-90001904D01*
X99468581Y-90001904D02*
X99563819Y-90049523D01*
X99563819Y-90049523D02*
X99706676Y-90049523D01*
X99706676Y-90049523D02*
X99801914Y-90001904D01*
X99801914Y-90001904D02*
X99849533Y-89954285D01*
X99849533Y-89954285D02*
X99897152Y-89859047D01*
X99897152Y-89859047D02*
X99897152Y-89478095D01*
X100373343Y-90478095D02*
X99373343Y-90478095D01*
X99373343Y-90478095D02*
X100373343Y-91049523D01*
X100373343Y-91049523D02*
X99373343Y-91049523D01*
X100373343Y-92049523D02*
X100373343Y-91478095D01*
X100373343Y-91763809D02*
X99373343Y-91763809D01*
X99373343Y-91763809D02*
X99516200Y-91668571D01*
X99516200Y-91668571D02*
X99611438Y-91573333D01*
X99611438Y-91573333D02*
X99659057Y-91478095D01*
X145058953Y-72224981D02*
X144428276Y-72560317D01*
X144428276Y-72560317D02*
X144324497Y-72669430D01*
X144324497Y-72669430D02*
X144285118Y-72798232D01*
X144285118Y-72798232D02*
X144310140Y-72946723D01*
X144310140Y-72946723D02*
X144354852Y-73030813D01*
X144389922Y-71879596D02*
X144476679Y-71941330D01*
X144476679Y-71941330D02*
X144541079Y-71961020D01*
X144541079Y-71961020D02*
X144647525Y-71958353D01*
X144647525Y-71958353D02*
X144689571Y-71935997D01*
X144689571Y-71935997D02*
X144751305Y-71849241D01*
X144751305Y-71849241D02*
X144770994Y-71784840D01*
X144770994Y-71784840D02*
X144768328Y-71678394D01*
X144768328Y-71678394D02*
X144678905Y-71510213D01*
X144678905Y-71510213D02*
X144592148Y-71448479D01*
X144592148Y-71448479D02*
X144527747Y-71428789D01*
X144527747Y-71428789D02*
X144421301Y-71431456D01*
X144421301Y-71431456D02*
X144379256Y-71453812D01*
X144379256Y-71453812D02*
X144317522Y-71540568D01*
X144317522Y-71540568D02*
X144297832Y-71604969D01*
X144297832Y-71604969D02*
X144300499Y-71711415D01*
X144300499Y-71711415D02*
X144389922Y-71879596D01*
X144389922Y-71879596D02*
X144392588Y-71986042D01*
X144392588Y-71986042D02*
X144372899Y-72050443D01*
X144372899Y-72050443D02*
X144311164Y-72137199D01*
X144311164Y-72137199D02*
X144142984Y-72226623D01*
X144142984Y-72226623D02*
X144036538Y-72229289D01*
X144036538Y-72229289D02*
X143972137Y-72209600D01*
X143972137Y-72209600D02*
X143885380Y-72147865D01*
X143885380Y-72147865D02*
X143795957Y-71979685D01*
X143795957Y-71979685D02*
X143793291Y-71873239D01*
X143793291Y-71873239D02*
X143812980Y-71808838D01*
X143812980Y-71808838D02*
X143874715Y-71722081D01*
X143874715Y-71722081D02*
X144042895Y-71632658D01*
X144042895Y-71632658D02*
X144149341Y-71629992D01*
X144149341Y-71629992D02*
X144213742Y-71649681D01*
X144213742Y-71649681D02*
X144300499Y-71711415D01*
X105784819Y-107099523D02*
X105308628Y-106766190D01*
X105784819Y-106528095D02*
X104784819Y-106528095D01*
X104784819Y-106528095D02*
X104784819Y-106909047D01*
X104784819Y-106909047D02*
X104832438Y-107004285D01*
X104832438Y-107004285D02*
X104880057Y-107051904D01*
X104880057Y-107051904D02*
X104975295Y-107099523D01*
X104975295Y-107099523D02*
X105118152Y-107099523D01*
X105118152Y-107099523D02*
X105213390Y-107051904D01*
X105213390Y-107051904D02*
X105261009Y-107004285D01*
X105261009Y-107004285D02*
X105308628Y-106909047D01*
X105308628Y-106909047D02*
X105308628Y-106528095D01*
X105784819Y-107528095D02*
X104784819Y-107528095D01*
X104784819Y-107528095D02*
X105784819Y-108099523D01*
X105784819Y-108099523D02*
X104784819Y-108099523D01*
X105118152Y-109004285D02*
X105784819Y-109004285D01*
X104737200Y-108766190D02*
X105451485Y-108528095D01*
X105451485Y-108528095D02*
X105451485Y-109147142D01*
X145126618Y-104294819D02*
X145126618Y-103294819D01*
X145126618Y-103294819D02*
X144888523Y-103294819D01*
X144888523Y-103294819D02*
X144745666Y-103342438D01*
X144745666Y-103342438D02*
X144650428Y-103437676D01*
X144650428Y-103437676D02*
X144602809Y-103532914D01*
X144602809Y-103532914D02*
X144555190Y-103723390D01*
X144555190Y-103723390D02*
X144555190Y-103866247D01*
X144555190Y-103866247D02*
X144602809Y-104056723D01*
X144602809Y-104056723D02*
X144650428Y-104151961D01*
X144650428Y-104151961D02*
X144745666Y-104247200D01*
X144745666Y-104247200D02*
X144888523Y-104294819D01*
X144888523Y-104294819D02*
X145126618Y-104294819D01*
X143650428Y-103294819D02*
X144126618Y-103294819D01*
X144126618Y-103294819D02*
X144174237Y-103771009D01*
X144174237Y-103771009D02*
X144126618Y-103723390D01*
X144126618Y-103723390D02*
X144031380Y-103675771D01*
X144031380Y-103675771D02*
X143793285Y-103675771D01*
X143793285Y-103675771D02*
X143698047Y-103723390D01*
X143698047Y-103723390D02*
X143650428Y-103771009D01*
X143650428Y-103771009D02*
X143602809Y-103866247D01*
X143602809Y-103866247D02*
X143602809Y-104104342D01*
X143602809Y-104104342D02*
X143650428Y-104199580D01*
X143650428Y-104199580D02*
X143698047Y-104247200D01*
X143698047Y-104247200D02*
X143793285Y-104294819D01*
X143793285Y-104294819D02*
X144031380Y-104294819D01*
X144031380Y-104294819D02*
X144126618Y-104247200D01*
X144126618Y-104247200D02*
X144174237Y-104199580D01*
X154219580Y-93827142D02*
X154267200Y-93779523D01*
X154267200Y-93779523D02*
X154314819Y-93636666D01*
X154314819Y-93636666D02*
X154314819Y-93541428D01*
X154314819Y-93541428D02*
X154267200Y-93398571D01*
X154267200Y-93398571D02*
X154171961Y-93303333D01*
X154171961Y-93303333D02*
X154076723Y-93255714D01*
X154076723Y-93255714D02*
X153886247Y-93208095D01*
X153886247Y-93208095D02*
X153743390Y-93208095D01*
X153743390Y-93208095D02*
X153552914Y-93255714D01*
X153552914Y-93255714D02*
X153457676Y-93303333D01*
X153457676Y-93303333D02*
X153362438Y-93398571D01*
X153362438Y-93398571D02*
X153314819Y-93541428D01*
X153314819Y-93541428D02*
X153314819Y-93636666D01*
X153314819Y-93636666D02*
X153362438Y-93779523D01*
X153362438Y-93779523D02*
X153410057Y-93827142D01*
X154314819Y-94779523D02*
X154314819Y-94208095D01*
X154314819Y-94493809D02*
X153314819Y-94493809D01*
X153314819Y-94493809D02*
X153457676Y-94398571D01*
X153457676Y-94398571D02*
X153552914Y-94303333D01*
X153552914Y-94303333D02*
X153600533Y-94208095D01*
X153314819Y-95112857D02*
X153314819Y-95731904D01*
X153314819Y-95731904D02*
X153695771Y-95398571D01*
X153695771Y-95398571D02*
X153695771Y-95541428D01*
X153695771Y-95541428D02*
X153743390Y-95636666D01*
X153743390Y-95636666D02*
X153791009Y-95684285D01*
X153791009Y-95684285D02*
X153886247Y-95731904D01*
X153886247Y-95731904D02*
X154124342Y-95731904D01*
X154124342Y-95731904D02*
X154219580Y-95684285D01*
X154219580Y-95684285D02*
X154267200Y-95636666D01*
X154267200Y-95636666D02*
X154314819Y-95541428D01*
X154314819Y-95541428D02*
X154314819Y-95255714D01*
X154314819Y-95255714D02*
X154267200Y-95160476D01*
X154267200Y-95160476D02*
X154219580Y-95112857D01*
X97724000Y-99829819D02*
X98057333Y-99353628D01*
X98295428Y-99829819D02*
X98295428Y-98829819D01*
X98295428Y-98829819D02*
X97914476Y-98829819D01*
X97914476Y-98829819D02*
X97819238Y-98877438D01*
X97819238Y-98877438D02*
X97771619Y-98925057D01*
X97771619Y-98925057D02*
X97724000Y-99020295D01*
X97724000Y-99020295D02*
X97724000Y-99163152D01*
X97724000Y-99163152D02*
X97771619Y-99258390D01*
X97771619Y-99258390D02*
X97819238Y-99306009D01*
X97819238Y-99306009D02*
X97914476Y-99353628D01*
X97914476Y-99353628D02*
X98295428Y-99353628D01*
X97295428Y-99829819D02*
X97295428Y-98829819D01*
X97295428Y-98829819D02*
X96724000Y-99829819D01*
X96724000Y-99829819D02*
X96724000Y-98829819D01*
X95819238Y-98829819D02*
X96009714Y-98829819D01*
X96009714Y-98829819D02*
X96104952Y-98877438D01*
X96104952Y-98877438D02*
X96152571Y-98925057D01*
X96152571Y-98925057D02*
X96247809Y-99067914D01*
X96247809Y-99067914D02*
X96295428Y-99258390D01*
X96295428Y-99258390D02*
X96295428Y-99639342D01*
X96295428Y-99639342D02*
X96247809Y-99734580D01*
X96247809Y-99734580D02*
X96200190Y-99782200D01*
X96200190Y-99782200D02*
X96104952Y-99829819D01*
X96104952Y-99829819D02*
X95914476Y-99829819D01*
X95914476Y-99829819D02*
X95819238Y-99782200D01*
X95819238Y-99782200D02*
X95771619Y-99734580D01*
X95771619Y-99734580D02*
X95724000Y-99639342D01*
X95724000Y-99639342D02*
X95724000Y-99401247D01*
X95724000Y-99401247D02*
X95771619Y-99306009D01*
X95771619Y-99306009D02*
X95819238Y-99258390D01*
X95819238Y-99258390D02*
X95914476Y-99210771D01*
X95914476Y-99210771D02*
X96104952Y-99210771D01*
X96104952Y-99210771D02*
X96200190Y-99258390D01*
X96200190Y-99258390D02*
X96247809Y-99306009D01*
X96247809Y-99306009D02*
X96295428Y-99401247D01*
X104288104Y-104604642D02*
X104335724Y-104557023D01*
X104335724Y-104557023D02*
X104383343Y-104414166D01*
X104383343Y-104414166D02*
X104383343Y-104318928D01*
X104383343Y-104318928D02*
X104335724Y-104176071D01*
X104335724Y-104176071D02*
X104240485Y-104080833D01*
X104240485Y-104080833D02*
X104145247Y-104033214D01*
X104145247Y-104033214D02*
X103954771Y-103985595D01*
X103954771Y-103985595D02*
X103811914Y-103985595D01*
X103811914Y-103985595D02*
X103621438Y-104033214D01*
X103621438Y-104033214D02*
X103526200Y-104080833D01*
X103526200Y-104080833D02*
X103430962Y-104176071D01*
X103430962Y-104176071D02*
X103383343Y-104318928D01*
X103383343Y-104318928D02*
X103383343Y-104414166D01*
X103383343Y-104414166D02*
X103430962Y-104557023D01*
X103430962Y-104557023D02*
X103478581Y-104604642D01*
X103478581Y-104985595D02*
X103430962Y-105033214D01*
X103430962Y-105033214D02*
X103383343Y-105128452D01*
X103383343Y-105128452D02*
X103383343Y-105366547D01*
X103383343Y-105366547D02*
X103430962Y-105461785D01*
X103430962Y-105461785D02*
X103478581Y-105509404D01*
X103478581Y-105509404D02*
X103573819Y-105557023D01*
X103573819Y-105557023D02*
X103669057Y-105557023D01*
X103669057Y-105557023D02*
X103811914Y-105509404D01*
X103811914Y-105509404D02*
X104383343Y-104937976D01*
X104383343Y-104937976D02*
X104383343Y-105557023D01*
X103716676Y-106414166D02*
X104383343Y-106414166D01*
X103335724Y-106176071D02*
X104050009Y-105937976D01*
X104050009Y-105937976D02*
X104050009Y-106557023D01*
D13*
X104672842Y-98010237D02*
X103402842Y-98010237D01*
X104551889Y-99340714D02*
X104612366Y-99280238D01*
X104612366Y-99280238D02*
X104672842Y-99098809D01*
X104672842Y-99098809D02*
X104672842Y-98977857D01*
X104672842Y-98977857D02*
X104612366Y-98796428D01*
X104612366Y-98796428D02*
X104491413Y-98675476D01*
X104491413Y-98675476D02*
X104370461Y-98614999D01*
X104370461Y-98614999D02*
X104128556Y-98554523D01*
X104128556Y-98554523D02*
X103947127Y-98554523D01*
X103947127Y-98554523D02*
X103705223Y-98614999D01*
X103705223Y-98614999D02*
X103584270Y-98675476D01*
X103584270Y-98675476D02*
X103463318Y-98796428D01*
X103463318Y-98796428D02*
X103402842Y-98977857D01*
X103402842Y-98977857D02*
X103402842Y-99098809D01*
X103402842Y-99098809D02*
X103463318Y-99280238D01*
X103463318Y-99280238D02*
X103523794Y-99340714D01*
X104672842Y-100550238D02*
X104672842Y-99824523D01*
X104672842Y-100187380D02*
X103402842Y-100187380D01*
X103402842Y-100187380D02*
X103584270Y-100066428D01*
X103584270Y-100066428D02*
X103705223Y-99945476D01*
X103705223Y-99945476D02*
X103765699Y-99824523D01*
D12*
X127121666Y-49864819D02*
X127454999Y-49388628D01*
X127693094Y-49864819D02*
X127693094Y-48864819D01*
X127693094Y-48864819D02*
X127312142Y-48864819D01*
X127312142Y-48864819D02*
X127216904Y-48912438D01*
X127216904Y-48912438D02*
X127169285Y-48960057D01*
X127169285Y-48960057D02*
X127121666Y-49055295D01*
X127121666Y-49055295D02*
X127121666Y-49198152D01*
X127121666Y-49198152D02*
X127169285Y-49293390D01*
X127169285Y-49293390D02*
X127216904Y-49341009D01*
X127216904Y-49341009D02*
X127312142Y-49388628D01*
X127312142Y-49388628D02*
X127693094Y-49388628D01*
X126264523Y-49198152D02*
X126264523Y-49864819D01*
X126502618Y-48817200D02*
X126740713Y-49531485D01*
X126740713Y-49531485D02*
X126121666Y-49531485D01*
X101933343Y-86226905D02*
X100933343Y-86226905D01*
X100933343Y-86226905D02*
X100933343Y-86465000D01*
X100933343Y-86465000D02*
X100980962Y-86607857D01*
X100980962Y-86607857D02*
X101076200Y-86703095D01*
X101076200Y-86703095D02*
X101171438Y-86750714D01*
X101171438Y-86750714D02*
X101361914Y-86798333D01*
X101361914Y-86798333D02*
X101504771Y-86798333D01*
X101504771Y-86798333D02*
X101695247Y-86750714D01*
X101695247Y-86750714D02*
X101790485Y-86703095D01*
X101790485Y-86703095D02*
X101885724Y-86607857D01*
X101885724Y-86607857D02*
X101933343Y-86465000D01*
X101933343Y-86465000D02*
X101933343Y-86226905D01*
X101266676Y-87655476D02*
X101933343Y-87655476D01*
X100885724Y-87417381D02*
X101600009Y-87179286D01*
X101600009Y-87179286D02*
X101600009Y-87798333D01*
X112150476Y-96954819D02*
X112483809Y-96478628D01*
X112721904Y-96954819D02*
X112721904Y-95954819D01*
X112721904Y-95954819D02*
X112340952Y-95954819D01*
X112340952Y-95954819D02*
X112245714Y-96002438D01*
X112245714Y-96002438D02*
X112198095Y-96050057D01*
X112198095Y-96050057D02*
X112150476Y-96145295D01*
X112150476Y-96145295D02*
X112150476Y-96288152D01*
X112150476Y-96288152D02*
X112198095Y-96383390D01*
X112198095Y-96383390D02*
X112245714Y-96431009D01*
X112245714Y-96431009D02*
X112340952Y-96478628D01*
X112340952Y-96478628D02*
X112721904Y-96478628D01*
X111721904Y-96954819D02*
X111721904Y-95954819D01*
X111721904Y-95954819D02*
X111150476Y-96954819D01*
X111150476Y-96954819D02*
X111150476Y-95954819D01*
X110769523Y-95954819D02*
X110150476Y-95954819D01*
X110150476Y-95954819D02*
X110483809Y-96335771D01*
X110483809Y-96335771D02*
X110340952Y-96335771D01*
X110340952Y-96335771D02*
X110245714Y-96383390D01*
X110245714Y-96383390D02*
X110198095Y-96431009D01*
X110198095Y-96431009D02*
X110150476Y-96526247D01*
X110150476Y-96526247D02*
X110150476Y-96764342D01*
X110150476Y-96764342D02*
X110198095Y-96859580D01*
X110198095Y-96859580D02*
X110245714Y-96907200D01*
X110245714Y-96907200D02*
X110340952Y-96954819D01*
X110340952Y-96954819D02*
X110626666Y-96954819D01*
X110626666Y-96954819D02*
X110721904Y-96907200D01*
X110721904Y-96907200D02*
X110769523Y-96859580D01*
X141015843Y-104004642D02*
X140539652Y-103671309D01*
X141015843Y-103433214D02*
X140015843Y-103433214D01*
X140015843Y-103433214D02*
X140015843Y-103814166D01*
X140015843Y-103814166D02*
X140063462Y-103909404D01*
X140063462Y-103909404D02*
X140111081Y-103957023D01*
X140111081Y-103957023D02*
X140206319Y-104004642D01*
X140206319Y-104004642D02*
X140349176Y-104004642D01*
X140349176Y-104004642D02*
X140444414Y-103957023D01*
X140444414Y-103957023D02*
X140492033Y-103909404D01*
X140492033Y-103909404D02*
X140539652Y-103814166D01*
X140539652Y-103814166D02*
X140539652Y-103433214D01*
X141015843Y-104957023D02*
X141015843Y-104385595D01*
X141015843Y-104671309D02*
X140015843Y-104671309D01*
X140015843Y-104671309D02*
X140158700Y-104576071D01*
X140158700Y-104576071D02*
X140253938Y-104480833D01*
X140253938Y-104480833D02*
X140301557Y-104385595D01*
X140015843Y-105290357D02*
X140015843Y-105957023D01*
X140015843Y-105957023D02*
X141015843Y-105528452D01*
X98519580Y-118347142D02*
X98567200Y-118299523D01*
X98567200Y-118299523D02*
X98614819Y-118156666D01*
X98614819Y-118156666D02*
X98614819Y-118061428D01*
X98614819Y-118061428D02*
X98567200Y-117918571D01*
X98567200Y-117918571D02*
X98471961Y-117823333D01*
X98471961Y-117823333D02*
X98376723Y-117775714D01*
X98376723Y-117775714D02*
X98186247Y-117728095D01*
X98186247Y-117728095D02*
X98043390Y-117728095D01*
X98043390Y-117728095D02*
X97852914Y-117775714D01*
X97852914Y-117775714D02*
X97757676Y-117823333D01*
X97757676Y-117823333D02*
X97662438Y-117918571D01*
X97662438Y-117918571D02*
X97614819Y-118061428D01*
X97614819Y-118061428D02*
X97614819Y-118156666D01*
X97614819Y-118156666D02*
X97662438Y-118299523D01*
X97662438Y-118299523D02*
X97710057Y-118347142D01*
X97614819Y-118680476D02*
X97614819Y-119299523D01*
X97614819Y-119299523D02*
X97995771Y-118966190D01*
X97995771Y-118966190D02*
X97995771Y-119109047D01*
X97995771Y-119109047D02*
X98043390Y-119204285D01*
X98043390Y-119204285D02*
X98091009Y-119251904D01*
X98091009Y-119251904D02*
X98186247Y-119299523D01*
X98186247Y-119299523D02*
X98424342Y-119299523D01*
X98424342Y-119299523D02*
X98519580Y-119251904D01*
X98519580Y-119251904D02*
X98567200Y-119204285D01*
X98567200Y-119204285D02*
X98614819Y-119109047D01*
X98614819Y-119109047D02*
X98614819Y-118823333D01*
X98614819Y-118823333D02*
X98567200Y-118728095D01*
X98567200Y-118728095D02*
X98519580Y-118680476D01*
X97710057Y-119680476D02*
X97662438Y-119728095D01*
X97662438Y-119728095D02*
X97614819Y-119823333D01*
X97614819Y-119823333D02*
X97614819Y-120061428D01*
X97614819Y-120061428D02*
X97662438Y-120156666D01*
X97662438Y-120156666D02*
X97710057Y-120204285D01*
X97710057Y-120204285D02*
X97805295Y-120251904D01*
X97805295Y-120251904D02*
X97900533Y-120251904D01*
X97900533Y-120251904D02*
X98043390Y-120204285D01*
X98043390Y-120204285D02*
X98614819Y-119632857D01*
X98614819Y-119632857D02*
X98614819Y-120251904D01*
X87486666Y-123702080D02*
X87534285Y-123749700D01*
X87534285Y-123749700D02*
X87677142Y-123797319D01*
X87677142Y-123797319D02*
X87772380Y-123797319D01*
X87772380Y-123797319D02*
X87915237Y-123749700D01*
X87915237Y-123749700D02*
X88010475Y-123654461D01*
X88010475Y-123654461D02*
X88058094Y-123559223D01*
X88058094Y-123559223D02*
X88105713Y-123368747D01*
X88105713Y-123368747D02*
X88105713Y-123225890D01*
X88105713Y-123225890D02*
X88058094Y-123035414D01*
X88058094Y-123035414D02*
X88010475Y-122940176D01*
X88010475Y-122940176D02*
X87915237Y-122844938D01*
X87915237Y-122844938D02*
X87772380Y-122797319D01*
X87772380Y-122797319D02*
X87677142Y-122797319D01*
X87677142Y-122797319D02*
X87534285Y-122844938D01*
X87534285Y-122844938D02*
X87486666Y-122892557D01*
X86629523Y-122797319D02*
X86819999Y-122797319D01*
X86819999Y-122797319D02*
X86915237Y-122844938D01*
X86915237Y-122844938D02*
X86962856Y-122892557D01*
X86962856Y-122892557D02*
X87058094Y-123035414D01*
X87058094Y-123035414D02*
X87105713Y-123225890D01*
X87105713Y-123225890D02*
X87105713Y-123606842D01*
X87105713Y-123606842D02*
X87058094Y-123702080D01*
X87058094Y-123702080D02*
X87010475Y-123749700D01*
X87010475Y-123749700D02*
X86915237Y-123797319D01*
X86915237Y-123797319D02*
X86724761Y-123797319D01*
X86724761Y-123797319D02*
X86629523Y-123749700D01*
X86629523Y-123749700D02*
X86581904Y-123702080D01*
X86581904Y-123702080D02*
X86534285Y-123606842D01*
X86534285Y-123606842D02*
X86534285Y-123368747D01*
X86534285Y-123368747D02*
X86581904Y-123273509D01*
X86581904Y-123273509D02*
X86629523Y-123225890D01*
X86629523Y-123225890D02*
X86724761Y-123178271D01*
X86724761Y-123178271D02*
X86915237Y-123178271D01*
X86915237Y-123178271D02*
X87010475Y-123225890D01*
X87010475Y-123225890D02*
X87058094Y-123273509D01*
X87058094Y-123273509D02*
X87105713Y-123368747D01*
X120308343Y-105677142D02*
X119832152Y-105343809D01*
X120308343Y-105105714D02*
X119308343Y-105105714D01*
X119308343Y-105105714D02*
X119308343Y-105486666D01*
X119308343Y-105486666D02*
X119355962Y-105581904D01*
X119355962Y-105581904D02*
X119403581Y-105629523D01*
X119403581Y-105629523D02*
X119498819Y-105677142D01*
X119498819Y-105677142D02*
X119641676Y-105677142D01*
X119641676Y-105677142D02*
X119736914Y-105629523D01*
X119736914Y-105629523D02*
X119784533Y-105581904D01*
X119784533Y-105581904D02*
X119832152Y-105486666D01*
X119832152Y-105486666D02*
X119832152Y-105105714D01*
X120308343Y-106629523D02*
X120308343Y-106058095D01*
X120308343Y-106343809D02*
X119308343Y-106343809D01*
X119308343Y-106343809D02*
X119451200Y-106248571D01*
X119451200Y-106248571D02*
X119546438Y-106153333D01*
X119546438Y-106153333D02*
X119594057Y-106058095D01*
X120308343Y-107581904D02*
X120308343Y-107010476D01*
X120308343Y-107296190D02*
X119308343Y-107296190D01*
X119308343Y-107296190D02*
X119451200Y-107200952D01*
X119451200Y-107200952D02*
X119546438Y-107105714D01*
X119546438Y-107105714D02*
X119594057Y-107010476D01*
X155746666Y-99499580D02*
X155794285Y-99547200D01*
X155794285Y-99547200D02*
X155937142Y-99594819D01*
X155937142Y-99594819D02*
X156032380Y-99594819D01*
X156032380Y-99594819D02*
X156175237Y-99547200D01*
X156175237Y-99547200D02*
X156270475Y-99451961D01*
X156270475Y-99451961D02*
X156318094Y-99356723D01*
X156318094Y-99356723D02*
X156365713Y-99166247D01*
X156365713Y-99166247D02*
X156365713Y-99023390D01*
X156365713Y-99023390D02*
X156318094Y-98832914D01*
X156318094Y-98832914D02*
X156270475Y-98737676D01*
X156270475Y-98737676D02*
X156175237Y-98642438D01*
X156175237Y-98642438D02*
X156032380Y-98594819D01*
X156032380Y-98594819D02*
X155937142Y-98594819D01*
X155937142Y-98594819D02*
X155794285Y-98642438D01*
X155794285Y-98642438D02*
X155746666Y-98690057D01*
X155270475Y-99594819D02*
X155079999Y-99594819D01*
X155079999Y-99594819D02*
X154984761Y-99547200D01*
X154984761Y-99547200D02*
X154937142Y-99499580D01*
X154937142Y-99499580D02*
X154841904Y-99356723D01*
X154841904Y-99356723D02*
X154794285Y-99166247D01*
X154794285Y-99166247D02*
X154794285Y-98785295D01*
X154794285Y-98785295D02*
X154841904Y-98690057D01*
X154841904Y-98690057D02*
X154889523Y-98642438D01*
X154889523Y-98642438D02*
X154984761Y-98594819D01*
X154984761Y-98594819D02*
X155175237Y-98594819D01*
X155175237Y-98594819D02*
X155270475Y-98642438D01*
X155270475Y-98642438D02*
X155318094Y-98690057D01*
X155318094Y-98690057D02*
X155365713Y-98785295D01*
X155365713Y-98785295D02*
X155365713Y-99023390D01*
X155365713Y-99023390D02*
X155318094Y-99118628D01*
X155318094Y-99118628D02*
X155270475Y-99166247D01*
X155270475Y-99166247D02*
X155175237Y-99213866D01*
X155175237Y-99213866D02*
X154984761Y-99213866D01*
X154984761Y-99213866D02*
X154889523Y-99166247D01*
X154889523Y-99166247D02*
X154841904Y-99118628D01*
X154841904Y-99118628D02*
X154794285Y-99023390D01*
X152410190Y-102459580D02*
X152457809Y-102507200D01*
X152457809Y-102507200D02*
X152600666Y-102554819D01*
X152600666Y-102554819D02*
X152695904Y-102554819D01*
X152695904Y-102554819D02*
X152838761Y-102507200D01*
X152838761Y-102507200D02*
X152933999Y-102411961D01*
X152933999Y-102411961D02*
X152981618Y-102316723D01*
X152981618Y-102316723D02*
X153029237Y-102126247D01*
X153029237Y-102126247D02*
X153029237Y-101983390D01*
X153029237Y-101983390D02*
X152981618Y-101792914D01*
X152981618Y-101792914D02*
X152933999Y-101697676D01*
X152933999Y-101697676D02*
X152838761Y-101602438D01*
X152838761Y-101602438D02*
X152695904Y-101554819D01*
X152695904Y-101554819D02*
X152600666Y-101554819D01*
X152600666Y-101554819D02*
X152457809Y-101602438D01*
X152457809Y-101602438D02*
X152410190Y-101650057D01*
X152076856Y-101554819D02*
X151457809Y-101554819D01*
X151457809Y-101554819D02*
X151791142Y-101935771D01*
X151791142Y-101935771D02*
X151648285Y-101935771D01*
X151648285Y-101935771D02*
X151553047Y-101983390D01*
X151553047Y-101983390D02*
X151505428Y-102031009D01*
X151505428Y-102031009D02*
X151457809Y-102126247D01*
X151457809Y-102126247D02*
X151457809Y-102364342D01*
X151457809Y-102364342D02*
X151505428Y-102459580D01*
X151505428Y-102459580D02*
X151553047Y-102507200D01*
X151553047Y-102507200D02*
X151648285Y-102554819D01*
X151648285Y-102554819D02*
X151933999Y-102554819D01*
X151933999Y-102554819D02*
X152029237Y-102507200D01*
X152029237Y-102507200D02*
X152076856Y-102459580D01*
D14*
X133140365Y-69706168D02*
X133140365Y-69966608D01*
X133140365Y-69966608D02*
X133125045Y-69997248D01*
X133125045Y-69997248D02*
X133109725Y-70012569D01*
X133109725Y-70012569D02*
X133079085Y-70027889D01*
X133079085Y-70027889D02*
X133017805Y-70027889D01*
X133017805Y-70027889D02*
X132987165Y-70012569D01*
X132987165Y-70012569D02*
X132971845Y-69997248D01*
X132971845Y-69997248D02*
X132956525Y-69966608D01*
X132956525Y-69966608D02*
X132956525Y-69706168D01*
X132818644Y-69736808D02*
X132803324Y-69721488D01*
X132803324Y-69721488D02*
X132772684Y-69706168D01*
X132772684Y-69706168D02*
X132696084Y-69706168D01*
X132696084Y-69706168D02*
X132665444Y-69721488D01*
X132665444Y-69721488D02*
X132650124Y-69736808D01*
X132650124Y-69736808D02*
X132634804Y-69767448D01*
X132634804Y-69767448D02*
X132634804Y-69798088D01*
X132634804Y-69798088D02*
X132650124Y-69844048D01*
X132650124Y-69844048D02*
X132833964Y-70027889D01*
X132833964Y-70027889D02*
X132634804Y-70027889D01*
D12*
X104518104Y-92977142D02*
X104565724Y-92929523D01*
X104565724Y-92929523D02*
X104613343Y-92786666D01*
X104613343Y-92786666D02*
X104613343Y-92691428D01*
X104613343Y-92691428D02*
X104565724Y-92548571D01*
X104565724Y-92548571D02*
X104470485Y-92453333D01*
X104470485Y-92453333D02*
X104375247Y-92405714D01*
X104375247Y-92405714D02*
X104184771Y-92358095D01*
X104184771Y-92358095D02*
X104041914Y-92358095D01*
X104041914Y-92358095D02*
X103851438Y-92405714D01*
X103851438Y-92405714D02*
X103756200Y-92453333D01*
X103756200Y-92453333D02*
X103660962Y-92548571D01*
X103660962Y-92548571D02*
X103613343Y-92691428D01*
X103613343Y-92691428D02*
X103613343Y-92786666D01*
X103613343Y-92786666D02*
X103660962Y-92929523D01*
X103660962Y-92929523D02*
X103708581Y-92977142D01*
X104613343Y-93929523D02*
X104613343Y-93358095D01*
X104613343Y-93643809D02*
X103613343Y-93643809D01*
X103613343Y-93643809D02*
X103756200Y-93548571D01*
X103756200Y-93548571D02*
X103851438Y-93453333D01*
X103851438Y-93453333D02*
X103899057Y-93358095D01*
X104613343Y-94405714D02*
X104613343Y-94596190D01*
X104613343Y-94596190D02*
X104565724Y-94691428D01*
X104565724Y-94691428D02*
X104518104Y-94739047D01*
X104518104Y-94739047D02*
X104375247Y-94834285D01*
X104375247Y-94834285D02*
X104184771Y-94881904D01*
X104184771Y-94881904D02*
X103803819Y-94881904D01*
X103803819Y-94881904D02*
X103708581Y-94834285D01*
X103708581Y-94834285D02*
X103660962Y-94786666D01*
X103660962Y-94786666D02*
X103613343Y-94691428D01*
X103613343Y-94691428D02*
X103613343Y-94500952D01*
X103613343Y-94500952D02*
X103660962Y-94405714D01*
X103660962Y-94405714D02*
X103708581Y-94358095D01*
X103708581Y-94358095D02*
X103803819Y-94310476D01*
X103803819Y-94310476D02*
X104041914Y-94310476D01*
X104041914Y-94310476D02*
X104137152Y-94358095D01*
X104137152Y-94358095D02*
X104184771Y-94405714D01*
X104184771Y-94405714D02*
X104232390Y-94500952D01*
X104232390Y-94500952D02*
X104232390Y-94691428D01*
X104232390Y-94691428D02*
X104184771Y-94786666D01*
X104184771Y-94786666D02*
X104137152Y-94834285D01*
X104137152Y-94834285D02*
X104041914Y-94881904D01*
X132595190Y-112369819D02*
X132928523Y-111893628D01*
X133166618Y-112369819D02*
X133166618Y-111369819D01*
X133166618Y-111369819D02*
X132785666Y-111369819D01*
X132785666Y-111369819D02*
X132690428Y-111417438D01*
X132690428Y-111417438D02*
X132642809Y-111465057D01*
X132642809Y-111465057D02*
X132595190Y-111560295D01*
X132595190Y-111560295D02*
X132595190Y-111703152D01*
X132595190Y-111703152D02*
X132642809Y-111798390D01*
X132642809Y-111798390D02*
X132690428Y-111846009D01*
X132690428Y-111846009D02*
X132785666Y-111893628D01*
X132785666Y-111893628D02*
X133166618Y-111893628D01*
X132214237Y-111465057D02*
X132166618Y-111417438D01*
X132166618Y-111417438D02*
X132071380Y-111369819D01*
X132071380Y-111369819D02*
X131833285Y-111369819D01*
X131833285Y-111369819D02*
X131738047Y-111417438D01*
X131738047Y-111417438D02*
X131690428Y-111465057D01*
X131690428Y-111465057D02*
X131642809Y-111560295D01*
X131642809Y-111560295D02*
X131642809Y-111655533D01*
X131642809Y-111655533D02*
X131690428Y-111798390D01*
X131690428Y-111798390D02*
X132261856Y-112369819D01*
X132261856Y-112369819D02*
X131642809Y-112369819D01*
X115003104Y-105087142D02*
X115050724Y-105039523D01*
X115050724Y-105039523D02*
X115098343Y-104896666D01*
X115098343Y-104896666D02*
X115098343Y-104801428D01*
X115098343Y-104801428D02*
X115050724Y-104658571D01*
X115050724Y-104658571D02*
X114955485Y-104563333D01*
X114955485Y-104563333D02*
X114860247Y-104515714D01*
X114860247Y-104515714D02*
X114669771Y-104468095D01*
X114669771Y-104468095D02*
X114526914Y-104468095D01*
X114526914Y-104468095D02*
X114336438Y-104515714D01*
X114336438Y-104515714D02*
X114241200Y-104563333D01*
X114241200Y-104563333D02*
X114145962Y-104658571D01*
X114145962Y-104658571D02*
X114098343Y-104801428D01*
X114098343Y-104801428D02*
X114098343Y-104896666D01*
X114098343Y-104896666D02*
X114145962Y-105039523D01*
X114145962Y-105039523D02*
X114193581Y-105087142D01*
X114193581Y-105468095D02*
X114145962Y-105515714D01*
X114145962Y-105515714D02*
X114098343Y-105610952D01*
X114098343Y-105610952D02*
X114098343Y-105849047D01*
X114098343Y-105849047D02*
X114145962Y-105944285D01*
X114145962Y-105944285D02*
X114193581Y-105991904D01*
X114193581Y-105991904D02*
X114288819Y-106039523D01*
X114288819Y-106039523D02*
X114384057Y-106039523D01*
X114384057Y-106039523D02*
X114526914Y-105991904D01*
X114526914Y-105991904D02*
X115098343Y-105420476D01*
X115098343Y-105420476D02*
X115098343Y-106039523D01*
X114098343Y-106372857D02*
X114098343Y-107039523D01*
X114098343Y-107039523D02*
X115098343Y-106610952D01*
X142346618Y-112764819D02*
X142346618Y-111764819D01*
X142346618Y-111764819D02*
X142108523Y-111764819D01*
X142108523Y-111764819D02*
X141965666Y-111812438D01*
X141965666Y-111812438D02*
X141870428Y-111907676D01*
X141870428Y-111907676D02*
X141822809Y-112002914D01*
X141822809Y-112002914D02*
X141775190Y-112193390D01*
X141775190Y-112193390D02*
X141775190Y-112336247D01*
X141775190Y-112336247D02*
X141822809Y-112526723D01*
X141822809Y-112526723D02*
X141870428Y-112621961D01*
X141870428Y-112621961D02*
X141965666Y-112717200D01*
X141965666Y-112717200D02*
X142108523Y-112764819D01*
X142108523Y-112764819D02*
X142346618Y-112764819D01*
X140918047Y-111764819D02*
X141108523Y-111764819D01*
X141108523Y-111764819D02*
X141203761Y-111812438D01*
X141203761Y-111812438D02*
X141251380Y-111860057D01*
X141251380Y-111860057D02*
X141346618Y-112002914D01*
X141346618Y-112002914D02*
X141394237Y-112193390D01*
X141394237Y-112193390D02*
X141394237Y-112574342D01*
X141394237Y-112574342D02*
X141346618Y-112669580D01*
X141346618Y-112669580D02*
X141298999Y-112717200D01*
X141298999Y-112717200D02*
X141203761Y-112764819D01*
X141203761Y-112764819D02*
X141013285Y-112764819D01*
X141013285Y-112764819D02*
X140918047Y-112717200D01*
X140918047Y-112717200D02*
X140870428Y-112669580D01*
X140870428Y-112669580D02*
X140822809Y-112574342D01*
X140822809Y-112574342D02*
X140822809Y-112336247D01*
X140822809Y-112336247D02*
X140870428Y-112241009D01*
X140870428Y-112241009D02*
X140918047Y-112193390D01*
X140918047Y-112193390D02*
X141013285Y-112145771D01*
X141013285Y-112145771D02*
X141203761Y-112145771D01*
X141203761Y-112145771D02*
X141298999Y-112193390D01*
X141298999Y-112193390D02*
X141346618Y-112241009D01*
X141346618Y-112241009D02*
X141394237Y-112336247D01*
X151040604Y-109504642D02*
X151088224Y-109457023D01*
X151088224Y-109457023D02*
X151135843Y-109314166D01*
X151135843Y-109314166D02*
X151135843Y-109218928D01*
X151135843Y-109218928D02*
X151088224Y-109076071D01*
X151088224Y-109076071D02*
X150992985Y-108980833D01*
X150992985Y-108980833D02*
X150897747Y-108933214D01*
X150897747Y-108933214D02*
X150707271Y-108885595D01*
X150707271Y-108885595D02*
X150564414Y-108885595D01*
X150564414Y-108885595D02*
X150373938Y-108933214D01*
X150373938Y-108933214D02*
X150278700Y-108980833D01*
X150278700Y-108980833D02*
X150183462Y-109076071D01*
X150183462Y-109076071D02*
X150135843Y-109218928D01*
X150135843Y-109218928D02*
X150135843Y-109314166D01*
X150135843Y-109314166D02*
X150183462Y-109457023D01*
X150183462Y-109457023D02*
X150231081Y-109504642D01*
X150231081Y-109885595D02*
X150183462Y-109933214D01*
X150183462Y-109933214D02*
X150135843Y-110028452D01*
X150135843Y-110028452D02*
X150135843Y-110266547D01*
X150135843Y-110266547D02*
X150183462Y-110361785D01*
X150183462Y-110361785D02*
X150231081Y-110409404D01*
X150231081Y-110409404D02*
X150326319Y-110457023D01*
X150326319Y-110457023D02*
X150421557Y-110457023D01*
X150421557Y-110457023D02*
X150564414Y-110409404D01*
X150564414Y-110409404D02*
X151135843Y-109837976D01*
X151135843Y-109837976D02*
X151135843Y-110457023D01*
X151135843Y-110933214D02*
X151135843Y-111123690D01*
X151135843Y-111123690D02*
X151088224Y-111218928D01*
X151088224Y-111218928D02*
X151040604Y-111266547D01*
X151040604Y-111266547D02*
X150897747Y-111361785D01*
X150897747Y-111361785D02*
X150707271Y-111409404D01*
X150707271Y-111409404D02*
X150326319Y-111409404D01*
X150326319Y-111409404D02*
X150231081Y-111361785D01*
X150231081Y-111361785D02*
X150183462Y-111314166D01*
X150183462Y-111314166D02*
X150135843Y-111218928D01*
X150135843Y-111218928D02*
X150135843Y-111028452D01*
X150135843Y-111028452D02*
X150183462Y-110933214D01*
X150183462Y-110933214D02*
X150231081Y-110885595D01*
X150231081Y-110885595D02*
X150326319Y-110837976D01*
X150326319Y-110837976D02*
X150564414Y-110837976D01*
X150564414Y-110837976D02*
X150659652Y-110885595D01*
X150659652Y-110885595D02*
X150707271Y-110933214D01*
X150707271Y-110933214D02*
X150754890Y-111028452D01*
X150754890Y-111028452D02*
X150754890Y-111218928D01*
X150754890Y-111218928D02*
X150707271Y-111314166D01*
X150707271Y-111314166D02*
X150659652Y-111361785D01*
X150659652Y-111361785D02*
X150564414Y-111409404D01*
X108198104Y-106109642D02*
X108245724Y-106062023D01*
X108245724Y-106062023D02*
X108293343Y-105919166D01*
X108293343Y-105919166D02*
X108293343Y-105823928D01*
X108293343Y-105823928D02*
X108245724Y-105681071D01*
X108245724Y-105681071D02*
X108150485Y-105585833D01*
X108150485Y-105585833D02*
X108055247Y-105538214D01*
X108055247Y-105538214D02*
X107864771Y-105490595D01*
X107864771Y-105490595D02*
X107721914Y-105490595D01*
X107721914Y-105490595D02*
X107531438Y-105538214D01*
X107531438Y-105538214D02*
X107436200Y-105585833D01*
X107436200Y-105585833D02*
X107340962Y-105681071D01*
X107340962Y-105681071D02*
X107293343Y-105823928D01*
X107293343Y-105823928D02*
X107293343Y-105919166D01*
X107293343Y-105919166D02*
X107340962Y-106062023D01*
X107340962Y-106062023D02*
X107388581Y-106109642D01*
X107388581Y-106490595D02*
X107340962Y-106538214D01*
X107340962Y-106538214D02*
X107293343Y-106633452D01*
X107293343Y-106633452D02*
X107293343Y-106871547D01*
X107293343Y-106871547D02*
X107340962Y-106966785D01*
X107340962Y-106966785D02*
X107388581Y-107014404D01*
X107388581Y-107014404D02*
X107483819Y-107062023D01*
X107483819Y-107062023D02*
X107579057Y-107062023D01*
X107579057Y-107062023D02*
X107721914Y-107014404D01*
X107721914Y-107014404D02*
X108293343Y-106442976D01*
X108293343Y-106442976D02*
X108293343Y-107062023D01*
X107293343Y-107395357D02*
X107293343Y-108014404D01*
X107293343Y-108014404D02*
X107674295Y-107681071D01*
X107674295Y-107681071D02*
X107674295Y-107823928D01*
X107674295Y-107823928D02*
X107721914Y-107919166D01*
X107721914Y-107919166D02*
X107769533Y-107966785D01*
X107769533Y-107966785D02*
X107864771Y-108014404D01*
X107864771Y-108014404D02*
X108102866Y-108014404D01*
X108102866Y-108014404D02*
X108198104Y-107966785D01*
X108198104Y-107966785D02*
X108245724Y-107919166D01*
X108245724Y-107919166D02*
X108293343Y-107823928D01*
X108293343Y-107823928D02*
X108293343Y-107538214D01*
X108293343Y-107538214D02*
X108245724Y-107442976D01*
X108245724Y-107442976D02*
X108198104Y-107395357D01*
X165063343Y-121648333D02*
X164587152Y-121315000D01*
X165063343Y-121076905D02*
X164063343Y-121076905D01*
X164063343Y-121076905D02*
X164063343Y-121457857D01*
X164063343Y-121457857D02*
X164110962Y-121553095D01*
X164110962Y-121553095D02*
X164158581Y-121600714D01*
X164158581Y-121600714D02*
X164253819Y-121648333D01*
X164253819Y-121648333D02*
X164396676Y-121648333D01*
X164396676Y-121648333D02*
X164491914Y-121600714D01*
X164491914Y-121600714D02*
X164539533Y-121553095D01*
X164539533Y-121553095D02*
X164587152Y-121457857D01*
X164587152Y-121457857D02*
X164587152Y-121076905D01*
X164063343Y-122553095D02*
X164063343Y-122076905D01*
X164063343Y-122076905D02*
X164539533Y-122029286D01*
X164539533Y-122029286D02*
X164491914Y-122076905D01*
X164491914Y-122076905D02*
X164444295Y-122172143D01*
X164444295Y-122172143D02*
X164444295Y-122410238D01*
X164444295Y-122410238D02*
X164491914Y-122505476D01*
X164491914Y-122505476D02*
X164539533Y-122553095D01*
X164539533Y-122553095D02*
X164634771Y-122600714D01*
X164634771Y-122600714D02*
X164872866Y-122600714D01*
X164872866Y-122600714D02*
X164968104Y-122553095D01*
X164968104Y-122553095D02*
X165015724Y-122505476D01*
X165015724Y-122505476D02*
X165063343Y-122410238D01*
X165063343Y-122410238D02*
X165063343Y-122172143D01*
X165063343Y-122172143D02*
X165015724Y-122076905D01*
X165015724Y-122076905D02*
X164968104Y-122029286D01*
X107124819Y-88689523D02*
X106648628Y-88356190D01*
X107124819Y-88118095D02*
X106124819Y-88118095D01*
X106124819Y-88118095D02*
X106124819Y-88499047D01*
X106124819Y-88499047D02*
X106172438Y-88594285D01*
X106172438Y-88594285D02*
X106220057Y-88641904D01*
X106220057Y-88641904D02*
X106315295Y-88689523D01*
X106315295Y-88689523D02*
X106458152Y-88689523D01*
X106458152Y-88689523D02*
X106553390Y-88641904D01*
X106553390Y-88641904D02*
X106601009Y-88594285D01*
X106601009Y-88594285D02*
X106648628Y-88499047D01*
X106648628Y-88499047D02*
X106648628Y-88118095D01*
X107124819Y-89118095D02*
X106124819Y-89118095D01*
X106124819Y-89118095D02*
X107124819Y-89689523D01*
X107124819Y-89689523D02*
X106124819Y-89689523D01*
X106220057Y-90118095D02*
X106172438Y-90165714D01*
X106172438Y-90165714D02*
X106124819Y-90260952D01*
X106124819Y-90260952D02*
X106124819Y-90499047D01*
X106124819Y-90499047D02*
X106172438Y-90594285D01*
X106172438Y-90594285D02*
X106220057Y-90641904D01*
X106220057Y-90641904D02*
X106315295Y-90689523D01*
X106315295Y-90689523D02*
X106410533Y-90689523D01*
X106410533Y-90689523D02*
X106553390Y-90641904D01*
X106553390Y-90641904D02*
X107124819Y-90070476D01*
X107124819Y-90070476D02*
X107124819Y-90689523D01*
X120668104Y-113694642D02*
X120715724Y-113647023D01*
X120715724Y-113647023D02*
X120763343Y-113504166D01*
X120763343Y-113504166D02*
X120763343Y-113408928D01*
X120763343Y-113408928D02*
X120715724Y-113266071D01*
X120715724Y-113266071D02*
X120620485Y-113170833D01*
X120620485Y-113170833D02*
X120525247Y-113123214D01*
X120525247Y-113123214D02*
X120334771Y-113075595D01*
X120334771Y-113075595D02*
X120191914Y-113075595D01*
X120191914Y-113075595D02*
X120001438Y-113123214D01*
X120001438Y-113123214D02*
X119906200Y-113170833D01*
X119906200Y-113170833D02*
X119810962Y-113266071D01*
X119810962Y-113266071D02*
X119763343Y-113408928D01*
X119763343Y-113408928D02*
X119763343Y-113504166D01*
X119763343Y-113504166D02*
X119810962Y-113647023D01*
X119810962Y-113647023D02*
X119858581Y-113694642D01*
X120763343Y-114647023D02*
X120763343Y-114075595D01*
X120763343Y-114361309D02*
X119763343Y-114361309D01*
X119763343Y-114361309D02*
X119906200Y-114266071D01*
X119906200Y-114266071D02*
X120001438Y-114170833D01*
X120001438Y-114170833D02*
X120049057Y-114075595D01*
X119763343Y-115266071D02*
X119763343Y-115361309D01*
X119763343Y-115361309D02*
X119810962Y-115456547D01*
X119810962Y-115456547D02*
X119858581Y-115504166D01*
X119858581Y-115504166D02*
X119953819Y-115551785D01*
X119953819Y-115551785D02*
X120144295Y-115599404D01*
X120144295Y-115599404D02*
X120382390Y-115599404D01*
X120382390Y-115599404D02*
X120572866Y-115551785D01*
X120572866Y-115551785D02*
X120668104Y-115504166D01*
X120668104Y-115504166D02*
X120715724Y-115456547D01*
X120715724Y-115456547D02*
X120763343Y-115361309D01*
X120763343Y-115361309D02*
X120763343Y-115266071D01*
X120763343Y-115266071D02*
X120715724Y-115170833D01*
X120715724Y-115170833D02*
X120668104Y-115123214D01*
X120668104Y-115123214D02*
X120572866Y-115075595D01*
X120572866Y-115075595D02*
X120382390Y-115027976D01*
X120382390Y-115027976D02*
X120144295Y-115027976D01*
X120144295Y-115027976D02*
X119953819Y-115075595D01*
X119953819Y-115075595D02*
X119858581Y-115123214D01*
X119858581Y-115123214D02*
X119810962Y-115170833D01*
X119810962Y-115170833D02*
X119763343Y-115266071D01*
X147337857Y-101284819D02*
X147671190Y-100808628D01*
X147909285Y-101284819D02*
X147909285Y-100284819D01*
X147909285Y-100284819D02*
X147528333Y-100284819D01*
X147528333Y-100284819D02*
X147433095Y-100332438D01*
X147433095Y-100332438D02*
X147385476Y-100380057D01*
X147385476Y-100380057D02*
X147337857Y-100475295D01*
X147337857Y-100475295D02*
X147337857Y-100618152D01*
X147337857Y-100618152D02*
X147385476Y-100713390D01*
X147385476Y-100713390D02*
X147433095Y-100761009D01*
X147433095Y-100761009D02*
X147528333Y-100808628D01*
X147528333Y-100808628D02*
X147909285Y-100808628D01*
X146385476Y-101284819D02*
X146956904Y-101284819D01*
X146671190Y-101284819D02*
X146671190Y-100284819D01*
X146671190Y-100284819D02*
X146766428Y-100427676D01*
X146766428Y-100427676D02*
X146861666Y-100522914D01*
X146861666Y-100522914D02*
X146956904Y-100570533D01*
X146052142Y-100284819D02*
X145433095Y-100284819D01*
X145433095Y-100284819D02*
X145766428Y-100665771D01*
X145766428Y-100665771D02*
X145623571Y-100665771D01*
X145623571Y-100665771D02*
X145528333Y-100713390D01*
X145528333Y-100713390D02*
X145480714Y-100761009D01*
X145480714Y-100761009D02*
X145433095Y-100856247D01*
X145433095Y-100856247D02*
X145433095Y-101094342D01*
X145433095Y-101094342D02*
X145480714Y-101189580D01*
X145480714Y-101189580D02*
X145528333Y-101237200D01*
X145528333Y-101237200D02*
X145623571Y-101284819D01*
X145623571Y-101284819D02*
X145909285Y-101284819D01*
X145909285Y-101284819D02*
X146004523Y-101237200D01*
X146004523Y-101237200D02*
X146052142Y-101189580D01*
X123558104Y-106230833D02*
X123605724Y-106183214D01*
X123605724Y-106183214D02*
X123653343Y-106040357D01*
X123653343Y-106040357D02*
X123653343Y-105945119D01*
X123653343Y-105945119D02*
X123605724Y-105802262D01*
X123605724Y-105802262D02*
X123510485Y-105707024D01*
X123510485Y-105707024D02*
X123415247Y-105659405D01*
X123415247Y-105659405D02*
X123224771Y-105611786D01*
X123224771Y-105611786D02*
X123081914Y-105611786D01*
X123081914Y-105611786D02*
X122891438Y-105659405D01*
X122891438Y-105659405D02*
X122796200Y-105707024D01*
X122796200Y-105707024D02*
X122700962Y-105802262D01*
X122700962Y-105802262D02*
X122653343Y-105945119D01*
X122653343Y-105945119D02*
X122653343Y-106040357D01*
X122653343Y-106040357D02*
X122700962Y-106183214D01*
X122700962Y-106183214D02*
X122748581Y-106230833D01*
X122748581Y-106611786D02*
X122700962Y-106659405D01*
X122700962Y-106659405D02*
X122653343Y-106754643D01*
X122653343Y-106754643D02*
X122653343Y-106992738D01*
X122653343Y-106992738D02*
X122700962Y-107087976D01*
X122700962Y-107087976D02*
X122748581Y-107135595D01*
X122748581Y-107135595D02*
X122843819Y-107183214D01*
X122843819Y-107183214D02*
X122939057Y-107183214D01*
X122939057Y-107183214D02*
X123081914Y-107135595D01*
X123081914Y-107135595D02*
X123653343Y-106564167D01*
X123653343Y-106564167D02*
X123653343Y-107183214D01*
X158776618Y-110724819D02*
X158776618Y-109724819D01*
X158776618Y-109724819D02*
X158538523Y-109724819D01*
X158538523Y-109724819D02*
X158395666Y-109772438D01*
X158395666Y-109772438D02*
X158300428Y-109867676D01*
X158300428Y-109867676D02*
X158252809Y-109962914D01*
X158252809Y-109962914D02*
X158205190Y-110153390D01*
X158205190Y-110153390D02*
X158205190Y-110296247D01*
X158205190Y-110296247D02*
X158252809Y-110486723D01*
X158252809Y-110486723D02*
X158300428Y-110581961D01*
X158300428Y-110581961D02*
X158395666Y-110677200D01*
X158395666Y-110677200D02*
X158538523Y-110724819D01*
X158538523Y-110724819D02*
X158776618Y-110724819D01*
X157871856Y-109724819D02*
X157205190Y-109724819D01*
X157205190Y-109724819D02*
X157633761Y-110724819D01*
X143040604Y-109264642D02*
X143088224Y-109217023D01*
X143088224Y-109217023D02*
X143135843Y-109074166D01*
X143135843Y-109074166D02*
X143135843Y-108978928D01*
X143135843Y-108978928D02*
X143088224Y-108836071D01*
X143088224Y-108836071D02*
X142992985Y-108740833D01*
X142992985Y-108740833D02*
X142897747Y-108693214D01*
X142897747Y-108693214D02*
X142707271Y-108645595D01*
X142707271Y-108645595D02*
X142564414Y-108645595D01*
X142564414Y-108645595D02*
X142373938Y-108693214D01*
X142373938Y-108693214D02*
X142278700Y-108740833D01*
X142278700Y-108740833D02*
X142183462Y-108836071D01*
X142183462Y-108836071D02*
X142135843Y-108978928D01*
X142135843Y-108978928D02*
X142135843Y-109074166D01*
X142135843Y-109074166D02*
X142183462Y-109217023D01*
X142183462Y-109217023D02*
X142231081Y-109264642D01*
X142231081Y-109645595D02*
X142183462Y-109693214D01*
X142183462Y-109693214D02*
X142135843Y-109788452D01*
X142135843Y-109788452D02*
X142135843Y-110026547D01*
X142135843Y-110026547D02*
X142183462Y-110121785D01*
X142183462Y-110121785D02*
X142231081Y-110169404D01*
X142231081Y-110169404D02*
X142326319Y-110217023D01*
X142326319Y-110217023D02*
X142421557Y-110217023D01*
X142421557Y-110217023D02*
X142564414Y-110169404D01*
X142564414Y-110169404D02*
X143135843Y-109597976D01*
X143135843Y-109597976D02*
X143135843Y-110217023D01*
X142564414Y-110788452D02*
X142516795Y-110693214D01*
X142516795Y-110693214D02*
X142469176Y-110645595D01*
X142469176Y-110645595D02*
X142373938Y-110597976D01*
X142373938Y-110597976D02*
X142326319Y-110597976D01*
X142326319Y-110597976D02*
X142231081Y-110645595D01*
X142231081Y-110645595D02*
X142183462Y-110693214D01*
X142183462Y-110693214D02*
X142135843Y-110788452D01*
X142135843Y-110788452D02*
X142135843Y-110978928D01*
X142135843Y-110978928D02*
X142183462Y-111074166D01*
X142183462Y-111074166D02*
X142231081Y-111121785D01*
X142231081Y-111121785D02*
X142326319Y-111169404D01*
X142326319Y-111169404D02*
X142373938Y-111169404D01*
X142373938Y-111169404D02*
X142469176Y-111121785D01*
X142469176Y-111121785D02*
X142516795Y-111074166D01*
X142516795Y-111074166D02*
X142564414Y-110978928D01*
X142564414Y-110978928D02*
X142564414Y-110788452D01*
X142564414Y-110788452D02*
X142612033Y-110693214D01*
X142612033Y-110693214D02*
X142659652Y-110645595D01*
X142659652Y-110645595D02*
X142754890Y-110597976D01*
X142754890Y-110597976D02*
X142945366Y-110597976D01*
X142945366Y-110597976D02*
X143040604Y-110645595D01*
X143040604Y-110645595D02*
X143088224Y-110693214D01*
X143088224Y-110693214D02*
X143135843Y-110788452D01*
X143135843Y-110788452D02*
X143135843Y-110978928D01*
X143135843Y-110978928D02*
X143088224Y-111074166D01*
X143088224Y-111074166D02*
X143040604Y-111121785D01*
X143040604Y-111121785D02*
X142945366Y-111169404D01*
X142945366Y-111169404D02*
X142754890Y-111169404D01*
X142754890Y-111169404D02*
X142659652Y-111121785D01*
X142659652Y-111121785D02*
X142612033Y-111074166D01*
X142612033Y-111074166D02*
X142564414Y-110978928D01*
X105843343Y-86708333D02*
X105367152Y-86375000D01*
X105843343Y-86136905D02*
X104843343Y-86136905D01*
X104843343Y-86136905D02*
X104843343Y-86517857D01*
X104843343Y-86517857D02*
X104890962Y-86613095D01*
X104890962Y-86613095D02*
X104938581Y-86660714D01*
X104938581Y-86660714D02*
X105033819Y-86708333D01*
X105033819Y-86708333D02*
X105176676Y-86708333D01*
X105176676Y-86708333D02*
X105271914Y-86660714D01*
X105271914Y-86660714D02*
X105319533Y-86613095D01*
X105319533Y-86613095D02*
X105367152Y-86517857D01*
X105367152Y-86517857D02*
X105367152Y-86136905D01*
X105271914Y-87279762D02*
X105224295Y-87184524D01*
X105224295Y-87184524D02*
X105176676Y-87136905D01*
X105176676Y-87136905D02*
X105081438Y-87089286D01*
X105081438Y-87089286D02*
X105033819Y-87089286D01*
X105033819Y-87089286D02*
X104938581Y-87136905D01*
X104938581Y-87136905D02*
X104890962Y-87184524D01*
X104890962Y-87184524D02*
X104843343Y-87279762D01*
X104843343Y-87279762D02*
X104843343Y-87470238D01*
X104843343Y-87470238D02*
X104890962Y-87565476D01*
X104890962Y-87565476D02*
X104938581Y-87613095D01*
X104938581Y-87613095D02*
X105033819Y-87660714D01*
X105033819Y-87660714D02*
X105081438Y-87660714D01*
X105081438Y-87660714D02*
X105176676Y-87613095D01*
X105176676Y-87613095D02*
X105224295Y-87565476D01*
X105224295Y-87565476D02*
X105271914Y-87470238D01*
X105271914Y-87470238D02*
X105271914Y-87279762D01*
X105271914Y-87279762D02*
X105319533Y-87184524D01*
X105319533Y-87184524D02*
X105367152Y-87136905D01*
X105367152Y-87136905D02*
X105462390Y-87089286D01*
X105462390Y-87089286D02*
X105652866Y-87089286D01*
X105652866Y-87089286D02*
X105748104Y-87136905D01*
X105748104Y-87136905D02*
X105795724Y-87184524D01*
X105795724Y-87184524D02*
X105843343Y-87279762D01*
X105843343Y-87279762D02*
X105843343Y-87470238D01*
X105843343Y-87470238D02*
X105795724Y-87565476D01*
X105795724Y-87565476D02*
X105748104Y-87613095D01*
X105748104Y-87613095D02*
X105652866Y-87660714D01*
X105652866Y-87660714D02*
X105462390Y-87660714D01*
X105462390Y-87660714D02*
X105367152Y-87613095D01*
X105367152Y-87613095D02*
X105319533Y-87565476D01*
X105319533Y-87565476D02*
X105271914Y-87470238D01*
X155230635Y-93338111D02*
X154599958Y-93673447D01*
X154599958Y-93673447D02*
X154496179Y-93782560D01*
X154496179Y-93782560D02*
X154456800Y-93911362D01*
X154456800Y-93911362D02*
X154481822Y-94059853D01*
X154481822Y-94059853D02*
X154526534Y-94143943D01*
X154945343Y-93004416D02*
X154965032Y-92940015D01*
X154965032Y-92940015D02*
X154962366Y-92833569D01*
X154962366Y-92833569D02*
X154850587Y-92623343D01*
X154850587Y-92623343D02*
X154763830Y-92561609D01*
X154763830Y-92561609D02*
X154699429Y-92541919D01*
X154699429Y-92541919D02*
X154592983Y-92544586D01*
X154592983Y-92544586D02*
X154508893Y-92589297D01*
X154508893Y-92589297D02*
X154405113Y-92698410D01*
X154405113Y-92698410D02*
X154168841Y-93471221D01*
X154168841Y-93471221D02*
X153878216Y-92924634D01*
X112282857Y-102359580D02*
X112330476Y-102407200D01*
X112330476Y-102407200D02*
X112473333Y-102454819D01*
X112473333Y-102454819D02*
X112568571Y-102454819D01*
X112568571Y-102454819D02*
X112711428Y-102407200D01*
X112711428Y-102407200D02*
X112806666Y-102311961D01*
X112806666Y-102311961D02*
X112854285Y-102216723D01*
X112854285Y-102216723D02*
X112901904Y-102026247D01*
X112901904Y-102026247D02*
X112901904Y-101883390D01*
X112901904Y-101883390D02*
X112854285Y-101692914D01*
X112854285Y-101692914D02*
X112806666Y-101597676D01*
X112806666Y-101597676D02*
X112711428Y-101502438D01*
X112711428Y-101502438D02*
X112568571Y-101454819D01*
X112568571Y-101454819D02*
X112473333Y-101454819D01*
X112473333Y-101454819D02*
X112330476Y-101502438D01*
X112330476Y-101502438D02*
X112282857Y-101550057D01*
X111901904Y-101550057D02*
X111854285Y-101502438D01*
X111854285Y-101502438D02*
X111759047Y-101454819D01*
X111759047Y-101454819D02*
X111520952Y-101454819D01*
X111520952Y-101454819D02*
X111425714Y-101502438D01*
X111425714Y-101502438D02*
X111378095Y-101550057D01*
X111378095Y-101550057D02*
X111330476Y-101645295D01*
X111330476Y-101645295D02*
X111330476Y-101740533D01*
X111330476Y-101740533D02*
X111378095Y-101883390D01*
X111378095Y-101883390D02*
X111949523Y-102454819D01*
X111949523Y-102454819D02*
X111330476Y-102454819D01*
X110711428Y-101454819D02*
X110616190Y-101454819D01*
X110616190Y-101454819D02*
X110520952Y-101502438D01*
X110520952Y-101502438D02*
X110473333Y-101550057D01*
X110473333Y-101550057D02*
X110425714Y-101645295D01*
X110425714Y-101645295D02*
X110378095Y-101835771D01*
X110378095Y-101835771D02*
X110378095Y-102073866D01*
X110378095Y-102073866D02*
X110425714Y-102264342D01*
X110425714Y-102264342D02*
X110473333Y-102359580D01*
X110473333Y-102359580D02*
X110520952Y-102407200D01*
X110520952Y-102407200D02*
X110616190Y-102454819D01*
X110616190Y-102454819D02*
X110711428Y-102454819D01*
X110711428Y-102454819D02*
X110806666Y-102407200D01*
X110806666Y-102407200D02*
X110854285Y-102359580D01*
X110854285Y-102359580D02*
X110901904Y-102264342D01*
X110901904Y-102264342D02*
X110949523Y-102073866D01*
X110949523Y-102073866D02*
X110949523Y-101835771D01*
X110949523Y-101835771D02*
X110901904Y-101645295D01*
X110901904Y-101645295D02*
X110854285Y-101550057D01*
X110854285Y-101550057D02*
X110806666Y-101502438D01*
X110806666Y-101502438D02*
X110711428Y-101454819D01*
X145924238Y-125498509D02*
X145781381Y-125546128D01*
X145781381Y-125546128D02*
X145733762Y-125593747D01*
X145733762Y-125593747D02*
X145686143Y-125688985D01*
X145686143Y-125688985D02*
X145686143Y-125831842D01*
X145686143Y-125831842D02*
X145733762Y-125927080D01*
X145733762Y-125927080D02*
X145781381Y-125974700D01*
X145781381Y-125974700D02*
X145876619Y-126022319D01*
X145876619Y-126022319D02*
X146257571Y-126022319D01*
X146257571Y-126022319D02*
X146257571Y-125022319D01*
X146257571Y-125022319D02*
X145924238Y-125022319D01*
X145924238Y-125022319D02*
X145829000Y-125069938D01*
X145829000Y-125069938D02*
X145781381Y-125117557D01*
X145781381Y-125117557D02*
X145733762Y-125212795D01*
X145733762Y-125212795D02*
X145733762Y-125308033D01*
X145733762Y-125308033D02*
X145781381Y-125403271D01*
X145781381Y-125403271D02*
X145829000Y-125450890D01*
X145829000Y-125450890D02*
X145924238Y-125498509D01*
X145924238Y-125498509D02*
X146257571Y-125498509D01*
X145400428Y-125022319D02*
X144829000Y-125022319D01*
X145114714Y-126022319D02*
X145114714Y-125022319D01*
X143971857Y-126022319D02*
X144543285Y-126022319D01*
X144257571Y-126022319D02*
X144257571Y-125022319D01*
X144257571Y-125022319D02*
X144352809Y-125165176D01*
X144352809Y-125165176D02*
X144448047Y-125260414D01*
X144448047Y-125260414D02*
X144543285Y-125308033D01*
X97694000Y-103049819D02*
X98027333Y-102573628D01*
X98265428Y-103049819D02*
X98265428Y-102049819D01*
X98265428Y-102049819D02*
X97884476Y-102049819D01*
X97884476Y-102049819D02*
X97789238Y-102097438D01*
X97789238Y-102097438D02*
X97741619Y-102145057D01*
X97741619Y-102145057D02*
X97694000Y-102240295D01*
X97694000Y-102240295D02*
X97694000Y-102383152D01*
X97694000Y-102383152D02*
X97741619Y-102478390D01*
X97741619Y-102478390D02*
X97789238Y-102526009D01*
X97789238Y-102526009D02*
X97884476Y-102573628D01*
X97884476Y-102573628D02*
X98265428Y-102573628D01*
X97265428Y-103049819D02*
X97265428Y-102049819D01*
X97265428Y-102049819D02*
X96694000Y-103049819D01*
X96694000Y-103049819D02*
X96694000Y-102049819D01*
X95741619Y-102049819D02*
X96217809Y-102049819D01*
X96217809Y-102049819D02*
X96265428Y-102526009D01*
X96265428Y-102526009D02*
X96217809Y-102478390D01*
X96217809Y-102478390D02*
X96122571Y-102430771D01*
X96122571Y-102430771D02*
X95884476Y-102430771D01*
X95884476Y-102430771D02*
X95789238Y-102478390D01*
X95789238Y-102478390D02*
X95741619Y-102526009D01*
X95741619Y-102526009D02*
X95694000Y-102621247D01*
X95694000Y-102621247D02*
X95694000Y-102859342D01*
X95694000Y-102859342D02*
X95741619Y-102954580D01*
X95741619Y-102954580D02*
X95789238Y-103002200D01*
X95789238Y-103002200D02*
X95884476Y-103049819D01*
X95884476Y-103049819D02*
X96122571Y-103049819D01*
X96122571Y-103049819D02*
X96217809Y-103002200D01*
X96217809Y-103002200D02*
X96265428Y-102954580D01*
X135364828Y-97327536D02*
X135700164Y-97958213D01*
X135700164Y-97958213D02*
X135809277Y-98061992D01*
X135809277Y-98061992D02*
X135938079Y-98101371D01*
X135938079Y-98101371D02*
X136086570Y-98076349D01*
X136086570Y-98076349D02*
X136170660Y-98031637D01*
X134523925Y-97774652D02*
X134944376Y-97551094D01*
X134944376Y-97551094D02*
X135209979Y-97949189D01*
X135209979Y-97949189D02*
X135145578Y-97929500D01*
X135145578Y-97929500D02*
X135039132Y-97932166D01*
X135039132Y-97932166D02*
X134828907Y-98043945D01*
X134828907Y-98043945D02*
X134767172Y-98130702D01*
X134767172Y-98130702D02*
X134747483Y-98195103D01*
X134747483Y-98195103D02*
X134750149Y-98301549D01*
X134750149Y-98301549D02*
X134861928Y-98511774D01*
X134861928Y-98511774D02*
X134948685Y-98573509D01*
X134948685Y-98573509D02*
X135013086Y-98593198D01*
X135013086Y-98593198D02*
X135119532Y-98590532D01*
X135119532Y-98590532D02*
X135329757Y-98478753D01*
X135329757Y-98478753D02*
X135391492Y-98391996D01*
X135391492Y-98391996D02*
X135411181Y-98327595D01*
X129735190Y-112369819D02*
X130068523Y-111893628D01*
X130306618Y-112369819D02*
X130306618Y-111369819D01*
X130306618Y-111369819D02*
X129925666Y-111369819D01*
X129925666Y-111369819D02*
X129830428Y-111417438D01*
X129830428Y-111417438D02*
X129782809Y-111465057D01*
X129782809Y-111465057D02*
X129735190Y-111560295D01*
X129735190Y-111560295D02*
X129735190Y-111703152D01*
X129735190Y-111703152D02*
X129782809Y-111798390D01*
X129782809Y-111798390D02*
X129830428Y-111846009D01*
X129830428Y-111846009D02*
X129925666Y-111893628D01*
X129925666Y-111893628D02*
X130306618Y-111893628D01*
X129401856Y-111369819D02*
X128735190Y-111369819D01*
X128735190Y-111369819D02*
X129163761Y-112369819D01*
X106773343Y-106024642D02*
X106297152Y-105691309D01*
X106773343Y-105453214D02*
X105773343Y-105453214D01*
X105773343Y-105453214D02*
X105773343Y-105834166D01*
X105773343Y-105834166D02*
X105820962Y-105929404D01*
X105820962Y-105929404D02*
X105868581Y-105977023D01*
X105868581Y-105977023D02*
X105963819Y-106024642D01*
X105963819Y-106024642D02*
X106106676Y-106024642D01*
X106106676Y-106024642D02*
X106201914Y-105977023D01*
X106201914Y-105977023D02*
X106249533Y-105929404D01*
X106249533Y-105929404D02*
X106297152Y-105834166D01*
X106297152Y-105834166D02*
X106297152Y-105453214D01*
X106773343Y-106977023D02*
X106773343Y-106405595D01*
X106773343Y-106691309D02*
X105773343Y-106691309D01*
X105773343Y-106691309D02*
X105916200Y-106596071D01*
X105916200Y-106596071D02*
X106011438Y-106500833D01*
X106011438Y-106500833D02*
X106059057Y-106405595D01*
X105773343Y-107596071D02*
X105773343Y-107691309D01*
X105773343Y-107691309D02*
X105820962Y-107786547D01*
X105820962Y-107786547D02*
X105868581Y-107834166D01*
X105868581Y-107834166D02*
X105963819Y-107881785D01*
X105963819Y-107881785D02*
X106154295Y-107929404D01*
X106154295Y-107929404D02*
X106392390Y-107929404D01*
X106392390Y-107929404D02*
X106582866Y-107881785D01*
X106582866Y-107881785D02*
X106678104Y-107834166D01*
X106678104Y-107834166D02*
X106725724Y-107786547D01*
X106725724Y-107786547D02*
X106773343Y-107691309D01*
X106773343Y-107691309D02*
X106773343Y-107596071D01*
X106773343Y-107596071D02*
X106725724Y-107500833D01*
X106725724Y-107500833D02*
X106678104Y-107453214D01*
X106678104Y-107453214D02*
X106582866Y-107405595D01*
X106582866Y-107405595D02*
X106392390Y-107357976D01*
X106392390Y-107357976D02*
X106154295Y-107357976D01*
X106154295Y-107357976D02*
X105963819Y-107405595D01*
X105963819Y-107405595D02*
X105868581Y-107453214D01*
X105868581Y-107453214D02*
X105820962Y-107500833D01*
X105820962Y-107500833D02*
X105773343Y-107596071D01*
X156551856Y-103842200D02*
X156408999Y-103889819D01*
X156408999Y-103889819D02*
X156170904Y-103889819D01*
X156170904Y-103889819D02*
X156075666Y-103842200D01*
X156075666Y-103842200D02*
X156028047Y-103794580D01*
X156028047Y-103794580D02*
X155980428Y-103699342D01*
X155980428Y-103699342D02*
X155980428Y-103604104D01*
X155980428Y-103604104D02*
X156028047Y-103508866D01*
X156028047Y-103508866D02*
X156075666Y-103461247D01*
X156075666Y-103461247D02*
X156170904Y-103413628D01*
X156170904Y-103413628D02*
X156361380Y-103366009D01*
X156361380Y-103366009D02*
X156456618Y-103318390D01*
X156456618Y-103318390D02*
X156504237Y-103270771D01*
X156504237Y-103270771D02*
X156551856Y-103175533D01*
X156551856Y-103175533D02*
X156551856Y-103080295D01*
X156551856Y-103080295D02*
X156504237Y-102985057D01*
X156504237Y-102985057D02*
X156456618Y-102937438D01*
X156456618Y-102937438D02*
X156361380Y-102889819D01*
X156361380Y-102889819D02*
X156123285Y-102889819D01*
X156123285Y-102889819D02*
X155980428Y-102937438D01*
X155647094Y-102889819D02*
X155408999Y-103889819D01*
X155408999Y-103889819D02*
X155218523Y-103175533D01*
X155218523Y-103175533D02*
X155028047Y-103889819D01*
X155028047Y-103889819D02*
X154789952Y-102889819D01*
X153885190Y-103889819D02*
X154456618Y-103889819D01*
X154170904Y-103889819D02*
X154170904Y-102889819D01*
X154170904Y-102889819D02*
X154266142Y-103032676D01*
X154266142Y-103032676D02*
X154361380Y-103127914D01*
X154361380Y-103127914D02*
X154456618Y-103175533D01*
X157228104Y-107713333D02*
X157275724Y-107665714D01*
X157275724Y-107665714D02*
X157323343Y-107522857D01*
X157323343Y-107522857D02*
X157323343Y-107427619D01*
X157323343Y-107427619D02*
X157275724Y-107284762D01*
X157275724Y-107284762D02*
X157180485Y-107189524D01*
X157180485Y-107189524D02*
X157085247Y-107141905D01*
X157085247Y-107141905D02*
X156894771Y-107094286D01*
X156894771Y-107094286D02*
X156751914Y-107094286D01*
X156751914Y-107094286D02*
X156561438Y-107141905D01*
X156561438Y-107141905D02*
X156466200Y-107189524D01*
X156466200Y-107189524D02*
X156370962Y-107284762D01*
X156370962Y-107284762D02*
X156323343Y-107427619D01*
X156323343Y-107427619D02*
X156323343Y-107522857D01*
X156323343Y-107522857D02*
X156370962Y-107665714D01*
X156370962Y-107665714D02*
X156418581Y-107713333D01*
X156323343Y-108046667D02*
X156323343Y-108713333D01*
X156323343Y-108713333D02*
X157323343Y-108284762D01*
X155395190Y-105629819D02*
X155728523Y-105153628D01*
X155966618Y-105629819D02*
X155966618Y-104629819D01*
X155966618Y-104629819D02*
X155585666Y-104629819D01*
X155585666Y-104629819D02*
X155490428Y-104677438D01*
X155490428Y-104677438D02*
X155442809Y-104725057D01*
X155442809Y-104725057D02*
X155395190Y-104820295D01*
X155395190Y-104820295D02*
X155395190Y-104963152D01*
X155395190Y-104963152D02*
X155442809Y-105058390D01*
X155442809Y-105058390D02*
X155490428Y-105106009D01*
X155490428Y-105106009D02*
X155585666Y-105153628D01*
X155585666Y-105153628D02*
X155966618Y-105153628D01*
X155061856Y-104629819D02*
X154442809Y-104629819D01*
X154442809Y-104629819D02*
X154776142Y-105010771D01*
X154776142Y-105010771D02*
X154633285Y-105010771D01*
X154633285Y-105010771D02*
X154538047Y-105058390D01*
X154538047Y-105058390D02*
X154490428Y-105106009D01*
X154490428Y-105106009D02*
X154442809Y-105201247D01*
X154442809Y-105201247D02*
X154442809Y-105439342D01*
X154442809Y-105439342D02*
X154490428Y-105534580D01*
X154490428Y-105534580D02*
X154538047Y-105582200D01*
X154538047Y-105582200D02*
X154633285Y-105629819D01*
X154633285Y-105629819D02*
X154918999Y-105629819D01*
X154918999Y-105629819D02*
X155014237Y-105582200D01*
X155014237Y-105582200D02*
X155061856Y-105534580D01*
D15*
%TO.C,PMOD3*%
X100140000Y-116350000D02*
X115600000Y-116350000D01*
X100140000Y-111050000D02*
X100140000Y-116350000D01*
X115600000Y-116350000D02*
X115600000Y-111050000D01*
X115600000Y-111050000D02*
X100140000Y-111050000D01*
%TO.C,PMOD2*%
X90708524Y-105719999D02*
X90708524Y-121179999D01*
X96008524Y-105719999D02*
X90708524Y-105719999D01*
X90708524Y-121179999D02*
X96008524Y-121179999D01*
X96008524Y-121179999D02*
X96008524Y-105719999D01*
%TO.C,PMOD1*%
X116978524Y-85960000D02*
X116978524Y-70500000D01*
X111678524Y-85960000D02*
X116978524Y-85960000D01*
X116978524Y-70500000D02*
X111678524Y-70500000D01*
X111678524Y-70500000D02*
X111678524Y-85960000D01*
%TO.C,J4*%
X120710000Y-78530000D02*
X128390000Y-78530000D01*
X120710000Y-78530000D02*
X120710000Y-81190000D01*
X128390000Y-78530000D02*
X128390000Y-81190000D01*
X118110000Y-79860000D02*
X118110000Y-81190000D01*
X118110000Y-81190000D02*
X119440000Y-81190000D01*
X120710000Y-81190000D02*
X128390000Y-81190000D01*
%TO.C,R14*%
X138647500Y-68475980D02*
X138647500Y-68950496D01*
X139692500Y-68475980D02*
X139692500Y-68950496D01*
%TO.C,C4*%
X125447836Y-48980000D02*
X125232164Y-48980000D01*
X125447836Y-49700000D02*
X125232164Y-49700000D01*
%TO.C,Q1*%
X147538524Y-112370000D02*
X146888524Y-112370000D01*
X147538524Y-112370000D02*
X148188524Y-112370000D01*
X147538524Y-115490000D02*
X146888524Y-115490000D01*
X147538524Y-115490000D02*
X148188524Y-115490000D01*
X148701024Y-112420000D02*
X148461024Y-112090000D01*
X148941024Y-112090000D01*
X148701024Y-112420000D01*
G36*
X148701024Y-112420000D02*
G01*
X148461024Y-112090000D01*
X148941024Y-112090000D01*
X148701024Y-112420000D01*
G37*
%TO.C,R12*%
X115402742Y-95917500D02*
X115877258Y-95917500D01*
X115402742Y-96962500D02*
X115877258Y-96962500D01*
%TO.C,U7*%
X144898524Y-108267500D02*
X144098524Y-108267500D01*
X144898524Y-108267500D02*
X145698524Y-108267500D01*
X144898524Y-111387500D02*
X144098524Y-111387500D01*
X144898524Y-111387500D02*
X145698524Y-111387500D01*
X146198524Y-108317500D02*
X145958524Y-107987500D01*
X146438524Y-107987500D01*
X146198524Y-108317500D01*
G36*
X146198524Y-108317500D02*
G01*
X145958524Y-107987500D01*
X146438524Y-107987500D01*
X146198524Y-108317500D01*
G37*
%TO.C,D1*%
X100070000Y-118210000D02*
X100970000Y-118210000D01*
X100070000Y-123110000D02*
X100070000Y-118210000D01*
X103670000Y-118210000D02*
X103670000Y-123110000D01*
%TO.C,D2*%
X152453524Y-114982500D02*
X152453524Y-112697500D01*
X153923524Y-112697500D02*
X153923524Y-114982500D01*
X153923524Y-114982500D02*
X152453524Y-114982500D01*
D16*
%TO.C,D3*%
X138500000Y-64848238D02*
G75*
G02*
X138400000Y-64848238I-50000J0D01*
G01*
X138400000Y-64848238D02*
G75*
G02*
X138500000Y-64848238I50000J0D01*
G01*
D15*
%TO.C,U4*%
X156736024Y-111790000D02*
X155936024Y-111790000D01*
X156736024Y-111790000D02*
X157536024Y-111790000D01*
X156736024Y-114910000D02*
X155936024Y-114910000D01*
X156736024Y-114910000D02*
X157536024Y-114910000D01*
X158036024Y-111840000D02*
X157796024Y-111510000D01*
X158276024Y-111510000D01*
X158036024Y-111840000D01*
G36*
X158036024Y-111840000D02*
G01*
X157796024Y-111510000D01*
X158276024Y-111510000D01*
X158036024Y-111840000D01*
G37*
%TO.C,R6*%
X84897258Y-121870000D02*
X84422742Y-121870000D01*
X84897258Y-122915000D02*
X84422742Y-122915000D01*
%TO.C,C1*%
X160624772Y-111765000D02*
X161147276Y-111765000D01*
X160624772Y-113235000D02*
X161147276Y-113235000D01*
%TO.C,C18*%
X100030000Y-94127836D02*
X100030000Y-93912164D01*
X100750000Y-94127836D02*
X100750000Y-93912164D01*
%TO.C,TP8*%
X124360000Y-121760000D02*
G75*
G02*
X122960000Y-121760000I-700000J0D01*
G01*
X122960000Y-121760000D02*
G75*
G02*
X124360000Y-121760000I700000J0D01*
G01*
%TO.C,C26*%
X100966360Y-107117500D02*
X100750688Y-107117500D01*
X100966360Y-107837500D02*
X100750688Y-107837500D01*
%TO.C,R16*%
X146306024Y-106362742D02*
X146306024Y-106837258D01*
X147351024Y-106362742D02*
X147351024Y-106837258D01*
D17*
%TO.C,U1*%
X129261631Y-82891046D02*
X129846123Y-83990316D01*
X129906183Y-82548330D02*
X129261631Y-82891046D01*
X137712119Y-98784103D02*
X137127627Y-97684833D01*
X138356671Y-98441389D02*
X137712119Y-98784103D01*
X151776795Y-70919521D02*
X145843387Y-74074370D01*
X154293875Y-89967427D02*
X160227283Y-86812578D01*
X160227283Y-86812578D02*
X151776795Y-70919521D01*
D18*
X154277371Y-91388457D02*
G75*
G02*
X154077373Y-91388457I-99999J0D01*
G01*
X154077373Y-91388457D02*
G75*
G02*
X154277371Y-91388457I99999J0D01*
G01*
D15*
%TO.C,C21*%
X109955688Y-101772500D02*
X110171360Y-101772500D01*
X109955688Y-102492500D02*
X110171360Y-102492500D01*
%TO.C,C31*%
X114252836Y-117230000D02*
X114037164Y-117230000D01*
X114252836Y-117950000D02*
X114037164Y-117950000D01*
%TO.C,C5*%
X169458524Y-122417836D02*
X169458524Y-122202164D01*
X170178524Y-122417836D02*
X170178524Y-122202164D01*
%TO.C,C25*%
X103458524Y-105179664D02*
X103458524Y-105395336D01*
X104178524Y-105179664D02*
X104178524Y-105395336D01*
D17*
%TO.C,MK3*%
X83480000Y-117332500D02*
X83480000Y-121092500D01*
X83480000Y-117332500D02*
X88200000Y-117332500D01*
X83480000Y-121092500D02*
X88200000Y-121092500D01*
X88200000Y-117332500D02*
X88200000Y-118462500D01*
X88200000Y-119962500D02*
X88200000Y-121092500D01*
D18*
X84070000Y-116812500D02*
G75*
G02*
X83870000Y-116812500I-100000J0D01*
G01*
X83870000Y-116812500D02*
G75*
G02*
X84070000Y-116812500I100000J0D01*
G01*
D15*
%TO.C,R15*%
X142628282Y-106635000D02*
X142153766Y-106635000D01*
X142628282Y-107680000D02*
X142153766Y-107680000D01*
%TO.C,U5*%
X98988524Y-104840000D02*
X98988524Y-105480000D01*
X99718524Y-106720000D02*
X99028524Y-106720000D01*
X99928524Y-103800000D02*
X100268524Y-103800000D01*
X99938524Y-106520000D02*
X100268524Y-106520000D01*
X101208524Y-104840000D02*
X101208524Y-105480000D01*
X99938524Y-106520000D02*
G75*
G02*
X99718524Y-106719999I-310001J120002D01*
G01*
%TO.C,U3*%
X121278524Y-110180000D02*
X121278524Y-109380000D01*
X121278524Y-110180000D02*
X121278524Y-110980000D01*
X124398524Y-110180000D02*
X124398524Y-109380000D01*
X124398524Y-110180000D02*
X124398524Y-110980000D01*
X121328524Y-108880000D02*
X120998524Y-109120000D01*
X120998524Y-108640000D01*
X121328524Y-108880000D01*
G36*
X121328524Y-108880000D02*
G01*
X120998524Y-109120000D01*
X120998524Y-108640000D01*
X121328524Y-108880000D01*
G37*
%TO.C,U6*%
X115153524Y-100950000D02*
X115153524Y-99000000D01*
X115153524Y-100950000D02*
X115153524Y-102900000D01*
X120273524Y-100950000D02*
X120273524Y-99000000D01*
X120273524Y-100950000D02*
X120273524Y-102900000D01*
X115248524Y-98250000D02*
X114918524Y-98490000D01*
X114918524Y-98010000D01*
X115248524Y-98250000D01*
G36*
X115248524Y-98250000D02*
G01*
X114918524Y-98490000D01*
X114918524Y-98010000D01*
X115248524Y-98250000D01*
G37*
%TO.C,R1*%
X154295782Y-110197500D02*
X153821266Y-110197500D01*
X154295782Y-111242500D02*
X153821266Y-111242500D01*
%TO.C,R9*%
X104116024Y-86677742D02*
X104116024Y-87152258D01*
X105161024Y-86677742D02*
X105161024Y-87152258D01*
%TO.C,SW2*%
X122105000Y-72955000D02*
X126505000Y-72955000D01*
X122105000Y-73075000D02*
X122105000Y-72955000D01*
X122105000Y-75225000D02*
X122105000Y-74085000D01*
X122105000Y-76355000D02*
X122105000Y-76235000D01*
X126505000Y-72955000D02*
X126505000Y-73075000D01*
X126505000Y-74085000D02*
X126505000Y-75225000D01*
X126505000Y-76235000D02*
X126505000Y-76355000D01*
X126505000Y-76355000D02*
X122105000Y-76355000D01*
%TO.C,TP7*%
X155860000Y-121630000D02*
G75*
G02*
X154460000Y-121630000I-700000J0D01*
G01*
X154460000Y-121630000D02*
G75*
G02*
X155860000Y-121630000I700000J0D01*
G01*
%TO.C,C30*%
X110178524Y-74132164D02*
X110178524Y-74347836D01*
X110898524Y-74132164D02*
X110898524Y-74347836D01*
D17*
%TO.C,MK2*%
X164268524Y-119220000D02*
X164268524Y-122980000D01*
X164268524Y-119220000D02*
X168988524Y-119220000D01*
X164268524Y-122980000D02*
X168988524Y-122980000D01*
X168988524Y-119220000D02*
X168988524Y-120350000D01*
X168988524Y-121850000D02*
X168988524Y-122980000D01*
D18*
X164858524Y-118700000D02*
G75*
G02*
X164658524Y-118700000I-100000J0D01*
G01*
X164658524Y-118700000D02*
G75*
G02*
X164858524Y-118700000I100000J0D01*
G01*
D15*
%TO.C,C8*%
X134790000Y-70947836D02*
X134790000Y-70732164D01*
X135510000Y-70947836D02*
X135510000Y-70732164D01*
%TO.C,C22*%
X106108524Y-105204664D02*
X106108524Y-105420336D01*
X106828524Y-105204664D02*
X106828524Y-105420336D01*
%TO.C,J3*%
X126458524Y-120660000D02*
X126458524Y-118960000D01*
X135798524Y-120660000D02*
X135798524Y-118960000D01*
D17*
%TO.C,MK1*%
X123880000Y-51270000D02*
X123880000Y-50140000D01*
X123880000Y-53900000D02*
X123880000Y-52770000D01*
X128600000Y-50140000D02*
X123880000Y-50140000D01*
X128600000Y-53900000D02*
X123880000Y-53900000D01*
X128600000Y-53900000D02*
X128600000Y-50140000D01*
D18*
X128210000Y-54420000D02*
G75*
G02*
X128010000Y-54420000I-100000J0D01*
G01*
X128010000Y-54420000D02*
G75*
G02*
X128210000Y-54420000I100000J0D01*
G01*
D15*
%TO.C,RN1*%
X100878524Y-90990000D02*
X100878524Y-90490000D01*
X103158524Y-90990000D02*
X103158524Y-90490000D01*
%TO.C,J8*%
X130182170Y-78840204D02*
X129860686Y-79011140D01*
X130621230Y-80441515D02*
X129860686Y-79011140D01*
X131065117Y-78370732D02*
X130969579Y-78421531D01*
X131948065Y-77901261D02*
X131852526Y-77952060D01*
X132831011Y-77431790D02*
X132735474Y-77482588D01*
X133713960Y-76962318D02*
X133618421Y-77013117D01*
X134596908Y-76492846D02*
X134501369Y-76543645D01*
X135479855Y-76023375D02*
X135384317Y-76074174D01*
X136362803Y-75553903D02*
X136267264Y-75604702D01*
X137245750Y-75084431D02*
X137150212Y-75135230D01*
X138128697Y-74614960D02*
X138033159Y-74665759D01*
X139011646Y-74145489D02*
X138916107Y-74196287D01*
X139894593Y-73676017D02*
X139799055Y-73726816D01*
X140777541Y-73206545D02*
X140682002Y-73257344D01*
X142373263Y-74192848D02*
X130621230Y-80441515D01*
X142373263Y-74192848D02*
X142178432Y-73826424D01*
X142691918Y-72001779D02*
X141976730Y-72382051D01*
X143013506Y-72606598D02*
X142691918Y-72001779D01*
%TO.C,RN4*%
X102090000Y-107540000D02*
X102090000Y-108040000D01*
X104370000Y-107540000D02*
X104370000Y-108040000D01*
%TO.C,D5*%
X143588524Y-104535000D02*
X145873524Y-104535000D01*
X145873524Y-104535000D02*
X145873524Y-106005000D01*
X145873524Y-106005000D02*
X143588524Y-106005000D01*
%TO.C,C13*%
X154780000Y-94329420D02*
X154780000Y-94610580D01*
X155800000Y-94329420D02*
X155800000Y-94610580D01*
%TO.C,RN6*%
X97283524Y-96135000D02*
X96783524Y-96135000D01*
X97283524Y-98415000D02*
X96783524Y-98415000D01*
%TO.C,C24*%
X104728524Y-105139664D02*
X104728524Y-105355336D01*
X105448524Y-105139664D02*
X105448524Y-105355336D01*
D11*
%TO.C,IC1*%
X100723524Y-95375000D02*
G75*
G02*
X100473524Y-95375000I-125000J0D01*
G01*
X100473524Y-95375000D02*
G75*
G02*
X100723524Y-95375000I125000J0D01*
G01*
D15*
%TO.C,R4*%
X126717742Y-47457500D02*
X127192258Y-47457500D01*
X126717742Y-48502500D02*
X127192258Y-48502500D01*
%TO.C,D4*%
X102173524Y-85480000D02*
X103643524Y-85480000D01*
X102173524Y-87765000D02*
X102173524Y-85480000D01*
X103643524Y-85480000D02*
X103643524Y-87765000D01*
%TO.C,RN3*%
X111210000Y-97460000D02*
X111710000Y-97460000D01*
X111210000Y-99740000D02*
X111710000Y-99740000D01*
%TO.C,R17*%
X141468524Y-104410242D02*
X141468524Y-104884758D01*
X142513524Y-104410242D02*
X142513524Y-104884758D01*
%TO.C,C32*%
X96640000Y-119097836D02*
X96640000Y-118882164D01*
X97360000Y-119097836D02*
X97360000Y-118882164D01*
%TO.C,C6*%
X87212164Y-121822500D02*
X87427836Y-121822500D01*
X87212164Y-122542500D02*
X87427836Y-122542500D01*
%TO.C,R11*%
X117901024Y-106557258D02*
X117901024Y-106082742D01*
X118946024Y-106557258D02*
X118946024Y-106082742D01*
%TO.C,C9*%
X155439420Y-97200000D02*
X155720580Y-97200000D01*
X155439420Y-98220000D02*
X155720580Y-98220000D01*
%TO.C,C3*%
X152351360Y-102900000D02*
X152135688Y-102900000D01*
X152351360Y-103620000D02*
X152135688Y-103620000D01*
D17*
%TO.C,U2*%
X133960000Y-70365000D02*
X131360000Y-70365000D01*
X133960000Y-73135000D02*
X131360000Y-73135000D01*
D18*
X131110000Y-70750000D02*
G75*
G02*
X131010000Y-70750000I-50000J0D01*
G01*
X131010000Y-70750000D02*
G75*
G02*
X131110000Y-70750000I50000J0D01*
G01*
D15*
%TO.C,C19*%
X102638524Y-93727836D02*
X102638524Y-93512164D01*
X103358524Y-93727836D02*
X103358524Y-93512164D01*
%TO.C,R2*%
X132582165Y-112705000D02*
X132274883Y-112705000D01*
X132582165Y-113465000D02*
X132274883Y-113465000D01*
%TO.C,C27*%
X115443524Y-105622164D02*
X115443524Y-105837836D01*
X116163524Y-105622164D02*
X116163524Y-105837836D01*
%TO.C,D6*%
X143218524Y-113310000D02*
X140558524Y-113310000D01*
X143218524Y-113310000D02*
X143218524Y-115010000D01*
X143218524Y-115010000D02*
X140558524Y-115010000D01*
%TO.C,C29*%
X148266024Y-110408752D02*
X148266024Y-109886248D01*
X149736024Y-110408752D02*
X149736024Y-109886248D01*
%TO.C,C23*%
X108783524Y-106491248D02*
X108783524Y-107013752D01*
X110253524Y-106491248D02*
X110253524Y-107013752D01*
%TO.C,R5*%
X162656024Y-122052258D02*
X162656024Y-121577742D01*
X163701024Y-122052258D02*
X163701024Y-121577742D01*
%TO.C,RN2*%
X107630000Y-89630000D02*
X107630000Y-89130000D01*
X109910000Y-89630000D02*
X109910000Y-89130000D01*
%TO.C,C10*%
X121253524Y-114076248D02*
X121253524Y-114598752D01*
X122723524Y-114076248D02*
X122723524Y-114598752D01*
%TO.C,R13*%
X146932258Y-101737500D02*
X146457742Y-101737500D01*
X146932258Y-102782500D02*
X146457742Y-102782500D01*
%TO.C,C2*%
X121258524Y-106538080D02*
X121258524Y-106256920D01*
X122278524Y-106538080D02*
X122278524Y-106256920D01*
%TO.C,D7*%
X156553524Y-108105000D02*
X158838524Y-108105000D01*
X156553524Y-109575000D02*
X156553524Y-108105000D01*
X158838524Y-109575000D02*
X156553524Y-109575000D01*
%TO.C,C28*%
X140266024Y-110168752D02*
X140266024Y-109646248D01*
X141736024Y-110168752D02*
X141736024Y-109646248D01*
%TO.C,R8*%
X106296024Y-86637742D02*
X106296024Y-87112258D01*
X107341024Y-86637742D02*
X107341024Y-87112258D01*
%TO.C,J2*%
X140353852Y-99953334D02*
X140032368Y-100124270D01*
X140792912Y-101554645D02*
X140032368Y-100124270D01*
X141236799Y-99483862D02*
X141141261Y-99534661D01*
X142119747Y-99014391D02*
X142024208Y-99065190D01*
X143002693Y-98544920D02*
X142907156Y-98595718D01*
X143885642Y-98075448D02*
X143790103Y-98126247D01*
X144768590Y-97605976D02*
X144673051Y-97656775D01*
X145651537Y-97136505D02*
X145555999Y-97187304D01*
X146534485Y-96667033D02*
X146438946Y-96717832D01*
X147417432Y-96197561D02*
X147321894Y-96248360D01*
X148300379Y-95728090D02*
X148204841Y-95778889D01*
X149183328Y-95258619D02*
X149087789Y-95309417D01*
X150066275Y-94789147D02*
X149970737Y-94839946D01*
X150949223Y-94319675D02*
X150853684Y-94370474D01*
X152544945Y-95305978D02*
X140792912Y-101554645D01*
X152544945Y-95305978D02*
X152350114Y-94939554D01*
X152863600Y-93114909D02*
X152148412Y-93495181D01*
X153185188Y-93719728D02*
X152863600Y-93114909D01*
%TO.C,C20*%
X111532164Y-100480000D02*
X111747836Y-100480000D01*
X111532164Y-101200000D02*
X111747836Y-101200000D01*
%TO.C,BT1*%
X141278524Y-116057500D02*
X141278524Y-124477500D01*
X141278524Y-123257500D02*
X142498524Y-123257500D01*
X141278524Y-124477500D02*
X148998524Y-124477500D01*
X142498524Y-116057500D02*
X141278524Y-116057500D01*
X142498524Y-118257500D02*
X141278524Y-118257500D01*
X142498524Y-118257500D02*
X142498524Y-116057500D01*
X142498524Y-119257500D02*
X147778524Y-119257500D01*
X142498524Y-123257500D02*
X142498524Y-118257500D01*
X143568524Y-119257500D02*
X143568524Y-122677500D01*
X143568524Y-122677500D02*
X143888524Y-122757500D01*
X143588524Y-115567500D02*
X144188524Y-115567500D01*
X143888524Y-116167500D02*
X143588524Y-115567500D01*
X143888524Y-119257500D02*
X143568524Y-119257500D01*
X143888524Y-122757500D02*
X144208524Y-122677500D01*
X144188524Y-115567500D02*
X143888524Y-116167500D01*
X144208524Y-119257500D02*
X143888524Y-119257500D01*
X144208524Y-122677500D02*
X144208524Y-119257500D01*
X145058524Y-118257500D02*
X145218524Y-118257500D01*
X146068524Y-119257500D02*
X146068524Y-122677500D01*
X146068524Y-122677500D02*
X146388524Y-122757500D01*
X146388524Y-119257500D02*
X146068524Y-119257500D01*
X146388524Y-122757500D02*
X146708524Y-122677500D01*
X146708524Y-119257500D02*
X146388524Y-119257500D01*
X146708524Y-122677500D02*
X146708524Y-119257500D01*
X147778524Y-116057500D02*
X147778524Y-118257500D01*
X147778524Y-118257500D02*
X148998524Y-118257500D01*
X147778524Y-123257500D02*
X147778524Y-118257500D01*
X148998524Y-116057500D02*
X147778524Y-116057500D01*
X148998524Y-123257500D02*
X147778524Y-123257500D01*
X148998524Y-124477500D02*
X148998524Y-116057500D01*
%TO.C,RN5*%
X97253524Y-99355000D02*
X96753524Y-99355000D01*
X97253524Y-101635000D02*
X96753524Y-101635000D01*
%TO.C,J5*%
X126874298Y-86648808D02*
X128304673Y-85888264D01*
X128475609Y-86209747D02*
X128304673Y-85888264D01*
X128945080Y-87092693D02*
X128894282Y-86997156D01*
X129414552Y-87975642D02*
X129363753Y-87880103D01*
X129884024Y-88858590D02*
X129833225Y-88763051D01*
X130353495Y-89741537D02*
X130302696Y-89645999D01*
X130822967Y-90624485D02*
X130772168Y-90528946D01*
X131292439Y-91507432D02*
X131241640Y-91411894D01*
X131761910Y-92390379D02*
X131711111Y-92294841D01*
X132184022Y-96634945D02*
X126874298Y-86648808D01*
X132184022Y-96634945D02*
X132550446Y-96440114D01*
X132231381Y-93273328D02*
X132180583Y-93177789D01*
X132700853Y-94156275D02*
X132650054Y-94060737D01*
X133170325Y-95039223D02*
X133119526Y-94943684D01*
X133770272Y-97275188D02*
X134375091Y-96953600D01*
X134375091Y-96953600D02*
X133994819Y-96238412D01*
%TO.C,R7*%
X129722165Y-112705000D02*
X129414883Y-112705000D01*
X129722165Y-113465000D02*
X129414883Y-113465000D01*
%TO.C,R10*%
X107226024Y-106430242D02*
X107226024Y-106904758D01*
X108271024Y-106430242D02*
X108271024Y-106904758D01*
%TO.C,SW1*%
X153018524Y-99135000D02*
X157418524Y-99135000D01*
X153018524Y-99255000D02*
X153018524Y-99135000D01*
X153018524Y-101405000D02*
X153018524Y-100265000D01*
X153018524Y-102535000D02*
X153018524Y-102415000D01*
X157418524Y-99135000D02*
X157418524Y-99255000D01*
X157418524Y-100265000D02*
X157418524Y-101405000D01*
X157418524Y-102415000D02*
X157418524Y-102535000D01*
X157418524Y-102535000D02*
X153018524Y-102535000D01*
%TO.C,C7*%
X154453524Y-108141252D02*
X154453524Y-107618748D01*
X155923524Y-108141252D02*
X155923524Y-107618748D01*
%TO.C,R3*%
X154991266Y-103222500D02*
X155465782Y-103222500D01*
X154991266Y-104267500D02*
X155465782Y-104267500D01*
%TD*%
M02*
