%TF.GenerationSoftware,KiCad,Pcbnew,9.0.4*%
%TF.CreationDate,2025-10-26T21:46:10+01:00*%
%TF.ProjectId,esp32_fpga,65737033-325f-4667-9067-612e6b696361,rev?*%
%TF.SameCoordinates,Original*%
%TF.FileFunction,Legend,Top*%
%TF.FilePolarity,Positive*%
%FSLAX46Y46*%
G04 Gerber Fmt 4.6, Leading zero omitted, Abs format (unit mm)*
G04 Created by KiCad (PCBNEW 9.0.4) date 2025-10-26 21:46:10*
%MOMM*%
%LPD*%
G01*
G04 APERTURE LIST*
%ADD10C,0.300000*%
%ADD11C,0.254000*%
%ADD12C,0.150000*%
%ADD13C,0.200000*%
%ADD14C,0.054570*%
%ADD15C,0.120000*%
G04 APERTURE END LIST*
D10*
X122323034Y-102997698D02*
X122823034Y-102997698D01*
X123037320Y-103783412D02*
X122323034Y-103783412D01*
X122323034Y-103783412D02*
X122323034Y-102283412D01*
X122323034Y-102283412D02*
X123037320Y-102283412D01*
X124537320Y-103640555D02*
X124465892Y-103711984D01*
X124465892Y-103711984D02*
X124251606Y-103783412D01*
X124251606Y-103783412D02*
X124108749Y-103783412D01*
X124108749Y-103783412D02*
X123894463Y-103711984D01*
X123894463Y-103711984D02*
X123751606Y-103569126D01*
X123751606Y-103569126D02*
X123680177Y-103426269D01*
X123680177Y-103426269D02*
X123608749Y-103140555D01*
X123608749Y-103140555D02*
X123608749Y-102926269D01*
X123608749Y-102926269D02*
X123680177Y-102640555D01*
X123680177Y-102640555D02*
X123751606Y-102497698D01*
X123751606Y-102497698D02*
X123894463Y-102354841D01*
X123894463Y-102354841D02*
X124108749Y-102283412D01*
X124108749Y-102283412D02*
X124251606Y-102283412D01*
X124251606Y-102283412D02*
X124465892Y-102354841D01*
X124465892Y-102354841D02*
X124537320Y-102426269D01*
X125108749Y-103354841D02*
X125823035Y-103354841D01*
X124965892Y-103783412D02*
X125465892Y-102283412D01*
X125465892Y-102283412D02*
X125965892Y-103783412D01*
X126465891Y-103783412D02*
X126465891Y-102283412D01*
X126465891Y-102283412D02*
X126965891Y-103354841D01*
X126965891Y-103354841D02*
X127465891Y-102283412D01*
X127465891Y-102283412D02*
X127465891Y-103783412D01*
X122323034Y-106198328D02*
X122323034Y-104698328D01*
X122323034Y-104698328D02*
X122680177Y-104698328D01*
X122680177Y-104698328D02*
X122894463Y-104769757D01*
X122894463Y-104769757D02*
X123037320Y-104912614D01*
X123037320Y-104912614D02*
X123108749Y-105055471D01*
X123108749Y-105055471D02*
X123180177Y-105341185D01*
X123180177Y-105341185D02*
X123180177Y-105555471D01*
X123180177Y-105555471D02*
X123108749Y-105841185D01*
X123108749Y-105841185D02*
X123037320Y-105984042D01*
X123037320Y-105984042D02*
X122894463Y-106126900D01*
X122894463Y-106126900D02*
X122680177Y-106198328D01*
X122680177Y-106198328D02*
X122323034Y-106198328D01*
X124465892Y-106198328D02*
X124465892Y-105412614D01*
X124465892Y-105412614D02*
X124394463Y-105269757D01*
X124394463Y-105269757D02*
X124251606Y-105198328D01*
X124251606Y-105198328D02*
X123965892Y-105198328D01*
X123965892Y-105198328D02*
X123823034Y-105269757D01*
X124465892Y-106126900D02*
X124323034Y-106198328D01*
X124323034Y-106198328D02*
X123965892Y-106198328D01*
X123965892Y-106198328D02*
X123823034Y-106126900D01*
X123823034Y-106126900D02*
X123751606Y-105984042D01*
X123751606Y-105984042D02*
X123751606Y-105841185D01*
X123751606Y-105841185D02*
X123823034Y-105698328D01*
X123823034Y-105698328D02*
X123965892Y-105626900D01*
X123965892Y-105626900D02*
X124323034Y-105626900D01*
X124323034Y-105626900D02*
X124465892Y-105555471D01*
X125037320Y-105198328D02*
X125394463Y-106198328D01*
X125394463Y-106198328D02*
X125751606Y-105198328D01*
X126323034Y-106198328D02*
X126323034Y-105198328D01*
X126323034Y-104698328D02*
X126251606Y-104769757D01*
X126251606Y-104769757D02*
X126323034Y-104841185D01*
X126323034Y-104841185D02*
X126394463Y-104769757D01*
X126394463Y-104769757D02*
X126323034Y-104698328D01*
X126323034Y-104698328D02*
X126323034Y-104841185D01*
X127680178Y-106198328D02*
X127680178Y-104698328D01*
X127680178Y-106126900D02*
X127537320Y-106198328D01*
X127537320Y-106198328D02*
X127251606Y-106198328D01*
X127251606Y-106198328D02*
X127108749Y-106126900D01*
X127108749Y-106126900D02*
X127037320Y-106055471D01*
X127037320Y-106055471D02*
X126965892Y-105912614D01*
X126965892Y-105912614D02*
X126965892Y-105484042D01*
X126965892Y-105484042D02*
X127037320Y-105341185D01*
X127037320Y-105341185D02*
X127108749Y-105269757D01*
X127108749Y-105269757D02*
X127251606Y-105198328D01*
X127251606Y-105198328D02*
X127537320Y-105198328D01*
X127537320Y-105198328D02*
X127680178Y-105269757D01*
X128323035Y-106126900D02*
X128465892Y-106198328D01*
X128465892Y-106198328D02*
X128751606Y-106198328D01*
X128751606Y-106198328D02*
X128894463Y-106126900D01*
X128894463Y-106126900D02*
X128965892Y-105984042D01*
X128965892Y-105984042D02*
X128965892Y-105912614D01*
X128965892Y-105912614D02*
X128894463Y-105769757D01*
X128894463Y-105769757D02*
X128751606Y-105698328D01*
X128751606Y-105698328D02*
X128537321Y-105698328D01*
X128537321Y-105698328D02*
X128394463Y-105626900D01*
X128394463Y-105626900D02*
X128323035Y-105484042D01*
X128323035Y-105484042D02*
X128323035Y-105412614D01*
X128323035Y-105412614D02*
X128394463Y-105269757D01*
X128394463Y-105269757D02*
X128537321Y-105198328D01*
X128537321Y-105198328D02*
X128751606Y-105198328D01*
X128751606Y-105198328D02*
X128894463Y-105269757D01*
X129823035Y-106198328D02*
X129680178Y-106126900D01*
X129680178Y-106126900D02*
X129608749Y-106055471D01*
X129608749Y-106055471D02*
X129537321Y-105912614D01*
X129537321Y-105912614D02*
X129537321Y-105484042D01*
X129537321Y-105484042D02*
X129608749Y-105341185D01*
X129608749Y-105341185D02*
X129680178Y-105269757D01*
X129680178Y-105269757D02*
X129823035Y-105198328D01*
X129823035Y-105198328D02*
X130037321Y-105198328D01*
X130037321Y-105198328D02*
X130180178Y-105269757D01*
X130180178Y-105269757D02*
X130251607Y-105341185D01*
X130251607Y-105341185D02*
X130323035Y-105484042D01*
X130323035Y-105484042D02*
X130323035Y-105912614D01*
X130323035Y-105912614D02*
X130251607Y-106055471D01*
X130251607Y-106055471D02*
X130180178Y-106126900D01*
X130180178Y-106126900D02*
X130037321Y-106198328D01*
X130037321Y-106198328D02*
X129823035Y-106198328D01*
X130965892Y-105198328D02*
X130965892Y-106198328D01*
X130965892Y-105341185D02*
X131037321Y-105269757D01*
X131037321Y-105269757D02*
X131180178Y-105198328D01*
X131180178Y-105198328D02*
X131394464Y-105198328D01*
X131394464Y-105198328D02*
X131537321Y-105269757D01*
X131537321Y-105269757D02*
X131608750Y-105412614D01*
X131608750Y-105412614D02*
X131608750Y-106198328D01*
X132323035Y-105626900D02*
X133465893Y-105626900D01*
X134180178Y-106198328D02*
X134180178Y-104698328D01*
X134180178Y-105412614D02*
X135037321Y-105412614D01*
X135037321Y-106198328D02*
X135037321Y-104698328D01*
X136394465Y-105198328D02*
X136394465Y-106198328D01*
X135751607Y-105198328D02*
X135751607Y-105984042D01*
X135751607Y-105984042D02*
X135823036Y-106126900D01*
X135823036Y-106126900D02*
X135965893Y-106198328D01*
X135965893Y-106198328D02*
X136180179Y-106198328D01*
X136180179Y-106198328D02*
X136323036Y-106126900D01*
X136323036Y-106126900D02*
X136394465Y-106055471D01*
X137751608Y-105198328D02*
X137751608Y-106412614D01*
X137751608Y-106412614D02*
X137680179Y-106555471D01*
X137680179Y-106555471D02*
X137608750Y-106626900D01*
X137608750Y-106626900D02*
X137465893Y-106698328D01*
X137465893Y-106698328D02*
X137251608Y-106698328D01*
X137251608Y-106698328D02*
X137108750Y-106626900D01*
X137751608Y-106126900D02*
X137608750Y-106198328D01*
X137608750Y-106198328D02*
X137323036Y-106198328D01*
X137323036Y-106198328D02*
X137180179Y-106126900D01*
X137180179Y-106126900D02*
X137108750Y-106055471D01*
X137108750Y-106055471D02*
X137037322Y-105912614D01*
X137037322Y-105912614D02*
X137037322Y-105484042D01*
X137037322Y-105484042D02*
X137108750Y-105341185D01*
X137108750Y-105341185D02*
X137180179Y-105269757D01*
X137180179Y-105269757D02*
X137323036Y-105198328D01*
X137323036Y-105198328D02*
X137608750Y-105198328D01*
X137608750Y-105198328D02*
X137751608Y-105269757D01*
X138680179Y-106198328D02*
X138537322Y-106126900D01*
X138537322Y-106126900D02*
X138465893Y-106055471D01*
X138465893Y-106055471D02*
X138394465Y-105912614D01*
X138394465Y-105912614D02*
X138394465Y-105484042D01*
X138394465Y-105484042D02*
X138465893Y-105341185D01*
X138465893Y-105341185D02*
X138537322Y-105269757D01*
X138537322Y-105269757D02*
X138680179Y-105198328D01*
X138680179Y-105198328D02*
X138894465Y-105198328D01*
X138894465Y-105198328D02*
X139037322Y-105269757D01*
X139037322Y-105269757D02*
X139108751Y-105341185D01*
X139108751Y-105341185D02*
X139180179Y-105484042D01*
X139180179Y-105484042D02*
X139180179Y-105912614D01*
X139180179Y-105912614D02*
X139108751Y-106055471D01*
X139108751Y-106055471D02*
X139037322Y-106126900D01*
X139037322Y-106126900D02*
X138894465Y-106198328D01*
X138894465Y-106198328D02*
X138680179Y-106198328D01*
X139823036Y-105626900D02*
X140965894Y-105626900D01*
X141608751Y-105769757D02*
X142323037Y-105769757D01*
X141465894Y-106198328D02*
X141965894Y-104698328D01*
X141965894Y-104698328D02*
X142465894Y-106198328D01*
X143608751Y-106198328D02*
X143608751Y-104698328D01*
X143608751Y-106126900D02*
X143465893Y-106198328D01*
X143465893Y-106198328D02*
X143180179Y-106198328D01*
X143180179Y-106198328D02*
X143037322Y-106126900D01*
X143037322Y-106126900D02*
X142965893Y-106055471D01*
X142965893Y-106055471D02*
X142894465Y-105912614D01*
X142894465Y-105912614D02*
X142894465Y-105484042D01*
X142894465Y-105484042D02*
X142965893Y-105341185D01*
X142965893Y-105341185D02*
X143037322Y-105269757D01*
X143037322Y-105269757D02*
X143180179Y-105198328D01*
X143180179Y-105198328D02*
X143465893Y-105198328D01*
X143465893Y-105198328D02*
X143608751Y-105269757D01*
X144965894Y-106198328D02*
X144965894Y-105412614D01*
X144965894Y-105412614D02*
X144894465Y-105269757D01*
X144894465Y-105269757D02*
X144751608Y-105198328D01*
X144751608Y-105198328D02*
X144465894Y-105198328D01*
X144465894Y-105198328D02*
X144323036Y-105269757D01*
X144965894Y-106126900D02*
X144823036Y-106198328D01*
X144823036Y-106198328D02*
X144465894Y-106198328D01*
X144465894Y-106198328D02*
X144323036Y-106126900D01*
X144323036Y-106126900D02*
X144251608Y-105984042D01*
X144251608Y-105984042D02*
X144251608Y-105841185D01*
X144251608Y-105841185D02*
X144323036Y-105698328D01*
X144323036Y-105698328D02*
X144465894Y-105626900D01*
X144465894Y-105626900D02*
X144823036Y-105626900D01*
X144823036Y-105626900D02*
X144965894Y-105555471D01*
X145680179Y-106198328D02*
X145680179Y-105198328D01*
X145680179Y-105341185D02*
X145751608Y-105269757D01*
X145751608Y-105269757D02*
X145894465Y-105198328D01*
X145894465Y-105198328D02*
X146108751Y-105198328D01*
X146108751Y-105198328D02*
X146251608Y-105269757D01*
X146251608Y-105269757D02*
X146323037Y-105412614D01*
X146323037Y-105412614D02*
X146323037Y-106198328D01*
X146323037Y-105412614D02*
X146394465Y-105269757D01*
X146394465Y-105269757D02*
X146537322Y-105198328D01*
X146537322Y-105198328D02*
X146751608Y-105198328D01*
X146751608Y-105198328D02*
X146894465Y-105269757D01*
X146894465Y-105269757D02*
X146965894Y-105412614D01*
X146965894Y-105412614D02*
X146965894Y-106198328D01*
X147680179Y-105626900D02*
X148823037Y-105626900D01*
X149537322Y-106198328D02*
X149537322Y-104698328D01*
X149537322Y-104698328D02*
X150037322Y-105769757D01*
X150037322Y-105769757D02*
X150537322Y-104698328D01*
X150537322Y-104698328D02*
X150537322Y-106198328D01*
X151894466Y-106198328D02*
X151894466Y-105412614D01*
X151894466Y-105412614D02*
X151823037Y-105269757D01*
X151823037Y-105269757D02*
X151680180Y-105198328D01*
X151680180Y-105198328D02*
X151394466Y-105198328D01*
X151394466Y-105198328D02*
X151251608Y-105269757D01*
X151894466Y-106126900D02*
X151751608Y-106198328D01*
X151751608Y-106198328D02*
X151394466Y-106198328D01*
X151394466Y-106198328D02*
X151251608Y-106126900D01*
X151251608Y-106126900D02*
X151180180Y-105984042D01*
X151180180Y-105984042D02*
X151180180Y-105841185D01*
X151180180Y-105841185D02*
X151251608Y-105698328D01*
X151251608Y-105698328D02*
X151394466Y-105626900D01*
X151394466Y-105626900D02*
X151751608Y-105626900D01*
X151751608Y-105626900D02*
X151894466Y-105555471D01*
X152394466Y-105198328D02*
X152965894Y-105198328D01*
X152608751Y-104698328D02*
X152608751Y-105984042D01*
X152608751Y-105984042D02*
X152680180Y-106126900D01*
X152680180Y-106126900D02*
X152823037Y-106198328D01*
X152823037Y-106198328D02*
X152965894Y-106198328D01*
X153251609Y-105198328D02*
X153823037Y-105198328D01*
X153465894Y-104698328D02*
X153465894Y-105984042D01*
X153465894Y-105984042D02*
X153537323Y-106126900D01*
X153537323Y-106126900D02*
X153680180Y-106198328D01*
X153680180Y-106198328D02*
X153823037Y-106198328D01*
X154323037Y-106198328D02*
X154323037Y-104698328D01*
X154965895Y-106198328D02*
X154965895Y-105412614D01*
X154965895Y-105412614D02*
X154894466Y-105269757D01*
X154894466Y-105269757D02*
X154751609Y-105198328D01*
X154751609Y-105198328D02*
X154537323Y-105198328D01*
X154537323Y-105198328D02*
X154394466Y-105269757D01*
X154394466Y-105269757D02*
X154323037Y-105341185D01*
X155680180Y-106198328D02*
X155680180Y-105198328D01*
X155680180Y-104698328D02*
X155608752Y-104769757D01*
X155608752Y-104769757D02*
X155680180Y-104841185D01*
X155680180Y-104841185D02*
X155751609Y-104769757D01*
X155751609Y-104769757D02*
X155680180Y-104698328D01*
X155680180Y-104698328D02*
X155680180Y-104841185D01*
X156965895Y-106126900D02*
X156823038Y-106198328D01*
X156823038Y-106198328D02*
X156537324Y-106198328D01*
X156537324Y-106198328D02*
X156394466Y-106126900D01*
X156394466Y-106126900D02*
X156323038Y-105984042D01*
X156323038Y-105984042D02*
X156323038Y-105412614D01*
X156323038Y-105412614D02*
X156394466Y-105269757D01*
X156394466Y-105269757D02*
X156537324Y-105198328D01*
X156537324Y-105198328D02*
X156823038Y-105198328D01*
X156823038Y-105198328D02*
X156965895Y-105269757D01*
X156965895Y-105269757D02*
X157037324Y-105412614D01*
X157037324Y-105412614D02*
X157037324Y-105555471D01*
X157037324Y-105555471D02*
X156323038Y-105698328D01*
X158323038Y-105198328D02*
X158323038Y-106198328D01*
X157680180Y-105198328D02*
X157680180Y-105984042D01*
X157680180Y-105984042D02*
X157751609Y-106126900D01*
X157751609Y-106126900D02*
X157894466Y-106198328D01*
X157894466Y-106198328D02*
X158108752Y-106198328D01*
X158108752Y-106198328D02*
X158251609Y-106126900D01*
X158251609Y-106126900D02*
X158323038Y-106055471D01*
D11*
X126606667Y-60844318D02*
X126606667Y-61751461D01*
X126606667Y-61751461D02*
X126546190Y-61932889D01*
X126546190Y-61932889D02*
X126425238Y-62053842D01*
X126425238Y-62053842D02*
X126243809Y-62114318D01*
X126243809Y-62114318D02*
X126122857Y-62114318D01*
X127755714Y-60844318D02*
X127513809Y-60844318D01*
X127513809Y-60844318D02*
X127392857Y-60904794D01*
X127392857Y-60904794D02*
X127332381Y-60965270D01*
X127332381Y-60965270D02*
X127211428Y-61146699D01*
X127211428Y-61146699D02*
X127150952Y-61388603D01*
X127150952Y-61388603D02*
X127150952Y-61872413D01*
X127150952Y-61872413D02*
X127211428Y-61993365D01*
X127211428Y-61993365D02*
X127271905Y-62053842D01*
X127271905Y-62053842D02*
X127392857Y-62114318D01*
X127392857Y-62114318D02*
X127634762Y-62114318D01*
X127634762Y-62114318D02*
X127755714Y-62053842D01*
X127755714Y-62053842D02*
X127816190Y-61993365D01*
X127816190Y-61993365D02*
X127876667Y-61872413D01*
X127876667Y-61872413D02*
X127876667Y-61570032D01*
X127876667Y-61570032D02*
X127816190Y-61449080D01*
X127816190Y-61449080D02*
X127755714Y-61388603D01*
X127755714Y-61388603D02*
X127634762Y-61328127D01*
X127634762Y-61328127D02*
X127392857Y-61328127D01*
X127392857Y-61328127D02*
X127271905Y-61388603D01*
X127271905Y-61388603D02*
X127211428Y-61449080D01*
X127211428Y-61449080D02*
X127150952Y-61570032D01*
D12*
X117517142Y-69599580D02*
X117469523Y-69647200D01*
X117469523Y-69647200D02*
X117326666Y-69694819D01*
X117326666Y-69694819D02*
X117231428Y-69694819D01*
X117231428Y-69694819D02*
X117088571Y-69647200D01*
X117088571Y-69647200D02*
X116993333Y-69551961D01*
X116993333Y-69551961D02*
X116945714Y-69456723D01*
X116945714Y-69456723D02*
X116898095Y-69266247D01*
X116898095Y-69266247D02*
X116898095Y-69123390D01*
X116898095Y-69123390D02*
X116945714Y-68932914D01*
X116945714Y-68932914D02*
X116993333Y-68837676D01*
X116993333Y-68837676D02*
X117088571Y-68742438D01*
X117088571Y-68742438D02*
X117231428Y-68694819D01*
X117231428Y-68694819D02*
X117326666Y-68694819D01*
X117326666Y-68694819D02*
X117469523Y-68742438D01*
X117469523Y-68742438D02*
X117517142Y-68790057D01*
X118469523Y-69694819D02*
X117898095Y-69694819D01*
X118183809Y-69694819D02*
X118183809Y-68694819D01*
X118183809Y-68694819D02*
X118088571Y-68837676D01*
X118088571Y-68837676D02*
X117993333Y-68932914D01*
X117993333Y-68932914D02*
X117898095Y-68980533D01*
X119421904Y-69694819D02*
X118850476Y-69694819D01*
X119136190Y-69694819D02*
X119136190Y-68694819D01*
X119136190Y-68694819D02*
X119040952Y-68837676D01*
X119040952Y-68837676D02*
X118945714Y-68932914D01*
X118945714Y-68932914D02*
X118850476Y-68980533D01*
D13*
%TO.C,J6*%
X120480000Y-65055000D02*
X120480000Y-58055000D01*
X120480000Y-68705000D02*
X121106000Y-68705000D01*
X126080000Y-54655000D02*
X121280000Y-54655000D01*
D14*
X129437000Y-68349000D02*
X129437000Y-68349000D01*
X129491000Y-68349000D02*
X129491000Y-68349000D01*
D13*
X130026000Y-66285000D02*
X121471000Y-66285000D01*
X130430000Y-54655000D02*
X127780000Y-54655000D01*
X130731000Y-68705000D02*
X130026000Y-66285000D01*
X132840000Y-54655000D02*
X131980000Y-54655000D01*
X133580000Y-66055000D02*
X133580000Y-58057000D01*
X133580000Y-68705000D02*
X130731000Y-68705000D01*
D14*
X129437000Y-68349000D02*
G75*
G02*
X129491000Y-68349000I27000J0D01*
G01*
X129491000Y-68349000D02*
G75*
G02*
X129437000Y-68349000I-27000J0D01*
G01*
D15*
%TO.C,C11*%
X121657836Y-69930000D02*
X121442164Y-69930000D01*
X121657836Y-70650000D02*
X121442164Y-70650000D01*
%TD*%
M02*
