%TF.GenerationSoftware,KiCad,Pcbnew,9.0.4*%
%TF.CreationDate,2025-10-26T21:46:10+01:00*%
%TF.ProjectId,esp32_fpga,65737033-325f-4667-9067-612e6b696361,rev?*%
%TF.SameCoordinates,Original*%
%TF.FileFunction,Copper,L4,Bot*%
%TF.FilePolarity,Positive*%
%FSLAX46Y46*%
G04 Gerber Fmt 4.6, Leading zero omitted, Abs format (unit mm)*
G04 Created by KiCad (PCBNEW 9.0.4) date 2025-10-26 21:46:10*
%MOMM*%
%LPD*%
G01*
G04 APERTURE LIST*
G04 Aperture macros list*
%AMRoundRect*
0 Rectangle with rounded corners*
0 $1 Rounding radius*
0 $2 $3 $4 $5 $6 $7 $8 $9 X,Y pos of 4 corners*
0 Add a 4 corners polygon primitive as box body*
4,1,4,$2,$3,$4,$5,$6,$7,$8,$9,$2,$3,0*
0 Add four circle primitives for the rounded corners*
1,1,$1+$1,$2,$3*
1,1,$1+$1,$4,$5*
1,1,$1+$1,$6,$7*
1,1,$1+$1,$8,$9*
0 Add four rect primitives between the rounded corners*
20,1,$1+$1,$2,$3,$4,$5,0*
20,1,$1+$1,$4,$5,$6,$7,0*
20,1,$1+$1,$6,$7,$8,$9,0*
20,1,$1+$1,$8,$9,$2,$3,0*%
%AMHorizOval*
0 Thick line with rounded ends*
0 $1 width*
0 $2 $3 position (X,Y) of the first rounded end (center of the circle)*
0 $4 $5 position (X,Y) of the second rounded end (center of the circle)*
0 Add line between two ends*
20,1,$1,$2,$3,$4,$5,0*
0 Add two circle primitives to create the rounded ends*
1,1,$1,$2,$3*
1,1,$1,$4,$5*%
%AMRotRect*
0 Rectangle, with rotation*
0 The origin of the aperture is its center*
0 $1 length*
0 $2 width*
0 $3 Rotation angle, in degrees counterclockwise*
0 Add horizontal line*
21,1,$1,$2,0,0,$3*%
%AMFreePoly0*
4,1,368,0.672119,0.783999,0.672365,0.783987,0.713365,0.780987,0.713742,0.780945,0.753742,0.774945,0.753862,0.774925,0.793862,0.767925,0.794213,0.767851,0.834213,0.757851,0.834357,0.757812,0.873357,0.746812,0.873729,0.746692,0.911729,0.732692,0.911836,0.732651,0.949836,0.717651,0.950187,0.717496,0.987187,0.699496,0.987334,0.699422,1.023334,0.680422,1.023716,0.680198,
1.057716,0.658198,1.057802,0.658141,1.091802,0.635141,1.092078,0.634940,1.124078,0.609940,1.124213,0.609831,1.155213,0.583831,1.155412,0.583655,1.185412,0.555655,1.185655,0.555412,1.213655,0.525412,1.213831,0.525213,1.239831,0.494213,1.239940,0.494078,1.264940,0.462078,1.265141,0.461802,1.288141,0.427802,1.288198,0.427716,1.310198,0.393716,1.310422,0.393334,
1.329422,0.357334,1.329496,0.357187,1.347496,0.320187,1.347651,0.319836,1.362651,0.281836,1.362692,0.281729,1.376692,0.243729,1.376812,0.243357,1.387812,0.204357,1.387851,0.204213,1.397851,0.164213,1.397925,0.163862,1.404925,0.123862,1.404945,0.123742,1.410945,0.083742,1.410987,0.083365,1.413987,0.042365,1.413998,0.042128,1.414998,0.003128,1.413876,0.000209,
1.415000,-0.002492,1.415000,-0.003000,1.414998,-0.003128,1.413998,-0.042128,1.413987,-0.042365,1.410987,-0.083365,1.410945,-0.083742,1.404945,-0.123742,1.404925,-0.123862,1.397925,-0.163862,1.397851,-0.164213,1.387851,-0.204213,1.387812,-0.204357,1.376812,-0.243357,1.376692,-0.243729,1.362692,-0.281729,1.362651,-0.281836,1.347651,-0.319836,1.347496,-0.320187,1.329496,-0.357187,
1.329422,-0.357334,1.310422,-0.393334,1.310198,-0.393716,1.288198,-0.427716,1.288141,-0.427802,1.265141,-0.461802,1.264940,-0.462078,1.239940,-0.494078,1.239831,-0.494213,1.213831,-0.525213,1.213655,-0.525412,1.185655,-0.555412,1.185412,-0.555655,1.155412,-0.583655,1.155213,-0.583831,1.124213,-0.609831,1.124078,-0.609940,1.092078,-0.634940,1.091802,-0.635141,1.057802,-0.658141,
1.057716,-0.658198,1.023716,-0.680198,1.023334,-0.680422,0.987334,-0.699422,0.987187,-0.699496,0.950187,-0.717496,0.949836,-0.717651,0.911836,-0.732651,0.911729,-0.732692,0.873729,-0.746692,0.873357,-0.746812,0.834357,-0.757812,0.834213,-0.757851,0.794213,-0.767851,0.793862,-0.767925,0.753862,-0.774925,0.753742,-0.774945,0.713742,-0.780945,0.713365,-0.780987,0.672365,-0.783987,
0.672119,-0.783999,0.630119,-0.784999,0.629878,-0.784999,0.588878,-0.783999,0.588635,-0.783987,0.547635,-0.780987,0.547258,-0.780945,0.507258,-0.774945,0.507138,-0.774925,0.467138,-0.767925,0.466787,-0.767851,0.426787,-0.757851,0.426643,-0.757812,0.387643,-0.746812,0.387311,-0.746706,0.348311,-0.732706,0.348121,-0.732634,0.311121,-0.717634,0.310813,-0.717496,0.273813,-0.699496,
0.273572,-0.699371,0.237572,-0.679371,0.237428,-0.679287,0.202428,-0.658287,0.202141,-0.658102,0.169141,-0.635102,0.168981,-0.634985,0.135981,-0.609985,0.135787,-0.609831,0.104787,-0.583831,0.104588,-0.583655,0.074588,-0.555655,0.074345,-0.555412,0.046345,-0.525412,0.046169,-0.525213,0.020169,-0.494213,0.020015,-0.494019,-0.004985,-0.461019,-0.005102,-0.460859,-0.028102,-0.427859,
-0.028287,-0.427572,-0.049287,-0.392572,-0.049371,-0.392428,-0.069371,-0.356428,-0.069496,-0.356187,-0.087496,-0.319187,-0.087634,-0.318879,-0.102634,-0.281879,-0.102706,-0.281689,-0.116706,-0.242689,-0.116812,-0.242357,-0.127812,-0.203357,-0.127851,-0.203213,-0.137851,-0.163213,-0.137925,-0.162862,-0.144925,-0.122862,-0.144945,-0.122742,-0.150945,-0.082742,-0.150987,-0.082365,-0.153987,-0.041365,
-0.153999,-0.041122,-0.154999,-0.000122,-0.154999,0.000000,0.155004,0.000000,0.155992,-0.024702,0.157976,-0.049510,0.160951,-0.074303,0.164901,-0.098990,0.170829,-0.122702,0.177745,-0.146414,0.186682,-0.170244,0.195587,-0.193003,0.206459,-0.215734,0.218319,-0.237479,0.231161,-0.258224,0.246039,-0.279052,0.260909,-0.298879,0.276686,-0.317614,0.312385,-0.353313,0.331120,-0.369090,
0.350948,-0.383961,0.371776,-0.398838,0.392520,-0.411680,0.414265,-0.423540,0.436997,-0.434412,0.459756,-0.443318,0.483586,-0.452254,0.507298,-0.459170,0.531009,-0.465098,0.555697,-0.469048,0.580490,-0.472023,0.605298,-0.474007,0.630007,-0.474996,0.655698,-0.474008,0.680510,-0.472023,0.705303,-0.469048,0.729990,-0.465098,0.753702,-0.459170,0.777414,-0.452254,0.801244,-0.443318,
0.824003,-0.434412,0.846734,-0.423540,0.868479,-0.411680,0.889291,-0.398796,0.910052,-0.384956,0.929793,-0.369163,0.948679,-0.353259,0.966463,-0.336463,0.983259,-0.318679,0.999163,-0.299793,1.014956,-0.280052,1.028796,-0.259291,1.041680,-0.238479,1.053540,-0.216734,1.064412,-0.194003,1.073318,-0.171244,1.082254,-0.147414,1.089170,-0.123702,1.095098,-0.099990,1.099048,-0.075303,
1.102023,-0.050510,1.104009,-0.025685,1.105005,-0.002783,1.106263,-0.000080,1.105005,0.002783,1.104009,0.025685,1.102023,0.050510,1.099048,0.075303,1.095098,0.099990,1.089170,0.123702,1.082254,0.147414,1.073318,0.171244,1.064412,0.194003,1.053540,0.216734,1.041680,0.238479,1.028796,0.259291,1.014956,0.280052,0.999163,0.299793,0.983259,0.318679,0.966463,0.336463,
0.948679,0.353259,0.929793,0.369163,0.910052,0.384956,0.889291,0.398796,0.868479,0.411680,0.846734,0.423540,0.824003,0.434412,0.801244,0.443318,0.777414,0.452254,0.753702,0.459170,0.729990,0.465098,0.705303,0.469048,0.680510,0.472023,0.655698,0.474008,0.630007,0.474996,0.605298,0.474007,0.580490,0.472023,0.555697,0.469048,0.531009,0.465098,0.507298,0.459170,
0.483586,0.452254,0.459756,0.443318,0.436997,0.434412,0.414265,0.423540,0.392520,0.411680,0.371779,0.398840,0.350948,0.383961,0.331120,0.369090,0.312385,0.353313,0.276686,0.317614,0.260909,0.298879,0.246039,0.279052,0.231161,0.258224,0.218319,0.237479,0.206459,0.215734,0.195587,0.193003,0.186681,0.170244,0.186682,0.170244,0.177745,0.146414,0.170829,0.122702,
0.164901,0.098990,0.160951,0.074303,0.157976,0.049510,0.155992,0.024702,0.155004,0.000000,-0.154999,0.000000,-0.154999,0.000122,-0.153999,0.041122,-0.153987,0.041365,-0.150987,0.082365,-0.150945,0.082742,-0.144945,0.122742,-0.144925,0.122862,-0.137925,0.162862,-0.137851,0.163213,-0.127851,0.203213,-0.127812,0.203357,-0.116812,0.242357,-0.116706,0.242689,-0.102706,0.281689,
-0.102634,0.281879,-0.087634,0.318879,-0.087496,0.319187,-0.069496,0.356187,-0.069371,0.356428,-0.049371,0.392428,-0.049287,0.392572,-0.028287,0.427572,-0.028102,0.427859,-0.005102,0.460859,-0.004985,0.461019,0.020015,0.494019,0.020169,0.494213,0.046169,0.525213,0.046345,0.525412,0.074345,0.555412,0.074588,0.555655,0.104588,0.583655,0.104787,0.583831,0.135787,0.609831,
0.135981,0.609985,0.168981,0.634985,0.169141,0.635102,0.202141,0.658102,0.202428,0.658287,0.237428,0.679287,0.237572,0.679371,0.273572,0.699371,0.273813,0.699496,0.310813,0.717496,0.311121,0.717634,0.348121,0.732634,0.348311,0.732706,0.387311,0.746706,0.387643,0.746812,0.426643,0.757812,0.426787,0.757851,0.466787,0.767851,0.467138,0.767925,0.507138,0.774925,
0.507258,0.774945,0.547258,0.780945,0.547635,0.780987,0.588635,0.783987,0.588878,0.783999,0.629878,0.784999,0.630119,0.784999,0.672119,0.783999,0.672119,0.783999,$1*%
G04 Aperture macros list end*
%TA.AperFunction,SMDPad,CuDef*%
%ADD10RoundRect,0.200000X-0.200000X-0.275000X0.200000X-0.275000X0.200000X0.275000X-0.200000X0.275000X0*%
%TD*%
%TA.AperFunction,SMDPad,CuDef*%
%ADD11RoundRect,0.150000X0.587500X0.150000X-0.587500X0.150000X-0.587500X-0.150000X0.587500X-0.150000X0*%
%TD*%
%TA.AperFunction,SMDPad,CuDef*%
%ADD12RoundRect,0.200000X-0.275000X0.200000X-0.275000X-0.200000X0.275000X-0.200000X0.275000X0.200000X0*%
%TD*%
%TA.AperFunction,SMDPad,CuDef*%
%ADD13RoundRect,0.200000X0.275000X-0.200000X0.275000X0.200000X-0.275000X0.200000X-0.275000X-0.200000X0*%
%TD*%
%TA.AperFunction,SMDPad,CuDef*%
%ADD14RoundRect,0.200000X0.200000X0.275000X-0.200000X0.275000X-0.200000X-0.275000X0.200000X-0.275000X0*%
%TD*%
%TA.AperFunction,SMDPad,CuDef*%
%ADD15R,2.000000X1.100000*%
%TD*%
%TA.AperFunction,SMDPad,CuDef*%
%ADD16RoundRect,0.140000X0.140000X0.170000X-0.140000X0.170000X-0.140000X-0.170000X0.140000X-0.170000X0*%
%TD*%
%TA.AperFunction,ComponentPad*%
%ADD17RoundRect,0.250000X-0.349519X0.894615X-0.949519X-0.144615X0.349519X-0.894615X0.949519X0.144615X0*%
%TD*%
%TA.AperFunction,ComponentPad*%
%ADD18HorizOval,1.700000X-0.129904X0.075000X0.129904X-0.075000X0*%
%TD*%
%TA.AperFunction,SMDPad,CuDef*%
%ADD19RoundRect,0.150000X0.512500X0.150000X-0.512500X0.150000X-0.512500X-0.150000X0.512500X-0.150000X0*%
%TD*%
%TA.AperFunction,SMDPad,CuDef*%
%ADD20R,0.700000X1.300000*%
%TD*%
%TA.AperFunction,SMDPad,CuDef*%
%ADD21RoundRect,0.218750X0.256250X-0.218750X0.256250X0.218750X-0.256250X0.218750X-0.256250X-0.218750X0*%
%TD*%
%TA.AperFunction,SMDPad,CuDef*%
%ADD22RoundRect,0.100000X-0.100000X0.130000X-0.100000X-0.130000X0.100000X-0.130000X0.100000X0.130000X0*%
%TD*%
%TA.AperFunction,SMDPad,CuDef*%
%ADD23RoundRect,0.250000X-0.250000X-0.475000X0.250000X-0.475000X0.250000X0.475000X-0.250000X0.475000X0*%
%TD*%
%TA.AperFunction,SMDPad,CuDef*%
%ADD24RoundRect,0.140000X0.170000X-0.140000X0.170000X0.140000X-0.170000X0.140000X-0.170000X-0.140000X0*%
%TD*%
%TA.AperFunction,SMDPad,CuDef*%
%ADD25C,1.000000*%
%TD*%
%TA.AperFunction,SMDPad,CuDef*%
%ADD26RotRect,1.500000X0.900000X118.000000*%
%TD*%
%TA.AperFunction,SMDPad,CuDef*%
%ADD27RotRect,0.900000X1.500000X118.000000*%
%TD*%
%TA.AperFunction,SMDPad,CuDef*%
%ADD28RotRect,0.900000X0.900000X118.000000*%
%TD*%
%TA.AperFunction,ComponentPad*%
%ADD29C,0.400000*%
%TD*%
%TA.AperFunction,SMDPad,CuDef*%
%ADD30RoundRect,0.140000X-0.140000X-0.170000X0.140000X-0.170000X0.140000X0.170000X-0.140000X0.170000X0*%
%TD*%
%TA.AperFunction,SMDPad,CuDef*%
%ADD31RoundRect,0.140000X-0.170000X0.140000X-0.170000X-0.140000X0.170000X-0.140000X0.170000X0.140000X0*%
%TD*%
%TA.AperFunction,SMDPad,CuDef*%
%ADD32R,0.400000X0.600000*%
%TD*%
%TA.AperFunction,SMDPad,CuDef*%
%ADD33FreePoly0,180.000000*%
%TD*%
%TA.AperFunction,ComponentPad*%
%ADD34RoundRect,0.250000X-0.405000X-0.405000X0.405000X-0.405000X0.405000X0.405000X-0.405000X0.405000X0*%
%TD*%
%TA.AperFunction,ComponentPad*%
%ADD35C,1.310000*%
%TD*%
%TA.AperFunction,SMDPad,CuDef*%
%ADD36RoundRect,0.200000X-0.200000X-0.250000X0.200000X-0.250000X0.200000X0.250000X-0.200000X0.250000X0*%
%TD*%
%TA.AperFunction,SMDPad,CuDef*%
%ADD37RoundRect,0.150000X-0.150000X0.512500X-0.150000X-0.512500X0.150000X-0.512500X0.150000X0.512500X0*%
%TD*%
%TA.AperFunction,SMDPad,CuDef*%
%ADD38RoundRect,0.150000X-0.150000X0.825000X-0.150000X-0.825000X0.150000X-0.825000X0.150000X0.825000X0*%
%TD*%
%TA.AperFunction,SMDPad,CuDef*%
%ADD39R,1.050000X0.650000*%
%TD*%
%TA.AperFunction,SMDPad,CuDef*%
%ADD40RoundRect,0.150000X0.150000X0.425000X-0.150000X0.425000X-0.150000X-0.425000X0.150000X-0.425000X0*%
%TD*%
%TA.AperFunction,SMDPad,CuDef*%
%ADD41RoundRect,0.075000X0.075000X0.500000X-0.075000X0.500000X-0.075000X-0.500000X0.075000X-0.500000X0*%
%TD*%
%TA.AperFunction,HeatsinkPad*%
%ADD42O,1.000000X1.800000*%
%TD*%
%TA.AperFunction,HeatsinkPad*%
%ADD43O,1.000000X2.100000*%
%TD*%
%TA.AperFunction,SMDPad,CuDef*%
%ADD44FreePoly0,0.000000*%
%TD*%
%TA.AperFunction,SMDPad,CuDef*%
%ADD45R,0.320000X0.500000*%
%TD*%
%TA.AperFunction,ComponentPad*%
%ADD46RotRect,0.850000X0.850000X118.000000*%
%TD*%
%TA.AperFunction,ComponentPad*%
%ADD47C,0.850000*%
%TD*%
%TA.AperFunction,ComponentPad*%
%ADD48R,1.700000X1.700000*%
%TD*%
%TA.AperFunction,ComponentPad*%
%ADD49C,1.700000*%
%TD*%
%TA.AperFunction,SMDPad,CuDef*%
%ADD50RoundRect,0.218750X0.218750X0.256250X-0.218750X0.256250X-0.218750X-0.256250X0.218750X-0.256250X0*%
%TD*%
%TA.AperFunction,SMDPad,CuDef*%
%ADD51RoundRect,0.225000X-0.250000X0.225000X-0.250000X-0.225000X0.250000X-0.225000X0.250000X0.225000X0*%
%TD*%
%TA.AperFunction,SMDPad,CuDef*%
%ADD52R,0.500000X0.320000*%
%TD*%
%TA.AperFunction,SMDPad,CuDef*%
%ADD53R,0.250000X0.850000*%
%TD*%
%TA.AperFunction,SMDPad,CuDef*%
%ADD54R,0.850000X0.250000*%
%TD*%
%TA.AperFunction,SMDPad,CuDef*%
%ADD55R,5.500000X5.500000*%
%TD*%
%TA.AperFunction,SMDPad,CuDef*%
%ADD56RoundRect,0.218750X-0.256250X0.218750X-0.256250X-0.218750X0.256250X-0.218750X0.256250X0.218750X0*%
%TD*%
%TA.AperFunction,SMDPad,CuDef*%
%ADD57RoundRect,0.225000X-0.225000X-0.250000X0.225000X-0.250000X0.225000X0.250000X-0.225000X0.250000X0*%
%TD*%
%TA.AperFunction,SMDPad,CuDef*%
%ADD58RoundRect,0.056250X0.188750X0.168750X-0.188750X0.168750X-0.188750X-0.168750X0.188750X-0.168750X0*%
%TD*%
%TA.AperFunction,SMDPad,CuDef*%
%ADD59RoundRect,0.135000X0.135000X0.185000X-0.135000X0.185000X-0.135000X-0.185000X0.135000X-0.185000X0*%
%TD*%
%TA.AperFunction,ComponentPad*%
%ADD60RoundRect,0.250000X-0.405000X0.405000X-0.405000X-0.405000X0.405000X-0.405000X0.405000X0.405000X0*%
%TD*%
%TA.AperFunction,SMDPad,CuDef*%
%ADD61RoundRect,0.125000X0.125000X0.125000X-0.125000X0.125000X-0.125000X-0.125000X0.125000X-0.125000X0*%
%TD*%
%TA.AperFunction,SMDPad,CuDef*%
%ADD62RoundRect,0.250000X0.475000X-0.250000X0.475000X0.250000X-0.475000X0.250000X-0.475000X-0.250000X0*%
%TD*%
%TA.AperFunction,SMDPad,CuDef*%
%ADD63RoundRect,0.250000X-0.475000X0.250000X-0.475000X-0.250000X0.475000X-0.250000X0.475000X0.250000X0*%
%TD*%
%TA.AperFunction,SMDPad,CuDef*%
%ADD64RoundRect,0.225000X0.250000X-0.225000X0.250000X0.225000X-0.250000X0.225000X-0.250000X-0.225000X0*%
%TD*%
%TA.AperFunction,SMDPad,CuDef*%
%ADD65RoundRect,0.218750X-0.218750X-0.256250X0.218750X-0.256250X0.218750X0.256250X-0.218750X0.256250X0*%
%TD*%
%TA.AperFunction,ComponentPad*%
%ADD66RoundRect,0.250000X-0.600000X-0.750000X0.600000X-0.750000X0.600000X0.750000X-0.600000X0.750000X0*%
%TD*%
%TA.AperFunction,ComponentPad*%
%ADD67O,1.700000X2.000000*%
%TD*%
%TA.AperFunction,ComponentPad*%
%ADD68RotRect,0.850000X0.850000X28.000000*%
%TD*%
%TA.AperFunction,ComponentPad*%
%ADD69RoundRect,0.250000X0.405000X-0.405000X0.405000X0.405000X-0.405000X0.405000X-0.405000X-0.405000X0*%
%TD*%
%TA.AperFunction,ViaPad*%
%ADD70C,0.500000*%
%TD*%
%TA.AperFunction,ViaPad*%
%ADD71C,0.800000*%
%TD*%
%TA.AperFunction,ViaPad*%
%ADD72C,0.400000*%
%TD*%
%TA.AperFunction,Conductor*%
%ADD73C,0.200000*%
%TD*%
%TA.AperFunction,Conductor*%
%ADD74C,0.250000*%
%TD*%
%TA.AperFunction,Conductor*%
%ADD75C,0.500000*%
%TD*%
%TA.AperFunction,Conductor*%
%ADD76C,0.150000*%
%TD*%
G04 APERTURE END LIST*
D10*
%TO.P,R19,2*%
%TO.N,/GPIO41*%
X139065000Y-63350000D03*
%TO.P,R19,1*%
%TO.N,GND*%
X137415000Y-63350000D03*
%TD*%
D11*
%TO.P,Q3,3,D*%
%TO.N,Net-(Q3-D)*%
X135252500Y-60870000D03*
%TO.P,Q3,2,S*%
%TO.N,GND*%
X137127500Y-61820000D03*
%TO.P,Q3,1,G*%
%TO.N,/GPIO41*%
X137127500Y-59920000D03*
%TD*%
D12*
%TO.P,R23,1*%
%TO.N,Net-(D8-BK)*%
X131590000Y-66315000D03*
%TO.P,R23,2*%
%TO.N,Net-(Q4-D)*%
X131590000Y-67965000D03*
%TD*%
%TO.P,R22,1*%
%TO.N,Net-(D8-GK)*%
X132590000Y-60195000D03*
%TO.P,R22,2*%
%TO.N,Net-(Q3-D)*%
X132590000Y-61845000D03*
%TD*%
D10*
%TO.P,R21,1*%
%TO.N,Net-(D8-RK)*%
X123215000Y-55850000D03*
%TO.P,R21,2*%
%TO.N,Net-(Q2-D)*%
X124865000Y-55850000D03*
%TD*%
D13*
%TO.P,R20,1*%
%TO.N,GND*%
X137340000Y-68795000D03*
%TO.P,R20,2*%
%TO.N,/GPIO42*%
X137340000Y-67145000D03*
%TD*%
D14*
%TO.P,R18,1*%
%TO.N,GND*%
X132705000Y-52710000D03*
%TO.P,R18,2*%
%TO.N,/GPIO40*%
X131055000Y-52710000D03*
%TD*%
D11*
%TO.P,Q4,1,G*%
%TO.N,/GPIO42*%
X135240000Y-64010000D03*
%TO.P,Q4,2,S*%
%TO.N,GND*%
X135240000Y-65910000D03*
%TO.P,Q4,3,D*%
%TO.N,Net-(Q4-D)*%
X133365000Y-64960000D03*
%TD*%
%TO.P,Q2,1,G*%
%TO.N,/GPIO40*%
X131610000Y-56340000D03*
%TO.P,Q2,2,S*%
%TO.N,GND*%
X131610000Y-58240000D03*
%TO.P,Q2,3,D*%
%TO.N,Net-(Q2-D)*%
X129735000Y-57290000D03*
%TD*%
D15*
%TO.P,D8,1,RK*%
%TO.N,Net-(D8-RK)*%
X129750000Y-61100000D03*
%TO.P,D8,2,GK*%
%TO.N,Net-(D8-GK)*%
X129750000Y-62800000D03*
%TO.P,D8,3,BK*%
%TO.N,Net-(D8-BK)*%
X129750000Y-64500000D03*
%TO.P,D8,4,BA*%
%TO.N,Net-(BT2-Pin_1)*%
X124950000Y-64500000D03*
%TO.P,D8,5,GA*%
X124950000Y-62800000D03*
%TO.P,D8,6,RA*%
X124950000Y-61100000D03*
%TD*%
D16*
%TO.P,C14,1*%
%TO.N,Net-(BT2-Pin_1)*%
X121070000Y-61170000D03*
%TO.P,C14,2*%
%TO.N,GND*%
X120110000Y-61170000D03*
%TD*%
%TO.P,C12,1*%
%TO.N,Net-(BT2-Pin_1)*%
X122450000Y-59660000D03*
%TO.P,C12,2*%
%TO.N,GND*%
X121490000Y-59660000D03*
%TD*%
D17*
%TO.P,BT2,1,Pin_1*%
%TO.N,Net-(BT2-Pin_1)*%
X115740000Y-63540000D03*
D18*
%TO.P,BT2,2,Pin_2*%
%TO.N,GND*%
X114490000Y-65705064D03*
%TD*%
D12*
%TO.P,R14,1*%
%TO.N,Net-(D3-A)*%
X139170000Y-67888238D03*
%TO.P,R14,2*%
%TO.N,+3.3V*%
X139170000Y-69538238D03*
%TD*%
D16*
%TO.P,C4,1*%
%TO.N,+3.3V*%
X125820000Y-49340000D03*
%TO.P,C4,2*%
%TO.N,GND*%
X124860000Y-49340000D03*
%TD*%
D11*
%TO.P,Q1,1,G*%
%TO.N,/VBUS*%
X148476024Y-112980000D03*
%TO.P,Q1,2,S*%
%TO.N,+4V*%
X148476024Y-114880000D03*
%TO.P,Q1,3,D*%
%TO.N,/ADC*%
X146601024Y-113930000D03*
%TD*%
D10*
%TO.P,R12,1*%
%TO.N,+3.3V*%
X114815000Y-96440000D03*
%TO.P,R12,2*%
%TO.N,/~{PSRAM_CS}*%
X116465000Y-96440000D03*
%TD*%
D19*
%TO.P,U7,1,STAT*%
%TO.N,Net-(U7-STAT)*%
X146036024Y-108877500D03*
%TO.P,U7,2,VSS*%
%TO.N,GND*%
X146036024Y-109827500D03*
%TO.P,U7,3,VBAT*%
%TO.N,/ADC*%
X146036024Y-110777500D03*
%TO.P,U7,4,VDD*%
%TO.N,/VBUS*%
X143761024Y-110777500D03*
%TO.P,U7,5,PROG*%
%TO.N,Net-(U7-PROG)*%
X143761024Y-108877500D03*
%TD*%
D20*
%TO.P,D1,1,RK*%
%TO.N,Net-(D1-RK)*%
X100770000Y-119210000D03*
%TO.P,D1,2,GK*%
%TO.N,Net-(D1-GK)*%
X101870000Y-119210000D03*
%TO.P,D1,3,BK*%
%TO.N,Net-(D1-BK)*%
X102970000Y-119210000D03*
%TO.P,D1,4,BA*%
%TO.N,+3.3V*%
X102970000Y-122310000D03*
%TO.P,D1,5,GA*%
X101870000Y-122310000D03*
%TO.P,D1,6,RA*%
X100770000Y-122310000D03*
%TD*%
D21*
%TO.P,D2,1,K*%
%TO.N,GND*%
X153188524Y-114285000D03*
%TO.P,D2,2,A*%
%TO.N,Net-(D2-A)*%
X153188524Y-112710000D03*
%TD*%
D22*
%TO.P,D3,1,K*%
%TO.N,GND*%
X138450000Y-65388238D03*
%TO.P,D3,2,A*%
%TO.N,Net-(D3-A)*%
X138450000Y-66028238D03*
%TD*%
D19*
%TO.P,U4,1,VIN*%
%TO.N,+4V*%
X157873524Y-112400000D03*
%TO.P,U4,2,GND*%
%TO.N,GND*%
X157873524Y-113350000D03*
%TO.P,U4,3,CE*%
%TO.N,Net-(U3-PWRGD)*%
X157873524Y-114300000D03*
%TO.P,U4,4,NC*%
%TO.N,unconnected-(U4-NC-Pad4)*%
X155598524Y-114300000D03*
%TO.P,U4,5,VOUT*%
%TO.N,+3.3V*%
X155598524Y-112400000D03*
%TD*%
D14*
%TO.P,R6,1*%
%TO.N,+3.3V*%
X85485000Y-122392500D03*
%TO.P,R6,2*%
%TO.N,Net-(MK3-CHIPEN)*%
X83835000Y-122392500D03*
%TD*%
D23*
%TO.P,C1,1*%
%TO.N,+4V*%
X159936024Y-112500000D03*
%TO.P,C1,2*%
%TO.N,GND*%
X161836024Y-112500000D03*
%TD*%
D24*
%TO.P,C18,1*%
%TO.N,+3.3V*%
X100390000Y-94500000D03*
%TO.P,C18,2*%
%TO.N,GND*%
X100390000Y-93540000D03*
%TD*%
D25*
%TO.P,TP8,1,1*%
%TO.N,GND*%
X123660000Y-121760000D03*
%TD*%
D16*
%TO.P,C26,1*%
%TO.N,+3.3V*%
X101338524Y-107477500D03*
%TO.P,C26,2*%
%TO.N,GND*%
X100378524Y-107477500D03*
%TD*%
D12*
%TO.P,R16,1*%
%TO.N,Net-(D5-K)*%
X146828524Y-105775000D03*
%TO.P,R16,2*%
%TO.N,Net-(U7-STAT)*%
X146828524Y-107425000D03*
%TD*%
D26*
%TO.P,U1,1,GND*%
%TO.N,GND*%
X153496638Y-90108183D03*
%TO.P,U1,2,3V3*%
%TO.N,+3.3V*%
X152375294Y-90704412D03*
%TO.P,U1,3,EN*%
%TO.N,/NRST*%
X151253951Y-91300641D03*
%TO.P,U1,4,IO4*%
%TO.N,/ADC*%
X150132607Y-91896869D03*
%TO.P,U1,5,IO5*%
%TO.N,/GPIO5*%
X149011264Y-92493099D03*
%TO.P,U1,6,IO6*%
%TO.N,/GPIO6*%
X147889920Y-93089327D03*
%TO.P,U1,7,IO7*%
%TO.N,/GPIO7*%
X146768577Y-93685556D03*
%TO.P,U1,8,IO15*%
%TO.N,/CDONE*%
X145647234Y-94281785D03*
%TO.P,U1,9,IO16*%
%TO.N,/CRESET*%
X144525890Y-94878014D03*
%TO.P,U1,10,IO17*%
%TO.N,/GPIO17*%
X143404547Y-95474243D03*
%TO.P,U1,11,IO18*%
%TO.N,/GPIO18*%
X142283203Y-96070472D03*
%TO.P,U1,12,IO8*%
%TO.N,/GPIO8*%
X141161861Y-96666700D03*
%TO.P,U1,13,IO19*%
%TO.N,/USB D-*%
X140040516Y-97262929D03*
%TO.P,U1,14,IO20*%
%TO.N,/USB D+*%
X138919173Y-97859159D03*
D27*
%TO.P,U1,15,IO3*%
%TO.N,/GPIO3*%
X136986871Y-96887595D03*
%TO.P,U1,16,IO46*%
%TO.N,/SCL*%
X136390642Y-95766252D03*
%TO.P,U1,17,IO9*%
%TO.N,/GPIO9*%
X135794413Y-94644909D03*
%TO.P,U1,18,IO10*%
%TO.N,/SPI_CS*%
X135198184Y-93523565D03*
%TO.P,U1,19,IO11*%
%TO.N,/SPI_MOSI*%
X134601955Y-92402221D03*
%TO.P,U1,20,IO12*%
%TO.N,/SPI_CLK*%
X134005727Y-91280878D03*
%TO.P,U1,21,IO13*%
%TO.N,/SPI_MISO*%
X133409497Y-90159535D03*
%TO.P,U1,22,IO14*%
%TO.N,/GPIO14*%
X132813268Y-89038192D03*
%TO.P,U1,23,IO21*%
%TO.N,/GPIO21*%
X132217039Y-87916847D03*
%TO.P,U1,24,IO47*%
%TO.N,/GPIO47*%
X131620811Y-86795504D03*
%TO.P,U1,25,IO48*%
%TO.N,/GPIO48*%
X131024582Y-85674161D03*
%TO.P,U1,26,IO45*%
%TO.N,/SDA*%
X130428353Y-84552818D03*
D26*
%TO.P,U1,27,IO0*%
%TO.N,/GPIO0*%
X130703420Y-82407576D03*
%TO.P,U1,28,IO35*%
%TO.N,/SPI2_MOSI*%
X131824763Y-81811347D03*
%TO.P,U1,29,IO36*%
%TO.N,/SPI2_CLK*%
X132946108Y-81215117D03*
%TO.P,U1,30,IO37*%
%TO.N,/SPI2_MISO*%
X134067451Y-80618889D03*
%TO.P,U1,31,IO38*%
%TO.N,/GPIO38*%
X135188794Y-80022660D03*
%TO.P,U1,32,IO39*%
%TO.N,/SPI2_CS*%
X136310138Y-79426432D03*
%TO.P,U1,33,IO40*%
%TO.N,/GPIO40*%
X137431482Y-78830203D03*
%TO.P,U1,34,IO41*%
%TO.N,/GPIO41*%
X138552824Y-78233974D03*
%TO.P,U1,35,IO42*%
%TO.N,/GPIO42*%
X139674168Y-77637745D03*
%TO.P,U1,36,RXD0*%
%TO.N,/UART_RX*%
X140795512Y-77041517D03*
%TO.P,U1,37,TXD0*%
%TO.N,/UART_TX*%
X141916855Y-76445287D03*
%TO.P,U1,38,IO2*%
%TO.N,/GPIO2*%
X143038198Y-75849058D03*
%TO.P,U1,39,IO1*%
%TO.N,/GPIO1*%
X144159541Y-75252829D03*
%TO.P,U1,40,GND*%
%TO.N,GND*%
X145280886Y-74656600D03*
D28*
%TO.P,U1,41_1,GND*%
X143276614Y-87331133D03*
%TO.P,U1,41_2,GND*%
X143933874Y-88567261D03*
%TO.P,U1,41_3,GND*%
X142619354Y-86095007D03*
%TO.P,U1,41_4,GND*%
X142697747Y-89224521D03*
%TO.P,U1,41_5,GND*%
X142040487Y-87988395D03*
%TO.P,U1,41_6,GND*%
X141383226Y-86752267D03*
%TO.P,U1,41_7,GND*%
X145170000Y-87910000D03*
%TO.P,U1,41_8,GND*%
X144512740Y-86673873D03*
%TO.P,U1,41_9,GND*%
X143855480Y-85437747D03*
D29*
%TO.P,U1,41_10*%
X143894676Y-87002502D03*
%TO.P,U1,41_11*%
X144551936Y-88238630D03*
%TO.P,U1,41_12*%
X143237416Y-85766377D03*
%TO.P,U1,41_13*%
X143315810Y-88895890D03*
%TO.P,U1,41_14*%
X142658550Y-87659764D03*
%TO.P,U1,41_15*%
X142001290Y-86423637D03*
%TO.P,U1,41_16*%
X144841370Y-87291937D03*
%TO.P,U1,41_17*%
X144184110Y-86055810D03*
%TO.P,U1,41_18*%
X143605244Y-87949198D03*
%TO.P,U1,41_19*%
X142947984Y-86713070D03*
%TO.P,U1,41_20*%
X142369117Y-88606457D03*
%TO.P,U1,41_21*%
X141711857Y-87370330D03*
%TD*%
D30*
%TO.P,C21,1*%
%TO.N,+3.3V*%
X109583524Y-102132500D03*
%TO.P,C21,2*%
%TO.N,GND*%
X110543524Y-102132500D03*
%TD*%
D16*
%TO.P,C31,1*%
%TO.N,+3.3V*%
X114625000Y-117590000D03*
%TO.P,C31,2*%
%TO.N,GND*%
X113665000Y-117590000D03*
%TD*%
D24*
%TO.P,C5,1*%
%TO.N,+3.3V*%
X169818524Y-122790000D03*
%TO.P,C5,2*%
%TO.N,GND*%
X169818524Y-121830000D03*
%TD*%
D31*
%TO.P,C25,1*%
%TO.N,+3.3V*%
X103818524Y-104807500D03*
%TO.P,C25,2*%
%TO.N,GND*%
X103818524Y-105767500D03*
%TD*%
D32*
%TO.P,MK3,1,SCK*%
%TO.N,/PIN_P44*%
X83970000Y-117882500D03*
%TO.P,MK3,2,SD*%
%TO.N,/PIN_P45*%
X85020000Y-117882500D03*
%TO.P,MK3,3,WS*%
%TO.N,/PIN_P46*%
X86070000Y-117882500D03*
%TO.P,MK3,4,L/R*%
%TO.N,GND*%
X87120000Y-117882500D03*
D33*
%TO.P,MK3,5,GND*%
X87760000Y-119212500D03*
D32*
%TO.P,MK3,6,GND*%
X87120000Y-120542500D03*
%TO.P,MK3,7,VDD*%
%TO.N,+3.3V*%
X86070000Y-120542500D03*
%TO.P,MK3,8,CHIPEN*%
%TO.N,Net-(MK3-CHIPEN)*%
X85020000Y-120542500D03*
%TO.P,MK3,9,GND*%
%TO.N,GND*%
X83970000Y-120542500D03*
%TD*%
D14*
%TO.P,R15,1*%
%TO.N,Net-(U7-PROG)*%
X143216024Y-107157500D03*
%TO.P,R15,2*%
%TO.N,GND*%
X141566024Y-107157500D03*
%TD*%
D34*
%TO.P,PMOD3,1,Pin_1*%
%TO.N,/PIN_P42*%
X101520000Y-114970000D03*
D35*
%TO.P,PMOD3,2,Pin_2*%
%TO.N,/PIN_P38*%
X101520000Y-112430000D03*
%TO.P,PMOD3,3,Pin_3*%
%TO.N,/PIN_P43*%
X104060000Y-114970000D03*
%TO.P,PMOD3,4,Pin_4*%
%TO.N,/PIN_P36*%
X104060000Y-112430000D03*
%TO.P,PMOD3,5,Pin_5*%
%TO.N,/PIN_P32*%
X106600000Y-114970000D03*
%TO.P,PMOD3,6,Pin_6*%
%TO.N,/PIN_P31*%
X106600000Y-112430000D03*
%TO.P,PMOD3,7,Pin_7*%
%TO.N,/PIN_P13*%
X109140000Y-114970000D03*
%TO.P,PMOD3,8,Pin_8*%
%TO.N,/PIN_P20*%
X109140000Y-112430000D03*
%TO.P,PMOD3,9,Pin_9*%
%TO.N,GND*%
X111680000Y-114970000D03*
%TO.P,PMOD3,10,Pin_10*%
X111680000Y-112430000D03*
%TO.P,PMOD3,11,Pin_11*%
%TO.N,+3.3V*%
X114220000Y-114970000D03*
%TO.P,PMOD3,12,Pin_12*%
X114220000Y-112430000D03*
%TD*%
D36*
%TO.P,U5,1,Tri-State*%
%TO.N,+3.3V*%
X99373524Y-106085000D03*
%TO.P,U5,2,GND*%
%TO.N,GND*%
X99373524Y-104235000D03*
%TO.P,U5,3,OUT*%
%TO.N,/12MHz*%
X100823524Y-104235000D03*
%TO.P,U5,4,VDD*%
%TO.N,+3.3V*%
X100823524Y-106085000D03*
%TD*%
D37*
%TO.P,U3,1,Vin*%
%TO.N,+4V*%
X121888524Y-109042500D03*
%TO.P,U3,2,GND*%
%TO.N,GND*%
X122838524Y-109042500D03*
%TO.P,U3,3,~{SHDN}*%
%TO.N,+4V*%
X123788524Y-109042500D03*
%TO.P,U3,4,PWRGD*%
%TO.N,Net-(U3-PWRGD)*%
X123788524Y-111317500D03*
%TO.P,U3,5,Vout*%
%TO.N,+1V2*%
X121888524Y-111317500D03*
%TD*%
D38*
%TO.P,U6,1,~{CS}*%
%TO.N,/~{PSRAM_CS}*%
X115808524Y-98475000D03*
%TO.P,U6,2,DO(IO1)*%
%TO.N,/MEM_SPI_MISO-IO1*%
X117078524Y-98475000D03*
%TO.P,U6,3,IO2*%
%TO.N,/MEM_SPI_~{WP}-IO2*%
X118348524Y-98475000D03*
%TO.P,U6,4,GND*%
%TO.N,GND*%
X119618524Y-98475000D03*
%TO.P,U6,5,DI(IO0)*%
%TO.N,/MEM_SPI_MOSI-IO0*%
X119618524Y-103425000D03*
%TO.P,U6,6,CLK*%
%TO.N,/MEM_SPI_SCLK*%
X118348524Y-103425000D03*
%TO.P,U6,7,IO3*%
%TO.N,/MEM_SPI_~{HLD}-IO3*%
X117078524Y-103425000D03*
%TO.P,U6,8,VCC*%
%TO.N,+3.3V*%
X115808524Y-103425000D03*
%TD*%
D14*
%TO.P,R1,1*%
%TO.N,+3.3V*%
X154883524Y-110720000D03*
%TO.P,R1,2*%
%TO.N,Net-(D2-A)*%
X153233524Y-110720000D03*
%TD*%
D12*
%TO.P,R9,1*%
%TO.N,+3.3V*%
X104638524Y-86090000D03*
%TO.P,R9,2*%
%TO.N,/CDONE*%
X104638524Y-87740000D03*
%TD*%
D39*
%TO.P,SW2,1,1*%
%TO.N,/GPIO0*%
X126380000Y-73580000D03*
X122230000Y-73580000D03*
%TO.P,SW2,2,2*%
%TO.N,GND*%
X126380000Y-75730000D03*
X122230000Y-75730000D03*
%TD*%
D25*
%TO.P,TP7,1,1*%
%TO.N,/ADC*%
X155160000Y-121630000D03*
%TD*%
D31*
%TO.P,C30,1*%
%TO.N,+3.3V*%
X110538524Y-73760000D03*
%TO.P,C30,2*%
%TO.N,GND*%
X110538524Y-74720000D03*
%TD*%
D32*
%TO.P,MK2,1,SCK*%
%TO.N,/PIN_P20*%
X164758524Y-119770000D03*
%TO.P,MK2,2,SD*%
%TO.N,/PIN_P19*%
X165808524Y-119770000D03*
%TO.P,MK2,3,WS*%
%TO.N,/PIN_P18*%
X166858524Y-119770000D03*
%TO.P,MK2,4,L/R*%
%TO.N,GND*%
X167908524Y-119770000D03*
D33*
%TO.P,MK2,5,GND*%
X168548524Y-121100000D03*
D32*
%TO.P,MK2,6,GND*%
X167908524Y-122430000D03*
%TO.P,MK2,7,VDD*%
%TO.N,+3.3V*%
X166858524Y-122430000D03*
%TO.P,MK2,8,CHIPEN*%
%TO.N,Net-(MK2-CHIPEN)*%
X165808524Y-122430000D03*
%TO.P,MK2,9,GND*%
%TO.N,GND*%
X164758524Y-122430000D03*
%TD*%
D24*
%TO.P,C8,1*%
%TO.N,GND*%
X135150000Y-71320000D03*
%TO.P,C8,2*%
%TO.N,+3.3V*%
X135150000Y-70360000D03*
%TD*%
D31*
%TO.P,C22,1*%
%TO.N,/VCC_PLL*%
X106468524Y-104832500D03*
%TO.P,C22,2*%
%TO.N,GND*%
X106468524Y-105792500D03*
%TD*%
D40*
%TO.P,J3,A1,GND*%
%TO.N,GND*%
X134328524Y-117080000D03*
%TO.P,J3,A4,VBUS*%
%TO.N,/VBUS*%
X133528524Y-117080000D03*
D41*
%TO.P,J3,A5,CC1*%
%TO.N,Net-(J3-CC1)*%
X132378524Y-117080000D03*
%TO.P,J3,A6,D+*%
%TO.N,/USB D+*%
X131378524Y-117080000D03*
%TO.P,J3,A7,D-*%
%TO.N,/USB D-*%
X130878524Y-117080000D03*
%TO.P,J3,A8,SBU1*%
%TO.N,unconnected-(J3-SBU1-PadA8)*%
X129878524Y-117080000D03*
D40*
%TO.P,J3,A9,VBUS*%
%TO.N,/VBUS*%
X128728524Y-117080000D03*
%TO.P,J3,A12,GND*%
%TO.N,GND*%
X127928524Y-117080000D03*
%TO.P,J3,B1,GND*%
X127928524Y-117080000D03*
%TO.P,J3,B4,VBUS*%
%TO.N,/VBUS*%
X128728524Y-117080000D03*
D41*
%TO.P,J3,B5,CC2*%
%TO.N,Net-(J3-CC2)*%
X129378524Y-117080000D03*
%TO.P,J3,B6,D+*%
%TO.N,/USB D+*%
X130378524Y-117080000D03*
%TO.P,J3,B7,D-*%
%TO.N,/USB D-*%
X131878524Y-117080000D03*
%TO.P,J3,B8,SBU2*%
%TO.N,unconnected-(J3-SBU2-PadB8)*%
X132878524Y-117080000D03*
D40*
%TO.P,J3,B9,VBUS*%
%TO.N,/VBUS*%
X133528524Y-117080000D03*
%TO.P,J3,B12,GND*%
%TO.N,GND*%
X134328524Y-117080000D03*
D42*
%TO.P,J3,S1,SHIELD*%
X135448524Y-121835000D03*
D43*
X135448524Y-117655000D03*
D42*
X126808524Y-121835000D03*
D43*
X126808524Y-117655000D03*
%TD*%
D32*
%TO.P,MK1,1,SCK*%
%TO.N,/PIN_P6*%
X128110000Y-53350000D03*
%TO.P,MK1,2,SD*%
%TO.N,/PIN_P9*%
X127060000Y-53350000D03*
%TO.P,MK1,3,WS*%
%TO.N,/PIN_P10*%
X126010000Y-53350000D03*
%TO.P,MK1,4,L/R*%
%TO.N,GND*%
X124960000Y-53350000D03*
D44*
%TO.P,MK1,5,GND*%
X124320000Y-52020000D03*
D32*
%TO.P,MK1,6,GND*%
X124960000Y-50690000D03*
%TO.P,MK1,7,VDD*%
%TO.N,+3.3V*%
X126010000Y-50690000D03*
%TO.P,MK1,8,CHIPEN*%
%TO.N,Net-(MK1-CHIPEN)*%
X127060000Y-50690000D03*
%TO.P,MK1,9,GND*%
%TO.N,GND*%
X128110000Y-50690000D03*
%TD*%
D45*
%TO.P,RN1,1,R1.1*%
%TO.N,/PIN_P2*%
X101268524Y-90240000D03*
%TO.P,RN1,2,R2.1*%
%TO.N,/PIN_P3*%
X101768524Y-90240000D03*
%TO.P,RN1,3,R3.1*%
%TO.N,/PIN_P4*%
X102268524Y-90240000D03*
%TO.P,RN1,4,R4.1*%
%TO.N,/PIN_P6*%
X102768524Y-90240000D03*
%TO.P,RN1,5,R4.2*%
%TO.N,/FPGA_P6*%
X102768524Y-91240000D03*
%TO.P,RN1,6,R3.2*%
%TO.N,/FPGA_P4*%
X102268524Y-91240000D03*
%TO.P,RN1,7,R2.2*%
%TO.N,/FPGA_P3*%
X101768524Y-91240000D03*
%TO.P,RN1,8,R1.2*%
%TO.N,/FPGA_P2*%
X101268524Y-91240000D03*
%TD*%
D46*
%TO.P,J8,1,Pin_1*%
%TO.N,GND*%
X142298318Y-72986870D03*
D47*
%TO.P,J8,2,Pin_2*%
%TO.N,/GPIO1*%
X141415371Y-73456342D03*
%TO.P,J8,3,Pin_3*%
%TO.N,/GPIO2*%
X140532423Y-73925813D03*
%TO.P,J8,4,Pin_4*%
%TO.N,/UART_TX*%
X139649475Y-74395285D03*
%TO.P,J8,5,Pin_5*%
%TO.N,/UART_RX*%
X138766527Y-74864755D03*
%TO.P,J8,6,Pin_6*%
%TO.N,/GPIO42*%
X137883580Y-75334228D03*
%TO.P,J8,7,Pin_7*%
%TO.N,/GPIO41*%
X137000633Y-75803699D03*
%TO.P,J8,8,Pin_8*%
%TO.N,/GPIO40*%
X136117685Y-76273171D03*
%TO.P,J8,9,Pin_9*%
%TO.N,/SPI2_CS*%
X135234737Y-76742643D03*
%TO.P,J8,10,Pin_10*%
%TO.N,/GPIO38*%
X134351789Y-77212115D03*
%TO.P,J8,11,Pin_11*%
%TO.N,/SPI2_MISO*%
X133468842Y-77681586D03*
%TO.P,J8,12,Pin_12*%
%TO.N,/SPI2_CLK*%
X132585895Y-78151057D03*
%TO.P,J8,13,Pin_13*%
%TO.N,/SPI2_MOSI*%
X131702947Y-78620529D03*
%TO.P,J8,14,Pin_14*%
%TO.N,/GPIO0*%
X130820000Y-79090000D03*
%TD*%
D45*
%TO.P,RN4,1,R1.1*%
%TO.N,/PIN_P21*%
X103980000Y-108290000D03*
%TO.P,RN4,2,R2.1*%
%TO.N,/PIN_P31*%
X103480000Y-108290000D03*
%TO.P,RN4,3,R3.1*%
%TO.N,/PIN_P32*%
X102980000Y-108290000D03*
%TO.P,RN4,4,R4.1*%
%TO.N,/PIN_P36*%
X102480000Y-108290000D03*
%TO.P,RN4,5,R4.2*%
%TO.N,/FPGA_P36*%
X102480000Y-107290000D03*
%TO.P,RN4,6,R3.2*%
%TO.N,/FPGA_P32*%
X102980000Y-107290000D03*
%TO.P,RN4,7,R2.2*%
%TO.N,/FPGA_P31*%
X103480000Y-107290000D03*
%TO.P,RN4,8,R1.2*%
%TO.N,/FPGA_P21*%
X103980000Y-107290000D03*
%TD*%
D48*
%TO.P,J4,1,Pin_1*%
%TO.N,GND*%
X119440000Y-79860000D03*
D49*
%TO.P,J4,2,Pin_2*%
%TO.N,+3.3V*%
X121980000Y-79860000D03*
%TO.P,J4,3,Pin_3*%
%TO.N,/SCL*%
X124520000Y-79860000D03*
%TO.P,J4,4,Pin_4*%
%TO.N,/SDA*%
X127060000Y-79860000D03*
%TD*%
D50*
%TO.P,D5,1,K*%
%TO.N,Net-(D5-K)*%
X145176024Y-105270000D03*
%TO.P,D5,2,A*%
%TO.N,/VBUS*%
X143601024Y-105270000D03*
%TD*%
D51*
%TO.P,C13,1*%
%TO.N,+3.3V*%
X155290000Y-93695000D03*
%TO.P,C13,2*%
%TO.N,GND*%
X155290000Y-95245000D03*
%TD*%
D52*
%TO.P,RN6,1,R1.1*%
%TO.N,/PIN_P45*%
X96533524Y-98025000D03*
%TO.P,RN6,2,R2.1*%
%TO.N,/PIN_P46*%
X96533524Y-97525000D03*
%TO.P,RN6,3,R3.1*%
%TO.N,/PIN_P47*%
X96533524Y-97025000D03*
%TO.P,RN6,4,R4.1*%
%TO.N,/PIN_P48*%
X96533524Y-96525000D03*
%TO.P,RN6,5,R4.2*%
%TO.N,/FPGA_P48*%
X97533524Y-96525000D03*
%TO.P,RN6,6,R3.2*%
%TO.N,/FPGA_P47*%
X97533524Y-97025000D03*
%TO.P,RN6,7,R2.2*%
%TO.N,/FPGA_P46*%
X97533524Y-97525000D03*
%TO.P,RN6,8,R1.2*%
%TO.N,/FPGA_P45*%
X97533524Y-98025000D03*
%TD*%
D31*
%TO.P,C24,1*%
%TO.N,+1V2*%
X105088524Y-104767500D03*
%TO.P,C24,2*%
%TO.N,GND*%
X105088524Y-105727500D03*
%TD*%
D53*
%TO.P,IC1,1,VCCIO_2*%
%TO.N,+3.3V*%
X101348524Y-95800000D03*
%TO.P,IC1,2,IOB_6A*%
%TO.N,/FPGA_P2*%
X101848524Y-95800000D03*
%TO.P,IC1,3,IOB_9B*%
%TO.N,/FPGA_P3*%
X102348524Y-95800000D03*
%TO.P,IC1,4,IOB_8A*%
%TO.N,/FPGA_P4*%
X102848524Y-95800000D03*
%TO.P,IC1,5,VCC_1*%
%TO.N,+1V2*%
X103348524Y-95800000D03*
%TO.P,IC1,6,IOB_13B*%
%TO.N,/FPGA_P6*%
X103848524Y-95800000D03*
%TO.P,IC1,7,CDONE*%
%TO.N,/CDONE*%
X104348524Y-95800000D03*
%TO.P,IC1,8,CRESET_B*%
%TO.N,/CRESET*%
X104848524Y-95800000D03*
%TO.P,IC1,9,IOB_16A*%
%TO.N,/FPGA_P9*%
X105348524Y-95800000D03*
%TO.P,IC1,10,IOB_18A*%
%TO.N,/FPGA_P10*%
X105848524Y-95800000D03*
%TO.P,IC1,11,IOB_20A*%
%TO.N,/FPGA_P11*%
X106348524Y-95800000D03*
%TO.P,IC1,12,IOB_22A*%
%TO.N,/FPGA_P12*%
X106848524Y-95800000D03*
D54*
%TO.P,IC1,13,IOB_24A*%
%TO.N,/FPGA_P13*%
X107548524Y-96500000D03*
%TO.P,IC1,14,IOB_32A_SPI_SO*%
%TO.N,/SPI_MISO*%
X107548524Y-97000000D03*
%TO.P,IC1,15,IOB_34A_SPI_SCK*%
%TO.N,/SPI_CLK*%
X107548524Y-97500000D03*
%TO.P,IC1,16,IOB_35B_SPI_SS*%
%TO.N,/SPI_CS*%
X107548524Y-98000000D03*
%TO.P,IC1,17,IOB_33B_SPI_SI*%
%TO.N,/SPI_MOSI*%
X107548524Y-98500000D03*
%TO.P,IC1,18,IOB_31B*%
%TO.N,/FPGA_P18*%
X107548524Y-99000000D03*
%TO.P,IC1,19,IOB_29B*%
%TO.N,/FPGA_P19*%
X107548524Y-99500000D03*
%TO.P,IC1,20,IOB_25B_G3*%
%TO.N,/FPGA_P20*%
X107548524Y-100000000D03*
%TO.P,IC1,21,IOB_23B*%
%TO.N,/FPGA_P21*%
X107548524Y-100500000D03*
%TO.P,IC1,22,SPI_VCCIO1*%
%TO.N,+3.3V*%
X107548524Y-101000000D03*
%TO.P,IC1,23,IOT_37A*%
%TO.N,/MEM_SPI_MISO-IO1*%
X107548524Y-101500000D03*
%TO.P,IC1,24,VPP_2V5*%
%TO.N,+3.3V*%
X107548524Y-102000000D03*
D53*
%TO.P,IC1,25,IOT_36B*%
%TO.N,/MEM_SPI_~{WP}-IO2*%
X106848524Y-102700000D03*
%TO.P,IC1,26,IOT_39A*%
%TO.N,/MEM_SPI_MOSI-IO0*%
X106348524Y-102700000D03*
%TO.P,IC1,27,IOT_38B*%
%TO.N,/MEM_SPI_~{HLD}-IO3*%
X105848524Y-102700000D03*
%TO.P,IC1,28,IOT_41A*%
%TO.N,/MEM_SPI_SCLK*%
X105348524Y-102700000D03*
%TO.P,IC1,29,VCCPLL*%
%TO.N,/VCC_PLL*%
X104848524Y-102700000D03*
%TO.P,IC1,30,VCC_2*%
%TO.N,+1V2*%
X104348524Y-102700000D03*
%TO.P,IC1,31,IOT_42B*%
%TO.N,/FPGA_P31*%
X103848524Y-102700000D03*
%TO.P,IC1,32,IOT_43A*%
%TO.N,/FPGA_P32*%
X103348524Y-102700000D03*
%TO.P,IC1,33,VCCIO_0*%
%TO.N,+3.3V*%
X102848524Y-102700000D03*
%TO.P,IC1,34,IOT_44B*%
%TO.N,unconnected-(IC1-IOT_44B-Pad34)*%
X102348524Y-102700000D03*
%TO.P,IC1,35,IOT_46B_G0*%
%TO.N,/12MHz*%
X101848524Y-102700000D03*
%TO.P,IC1,36,IOT_48B*%
%TO.N,/FPGA_P36*%
X101348524Y-102700000D03*
D54*
%TO.P,IC1,37,IOT_45A_G1*%
%TO.N,/~{PSRAM_CS}*%
X100648524Y-102000000D03*
%TO.P,IC1,38,IOT_50B*%
%TO.N,/FPGA_P38*%
X100648524Y-101500000D03*
%TO.P,IC1,39,RGB0*%
%TO.N,Net-(D1-BK)*%
X100648524Y-101000000D03*
%TO.P,IC1,40,RGB1*%
%TO.N,Net-(D1-GK)*%
X100648524Y-100500000D03*
%TO.P,IC1,41,RGB2*%
%TO.N,Net-(D1-RK)*%
X100648524Y-100000000D03*
%TO.P,IC1,42,IOT_51A*%
%TO.N,/FPGA_P42*%
X100648524Y-99500000D03*
%TO.P,IC1,43,IOT_49A*%
%TO.N,/FPGA_P43*%
X100648524Y-99000000D03*
%TO.P,IC1,44,IOB_3B_G6*%
%TO.N,/FPGA_P44*%
X100648524Y-98500000D03*
%TO.P,IC1,45,IOB_5B*%
%TO.N,/FPGA_P45*%
X100648524Y-98000000D03*
%TO.P,IC1,46,IOB_0A*%
%TO.N,/FPGA_P46*%
X100648524Y-97500000D03*
%TO.P,IC1,47,IOB_2A*%
%TO.N,/FPGA_P47*%
X100648524Y-97000000D03*
%TO.P,IC1,48,IOB_4A*%
%TO.N,/FPGA_P48*%
X100648524Y-96500000D03*
D55*
%TO.P,IC1,49,GND*%
%TO.N,GND*%
X104098524Y-99250000D03*
%TD*%
D10*
%TO.P,R4,1*%
%TO.N,+3.3V*%
X126130000Y-47980000D03*
%TO.P,R4,2*%
%TO.N,Net-(MK1-CHIPEN)*%
X127780000Y-47980000D03*
%TD*%
D56*
%TO.P,D4,1,K*%
%TO.N,GND*%
X102908524Y-86177500D03*
%TO.P,D4,2,A*%
%TO.N,/CDONE*%
X102908524Y-87752500D03*
%TD*%
D52*
%TO.P,RN3,1,R1.1*%
%TO.N,/PIN_P13*%
X111960000Y-97850000D03*
%TO.P,RN3,2,R2.1*%
%TO.N,/PIN_P18*%
X111960000Y-98350000D03*
%TO.P,RN3,3,R3.1*%
%TO.N,/PIN_P19*%
X111960000Y-98850000D03*
%TO.P,RN3,4,R4.1*%
%TO.N,/PIN_P20*%
X111960000Y-99350000D03*
%TO.P,RN3,5,R4.2*%
%TO.N,/FPGA_P20*%
X110960000Y-99350000D03*
%TO.P,RN3,6,R3.2*%
%TO.N,/FPGA_P19*%
X110960000Y-98850000D03*
%TO.P,RN3,7,R2.2*%
%TO.N,/FPGA_P18*%
X110960000Y-98350000D03*
%TO.P,RN3,8,R1.2*%
%TO.N,/FPGA_P13*%
X110960000Y-97850000D03*
%TD*%
D12*
%TO.P,R17,1*%
%TO.N,/VBUS*%
X141991024Y-103822500D03*
%TO.P,R17,2*%
%TO.N,GND*%
X141991024Y-105472500D03*
%TD*%
D24*
%TO.P,C32,1*%
%TO.N,+3.3V*%
X97000000Y-119470000D03*
%TO.P,C32,2*%
%TO.N,GND*%
X97000000Y-118510000D03*
%TD*%
D30*
%TO.P,C6,1*%
%TO.N,+3.3V*%
X86840000Y-122182500D03*
%TO.P,C6,2*%
%TO.N,GND*%
X87800000Y-122182500D03*
%TD*%
D13*
%TO.P,R11,1*%
%TO.N,+3.3V*%
X118423524Y-107145000D03*
%TO.P,R11,2*%
%TO.N,/MEM_SPI_SCLK*%
X118423524Y-105495000D03*
%TD*%
D57*
%TO.P,C9,1*%
%TO.N,+3.3V*%
X154805000Y-97710000D03*
%TO.P,C9,2*%
%TO.N,GND*%
X156355000Y-97710000D03*
%TD*%
D16*
%TO.P,C3,1*%
%TO.N,/NRST*%
X152723524Y-103260000D03*
%TO.P,C3,2*%
%TO.N,GND*%
X151763524Y-103260000D03*
%TD*%
D58*
%TO.P,U2,1,GND*%
%TO.N,GND*%
X131690000Y-70775000D03*
%TO.P,U2,2,CSB*%
%TO.N,/SPI2_CS*%
X131690000Y-71425000D03*
%TO.P,U2,3,SDI*%
%TO.N,/SPI2_MOSI*%
X131690000Y-72075000D03*
%TO.P,U2,4,SCK*%
%TO.N,/SPI2_CLK*%
X131690000Y-72725000D03*
%TO.P,U2,5,SDO*%
%TO.N,/SPI2_MISO*%
X133630000Y-72725000D03*
%TO.P,U2,6,VDDIO*%
%TO.N,+3.3V*%
X133630000Y-72075000D03*
%TO.P,U2,7,GND*%
%TO.N,GND*%
X133630000Y-71425000D03*
%TO.P,U2,8,VDD*%
%TO.N,+3.3V*%
X133630000Y-70775000D03*
%TD*%
D24*
%TO.P,C19,1*%
%TO.N,+1V2*%
X102998524Y-94100000D03*
%TO.P,C19,2*%
%TO.N,GND*%
X102998524Y-93140000D03*
%TD*%
D59*
%TO.P,R2,1*%
%TO.N,Net-(J3-CC1)*%
X132938524Y-113085000D03*
%TO.P,R2,2*%
%TO.N,GND*%
X131918524Y-113085000D03*
%TD*%
D60*
%TO.P,PMOD2,1,Pin_1*%
%TO.N,/PIN_P4*%
X92088524Y-107099999D03*
D35*
%TO.P,PMOD2,2,Pin_2*%
%TO.N,/PIN_P3*%
X94628524Y-107099999D03*
%TO.P,PMOD2,3,Pin_3*%
%TO.N,/PIN_P48*%
X92088524Y-109639999D03*
%TO.P,PMOD2,4,Pin_4*%
%TO.N,/PIN_P45*%
X94628524Y-109639999D03*
%TO.P,PMOD2,5,Pin_5*%
%TO.N,/PIN_P47*%
X92088524Y-112179999D03*
%TO.P,PMOD2,6,Pin_6*%
%TO.N,/PIN_P44*%
X94628524Y-112179999D03*
%TO.P,PMOD2,7,Pin_7*%
%TO.N,/PIN_P46*%
X92088524Y-114719999D03*
%TO.P,PMOD2,8,Pin_8*%
%TO.N,/PIN_P2*%
X94628524Y-114719999D03*
%TO.P,PMOD2,9,Pin_9*%
%TO.N,GND*%
X92088524Y-117259999D03*
%TO.P,PMOD2,10,Pin_10*%
X94628524Y-117259999D03*
%TO.P,PMOD2,11,Pin_11*%
%TO.N,+3.3V*%
X92088524Y-119799999D03*
%TO.P,PMOD2,12,Pin_12*%
X94628524Y-119799999D03*
%TD*%
D31*
%TO.P,C27,1*%
%TO.N,+3.3V*%
X115803524Y-105250000D03*
%TO.P,C27,2*%
%TO.N,GND*%
X115803524Y-106210000D03*
%TD*%
D61*
%TO.P,D6,1,K*%
%TO.N,+4V*%
X142708524Y-114160000D03*
%TO.P,D6,2,A*%
%TO.N,/VBUS*%
X140508524Y-114160000D03*
%TD*%
D62*
%TO.P,C29,1*%
%TO.N,/ADC*%
X149001024Y-111097500D03*
%TO.P,C29,2*%
%TO.N,GND*%
X149001024Y-109197500D03*
%TD*%
D63*
%TO.P,C23,1*%
%TO.N,/VCC_PLL*%
X109518524Y-105802500D03*
%TO.P,C23,2*%
%TO.N,GND*%
X109518524Y-107702500D03*
%TD*%
D13*
%TO.P,R5,1*%
%TO.N,+3.3V*%
X163178524Y-122640000D03*
%TO.P,R5,2*%
%TO.N,Net-(MK2-CHIPEN)*%
X163178524Y-120990000D03*
%TD*%
D45*
%TO.P,RN2,1,R1.1*%
%TO.N,/PIN_P9*%
X108020000Y-88880000D03*
%TO.P,RN2,2,R2.1*%
%TO.N,/PIN_P10*%
X108520000Y-88880000D03*
%TO.P,RN2,3,R3.1*%
%TO.N,/PIN_P11*%
X109020000Y-88880000D03*
%TO.P,RN2,4,R4.1*%
%TO.N,/PIN_P12*%
X109520000Y-88880000D03*
%TO.P,RN2,5,R4.2*%
%TO.N,/FPGA_P12*%
X109520000Y-89880000D03*
%TO.P,RN2,6,R3.2*%
%TO.N,/FPGA_P11*%
X109020000Y-89880000D03*
%TO.P,RN2,7,R2.2*%
%TO.N,/FPGA_P10*%
X108520000Y-89880000D03*
%TO.P,RN2,8,R1.2*%
%TO.N,/FPGA_P9*%
X108020000Y-89880000D03*
%TD*%
D63*
%TO.P,C10,1*%
%TO.N,+1V2*%
X121988524Y-113387500D03*
%TO.P,C10,2*%
%TO.N,GND*%
X121988524Y-115287500D03*
%TD*%
D14*
%TO.P,R13,1*%
%TO.N,+4V*%
X147520000Y-102260000D03*
%TO.P,R13,2*%
%TO.N,Net-(U3-PWRGD)*%
X145870000Y-102260000D03*
%TD*%
D64*
%TO.P,C2,1*%
%TO.N,+4V*%
X121768524Y-107172500D03*
%TO.P,C2,2*%
%TO.N,GND*%
X121768524Y-105622500D03*
%TD*%
D65*
%TO.P,D7,1,A1*%
%TO.N,+3.3V*%
X157251024Y-108840000D03*
%TO.P,D7,2,A2*%
%TO.N,GND*%
X158826024Y-108840000D03*
%TD*%
D62*
%TO.P,C28,1*%
%TO.N,/VBUS*%
X141001024Y-110857500D03*
%TO.P,C28,2*%
%TO.N,GND*%
X141001024Y-108957500D03*
%TD*%
D12*
%TO.P,R8,1*%
%TO.N,+3.3V*%
X106818524Y-86050000D03*
%TO.P,R8,2*%
%TO.N,/CRESET*%
X106818524Y-87700000D03*
%TD*%
D46*
%TO.P,J2,1,Pin_1*%
%TO.N,GND*%
X152470000Y-94100000D03*
D47*
%TO.P,J2,2,Pin_2*%
%TO.N,+3.3V*%
X151587053Y-94569472D03*
%TO.P,J2,3,Pin_3*%
%TO.N,/NRST*%
X150704105Y-95038943D03*
%TO.P,J2,4,Pin_4*%
%TO.N,/ADC*%
X149821157Y-95508415D03*
%TO.P,J2,5,Pin_5*%
%TO.N,/GPIO5*%
X148938209Y-95977885D03*
%TO.P,J2,6,Pin_6*%
%TO.N,/GPIO6*%
X148055262Y-96447358D03*
%TO.P,J2,7,Pin_7*%
%TO.N,/GPIO7*%
X147172315Y-96916829D03*
%TO.P,J2,8,Pin_8*%
%TO.N,/CDONE*%
X146289367Y-97386301D03*
%TO.P,J2,9,Pin_9*%
%TO.N,/CRESET*%
X145406419Y-97855773D03*
%TO.P,J2,10,Pin_10*%
%TO.N,/GPIO17*%
X144523471Y-98325245D03*
%TO.P,J2,11,Pin_11*%
%TO.N,/GPIO18*%
X143640524Y-98794716D03*
%TO.P,J2,12,Pin_12*%
%TO.N,/GPIO8*%
X142757577Y-99264187D03*
%TO.P,J2,13,Pin_13*%
%TO.N,/USB D-*%
X141874629Y-99733659D03*
%TO.P,J2,14,Pin_14*%
%TO.N,/USB D+*%
X140991682Y-100203130D03*
%TD*%
D30*
%TO.P,C20,1*%
%TO.N,+3.3V*%
X111160000Y-100840000D03*
%TO.P,C20,2*%
%TO.N,GND*%
X112120000Y-100840000D03*
%TD*%
D66*
%TO.P,BT1,1,Pin_1*%
%TO.N,GND*%
X143888524Y-117667500D03*
D67*
%TO.P,BT1,2,Pin_2*%
%TO.N,/ADC*%
X146388524Y-117667500D03*
%TD*%
D52*
%TO.P,RN5,1,R1.1*%
%TO.N,/PIN_P38*%
X96503524Y-101245000D03*
%TO.P,RN5,2,R2.1*%
%TO.N,/PIN_P42*%
X96503524Y-100745000D03*
%TO.P,RN5,3,R3.1*%
%TO.N,/PIN_P43*%
X96503524Y-100245000D03*
%TO.P,RN5,4,R4.1*%
%TO.N,/PIN_P44*%
X96503524Y-99745000D03*
%TO.P,RN5,5,R4.2*%
%TO.N,/FPGA_P44*%
X97503524Y-99745000D03*
%TO.P,RN5,6,R3.2*%
%TO.N,/FPGA_P43*%
X97503524Y-100245000D03*
%TO.P,RN5,7,R2.2*%
%TO.N,/FPGA_P42*%
X97503524Y-100745000D03*
%TO.P,RN5,8,R1.2*%
%TO.N,/FPGA_P38*%
X97503524Y-101245000D03*
%TD*%
D68*
%TO.P,J5,1,Pin_1*%
%TO.N,/GPIO3*%
X133390000Y-96560000D03*
D47*
%TO.P,J5,2,Pin_2*%
%TO.N,/SCL*%
X132920528Y-95677053D03*
%TO.P,J5,3,Pin_3*%
%TO.N,/GPIO9*%
X132451057Y-94794105D03*
%TO.P,J5,4,Pin_4*%
%TO.N,/SPI_CS*%
X131981585Y-93911157D03*
%TO.P,J5,5,Pin_5*%
%TO.N,/SPI_MOSI*%
X131512115Y-93028209D03*
%TO.P,J5,6,Pin_6*%
%TO.N,/SPI_CLK*%
X131042642Y-92145262D03*
%TO.P,J5,7,Pin_7*%
%TO.N,/SPI_MISO*%
X130573171Y-91262315D03*
%TO.P,J5,8,Pin_8*%
%TO.N,/GPIO14*%
X130103699Y-90379367D03*
%TO.P,J5,9,Pin_9*%
%TO.N,/GPIO21*%
X129634227Y-89496419D03*
%TO.P,J5,10,Pin_10*%
%TO.N,/GPIO47*%
X129164755Y-88613471D03*
%TO.P,J5,11,Pin_11*%
%TO.N,/GPIO48*%
X128695284Y-87730524D03*
%TO.P,J5,12,Pin_12*%
%TO.N,/SDA*%
X128225813Y-86847577D03*
%TD*%
D59*
%TO.P,R7,1*%
%TO.N,GND*%
X130078524Y-113085000D03*
%TO.P,R7,2*%
%TO.N,Net-(J3-CC2)*%
X129058524Y-113085000D03*
%TD*%
D12*
%TO.P,R10,1*%
%TO.N,/VCC_PLL*%
X107748524Y-105842500D03*
%TO.P,R10,2*%
%TO.N,+1V2*%
X107748524Y-107492500D03*
%TD*%
D39*
%TO.P,SW1,1,1*%
%TO.N,/NRST*%
X153143524Y-101910000D03*
X157293524Y-101910000D03*
%TO.P,SW1,2,2*%
%TO.N,GND*%
X153143524Y-99760000D03*
X157293524Y-99760000D03*
%TD*%
D62*
%TO.P,C7,1*%
%TO.N,+3.3V*%
X155188524Y-108830000D03*
%TO.P,C7,2*%
%TO.N,GND*%
X155188524Y-106930000D03*
%TD*%
D10*
%TO.P,R3,1*%
%TO.N,/NRST*%
X154403524Y-103745000D03*
%TO.P,R3,2*%
%TO.N,+3.3V*%
X156053524Y-103745000D03*
%TD*%
D69*
%TO.P,PMOD1,1,Pin_1*%
%TO.N,/PIN_P19*%
X115598524Y-84580000D03*
D35*
%TO.P,PMOD1,2,Pin_2*%
%TO.N,/PIN_P18*%
X113058524Y-84580000D03*
%TO.P,PMOD1,3,Pin_3*%
%TO.N,/PIN_P12*%
X115598524Y-82040000D03*
%TO.P,PMOD1,4,Pin_4*%
%TO.N,/PIN_P21*%
X113058524Y-82040000D03*
%TO.P,PMOD1,5,Pin_5*%
%TO.N,/PIN_P11*%
X115598524Y-79500000D03*
%TO.P,PMOD1,6,Pin_6*%
%TO.N,/PIN_P10*%
X113058524Y-79500000D03*
%TO.P,PMOD1,7,Pin_7*%
%TO.N,/PIN_P9*%
X115598524Y-76960000D03*
%TO.P,PMOD1,8,Pin_8*%
%TO.N,/PIN_P6*%
X113058524Y-76960000D03*
%TO.P,PMOD1,9,Pin_9*%
%TO.N,GND*%
X115598524Y-74420000D03*
%TO.P,PMOD1,10,Pin_10*%
X113058524Y-74420000D03*
%TO.P,PMOD1,11,Pin_11*%
%TO.N,+3.3V*%
X115598524Y-71880000D03*
%TO.P,PMOD1,12,Pin_12*%
X113058524Y-71880000D03*
%TD*%
D70*
%TO.N,GND*%
X137120000Y-69760000D03*
X135800000Y-62250000D03*
X138240000Y-62590000D03*
X134980000Y-65120000D03*
X119390000Y-60600000D03*
X121310000Y-58830000D03*
X131810000Y-51120000D03*
X132790000Y-58950000D03*
%TO.N,Net-(BT2-Pin_1)*%
X124990000Y-59770000D03*
X123380000Y-59130000D03*
%TO.N,Net-(D8-RK)*%
X124420000Y-58160000D03*
X128940000Y-59430000D03*
%TO.N,Net-(Q2-D)*%
X125430000Y-57010000D03*
X129100000Y-56420000D03*
D71*
%TO.N,/GPIO41*%
X140990000Y-69850000D03*
%TO.N,/GPIO40*%
X135510000Y-55940000D03*
D70*
%TO.N,GND*%
X119870000Y-70460000D03*
D72*
X106070000Y-97240000D03*
D70*
X104110000Y-106460000D03*
D71*
X168140000Y-118210000D03*
D72*
X142619354Y-86095007D03*
D70*
X124210273Y-49552617D03*
D71*
X152970000Y-115540000D03*
X140350000Y-106940000D03*
D70*
X103140000Y-84900000D03*
D72*
X106000000Y-99220000D03*
D71*
X118880000Y-67350000D03*
D72*
X142040487Y-87988394D03*
X145170000Y-87910000D03*
X102310000Y-100930000D03*
D71*
X159020000Y-107490000D03*
D70*
X169995000Y-121055000D03*
D72*
X143855480Y-85437747D03*
X142697747Y-89224521D03*
D70*
X123060000Y-104860000D03*
X152780000Y-98495000D03*
X102810000Y-92430000D03*
D71*
X155600000Y-105640000D03*
D70*
X106940000Y-106450000D03*
X99550000Y-107800000D03*
X147450000Y-109590000D03*
X122660000Y-110200000D03*
D71*
X135420000Y-57700000D03*
X121870000Y-122660000D03*
D70*
X88700000Y-122690000D03*
D72*
X102250000Y-97240000D03*
D70*
X114420000Y-101130000D03*
X123990000Y-75750000D03*
D71*
X135680000Y-67640000D03*
D70*
X111180000Y-101960000D03*
X82570000Y-121090000D03*
X135890000Y-72110000D03*
X132120000Y-112230000D03*
D72*
X102160000Y-99230000D03*
D70*
X96950000Y-117610000D03*
D72*
X143933874Y-88567261D03*
X143276614Y-87331133D03*
D70*
X151590000Y-102415000D03*
D72*
X106100000Y-101150000D03*
D70*
X129350000Y-50220000D03*
X105330000Y-106580000D03*
X158670000Y-99245000D03*
X132540000Y-69740000D03*
X129920000Y-112220000D03*
X110570000Y-106970000D03*
X100100000Y-92740000D03*
D71*
X139350000Y-109500000D03*
D70*
X144630000Y-73110000D03*
X114620000Y-118450000D03*
D71*
X150670000Y-109070000D03*
D70*
X110070000Y-75710000D03*
D72*
X88390000Y-116740000D03*
D70*
X167908524Y-123491476D03*
D71*
X162180000Y-110780000D03*
X159390000Y-114010000D03*
D70*
X123870000Y-115850000D03*
X138101476Y-64703238D03*
X164675000Y-123525000D03*
D71*
X119810000Y-77490000D03*
D70*
X154400000Y-91320000D03*
X157710000Y-97181476D03*
D71*
X140760000Y-105170000D03*
D70*
X154760000Y-96550000D03*
D72*
X141383226Y-86752267D03*
D71*
X118500000Y-57530000D03*
D70*
X116870000Y-105970000D03*
X98920000Y-103440000D03*
X120880000Y-98880000D03*
X124370000Y-68450000D03*
D72*
X144512740Y-86673873D03*
D70*
%TO.N,/ADC*%
X145020000Y-114290000D03*
X145980000Y-111810000D03*
X145020000Y-113290000D03*
%TO.N,+4V*%
X149860000Y-112260000D03*
X139150000Y-112440000D03*
X142320000Y-112560000D03*
X148100000Y-103500000D03*
%TO.N,+3.3V*%
X86620000Y-123220000D03*
X153530000Y-98061476D03*
D71*
X157080000Y-107420000D03*
D70*
X99230000Y-122910000D03*
X152940000Y-92110000D03*
D71*
X153360000Y-108330000D03*
D70*
X114870000Y-103900000D03*
X114960000Y-97730000D03*
X169818524Y-123518524D03*
X154940000Y-92600000D03*
X99620000Y-94660000D03*
X161930000Y-123060000D03*
X101860000Y-123730000D03*
X107200000Y-85040000D03*
X104780000Y-85050000D03*
D71*
X158080000Y-111090000D03*
D70*
X85320000Y-123520000D03*
D71*
X120960000Y-82030000D03*
D70*
X139461476Y-70933238D03*
X126490000Y-68620000D03*
X157300000Y-103965000D03*
D71*
X156380000Y-110490000D03*
D70*
X114890000Y-104990000D03*
X115670000Y-117350000D03*
X122920000Y-70070000D03*
X110750000Y-72630000D03*
X96940000Y-120430000D03*
X113240000Y-101430000D03*
X112410000Y-102410000D03*
X101180000Y-108240000D03*
X134640000Y-72240000D03*
X126650000Y-46730000D03*
X135480000Y-69470000D03*
X104810000Y-122950000D03*
X119050000Y-108100000D03*
X103818524Y-104270000D03*
X110070000Y-99980000D03*
X126470000Y-49310000D03*
X152110000Y-96290000D03*
X166720000Y-123490000D03*
X98630000Y-107150000D03*
X102270000Y-103710000D03*
%TO.N,+1V2*%
X103348524Y-94940000D03*
X104680512Y-104359488D03*
%TO.N,Net-(D1-RK)*%
X99650000Y-100080000D03*
X100080000Y-117590000D03*
%TO.N,Net-(D1-GK)*%
X101730000Y-117640000D03*
X101047524Y-100550000D03*
%TO.N,Net-(D1-BK)*%
X100960000Y-120780000D03*
X98890000Y-100990000D03*
%TO.N,/CDONE*%
X136395000Y-99895000D03*
X104210000Y-91350000D03*
X119700000Y-90870000D03*
%TO.N,/FPGA_P13*%
X111940000Y-96920000D03*
X108000000Y-95640000D03*
%TO.N,/FPGA_P21*%
X104790000Y-107390000D03*
X108850000Y-99960000D03*
%TO.N,/~{PSRAM_CS}*%
X99590000Y-102300000D03*
X115380000Y-91430000D03*
%TO.N,/SPI_CS*%
X126520000Y-93130000D03*
X112880000Y-94150000D03*
%TO.N,/SPI_CLK*%
X125980000Y-92300000D03*
X112900000Y-93220000D03*
%TO.N,/SPI_MISO*%
X125540000Y-91420000D03*
X112950000Y-92260000D03*
%TO.N,/SPI_MOSI*%
X128130000Y-93370000D03*
X112920000Y-95180000D03*
%TO.N,/CRESET*%
X105110000Y-92150000D03*
X138760000Y-101290000D03*
X117450000Y-91550000D03*
%TO.N,/FPGA_P36*%
X100760000Y-103060000D03*
X102030000Y-104540000D03*
%TO.N,/SPI2_CS*%
X130600000Y-70210000D03*
%TO.N,/SPI2_MOSI*%
X129200000Y-70080000D03*
%TO.N,/SPI2_MISO*%
X134190000Y-74460000D03*
X133460000Y-76120000D03*
%TO.N,/SPI2_CLK*%
X131400000Y-73600000D03*
%TO.N,/USB D+*%
X130530000Y-110470000D03*
X130530000Y-115030000D03*
%TO.N,/USB D-*%
X131400000Y-114820000D03*
X132080000Y-109800000D03*
%TO.N,/SCL*%
X121470000Y-85880000D03*
%TO.N,/PIN_P4*%
X99580000Y-89230000D03*
%TO.N,/PIN_P2*%
X98770000Y-92090000D03*
%TO.N,/PIN_P3*%
X99240000Y-90410000D03*
%TO.N,/PIN_P20*%
X160530000Y-120470000D03*
X112990000Y-99560000D03*
%TO.N,/PIN_P19*%
X114490000Y-99350000D03*
X162820000Y-118660000D03*
%TO.N,/PIN_P18*%
X112510000Y-88020000D03*
X161265000Y-119145000D03*
X112150000Y-86160000D03*
X112915000Y-98155000D03*
%TO.N,/PIN_P46*%
X92130000Y-102830000D03*
%TO.N,/PIN_P44*%
X95790000Y-99500000D03*
X94410000Y-105250000D03*
X88250000Y-112970000D03*
%TO.N,/PIN_P10*%
X114780000Y-69300000D03*
%TO.N,/PIN_P21*%
X108850000Y-93890000D03*
X111350000Y-89420000D03*
X105600000Y-108320000D03*
%TO.N,/PIN_P6*%
X103300000Y-89280000D03*
%TO.N,/PIN_P9*%
X119080000Y-72670000D03*
%TO.N,/PIN_P47*%
X89090000Y-107070000D03*
X94910000Y-97630000D03*
X89380000Y-109290000D03*
%TO.N,/PIN_P13*%
X112890000Y-96960000D03*
%TO.N,Net-(U3-PWRGD)*%
X154770000Y-115510000D03*
X124890000Y-112000000D03*
X149190000Y-105540000D03*
X143680000Y-102370000D03*
%TD*%
D73*
%TO.N,Net-(BT2-Pin_1)*%
X124950000Y-62800000D02*
X124950000Y-64500000D01*
X124950000Y-61100000D02*
X124950000Y-62800000D01*
%TO.N,GND*%
X137340000Y-69540000D02*
X137120000Y-69760000D01*
X137340000Y-68795000D02*
X137340000Y-69540000D01*
D74*
X136230000Y-61820000D02*
X135800000Y-62250000D01*
X137127500Y-61820000D02*
X136230000Y-61820000D01*
X137480000Y-63350000D02*
X138240000Y-62590000D01*
X137415000Y-63350000D02*
X137480000Y-63350000D01*
D73*
X135240000Y-65380000D02*
X134980000Y-65120000D01*
X135240000Y-65910000D02*
X135240000Y-65380000D01*
X120110000Y-61040000D02*
X121490000Y-59660000D01*
X120110000Y-61170000D02*
X120110000Y-61040000D01*
X119960000Y-61170000D02*
X119390000Y-60600000D01*
X120110000Y-61170000D02*
X119960000Y-61170000D01*
X121490000Y-59010000D02*
X121310000Y-58830000D01*
X121490000Y-59660000D02*
X121490000Y-59010000D01*
X132705000Y-52015000D02*
X131810000Y-51120000D01*
X132705000Y-52710000D02*
X132705000Y-52015000D01*
X132080000Y-58240000D02*
X132790000Y-58950000D01*
X131610000Y-58240000D02*
X132080000Y-58240000D01*
%TO.N,Net-(BT2-Pin_1)*%
X124990000Y-61060000D02*
X124950000Y-61100000D01*
X124990000Y-59770000D02*
X124990000Y-61060000D01*
X122450000Y-59660000D02*
X122850000Y-59660000D01*
X122850000Y-59660000D02*
X123380000Y-59130000D01*
X121070000Y-61040000D02*
X122450000Y-59660000D01*
X121070000Y-61170000D02*
X121070000Y-61040000D01*
X118700000Y-63540000D02*
X121070000Y-61170000D01*
X115740000Y-63540000D02*
X118700000Y-63540000D01*
%TO.N,Net-(D8-RK)*%
X128940000Y-59430000D02*
X129750000Y-60240000D01*
X129750000Y-60240000D02*
X129750000Y-61100000D01*
X123215000Y-56955000D02*
X124420000Y-58160000D01*
X123215000Y-55850000D02*
X123215000Y-56955000D01*
%TO.N,Net-(Q2-D)*%
X125430000Y-56415000D02*
X124865000Y-55850000D01*
X125430000Y-57010000D02*
X125430000Y-56415000D01*
X129735000Y-57055000D02*
X129100000Y-56420000D01*
X129735000Y-57290000D02*
X129735000Y-57055000D01*
%TO.N,/GPIO40*%
X131610000Y-56340000D02*
X131610000Y-56280000D01*
X131610000Y-56280000D02*
X131055000Y-55725000D01*
X131055000Y-55725000D02*
X131055000Y-52710000D01*
D74*
%TO.N,GND*%
X137415000Y-62107500D02*
X137127500Y-61820000D01*
X137415000Y-63350000D02*
X137415000Y-62107500D01*
D73*
%TO.N,/GPIO41*%
X137127500Y-60440532D02*
X137127500Y-59920000D01*
X139065000Y-62378032D02*
X137127500Y-60440532D01*
X139065000Y-63350000D02*
X139065000Y-62378032D01*
D74*
%TO.N,Net-(Q3-D)*%
X133565000Y-60870000D02*
X132590000Y-61845000D01*
X135252500Y-60870000D02*
X133565000Y-60870000D01*
%TO.N,Net-(D8-GK)*%
X130385000Y-62800000D02*
X129750000Y-62800000D01*
X132590000Y-60595000D02*
X130385000Y-62800000D01*
X132590000Y-60195000D02*
X132590000Y-60595000D01*
%TO.N,Net-(D8-BK)*%
X131565000Y-66315000D02*
X129750000Y-64500000D01*
X131590000Y-66315000D02*
X131565000Y-66315000D01*
%TO.N,Net-(Q4-D)*%
X133365000Y-66190000D02*
X131590000Y-67965000D01*
X133365000Y-64960000D02*
X133365000Y-66190000D01*
D73*
%TO.N,/GPIO42*%
X137340000Y-67145000D02*
X137340000Y-66110000D01*
X137340000Y-66110000D02*
X135240000Y-64010000D01*
X138116000Y-67921000D02*
X137340000Y-67145000D01*
X138116000Y-69208064D02*
X138116000Y-67921000D01*
X137883580Y-69440484D02*
X138116000Y-69208064D01*
X137883580Y-75334228D02*
X137883580Y-69440484D01*
%TO.N,/GPIO41*%
X140990000Y-69850000D02*
X140990000Y-65516462D01*
X140711737Y-64996737D02*
X139065000Y-63350000D01*
X140990000Y-65516462D02*
X140711737Y-64996737D01*
%TO.N,/GPIO40*%
X135110000Y-56340000D02*
X131610000Y-56340000D01*
X135510000Y-55940000D02*
X135110000Y-56340000D01*
%TO.N,/PIN_P10*%
X114780000Y-68870000D02*
X114780000Y-69300000D01*
X126010000Y-57640000D02*
X114780000Y-68870000D01*
X126010000Y-53350000D02*
X126010000Y-57640000D01*
%TO.N,GND*%
X109837500Y-107702500D02*
X110570000Y-106970000D01*
X110543524Y-102132500D02*
X111007500Y-102132500D01*
X97000000Y-118510000D02*
X97000000Y-117660000D01*
D74*
X141991024Y-105472500D02*
X141062500Y-105472500D01*
D73*
X155290000Y-96020000D02*
X154760000Y-96550000D01*
D74*
X158730000Y-113350000D02*
X159390000Y-114010000D01*
D73*
X164675000Y-123525000D02*
X164758524Y-123441476D01*
D74*
X119440000Y-79860000D02*
X119440000Y-77860000D01*
D73*
X113900000Y-101130000D02*
X113610000Y-100840000D01*
D75*
X145835448Y-83457779D02*
X145835448Y-75211162D01*
D73*
X124010000Y-75730000D02*
X123990000Y-75750000D01*
X109518524Y-107702500D02*
X109837500Y-107702500D01*
X103818524Y-106168524D02*
X104110000Y-106460000D01*
X146036024Y-109827500D02*
X147212500Y-109827500D01*
X157181476Y-97710000D02*
X157710000Y-97181476D01*
X102180000Y-99250000D02*
X102160000Y-99230000D01*
X169818524Y-121231476D02*
X169818524Y-121830000D01*
X126380000Y-75730000D02*
X124010000Y-75730000D01*
X131918524Y-113085000D02*
X131918524Y-112431476D01*
X167908524Y-122430000D02*
X167908524Y-122328524D01*
X131690000Y-70590000D02*
X132540000Y-69740000D01*
X106468524Y-105792500D02*
X106468524Y-105978524D01*
X95878524Y-118510000D02*
X94628524Y-117260000D01*
D74*
X127383524Y-117080000D02*
X126808524Y-117655000D01*
D73*
X88192500Y-122182500D02*
X88700000Y-122690000D01*
X99373524Y-103893524D02*
X98920000Y-103440000D01*
X102908524Y-86177500D02*
X102908524Y-85131476D01*
D74*
X124195000Y-51455000D02*
X124195000Y-52140000D01*
D73*
X131690000Y-70775000D02*
X131690000Y-70590000D01*
X153143524Y-99760000D02*
X153143524Y-98858524D01*
D74*
X155188524Y-106051476D02*
X155600000Y-105640000D01*
D73*
X157293524Y-99760000D02*
X153143524Y-99760000D01*
X99872500Y-107477500D02*
X99550000Y-107800000D01*
X122297500Y-105622500D02*
X123060000Y-104860000D01*
D74*
X167908524Y-119770000D02*
X167908524Y-118441476D01*
X124960000Y-49440000D02*
X124860000Y-49340000D01*
D73*
X143611156Y-72986870D02*
X142298318Y-72986870D01*
X104098524Y-99250000D02*
X104200000Y-99250000D01*
D74*
X153188524Y-115321476D02*
X152970000Y-115540000D01*
D73*
X112758524Y-74720000D02*
X113058524Y-74420000D01*
D74*
X140350000Y-106940000D02*
X141000000Y-106940000D01*
D73*
X138450000Y-65051762D02*
X138101476Y-64703238D01*
D74*
X123660000Y-121760000D02*
X122770000Y-121760000D01*
D73*
X124860000Y-49340000D02*
X124422890Y-49340000D01*
X105088524Y-105727500D02*
X105088524Y-106338524D01*
X135890000Y-72110000D02*
X135660000Y-72110000D01*
D74*
X122770000Y-121760000D02*
X121870000Y-122660000D01*
X155188524Y-106930000D02*
X155188524Y-106051476D01*
X158826024Y-108840000D02*
X158826024Y-107683976D01*
D76*
X124245000Y-52635000D02*
X124245000Y-52020000D01*
D73*
X97000000Y-117660000D02*
X96950000Y-117610000D01*
X120475000Y-98475000D02*
X120880000Y-98880000D01*
X87800000Y-121222500D02*
X87120000Y-120542500D01*
X135150000Y-71600000D02*
X135150000Y-71320000D01*
X123970000Y-75730000D02*
X123990000Y-75750000D01*
X130078524Y-113085000D02*
X130078524Y-112378524D01*
X105088524Y-106338524D02*
X105330000Y-106580000D01*
X153143524Y-98858524D02*
X152780000Y-98495000D01*
D74*
X124960000Y-50690000D02*
X124195000Y-51455000D01*
X157873524Y-113350000D02*
X158730000Y-113350000D01*
D73*
X113665000Y-117590000D02*
X113665000Y-116955000D01*
X130078524Y-112378524D02*
X129920000Y-112220000D01*
X83970000Y-120542500D02*
X83117500Y-120542500D01*
X145280886Y-73760886D02*
X144630000Y-73110000D01*
X100390000Y-93030000D02*
X100390000Y-93540000D01*
X167908524Y-122430000D02*
X167908524Y-122421476D01*
X97000000Y-118510000D02*
X95878524Y-118510000D01*
X105970000Y-99250000D02*
X106000000Y-99220000D01*
X121768524Y-105622500D02*
X122297500Y-105622500D01*
X131918524Y-112431476D02*
X132120000Y-112230000D01*
X135660000Y-72110000D02*
X135150000Y-71600000D01*
X113665000Y-117590000D02*
X114525000Y-118450000D01*
D74*
X161836024Y-111123976D02*
X162180000Y-110780000D01*
D73*
X167908524Y-123491476D02*
X167908524Y-122430000D01*
D74*
X149001024Y-109197500D02*
X150542500Y-109197500D01*
D73*
X114420000Y-101130000D02*
X113900000Y-101130000D01*
D74*
X161836024Y-112500000D02*
X161836024Y-111123976D01*
D73*
X116630000Y-106210000D02*
X116870000Y-105970000D01*
X104098524Y-99211476D02*
X106070000Y-97240000D01*
X104098524Y-99250000D02*
X105970000Y-99250000D01*
X151763524Y-103260000D02*
X151763524Y-102588524D01*
X168648524Y-121681476D02*
X168648524Y-121100000D01*
X128110000Y-50690000D02*
X128880000Y-50690000D01*
D74*
X134328524Y-117080000D02*
X134873524Y-117080000D01*
D73*
X110538524Y-74720000D02*
X110538524Y-75241476D01*
D75*
X151298455Y-87910000D02*
X153496638Y-90108183D01*
D73*
X103818524Y-105767500D02*
X103818524Y-106168524D01*
X104098524Y-99250000D02*
X104098524Y-99211476D01*
D74*
X158826024Y-107683976D02*
X159020000Y-107490000D01*
D73*
X153496638Y-90416638D02*
X154400000Y-91320000D01*
D76*
X87120000Y-117882500D02*
X87247500Y-117882500D01*
D73*
X103818524Y-105767500D02*
X105048524Y-105767500D01*
X157293524Y-99760000D02*
X158155000Y-99760000D01*
X113610000Y-100840000D02*
X112120000Y-100840000D01*
X169995000Y-121055000D02*
X169818524Y-121231476D01*
X130078524Y-113085000D02*
X131918524Y-113085000D01*
D75*
X145835448Y-75211162D02*
X145280886Y-74656600D01*
D73*
X128880000Y-50690000D02*
X129350000Y-50220000D01*
X102998524Y-92618524D02*
X102810000Y-92430000D01*
X156355000Y-97710000D02*
X157181476Y-97710000D01*
D76*
X124960000Y-53350000D02*
X124245000Y-52635000D01*
D74*
X141217500Y-107157500D02*
X141566024Y-107157500D01*
X127928524Y-117080000D02*
X127383524Y-117080000D01*
X150542500Y-109197500D02*
X150670000Y-109070000D01*
D73*
X122838524Y-109042500D02*
X122838524Y-110021476D01*
X164758524Y-123441476D02*
X164758524Y-122430000D01*
X115803524Y-106210000D02*
X116630000Y-106210000D01*
X83117500Y-120542500D02*
X82570000Y-121090000D01*
X104098524Y-99250000D02*
X103990000Y-99250000D01*
X114525000Y-118450000D02*
X114620000Y-118450000D01*
X124422890Y-49340000D02*
X124210273Y-49552617D01*
X104098524Y-99088524D02*
X102250000Y-97240000D01*
X158155000Y-99760000D02*
X158670000Y-99245000D01*
X104200000Y-99250000D02*
X106100000Y-101150000D01*
D74*
X167908524Y-118441476D02*
X168140000Y-118210000D01*
D73*
X138450000Y-65388238D02*
X138450000Y-65051762D01*
X133735000Y-71320000D02*
X133630000Y-71425000D01*
X102998524Y-93140000D02*
X102998524Y-92618524D01*
D74*
X139892500Y-108957500D02*
X139350000Y-109500000D01*
D73*
X155290000Y-95245000D02*
X155290000Y-96020000D01*
X106468524Y-105978524D02*
X106940000Y-106450000D01*
X87800000Y-122182500D02*
X87800000Y-121222500D01*
X145280886Y-74656600D02*
X145280886Y-73760886D01*
X123307500Y-115287500D02*
X123870000Y-115850000D01*
X104098524Y-99250000D02*
X102180000Y-99250000D01*
X153496638Y-90108183D02*
X153496638Y-90416638D01*
X103990000Y-99250000D02*
X102310000Y-100930000D01*
X147212500Y-109827500D02*
X147450000Y-109590000D01*
D74*
X134873524Y-117080000D02*
X135448524Y-117655000D01*
D73*
X135150000Y-71320000D02*
X133735000Y-71320000D01*
X121988524Y-115287500D02*
X123307500Y-115287500D01*
X151763524Y-102588524D02*
X151590000Y-102415000D01*
D76*
X87247500Y-117882500D02*
X88390000Y-116740000D01*
D73*
X99373524Y-104235000D02*
X99373524Y-103893524D01*
D74*
X141062500Y-105472500D02*
X140760000Y-105170000D01*
D73*
X122838524Y-110021476D02*
X122660000Y-110200000D01*
X110538524Y-74720000D02*
X112758524Y-74720000D01*
D74*
X141000000Y-106940000D02*
X141217500Y-107157500D01*
D73*
X119618524Y-98475000D02*
X120475000Y-98475000D01*
X167908524Y-122421476D02*
X168648524Y-121681476D01*
X104098524Y-99250000D02*
X104098524Y-99088524D01*
X113665000Y-116955000D02*
X111680000Y-114970000D01*
D75*
X143855480Y-85437747D02*
X145835448Y-83457779D01*
D76*
X87120000Y-117882500D02*
X87835000Y-118597500D01*
D73*
X102908524Y-85131476D02*
X103140000Y-84900000D01*
D74*
X153188524Y-114285000D02*
X153188524Y-115321476D01*
D75*
X145170000Y-87910000D02*
X151298455Y-87910000D01*
D73*
X122230000Y-75730000D02*
X123970000Y-75730000D01*
X100378524Y-107477500D02*
X99872500Y-107477500D01*
X87800000Y-122182500D02*
X88192500Y-122182500D01*
X100100000Y-92740000D02*
X100390000Y-93030000D01*
D74*
X124960000Y-50690000D02*
X124960000Y-49440000D01*
D73*
X111007500Y-102132500D02*
X111180000Y-101960000D01*
X105048524Y-105767500D02*
X105088524Y-105727500D01*
X145280886Y-74656600D02*
X143611156Y-72986870D01*
D76*
X87835000Y-118597500D02*
X87835000Y-119212500D01*
D74*
X141001024Y-108957500D02*
X139892500Y-108957500D01*
D73*
X110538524Y-75241476D02*
X110070000Y-75710000D01*
D74*
X119440000Y-77860000D02*
X119810000Y-77490000D01*
D73*
%TO.N,/ADC*%
X149726024Y-111097500D02*
X151301000Y-109522524D01*
X145660000Y-113930000D02*
X146601024Y-113930000D01*
X155160000Y-118300000D02*
X154527500Y-117667500D01*
X146601024Y-113930000D02*
X145380000Y-113930000D01*
X155160000Y-121630000D02*
X155160000Y-118300000D01*
X150132607Y-94583721D02*
X149821157Y-94895171D01*
X146036024Y-110777500D02*
X148681024Y-110777500D01*
X154527500Y-117667500D02*
X146388524Y-117667500D01*
X151301000Y-109522524D02*
X151301000Y-103735026D01*
X149821157Y-94895171D02*
X149821157Y-95508415D01*
X146036024Y-110777500D02*
X146036024Y-111753976D01*
X148681024Y-110777500D02*
X149001024Y-111097500D01*
X146601024Y-117455000D02*
X146388524Y-117667500D01*
X146036024Y-111753976D02*
X145980000Y-111810000D01*
X149001024Y-111097500D02*
X149726024Y-111097500D01*
X150132607Y-91896869D02*
X150132607Y-94583721D01*
X149821157Y-102255183D02*
X149821157Y-95508415D01*
X151301000Y-103735026D02*
X149821157Y-102255183D01*
X145380000Y-113930000D02*
X145020000Y-114290000D01*
X145020000Y-113290000D02*
X145660000Y-113930000D01*
D74*
%TO.N,+4V*%
X142320000Y-113771476D02*
X142708524Y-114160000D01*
D73*
X149846024Y-113510000D02*
X156101025Y-113510000D01*
X121888524Y-107292500D02*
X121768524Y-107172500D01*
D74*
X123788524Y-109042500D02*
X125982524Y-111236500D01*
D73*
X149860000Y-112260000D02*
X149860000Y-113496024D01*
X157211025Y-112400000D02*
X157873524Y-112400000D01*
X143428524Y-114880000D02*
X148476024Y-114880000D01*
X123788524Y-108380001D02*
X123788524Y-109042500D01*
X147520000Y-102260000D02*
X147520000Y-102920000D01*
X149860000Y-113496024D02*
X149619524Y-113736500D01*
D74*
X159936024Y-112500000D02*
X157973524Y-112500000D01*
X125982524Y-111236500D02*
X137946500Y-111236500D01*
D73*
X149619524Y-113736500D02*
X149846024Y-113510000D01*
X142708524Y-114160000D02*
X143428524Y-114880000D01*
X122497556Y-108079000D02*
X123487523Y-108079000D01*
D74*
X142320000Y-112560000D02*
X142320000Y-113771476D01*
D73*
X148476024Y-114880000D02*
X149619524Y-113736500D01*
D74*
X137946500Y-111236500D02*
X139150000Y-112440000D01*
D73*
X121888524Y-109042500D02*
X121888524Y-108688032D01*
X123487523Y-108079000D02*
X123788524Y-108380001D01*
D74*
X157973524Y-112500000D02*
X157873524Y-112400000D01*
D73*
X121888524Y-109042500D02*
X121888524Y-107292500D01*
X147520000Y-102920000D02*
X148100000Y-103500000D01*
X121888524Y-108688032D02*
X122497556Y-108079000D01*
X156101025Y-113510000D02*
X157211025Y-112400000D01*
%TO.N,/NRST*%
X153143524Y-101910000D02*
X153143524Y-102840000D01*
X153143524Y-102840000D02*
X152723524Y-103260000D01*
X150704105Y-99470581D02*
X150704105Y-95038943D01*
X157293524Y-101910000D02*
X156238524Y-101910000D01*
X151253951Y-91300641D02*
X151253951Y-93875854D01*
X153918524Y-103260000D02*
X154403524Y-103745000D01*
X150704105Y-94425700D02*
X150704105Y-95038943D01*
X151253951Y-93875854D02*
X150704105Y-94425700D01*
X156238524Y-101910000D02*
X154403524Y-103745000D01*
X153143524Y-101910000D02*
X150704105Y-99470581D01*
X152723524Y-103260000D02*
X153918524Y-103260000D01*
%TO.N,+3.3V*%
X169818524Y-123518524D02*
X169818524Y-122790000D01*
X135150000Y-70360000D02*
X134045000Y-70360000D01*
X111346500Y-102743500D02*
X110194524Y-102743500D01*
X86630000Y-122392500D02*
X86840000Y-122182500D01*
X106818524Y-86050000D02*
X106818524Y-85421476D01*
X111770000Y-101450000D02*
X113220000Y-101450000D01*
X107548524Y-101000000D02*
X109598588Y-101000000D01*
X118423524Y-107473524D02*
X119050000Y-108100000D01*
D74*
X154883524Y-110720000D02*
X154883524Y-109135000D01*
X156080000Y-112400000D02*
X155598524Y-112400000D01*
D73*
X166858524Y-123351476D02*
X166858524Y-122430000D01*
X86840000Y-122182500D02*
X86840000Y-123000000D01*
X133630000Y-72075000D02*
X134475000Y-72075000D01*
D74*
X101870000Y-123720000D02*
X101860000Y-123730000D01*
D73*
X110538524Y-72841476D02*
X110750000Y-72630000D01*
X139170000Y-69538238D02*
X139170000Y-70641762D01*
D74*
X157251024Y-108840000D02*
X157251024Y-107591024D01*
D73*
X110538524Y-73760000D02*
X111178524Y-73760000D01*
X115430000Y-117590000D02*
X115670000Y-117350000D01*
D74*
X157390000Y-111090000D02*
X156080000Y-112400000D01*
X154883524Y-111685000D02*
X155598524Y-112400000D01*
D73*
X139170000Y-70641762D02*
X139461476Y-70933238D01*
X110070000Y-100528588D02*
X110070000Y-99980000D01*
X97000000Y-120370000D02*
X96940000Y-120430000D01*
X104638524Y-85191476D02*
X104780000Y-85050000D01*
X114960000Y-96585000D02*
X114815000Y-96440000D01*
X86840000Y-121312500D02*
X86070000Y-120542500D01*
D74*
X154883524Y-110720000D02*
X154883524Y-111685000D01*
D73*
X107681024Y-102132500D02*
X107548524Y-102000000D01*
X114960000Y-97730000D02*
X114960000Y-96585000D01*
D74*
X155198524Y-108840000D02*
X155188524Y-108830000D01*
D73*
X101348524Y-95358524D02*
X100490000Y-94500000D01*
X162350000Y-122640000D02*
X161930000Y-123060000D01*
D74*
X157251024Y-108840000D02*
X155198524Y-108840000D01*
D73*
X126440000Y-49340000D02*
X126470000Y-49310000D01*
X109598588Y-101000000D02*
X110070000Y-100528588D01*
X100490000Y-94500000D02*
X100390000Y-94500000D01*
X156053524Y-103745000D02*
X157080000Y-103745000D01*
D74*
X102970000Y-122310000D02*
X101870000Y-122310000D01*
X101870000Y-122310000D02*
X101870000Y-123720000D01*
X104170000Y-122310000D02*
X104810000Y-122950000D01*
X156150000Y-110720000D02*
X156380000Y-110490000D01*
D73*
X99780000Y-94500000D02*
X99620000Y-94660000D01*
D74*
X100770000Y-122310000D02*
X101870000Y-122310000D01*
D73*
X101338524Y-108081476D02*
X101180000Y-108240000D01*
X163178524Y-122640000D02*
X162350000Y-122640000D01*
X102848524Y-103352000D02*
X102490524Y-103710000D01*
X99373524Y-106406476D02*
X98630000Y-107150000D01*
X115808524Y-105245000D02*
X115803524Y-105250000D01*
X109583524Y-102132500D02*
X107681024Y-102132500D01*
X135150000Y-69800000D02*
X135480000Y-69470000D01*
D74*
X100770000Y-122310000D02*
X99830000Y-122310000D01*
D73*
X157080000Y-103745000D02*
X157300000Y-103965000D01*
X155290000Y-93695000D02*
X155290000Y-92950000D01*
X101348524Y-95800000D02*
X101348524Y-95358524D01*
X126130000Y-47250000D02*
X126650000Y-46730000D01*
D74*
X154883524Y-109135000D02*
X155188524Y-108830000D01*
D73*
X134045000Y-70360000D02*
X133630000Y-70775000D01*
D74*
X153860000Y-108830000D02*
X153360000Y-108330000D01*
X120960000Y-80880000D02*
X120960000Y-82030000D01*
X158080000Y-111090000D02*
X157390000Y-111090000D01*
D73*
X111160000Y-100840000D02*
X111770000Y-101450000D01*
X125820000Y-49340000D02*
X126440000Y-49340000D01*
X99373524Y-106085000D02*
X99373524Y-106406476D01*
X101338524Y-107477500D02*
X101338524Y-108081476D01*
X152375294Y-90704412D02*
X152375294Y-91545294D01*
X125820000Y-49340000D02*
X125820000Y-48290000D01*
X103818524Y-104270000D02*
X103818524Y-104807500D01*
X126130000Y-47980000D02*
X126130000Y-47250000D01*
X110194524Y-102743500D02*
X109583524Y-102132500D01*
X110538524Y-73760000D02*
X110538524Y-72841476D01*
X115150000Y-105250000D02*
X114890000Y-104990000D01*
X151587053Y-94569472D02*
X151587053Y-95767053D01*
X106818524Y-85421476D02*
X107200000Y-85040000D01*
X126010000Y-49530000D02*
X125820000Y-49340000D01*
D74*
X154883524Y-110720000D02*
X156150000Y-110720000D01*
D73*
X134475000Y-72075000D02*
X134640000Y-72240000D01*
X166720000Y-123490000D02*
X166858524Y-123351476D01*
X86840000Y-123000000D02*
X86620000Y-123220000D01*
X118423524Y-107145000D02*
X118423524Y-107473524D01*
X85485000Y-122392500D02*
X86630000Y-122392500D01*
X102848524Y-102700000D02*
X102848524Y-103352000D01*
X113220000Y-101450000D02*
X113240000Y-101430000D01*
X86840000Y-122182500D02*
X86840000Y-121312500D01*
X151587053Y-95767053D02*
X152110000Y-96290000D01*
X126010000Y-50690000D02*
X126010000Y-49530000D01*
X135150000Y-70360000D02*
X135150000Y-69800000D01*
X85485000Y-122392500D02*
X85485000Y-123355000D01*
D74*
X121980000Y-79860000D02*
X120960000Y-80880000D01*
D73*
X85485000Y-123355000D02*
X85320000Y-123520000D01*
X115345000Y-103425000D02*
X114870000Y-103900000D01*
D74*
X157251024Y-107591024D02*
X157080000Y-107420000D01*
D73*
X100823524Y-106085000D02*
X99373524Y-106085000D01*
X97000000Y-119470000D02*
X97000000Y-120370000D01*
X111690000Y-102400000D02*
X111346500Y-102743500D01*
X115808524Y-103425000D02*
X115808524Y-105245000D01*
X104638524Y-86090000D02*
X104638524Y-85191476D01*
X100390000Y-94500000D02*
X99780000Y-94500000D01*
D74*
X102970000Y-122310000D02*
X104170000Y-122310000D01*
D73*
X114625000Y-115375000D02*
X114220000Y-114970000D01*
X115808524Y-103425000D02*
X115345000Y-103425000D01*
X97000000Y-119470000D02*
X94958524Y-119470000D01*
X152375294Y-91545294D02*
X152940000Y-92110000D01*
X111178524Y-73760000D02*
X113058524Y-71880000D01*
X112400000Y-102400000D02*
X111690000Y-102400000D01*
X112410000Y-102410000D02*
X112400000Y-102400000D01*
X102490524Y-103710000D02*
X102270000Y-103710000D01*
D74*
X155188524Y-108830000D02*
X153860000Y-108830000D01*
D73*
X154805000Y-97710000D02*
X153881476Y-97710000D01*
X155290000Y-92950000D02*
X154940000Y-92600000D01*
X94958524Y-119470000D02*
X94628525Y-119799999D01*
X153881476Y-97710000D02*
X153530000Y-98061476D01*
X114625000Y-117590000D02*
X114625000Y-115375000D01*
X125820000Y-48290000D02*
X126130000Y-47980000D01*
X114625000Y-117590000D02*
X115430000Y-117590000D01*
D74*
X99830000Y-122310000D02*
X99230000Y-122910000D01*
D73*
X115803524Y-105250000D02*
X115150000Y-105250000D01*
%TO.N,+1V2*%
X109436024Y-109180000D02*
X119751024Y-109180000D01*
X105699524Y-105378500D02*
X105088524Y-104767500D01*
X103348524Y-94797500D02*
X102998524Y-94447500D01*
X104680512Y-104359488D02*
X105088524Y-104767500D01*
X107748524Y-107492500D02*
X109436024Y-109180000D01*
X107152500Y-107492500D02*
X105699524Y-106039524D01*
X104680512Y-104359488D02*
X104348524Y-104027500D01*
X107748524Y-107492500D02*
X107152500Y-107492500D01*
X105699524Y-106039524D02*
X105699524Y-105378500D01*
X104348524Y-104027500D02*
X104348524Y-102700000D01*
X121988524Y-113387500D02*
X121988524Y-111417500D01*
X103348524Y-94940000D02*
X103348524Y-94797500D01*
X103348524Y-95800000D02*
X103348524Y-94940000D01*
X121988524Y-111417500D02*
X121888524Y-111317500D01*
X119751024Y-109180000D02*
X121888524Y-111317500D01*
%TO.N,/VCC_PLL*%
X109478524Y-105842500D02*
X109518524Y-105802500D01*
X107748524Y-105842500D02*
X109478524Y-105842500D01*
X106158525Y-104832500D02*
X104848524Y-103522499D01*
X104848524Y-103522499D02*
X104848524Y-102700000D01*
X106738524Y-104832500D02*
X107748524Y-105842500D01*
X106468524Y-104832500D02*
X106158525Y-104832500D01*
X106468524Y-104832500D02*
X106738524Y-104832500D01*
D74*
%TO.N,/VBUS*%
X143761024Y-110777500D02*
X144780000Y-109758524D01*
X141001024Y-110857500D02*
X141001024Y-113667500D01*
X132672702Y-118430000D02*
X129584346Y-118430000D01*
X143761024Y-110777500D02*
X141081024Y-110777500D01*
X145963524Y-112980000D02*
X143761024Y-110777500D01*
X148476024Y-112980000D02*
X145963524Y-112980000D01*
X135873525Y-114160000D02*
X140508524Y-114160000D01*
X133528524Y-117080000D02*
X133528524Y-116505001D01*
X143601024Y-105270000D02*
X143438524Y-105270000D01*
X141081024Y-110777500D02*
X141001024Y-110857500D01*
X133528524Y-116505001D02*
X135873525Y-114160000D01*
X143438524Y-105270000D02*
X141991024Y-103822500D01*
X128728524Y-117574178D02*
X128728524Y-117080000D01*
X129584346Y-118430000D02*
X128728524Y-117574178D01*
X144780000Y-106448976D02*
X143601024Y-105270000D01*
X133528524Y-117080000D02*
X133528524Y-117574178D01*
X141001024Y-113667500D02*
X140508524Y-114160000D01*
X133528524Y-117574178D02*
X132672702Y-118430000D01*
X144780000Y-109758524D02*
X144780000Y-106448976D01*
D73*
%TO.N,Net-(D1-RK)*%
X100648524Y-100000000D02*
X99730000Y-100000000D01*
X100080000Y-118520000D02*
X100770000Y-119210000D01*
X100080000Y-117590000D02*
X100080000Y-118520000D01*
X99730000Y-100000000D02*
X99650000Y-100080000D01*
%TO.N,Net-(D1-GK)*%
X101730000Y-117640000D02*
X101730000Y-119070000D01*
X100648524Y-100500000D02*
X100997524Y-100500000D01*
X100997524Y-100500000D02*
X101047524Y-100550000D01*
X101730000Y-119070000D02*
X101870000Y-119210000D01*
%TO.N,Net-(D1-BK)*%
X102400000Y-120780000D02*
X102970000Y-120210000D01*
X100648524Y-101000000D02*
X98900000Y-101000000D01*
X100960000Y-120780000D02*
X102400000Y-120780000D01*
X102970000Y-120210000D02*
X102970000Y-119210000D01*
X98900000Y-101000000D02*
X98890000Y-100990000D01*
D74*
%TO.N,Net-(D2-A)*%
X153188524Y-110765000D02*
X153233524Y-110720000D01*
X153188524Y-112710000D02*
X153188524Y-110765000D01*
D73*
%TO.N,Net-(D3-A)*%
X139170000Y-66748238D02*
X138450000Y-66028238D01*
X139170000Y-67888238D02*
X139170000Y-66748238D01*
%TO.N,/CDONE*%
X104210000Y-91350000D02*
X104348524Y-91211476D01*
X145647234Y-96744168D02*
X146289367Y-97386301D01*
X134640000Y-98140000D02*
X126970000Y-98140000D01*
X104348524Y-88030000D02*
X104638524Y-87740000D01*
X104348524Y-91211476D02*
X104348524Y-88030000D01*
X102921024Y-87740000D02*
X102908524Y-87752500D01*
X104348524Y-95800000D02*
X104348524Y-91488524D01*
X104638524Y-87740000D02*
X102921024Y-87740000D01*
X136395000Y-99895000D02*
X134640000Y-98140000D01*
X145647234Y-94281785D02*
X145647234Y-96744168D01*
X104348524Y-91488524D02*
X104210000Y-91350000D01*
X126970000Y-98140000D02*
X119700000Y-90870000D01*
D74*
%TO.N,Net-(D5-K)*%
X145681024Y-105775000D02*
X145176024Y-105270000D01*
X146828524Y-105775000D02*
X145681024Y-105775000D01*
D73*
%TO.N,/FPGA_P44*%
X98748524Y-98500000D02*
X97503524Y-99745000D01*
X100648524Y-98500000D02*
X98748524Y-98500000D01*
%TO.N,/MEM_SPI_MOSI-IO0*%
X106422524Y-103426000D02*
X113726694Y-103426000D01*
X106348524Y-102700000D02*
X106348524Y-103352000D01*
X106348524Y-103352000D02*
X106422524Y-103426000D01*
X113726694Y-103426000D02*
X115331694Y-101821000D01*
X119618524Y-103078032D02*
X119618524Y-103425000D01*
X118361492Y-101821000D02*
X119618524Y-103078032D01*
X115331694Y-101821000D02*
X118361492Y-101821000D01*
%TO.N,/FPGA_P43*%
X100648524Y-99000000D02*
X99180000Y-99000000D01*
X97935000Y-100245000D02*
X97503524Y-100245000D01*
X99180000Y-99000000D02*
X97935000Y-100245000D01*
%TO.N,/12MHz*%
X101848524Y-103210000D02*
X101848524Y-102700000D01*
X100823524Y-104235000D02*
X101848524Y-103210000D01*
%TO.N,/FPGA_P20*%
X108173524Y-100000000D02*
X108269000Y-99904524D01*
X110931000Y-99379000D02*
X110960000Y-99350000D01*
X107548524Y-100000000D02*
X108173524Y-100000000D01*
X108269000Y-99719341D02*
X108609341Y-99379000D01*
X108609341Y-99379000D02*
X110931000Y-99379000D01*
X108269000Y-99904524D02*
X108269000Y-99719341D01*
%TO.N,/FPGA_P12*%
X106848524Y-93819817D02*
X109520000Y-91148341D01*
X106848524Y-95800000D02*
X106848524Y-93819817D01*
X109520000Y-91148341D02*
X109520000Y-89880000D01*
%TO.N,/FPGA_P13*%
X111010000Y-97850000D02*
X110960000Y-97850000D01*
X111940000Y-96920000D02*
X111010000Y-97850000D01*
X107548524Y-96091476D02*
X108000000Y-95640000D01*
X107548524Y-96500000D02*
X107548524Y-96091476D01*
%TO.N,/FPGA_P11*%
X109020000Y-90990000D02*
X109020000Y-89880000D01*
X106348524Y-95800000D02*
X106348524Y-93661476D01*
X106348524Y-93661476D02*
X109020000Y-90990000D01*
%TO.N,/MEM_SPI_~{WP}-IO2*%
X107238524Y-103090000D02*
X113598832Y-103090000D01*
X116937832Y-99751000D02*
X118047523Y-99751000D01*
X113598832Y-103090000D02*
X116937832Y-99751000D01*
X106848524Y-102700000D02*
X107238524Y-103090000D01*
X118047523Y-99751000D02*
X118348524Y-99449999D01*
X118348524Y-99449999D02*
X118348524Y-98475000D01*
%TO.N,/FPGA_P18*%
X110409000Y-98389000D02*
X110921000Y-98389000D01*
X108060617Y-99000000D02*
X108390617Y-98670000D01*
X110273138Y-98561000D02*
X110409000Y-98561000D01*
X110409000Y-98561000D02*
X110409000Y-98389000D01*
X108390617Y-98670000D02*
X110164138Y-98670000D01*
X107548524Y-99000000D02*
X108060617Y-99000000D01*
X110921000Y-98389000D02*
X110960000Y-98350000D01*
X110164138Y-98670000D02*
X110273138Y-98561000D01*
%TO.N,/FPGA_P31*%
X103480000Y-107290000D02*
X103480000Y-106366526D01*
X103848524Y-103352000D02*
X103848524Y-102700000D01*
X103480000Y-106366526D02*
X103207524Y-106094050D01*
X103207524Y-103993000D02*
X103848524Y-103352000D01*
X103207524Y-106094050D02*
X103207524Y-103993000D01*
%TO.N,/FPGA_P21*%
X104690000Y-107290000D02*
X104790000Y-107390000D01*
X108850000Y-99960000D02*
X108850000Y-100270000D01*
X108620000Y-100500000D02*
X107548524Y-100500000D01*
X108850000Y-100270000D02*
X108620000Y-100500000D01*
X103980000Y-107290000D02*
X104690000Y-107290000D01*
%TO.N,/MEM_SPI_SCLK*%
X118423524Y-105495000D02*
X118423524Y-103500000D01*
X106248024Y-104251500D02*
X112781500Y-104251500D01*
X105348524Y-103352000D02*
X106248024Y-104251500D01*
X112781500Y-104251500D02*
X115321000Y-106791000D01*
X117127524Y-106791000D02*
X118423524Y-105495000D01*
X118423524Y-103500000D02*
X118348524Y-103425000D01*
X115321000Y-106791000D02*
X117127524Y-106791000D01*
X105348524Y-102700000D02*
X105348524Y-103352000D01*
%TO.N,/MEM_SPI_MISO-IO1*%
X115670492Y-100230000D02*
X117078524Y-98821968D01*
X107548524Y-101500000D02*
X109562450Y-101500000D01*
X109562450Y-101500000D02*
X110832450Y-100230000D01*
X117078524Y-98821968D02*
X117078524Y-98475000D01*
X110832450Y-100230000D02*
X115670492Y-100230000D01*
%TO.N,/FPGA_P42*%
X100648524Y-99500000D02*
X99320000Y-99500000D01*
X99320000Y-99500000D02*
X98075000Y-100745000D01*
X98075000Y-100745000D02*
X97503524Y-100745000D01*
%TO.N,/~{PSRAM_CS}*%
X115575000Y-98241476D02*
X115808524Y-98475000D01*
X116465000Y-92515000D02*
X116465000Y-96440000D01*
X100070000Y-102000000D02*
X100648524Y-102000000D01*
X99590000Y-102300000D02*
X99770000Y-102300000D01*
X99770000Y-102300000D02*
X100070000Y-102000000D01*
X115380000Y-91430000D02*
X116465000Y-92515000D01*
X116465000Y-96440000D02*
X115575000Y-97330000D01*
X115575000Y-97330000D02*
X115575000Y-98241476D01*
%TO.N,/FPGA_P38*%
X100648524Y-101500000D02*
X100578524Y-101570000D01*
X97828524Y-101570000D02*
X97503524Y-101245000D01*
X100578524Y-101570000D02*
X97828524Y-101570000D01*
%TO.N,/FPGA_P45*%
X100648524Y-98000000D02*
X97558524Y-98000000D01*
X97558524Y-98000000D02*
X97533524Y-98025000D01*
%TO.N,/SPI_CS*%
X131981585Y-93911157D02*
X134810592Y-93911157D01*
X126520000Y-93130000D02*
X127340000Y-93950000D01*
X107548524Y-98000000D02*
X109030000Y-98000000D01*
X134810592Y-93911157D02*
X135198184Y-93523565D01*
X127340000Y-93950000D02*
X131942742Y-93950000D01*
X109030000Y-98000000D02*
X112880000Y-94150000D01*
X131942742Y-93950000D02*
X131981585Y-93911157D01*
%TO.N,/FPGA_P9*%
X105422524Y-95074000D02*
X105520524Y-95074000D01*
X105520524Y-93379476D02*
X108020000Y-90880000D01*
X105422524Y-95726000D02*
X105422524Y-95074000D01*
X108020000Y-90880000D02*
X108020000Y-89880000D01*
X105348524Y-95800000D02*
X105422524Y-95726000D01*
X105520524Y-95074000D02*
X105520524Y-93379476D01*
%TO.N,/FPGA_P6*%
X103848524Y-95800000D02*
X103848524Y-95261659D01*
X103929524Y-95180659D02*
X103929524Y-92401000D01*
X103929524Y-92401000D02*
X102768524Y-91240000D01*
X103848524Y-95261659D02*
X103929524Y-95180659D01*
%TO.N,/FPGA_P3*%
X102348524Y-95800000D02*
X102348524Y-95225521D01*
X101768524Y-94645521D02*
X101768524Y-91240000D01*
X102348524Y-95225521D02*
X101768524Y-94645521D01*
%TO.N,/FPGA_P10*%
X105848524Y-95800000D02*
X105848524Y-93641476D01*
X105848524Y-93641476D02*
X108520000Y-90970000D01*
X108520000Y-90970000D02*
X108520000Y-89880000D01*
%TO.N,/FPGA_P4*%
X102229000Y-94642135D02*
X102229000Y-91279524D01*
X102848524Y-95261659D02*
X102229000Y-94642135D01*
X102229000Y-91279524D02*
X102268524Y-91240000D01*
X102848524Y-95800000D02*
X102848524Y-95261659D01*
%TO.N,/MEM_SPI_~{HLD}-IO3*%
X106356524Y-103860000D02*
X113756556Y-103860000D01*
X117078524Y-102450001D02*
X117078524Y-103425000D01*
X105848524Y-103352000D02*
X106356524Y-103860000D01*
X116777523Y-102149000D02*
X117078524Y-102450001D01*
X105848524Y-102700000D02*
X105848524Y-103352000D01*
X113756556Y-103860000D02*
X115467556Y-102149000D01*
X115467556Y-102149000D02*
X116777523Y-102149000D01*
%TO.N,/FPGA_P47*%
X100648524Y-97000000D02*
X97558524Y-97000000D01*
X97558524Y-97000000D02*
X97533524Y-97025000D01*
%TO.N,/FPGA_P48*%
X97558524Y-96500000D02*
X97533524Y-96525000D01*
X100648524Y-96500000D02*
X97558524Y-96500000D01*
%TO.N,/SPI_CLK*%
X107548524Y-97500000D02*
X108620000Y-97500000D01*
X108620000Y-97500000D02*
X112900000Y-93220000D01*
X125980000Y-92300000D02*
X126134738Y-92145262D01*
X131042642Y-92145262D02*
X133141342Y-92145262D01*
X133141342Y-92145262D02*
X134005726Y-91280878D01*
X126134738Y-92145262D02*
X131042642Y-92145262D01*
%TO.N,/SPI_MISO*%
X107548524Y-97000000D02*
X108210000Y-97000000D01*
X108210000Y-97000000D02*
X112950000Y-92260000D01*
X132306717Y-91262315D02*
X133409497Y-90159535D01*
X130573171Y-91262315D02*
X132306717Y-91262315D01*
X125540000Y-91420000D02*
X125697685Y-91262315D01*
X125697685Y-91262315D02*
X130573171Y-91262315D01*
%TO.N,/SPI_MOSI*%
X131512114Y-93028209D02*
X133975967Y-93028209D01*
X128471791Y-93028209D02*
X131512114Y-93028209D01*
X133975967Y-93028209D02*
X134601955Y-92402221D01*
X108254755Y-98342000D02*
X109456000Y-98342000D01*
X128130000Y-93370000D02*
X128471791Y-93028209D01*
X107548524Y-98500000D02*
X108096755Y-98500000D01*
X109456000Y-98342000D02*
X112618000Y-95180000D01*
X108096755Y-98500000D02*
X108254755Y-98342000D01*
X112618000Y-95180000D02*
X112920000Y-95180000D01*
%TO.N,/FPGA_P2*%
X101848524Y-95189383D02*
X101268524Y-94609383D01*
X101268524Y-94609383D02*
X101268524Y-91240000D01*
X101848524Y-95800000D02*
X101848524Y-95189383D01*
%TO.N,/FPGA_P19*%
X108504479Y-99020000D02*
X110409000Y-99020000D01*
X110409000Y-99020000D02*
X110409000Y-98889000D01*
X108024479Y-99500000D02*
X108504479Y-99020000D01*
X110921000Y-98889000D02*
X110960000Y-98850000D01*
X107548524Y-99500000D02*
X108024479Y-99500000D01*
X110409000Y-98889000D02*
X110921000Y-98889000D01*
%TO.N,/FPGA_P32*%
X103348524Y-103352000D02*
X103348524Y-102700000D01*
X102879524Y-106639524D02*
X102879524Y-103821000D01*
X102879524Y-103821000D02*
X103348524Y-103352000D01*
X102980000Y-107290000D02*
X102980000Y-106740000D01*
X102980000Y-106740000D02*
X102879524Y-106639524D01*
%TO.N,/FPGA_P46*%
X97558524Y-97500000D02*
X97533524Y-97525000D01*
X100648524Y-97500000D02*
X97558524Y-97500000D01*
%TO.N,/CRESET*%
X105110000Y-92150000D02*
X105110000Y-88870000D01*
X133920000Y-99210000D02*
X125110000Y-99210000D01*
X136970000Y-102260000D02*
X133920000Y-99210000D01*
X104848524Y-92411476D02*
X105110000Y-92150000D01*
X144525890Y-96975244D02*
X145406419Y-97855773D01*
X125110000Y-99210000D02*
X117450000Y-91550000D01*
X104848524Y-95800000D02*
X104848524Y-92411476D01*
X106280000Y-87700000D02*
X106818524Y-87700000D01*
X105110000Y-88870000D02*
X106280000Y-87700000D01*
X144525890Y-94878014D02*
X144525890Y-96975244D01*
X137790000Y-102260000D02*
X136970000Y-102260000D01*
X138760000Y-101290000D02*
X137790000Y-102260000D01*
%TO.N,/FPGA_P36*%
X100988524Y-103060000D02*
X101348524Y-102700000D01*
X102480000Y-107290000D02*
X102480000Y-104990000D01*
X100760000Y-103060000D02*
X100988524Y-103060000D01*
X102480000Y-104990000D02*
X102030000Y-104540000D01*
%TO.N,/SPI2_CS*%
X131690000Y-71425000D02*
X131475712Y-71425000D01*
X136310138Y-79426432D02*
X136310138Y-77818044D01*
X133060000Y-74567906D02*
X133060000Y-72050000D01*
X133060000Y-72050000D02*
X132435000Y-71425000D01*
X136310138Y-77818044D02*
X135234737Y-76742643D01*
X132435000Y-71425000D02*
X131690000Y-71425000D01*
X135234737Y-76742643D02*
X133060000Y-74567906D01*
X131475712Y-71425000D02*
X130600000Y-70549288D01*
X130600000Y-70549288D02*
X130600000Y-70210000D01*
%TO.N,/SPI2_MOSI*%
X131702947Y-78620529D02*
X130650000Y-77567582D01*
X131690000Y-72075000D02*
X131195000Y-72075000D01*
X131195000Y-72075000D02*
X129200000Y-70080000D01*
X130650000Y-72900712D02*
X131475712Y-72075000D01*
X131824763Y-78742345D02*
X131702947Y-78620529D01*
X131824763Y-81811347D02*
X131824763Y-78742345D01*
X131475712Y-72075000D02*
X131690000Y-72075000D01*
X130650000Y-77567582D02*
X130650000Y-72900712D01*
%TO.N,/SPI2_MISO*%
X133468842Y-76128842D02*
X133460000Y-76120000D01*
X134190000Y-73285000D02*
X133630000Y-72725000D01*
X134067451Y-78280195D02*
X133468842Y-77681586D01*
X133468842Y-77681586D02*
X133468842Y-76128842D01*
X134067451Y-80618889D02*
X134067451Y-78280195D01*
X134190000Y-74460000D02*
X134190000Y-73285000D01*
%TO.N,/SPI2_CLK*%
X132946108Y-81215118D02*
X132946108Y-78511270D01*
X132946108Y-78511270D02*
X132585895Y-78151057D01*
X132585895Y-78151057D02*
X132585895Y-73620895D01*
X131690000Y-73310000D02*
X131400000Y-73600000D01*
X131690000Y-72725000D02*
X131690000Y-73310000D01*
X132585895Y-73620895D02*
X131690000Y-72725000D01*
%TO.N,/USB D+*%
X140796870Y-100203130D02*
X140991682Y-100203130D01*
X138919173Y-97859158D02*
X140991682Y-99931667D01*
X131378524Y-115878524D02*
X130530000Y-115030000D01*
X140991682Y-99931667D02*
X140991682Y-100203130D01*
X130530000Y-110470000D02*
X140796870Y-100203130D01*
X130378524Y-115181476D02*
X130530000Y-115030000D01*
X131378524Y-117080000D02*
X131378524Y-115878524D01*
X130378524Y-117080000D02*
X130378524Y-115181476D01*
%TO.N,/USB D-*%
X131611348Y-117956000D02*
X131145700Y-117956000D01*
X141874629Y-99097042D02*
X141874629Y-99733659D01*
X131145700Y-117956000D02*
X130878524Y-117688824D01*
X141874629Y-100346903D02*
X141874629Y-99733659D01*
X131878524Y-115298524D02*
X131400000Y-114820000D01*
X131878524Y-117080000D02*
X131878524Y-117688824D01*
X132080000Y-109800000D02*
X132421532Y-109800000D01*
X132421532Y-109800000D02*
X141874629Y-100346903D01*
X140040516Y-97262929D02*
X141874629Y-99097042D01*
X130878524Y-117688824D02*
X130878524Y-117080000D01*
X131878524Y-117688824D02*
X131611348Y-117956000D01*
X131878524Y-117080000D02*
X131878524Y-115298524D01*
%TO.N,Net-(J3-CC2)*%
X129378524Y-113405000D02*
X129378524Y-117080000D01*
X129058524Y-113085000D02*
X129378524Y-113405000D01*
%TO.N,Net-(J3-CC1)*%
X132938524Y-113085000D02*
X132378524Y-113645000D01*
X132378524Y-113645000D02*
X132378524Y-117080000D01*
%TO.N,/SDA*%
X128225813Y-86847577D02*
X130428353Y-84645037D01*
X130428353Y-84645037D02*
X130428353Y-84552818D01*
X127060000Y-81184465D02*
X127060000Y-79860000D01*
X130428353Y-84552818D02*
X127060000Y-81184465D01*
%TO.N,/SCL*%
X121470000Y-85880000D02*
X121470000Y-82910000D01*
X135200500Y-95677053D02*
X135289699Y-95766252D01*
X132920528Y-95677053D02*
X135200500Y-95677053D01*
X121470000Y-82910000D02*
X124520000Y-79860000D01*
X135289699Y-95766252D02*
X136390642Y-95766252D01*
%TO.N,/GPIO8*%
X141161860Y-96666700D02*
X141161860Y-97668470D01*
X141161860Y-97668470D02*
X142757577Y-99264187D01*
%TO.N,/GPIO3*%
X133717595Y-96887595D02*
X136986871Y-96887595D01*
X133390000Y-96560000D02*
X133717595Y-96887595D01*
%TO.N,/GPIO6*%
X147889920Y-96282016D02*
X148055262Y-96447358D01*
X147889920Y-93089327D02*
X147889920Y-96282016D01*
%TO.N,/GPIO14*%
X131472093Y-90379367D02*
X132813268Y-89038192D01*
X130103699Y-90379367D02*
X131472093Y-90379367D01*
%TO.N,/UART_TX*%
X141916855Y-76445287D02*
X139866853Y-74395285D01*
X139866853Y-74395285D02*
X139649475Y-74395285D01*
%TO.N,/GPIO5*%
X149011264Y-95904831D02*
X148938209Y-95977886D01*
X149011264Y-92493098D02*
X149011264Y-95904831D01*
%TO.N,/GPIO0*%
X126380000Y-74105000D02*
X130820000Y-78545000D01*
X130820000Y-78545000D02*
X130820000Y-79090000D01*
X126380000Y-73580000D02*
X126380000Y-74105000D01*
X130703420Y-79206580D02*
X130820000Y-79090000D01*
X130703420Y-82407576D02*
X130703420Y-79206580D01*
X122230000Y-73580000D02*
X126380000Y-73580000D01*
%TO.N,/GPIO1*%
X144159541Y-75252829D02*
X143035135Y-74128423D01*
X142087452Y-74128423D02*
X141415371Y-73456342D01*
X143035135Y-74128423D02*
X142087452Y-74128423D01*
%TO.N,/GPIO7*%
X146768577Y-96513091D02*
X147172315Y-96916829D01*
X146768577Y-93685556D02*
X146768577Y-96513091D01*
%TO.N,/GPIO9*%
X132451057Y-94794105D02*
X135645217Y-94794105D01*
X135645217Y-94794105D02*
X135794413Y-94644909D01*
%TO.N,/UART_RX*%
X140795512Y-77041516D02*
X138766527Y-75012531D01*
X138766527Y-75012531D02*
X138766527Y-74864756D01*
%TO.N,/GPIO2*%
X142459954Y-75270814D02*
X141877424Y-75270814D01*
X141877424Y-75270814D02*
X140532423Y-73925813D01*
X143038198Y-75849058D02*
X142459954Y-75270814D01*
%TO.N,/GPIO18*%
X142283203Y-97437395D02*
X143640524Y-98794716D01*
X142283203Y-96070472D02*
X142283203Y-97437395D01*
%TO.N,/GPIO40*%
X137431481Y-78830203D02*
X137431481Y-77586967D01*
X137431481Y-77586967D02*
X136117685Y-76273171D01*
%TO.N,/GPIO41*%
X138552824Y-78233974D02*
X138552824Y-77355890D01*
X138552824Y-77355890D02*
X137000633Y-75803699D01*
%TO.N,/GPIO21*%
X130637467Y-89496419D02*
X132217039Y-87916847D01*
X129634227Y-89496419D02*
X130637467Y-89496419D01*
%TO.N,/GPIO38*%
X135188794Y-78049119D02*
X134351789Y-77212114D01*
X135188794Y-80022660D02*
X135188794Y-78049119D01*
%TO.N,/GPIO17*%
X143404546Y-97206319D02*
X144523471Y-98325244D01*
X143404546Y-95474243D02*
X143404546Y-97206319D01*
%TO.N,/GPIO47*%
X129164756Y-88613471D02*
X129802844Y-88613471D01*
X129802844Y-88613471D02*
X131620811Y-86795504D01*
%TO.N,/GPIO48*%
X130751647Y-85674161D02*
X131024582Y-85674161D01*
X128695284Y-87730524D02*
X130751647Y-85674161D01*
%TO.N,/GPIO42*%
X137883580Y-75847157D02*
X137883580Y-75334228D01*
X139674168Y-77637745D02*
X137883580Y-75847157D01*
%TO.N,/PIN_P4*%
X101790000Y-89230000D02*
X102268524Y-89708524D01*
X99580000Y-89230000D02*
X101790000Y-89230000D01*
X102268524Y-89708524D02*
X102268524Y-90240000D01*
%TO.N,/PIN_P2*%
X100620000Y-90240000D02*
X101268524Y-90240000D01*
X98770000Y-92090000D02*
X100620000Y-90240000D01*
%TO.N,/PIN_P3*%
X101729524Y-89689000D02*
X101768524Y-89728000D01*
X101768524Y-89728000D02*
X101768524Y-90240000D01*
X99961000Y-89689000D02*
X101729524Y-89689000D01*
X99240000Y-90410000D02*
X99961000Y-89689000D01*
%TO.N,Net-(MK1-CHIPEN)*%
X127060000Y-50690000D02*
X127060000Y-48700000D01*
X127060000Y-48700000D02*
X127780000Y-47980000D01*
%TO.N,Net-(MK2-CHIPEN)*%
X163178524Y-120990000D02*
X164368524Y-120990000D01*
X164368524Y-120990000D02*
X165808524Y-122430000D01*
%TO.N,/PIN_P20*%
X112170000Y-99560000D02*
X111960000Y-99350000D01*
X161710000Y-120180000D02*
X162120000Y-119770000D01*
X162120000Y-119770000D02*
X164758524Y-119770000D01*
X160820000Y-120180000D02*
X161710000Y-120180000D01*
X160530000Y-120470000D02*
X160820000Y-120180000D01*
X112990000Y-99560000D02*
X112170000Y-99560000D01*
%TO.N,/PIN_P19*%
X164698524Y-118660000D02*
X162820000Y-118660000D01*
X114490000Y-99350000D02*
X113990000Y-98850000D01*
X113250000Y-98850000D02*
X111960000Y-98850000D01*
X165808524Y-119770000D02*
X164698524Y-118660000D01*
X113870000Y-98230000D02*
X113250000Y-98850000D01*
X113990000Y-98850000D02*
X113250000Y-98850000D01*
X115598524Y-84580000D02*
X113870000Y-86308524D01*
X113870000Y-86308524D02*
X113870000Y-98230000D01*
%TO.N,/PIN_P18*%
X112915000Y-98155000D02*
X113542000Y-97528000D01*
X162760000Y-117650000D02*
X164738524Y-117650000D01*
X113058524Y-85251476D02*
X112150000Y-86160000D01*
X113542000Y-97528000D02*
X113542000Y-89052000D01*
X164738524Y-117650000D02*
X166858524Y-119770000D01*
X112915000Y-98155000D02*
X112720000Y-98350000D01*
X161265000Y-119145000D02*
X162760000Y-117650000D01*
X113542000Y-89052000D02*
X112510000Y-88020000D01*
X113058524Y-84580000D02*
X113058524Y-85251476D01*
X112720000Y-98350000D02*
X111960000Y-98350000D01*
%TO.N,/PIN_P46*%
X96021524Y-97525000D02*
X96533524Y-97525000D01*
X92130000Y-102830000D02*
X93149525Y-101810475D01*
X93149525Y-100396999D02*
X96021524Y-97525000D01*
X86070000Y-117882500D02*
X89232501Y-114719999D01*
X89232501Y-114719999D02*
X92088524Y-114719999D01*
X93149525Y-101810475D02*
X93149525Y-100396999D01*
%TO.N,/PIN_P45*%
X94628524Y-109640000D02*
X93477525Y-108489001D01*
X93477524Y-110791000D02*
X94628524Y-109640000D01*
X85020000Y-117382500D02*
X91611500Y-110791000D01*
X96083524Y-98025000D02*
X96533524Y-98025000D01*
X91611500Y-110791000D02*
X93477524Y-110791000D01*
X93477525Y-100630999D02*
X96083524Y-98025000D01*
X85020000Y-117882500D02*
X85020000Y-117382500D01*
X93477525Y-108489001D02*
X93477525Y-100630999D01*
%TO.N,Net-(MK3-CHIPEN)*%
X83835000Y-122392500D02*
X83835000Y-121727500D01*
X83835000Y-121727500D02*
X85020000Y-120542500D01*
%TO.N,/PIN_P44*%
X96258524Y-99500000D02*
X96503524Y-99745000D01*
X95779524Y-111029000D02*
X95779524Y-106619524D01*
X88250000Y-112970000D02*
X88250000Y-112990000D01*
X83970000Y-117270000D02*
X83970000Y-117882500D01*
X95790000Y-99500000D02*
X96258524Y-99500000D01*
X88250000Y-112990000D02*
X83970000Y-117270000D01*
X95779524Y-106619524D02*
X94410000Y-105250000D01*
X94628523Y-112180001D02*
X95779524Y-111029000D01*
%TO.N,/PIN_P10*%
X108520000Y-88880000D02*
X108480000Y-88840000D01*
X108480000Y-88840000D02*
X108480000Y-84078524D01*
X108480000Y-84078524D02*
X113058524Y-79500000D01*
%TO.N,/PIN_P21*%
X103980000Y-108290000D02*
X105570000Y-108290000D01*
X111350000Y-91390000D02*
X111350000Y-89420000D01*
X105570000Y-108290000D02*
X105600000Y-108320000D01*
X108850000Y-93890000D02*
X111350000Y-91390000D01*
%TO.N,/PIN_P6*%
X118377284Y-75809000D02*
X114209524Y-75809000D01*
X102768524Y-90240000D02*
X102768524Y-89811476D01*
X128110000Y-53350000D02*
X128110000Y-66076284D01*
X128110000Y-66076284D02*
X118377284Y-75809000D01*
X102768524Y-89811476D02*
X103300000Y-89280000D01*
X114209524Y-75809000D02*
X113058524Y-76960000D01*
%TO.N,/PIN_P12*%
X109520000Y-88880000D02*
X110640000Y-88880000D01*
X114447524Y-83191000D02*
X115598524Y-82040000D01*
X110640000Y-88880000D02*
X114447524Y-85072476D01*
X114447524Y-85072476D02*
X114447524Y-83191000D01*
%TO.N,/PIN_P9*%
X114447524Y-78111000D02*
X115598524Y-76960000D01*
X127060000Y-53350000D02*
X127060000Y-64761659D01*
X108020000Y-82910764D02*
X112819764Y-78111000D01*
X112819764Y-78111000D02*
X114447524Y-78111000D01*
X108020000Y-88880000D02*
X108020000Y-82910764D01*
X127060000Y-64761659D02*
X119151659Y-72670000D01*
X119151659Y-72670000D02*
X119080000Y-72670000D01*
%TO.N,/PIN_P11*%
X108980000Y-87970000D02*
X108970000Y-87960000D01*
X108980000Y-88840000D02*
X108980000Y-87970000D01*
X112819764Y-80651000D02*
X114447524Y-80651000D01*
X108970000Y-84500764D02*
X112819764Y-80651000D01*
X114447524Y-80651000D02*
X115598524Y-79500000D01*
X109020000Y-88880000D02*
X108980000Y-88840000D01*
X108970000Y-87960000D02*
X108970000Y-84500764D01*
%TO.N,/PIN_P47*%
X89380000Y-109290000D02*
X89380000Y-107360000D01*
X89380000Y-107360000D02*
X89090000Y-107070000D01*
X95515000Y-97025000D02*
X96533524Y-97025000D01*
X94910000Y-97630000D02*
X95515000Y-97025000D01*
%TO.N,/PIN_P48*%
X94536398Y-97110000D02*
X89780000Y-105396959D01*
X95121398Y-96525000D02*
X94536398Y-97110000D01*
X89780000Y-105396959D02*
X89780000Y-107331475D01*
X89780000Y-107331475D02*
X92088525Y-109640000D01*
X96533524Y-96525000D02*
X95121398Y-96525000D01*
%TO.N,/PIN_P38*%
X95305000Y-101245000D02*
X96503524Y-101245000D01*
X97850000Y-112430000D02*
X97350000Y-111930000D01*
X97350000Y-111930000D02*
X97350000Y-105310000D01*
X94990000Y-101560000D02*
X95305000Y-101245000D01*
X101520000Y-112430000D02*
X97850000Y-112430000D01*
X97350000Y-105310000D02*
X94990000Y-102950000D01*
X94990000Y-102950000D02*
X94990000Y-101560000D01*
%TO.N,/PIN_P36*%
X102480000Y-109070000D02*
X103198524Y-109788524D01*
X103198524Y-111568524D02*
X104060000Y-112430000D01*
X103198524Y-109788524D02*
X103198524Y-111568524D01*
X102480000Y-108290000D02*
X102480000Y-109070000D01*
%TO.N,/PIN_P43*%
X93960000Y-103750000D02*
X93960000Y-100930000D01*
X96150000Y-113540000D02*
X96150000Y-105940000D01*
X104060000Y-114970000D02*
X102900000Y-116130000D01*
X102900000Y-116130000D02*
X98740000Y-116130000D01*
X94645000Y-100245000D02*
X96503524Y-100245000D01*
X98740000Y-116130000D02*
X96150000Y-113540000D01*
X93960000Y-100930000D02*
X94645000Y-100245000D01*
X96150000Y-105940000D02*
X93960000Y-103750000D01*
%TO.N,/PIN_P42*%
X101520000Y-114970000D02*
X98820000Y-114970000D01*
X94460000Y-103310000D02*
X94460000Y-101240000D01*
X94955000Y-100745000D02*
X96503524Y-100745000D01*
X96740000Y-105590000D02*
X94460000Y-103310000D01*
X96740000Y-112890000D02*
X96740000Y-105590000D01*
X94460000Y-101240000D02*
X94955000Y-100745000D01*
X98820000Y-114970000D02*
X96740000Y-112890000D01*
%TO.N,/PIN_P32*%
X102980000Y-108290000D02*
X102980000Y-108910000D01*
X103698524Y-110158524D02*
X105211000Y-111671000D01*
X105211000Y-111671000D02*
X105211000Y-113581000D01*
X105211000Y-113581000D02*
X106600000Y-114970000D01*
X103698524Y-109628524D02*
X103698524Y-110158524D01*
X102980000Y-108910000D02*
X103698524Y-109628524D01*
%TO.N,/PIN_P31*%
X103480000Y-108830000D02*
X104198524Y-109548524D01*
X103480000Y-108290000D02*
X103480000Y-108830000D01*
X104198524Y-110028524D02*
X106600000Y-112430000D01*
X104198524Y-109548524D02*
X104198524Y-110028524D01*
%TO.N,/PIN_P13*%
X112850000Y-96960000D02*
X111960000Y-97850000D01*
X112890000Y-96960000D02*
X112850000Y-96960000D01*
%TO.N,Net-(U3-PWRGD)*%
X156153524Y-116020000D02*
X157873524Y-114300000D01*
X147570000Y-104530000D02*
X145870000Y-102830000D01*
X154770000Y-115510000D02*
X155280000Y-116020000D01*
X124207500Y-111317500D02*
X124890000Y-112000000D01*
X143680000Y-102370000D02*
X143790000Y-102260000D01*
X155280000Y-116020000D02*
X156153524Y-116020000D01*
X145870000Y-102830000D02*
X145870000Y-102260000D01*
X143790000Y-102260000D02*
X145870000Y-102260000D01*
X149190000Y-105540000D02*
X149190000Y-105310000D01*
X123788524Y-111317500D02*
X124207500Y-111317500D01*
X149190000Y-105310000D02*
X148410000Y-104530000D01*
X148410000Y-104530000D02*
X147570000Y-104530000D01*
%TO.N,Net-(U7-PROG)*%
X143761024Y-107702500D02*
X143216024Y-107157500D01*
X143761024Y-108877500D02*
X143761024Y-107702500D01*
D74*
%TO.N,Net-(U7-STAT)*%
X146036024Y-108877500D02*
X146036024Y-108217500D01*
X146036024Y-108217500D02*
X146828524Y-107425000D01*
%TD*%
M02*
