%TF.GenerationSoftware,KiCad,Pcbnew,9.0.4*%
%TF.CreationDate,2025-10-26T21:46:10+01:00*%
%TF.ProjectId,esp32_fpga,65737033-325f-4667-9067-612e6b696361,rev?*%
%TF.SameCoordinates,Original*%
%TF.FileFunction,Soldermask,Bot*%
%TF.FilePolarity,Negative*%
%FSLAX46Y46*%
G04 Gerber Fmt 4.6, Leading zero omitted, Abs format (unit mm)*
G04 Created by KiCad (PCBNEW 9.0.4) date 2025-10-26 21:46:10*
%MOMM*%
%LPD*%
G01*
G04 APERTURE LIST*
G04 Aperture macros list*
%AMRoundRect*
0 Rectangle with rounded corners*
0 $1 Rounding radius*
0 $2 $3 $4 $5 $6 $7 $8 $9 X,Y pos of 4 corners*
0 Add a 4 corners polygon primitive as box body*
4,1,4,$2,$3,$4,$5,$6,$7,$8,$9,$2,$3,0*
0 Add four circle primitives for the rounded corners*
1,1,$1+$1,$2,$3*
1,1,$1+$1,$4,$5*
1,1,$1+$1,$6,$7*
1,1,$1+$1,$8,$9*
0 Add four rect primitives between the rounded corners*
20,1,$1+$1,$2,$3,$4,$5,0*
20,1,$1+$1,$4,$5,$6,$7,0*
20,1,$1+$1,$6,$7,$8,$9,0*
20,1,$1+$1,$8,$9,$2,$3,0*%
%AMHorizOval*
0 Thick line with rounded ends*
0 $1 width*
0 $2 $3 position (X,Y) of the first rounded end (center of the circle)*
0 $4 $5 position (X,Y) of the second rounded end (center of the circle)*
0 Add line between two ends*
20,1,$1,$2,$3,$4,$5,0*
0 Add two circle primitives to create the rounded ends*
1,1,$1,$2,$3*
1,1,$1,$4,$5*%
%AMRotRect*
0 Rectangle, with rotation*
0 The origin of the aperture is its center*
0 $1 length*
0 $2 width*
0 $3 Rotation angle, in degrees counterclockwise*
0 Add horizontal line*
21,1,$1,$2,0,0,$3*%
G04 Aperture macros list end*
%ADD10C,0.880000*%
%ADD11RoundRect,0.200000X-0.200000X-0.275000X0.200000X-0.275000X0.200000X0.275000X-0.200000X0.275000X0*%
%ADD12RoundRect,0.150000X0.587500X0.150000X-0.587500X0.150000X-0.587500X-0.150000X0.587500X-0.150000X0*%
%ADD13RoundRect,0.200000X-0.275000X0.200000X-0.275000X-0.200000X0.275000X-0.200000X0.275000X0.200000X0*%
%ADD14RoundRect,0.200000X0.275000X-0.200000X0.275000X0.200000X-0.275000X0.200000X-0.275000X-0.200000X0*%
%ADD15RoundRect,0.200000X0.200000X0.275000X-0.200000X0.275000X-0.200000X-0.275000X0.200000X-0.275000X0*%
%ADD16R,2.000000X1.100000*%
%ADD17RoundRect,0.140000X0.140000X0.170000X-0.140000X0.170000X-0.140000X-0.170000X0.140000X-0.170000X0*%
%ADD18RoundRect,0.250000X-0.349519X0.894615X-0.949519X-0.144615X0.349519X-0.894615X0.949519X0.144615X0*%
%ADD19HorizOval,1.700000X-0.129904X0.075000X0.129904X-0.075000X0*%
%ADD20RoundRect,0.150000X0.512500X0.150000X-0.512500X0.150000X-0.512500X-0.150000X0.512500X-0.150000X0*%
%ADD21R,0.700000X1.300000*%
%ADD22RoundRect,0.218750X0.256250X-0.218750X0.256250X0.218750X-0.256250X0.218750X-0.256250X-0.218750X0*%
%ADD23RoundRect,0.100000X-0.100000X0.130000X-0.100000X-0.130000X0.100000X-0.130000X0.100000X0.130000X0*%
%ADD24RoundRect,0.250000X-0.250000X-0.475000X0.250000X-0.475000X0.250000X0.475000X-0.250000X0.475000X0*%
%ADD25RoundRect,0.140000X0.170000X-0.140000X0.170000X0.140000X-0.170000X0.140000X-0.170000X-0.140000X0*%
%ADD26C,1.000000*%
%ADD27RoundRect,0.102000X0.749430X-0.450948X0.045223X0.873473X-0.749430X0.450948X-0.045223X-0.873473X0*%
%ADD28RoundRect,0.102000X0.873473X-0.045223X0.450948X0.749430X-0.873473X0.045223X-0.450948X-0.749430X0*%
%ADD29RoundRect,0.102000X0.608589X-0.186064X0.186064X0.608589X-0.608589X0.186064X-0.186064X-0.608589X0*%
%ADD30RoundRect,0.140000X-0.140000X-0.170000X0.140000X-0.170000X0.140000X0.170000X-0.140000X0.170000X0*%
%ADD31RoundRect,0.140000X-0.170000X0.140000X-0.170000X-0.140000X0.170000X-0.140000X0.170000X0.140000X0*%
%ADD32C,0.750000*%
%ADD33RoundRect,0.102000X0.200000X0.300000X-0.200000X0.300000X-0.200000X-0.300000X0.200000X-0.300000X0*%
%ADD34RoundRect,0.250000X-0.405000X-0.405000X0.405000X-0.405000X0.405000X0.405000X-0.405000X0.405000X0*%
%ADD35C,1.310000*%
%ADD36RoundRect,0.200000X-0.200000X-0.250000X0.200000X-0.250000X0.200000X0.250000X-0.200000X0.250000X0*%
%ADD37RoundRect,0.150000X-0.150000X0.512500X-0.150000X-0.512500X0.150000X-0.512500X0.150000X0.512500X0*%
%ADD38RoundRect,0.150000X-0.150000X0.825000X-0.150000X-0.825000X0.150000X-0.825000X0.150000X0.825000X0*%
%ADD39R,1.050000X0.650000*%
%ADD40C,0.650000*%
%ADD41RoundRect,0.150000X0.150000X0.425000X-0.150000X0.425000X-0.150000X-0.425000X0.150000X-0.425000X0*%
%ADD42RoundRect,0.075000X0.075000X0.500000X-0.075000X0.500000X-0.075000X-0.500000X0.075000X-0.500000X0*%
%ADD43O,1.000000X1.800000*%
%ADD44O,1.000000X2.100000*%
%ADD45RoundRect,0.102000X-0.200000X-0.300000X0.200000X-0.300000X0.200000X0.300000X-0.200000X0.300000X0*%
%ADD46R,0.320000X0.500000*%
%ADD47RotRect,0.850000X0.850000X118.000000*%
%ADD48C,0.850000*%
%ADD49R,1.700000X1.700000*%
%ADD50C,1.700000*%
%ADD51RoundRect,0.218750X0.218750X0.256250X-0.218750X0.256250X-0.218750X-0.256250X0.218750X-0.256250X0*%
%ADD52RoundRect,0.225000X-0.250000X0.225000X-0.250000X-0.225000X0.250000X-0.225000X0.250000X0.225000X0*%
%ADD53R,0.500000X0.320000*%
%ADD54R,0.250000X0.850000*%
%ADD55R,0.850000X0.250000*%
%ADD56R,5.500000X5.500000*%
%ADD57RoundRect,0.218750X-0.256250X0.218750X-0.256250X-0.218750X0.256250X-0.218750X0.256250X0.218750X0*%
%ADD58RoundRect,0.225000X-0.225000X-0.250000X0.225000X-0.250000X0.225000X0.250000X-0.225000X0.250000X0*%
%ADD59RoundRect,0.081750X0.265250X0.245250X-0.265250X0.245250X-0.265250X-0.245250X0.265250X-0.245250X0*%
%ADD60RoundRect,0.135000X0.135000X0.185000X-0.135000X0.185000X-0.135000X-0.185000X0.135000X-0.185000X0*%
%ADD61RoundRect,0.250000X-0.405000X0.405000X-0.405000X-0.405000X0.405000X-0.405000X0.405000X0.405000X0*%
%ADD62RoundRect,0.125000X0.125000X0.125000X-0.125000X0.125000X-0.125000X-0.125000X0.125000X-0.125000X0*%
%ADD63RoundRect,0.250000X0.475000X-0.250000X0.475000X0.250000X-0.475000X0.250000X-0.475000X-0.250000X0*%
%ADD64RoundRect,0.250000X-0.475000X0.250000X-0.475000X-0.250000X0.475000X-0.250000X0.475000X0.250000X0*%
%ADD65RoundRect,0.225000X0.250000X-0.225000X0.250000X0.225000X-0.250000X0.225000X-0.250000X-0.225000X0*%
%ADD66RoundRect,0.218750X-0.218750X-0.256250X0.218750X-0.256250X0.218750X0.256250X-0.218750X0.256250X0*%
%ADD67RoundRect,0.250000X-0.600000X-0.750000X0.600000X-0.750000X0.600000X0.750000X-0.600000X0.750000X0*%
%ADD68O,1.700000X2.000000*%
%ADD69RotRect,0.850000X0.850000X28.000000*%
%ADD70RoundRect,0.250000X0.405000X-0.405000X0.405000X0.405000X-0.405000X0.405000X-0.405000X-0.405000X0*%
G04 APERTURE END LIST*
D10*
%TO.C,MK3*%
X87570000Y-119212500D02*
G75*
G02*
X86690000Y-119212500I-440000J0D01*
G01*
X86690000Y-119212500D02*
G75*
G02*
X87570000Y-119212500I440000J0D01*
G01*
%TO.C,MK2*%
X168358524Y-121100000D02*
G75*
G02*
X167478524Y-121100000I-440000J0D01*
G01*
X167478524Y-121100000D02*
G75*
G02*
X168358524Y-121100000I440000J0D01*
G01*
%TO.C,MK1*%
X125390000Y-52020000D02*
G75*
G02*
X124510000Y-52020000I-440000J0D01*
G01*
X124510000Y-52020000D02*
G75*
G02*
X125390000Y-52020000I440000J0D01*
G01*
%TD*%
D11*
%TO.C,R19*%
X139065000Y-63350000D03*
X137415000Y-63350000D03*
%TD*%
D12*
%TO.C,Q3*%
X135252500Y-60870000D03*
X137127500Y-61820000D03*
X137127500Y-59920000D03*
%TD*%
D13*
%TO.C,R23*%
X131590000Y-66315000D03*
X131590000Y-67965000D03*
%TD*%
%TO.C,R22*%
X132590000Y-60195000D03*
X132590000Y-61845000D03*
%TD*%
D11*
%TO.C,R21*%
X123215000Y-55850000D03*
X124865000Y-55850000D03*
%TD*%
D14*
%TO.C,R20*%
X137340000Y-68795000D03*
X137340000Y-67145000D03*
%TD*%
D15*
%TO.C,R18*%
X132705000Y-52710000D03*
X131055000Y-52710000D03*
%TD*%
D12*
%TO.C,Q4*%
X135240000Y-64010000D03*
X135240000Y-65910000D03*
X133365000Y-64960000D03*
%TD*%
%TO.C,Q2*%
X131610000Y-56340000D03*
X131610000Y-58240000D03*
X129735000Y-57290000D03*
%TD*%
D16*
%TO.C,D8*%
X129750000Y-61100000D03*
X129750000Y-62800000D03*
X129750000Y-64500000D03*
X124950000Y-64500000D03*
X124950000Y-62800000D03*
X124950000Y-61100000D03*
%TD*%
D17*
%TO.C,C14*%
X121070000Y-61170000D03*
X120110000Y-61170000D03*
%TD*%
%TO.C,C12*%
X122450000Y-59660000D03*
X121490000Y-59660000D03*
%TD*%
D18*
%TO.C,BT2*%
X115740000Y-63540000D03*
D19*
X114490000Y-65705064D03*
%TD*%
D13*
%TO.C,R14*%
X139170000Y-67888238D03*
X139170000Y-69538238D03*
%TD*%
D17*
%TO.C,C4*%
X125820000Y-49340000D03*
X124860000Y-49340000D03*
%TD*%
D12*
%TO.C,Q1*%
X148476024Y-112980000D03*
X148476024Y-114880000D03*
X146601024Y-113930000D03*
%TD*%
D11*
%TO.C,R12*%
X114815000Y-96440000D03*
X116465000Y-96440000D03*
%TD*%
D20*
%TO.C,U7*%
X146036024Y-108877500D03*
X146036024Y-109827500D03*
X146036024Y-110777500D03*
X143761024Y-110777500D03*
X143761024Y-108877500D03*
%TD*%
D21*
%TO.C,D1*%
X100770000Y-119210000D03*
X101870000Y-119210000D03*
X102970000Y-119210000D03*
X102970000Y-122310000D03*
X101870000Y-122310000D03*
X100770000Y-122310000D03*
%TD*%
D22*
%TO.C,D2*%
X153188524Y-114285000D03*
X153188524Y-112710000D03*
%TD*%
D23*
%TO.C,D3*%
X138450000Y-65388238D03*
X138450000Y-66028238D03*
%TD*%
D20*
%TO.C,U4*%
X157873524Y-112400000D03*
X157873524Y-113350000D03*
X157873524Y-114300000D03*
X155598524Y-114300000D03*
X155598524Y-112400000D03*
%TD*%
D15*
%TO.C,R6*%
X85485000Y-122392500D03*
X83835000Y-122392500D03*
%TD*%
D24*
%TO.C,C1*%
X159936024Y-112500000D03*
X161836024Y-112500000D03*
%TD*%
D25*
%TO.C,C18*%
X100390000Y-94500000D03*
X100390000Y-93540000D03*
%TD*%
D26*
%TO.C,TP8*%
X123660000Y-121760000D03*
%TD*%
D17*
%TO.C,C26*%
X101338524Y-107477500D03*
X100378524Y-107477500D03*
%TD*%
D13*
%TO.C,R16*%
X146828524Y-105775000D03*
X146828524Y-107425000D03*
%TD*%
D27*
%TO.C,U1*%
X153496638Y-90108183D03*
X152375294Y-90704412D03*
X151253951Y-91300641D03*
X150132607Y-91896869D03*
X149011264Y-92493099D03*
X147889920Y-93089327D03*
X146768577Y-93685556D03*
X145647234Y-94281785D03*
X144525890Y-94878014D03*
X143404547Y-95474243D03*
X142283203Y-96070472D03*
X141161861Y-96666700D03*
X140040516Y-97262929D03*
X138919173Y-97859159D03*
D28*
X136986871Y-96887595D03*
X136390642Y-95766252D03*
X135794413Y-94644909D03*
X135198184Y-93523565D03*
X134601955Y-92402221D03*
X134005727Y-91280878D03*
X133409497Y-90159535D03*
X132813268Y-89038192D03*
X132217039Y-87916847D03*
X131620811Y-86795504D03*
X131024582Y-85674161D03*
X130428353Y-84552818D03*
D27*
X130703420Y-82407576D03*
X131824763Y-81811347D03*
X132946108Y-81215117D03*
X134067451Y-80618889D03*
X135188794Y-80022660D03*
X136310138Y-79426432D03*
X137431482Y-78830203D03*
X138552824Y-78233974D03*
X139674168Y-77637745D03*
X140795512Y-77041517D03*
X141916855Y-76445287D03*
X143038198Y-75849058D03*
X144159541Y-75252829D03*
X145280886Y-74656600D03*
D29*
X143276614Y-87331133D03*
X143933874Y-88567261D03*
X142619354Y-86095007D03*
X142697747Y-89224521D03*
X142040487Y-87988395D03*
X141383226Y-86752267D03*
X145170000Y-87910000D03*
X144512740Y-86673873D03*
X143855480Y-85437747D03*
%TD*%
D30*
%TO.C,C21*%
X109583524Y-102132500D03*
X110543524Y-102132500D03*
%TD*%
D17*
%TO.C,C31*%
X114625000Y-117590000D03*
X113665000Y-117590000D03*
%TD*%
D25*
%TO.C,C5*%
X169818524Y-122790000D03*
X169818524Y-121830000D03*
%TD*%
D31*
%TO.C,C25*%
X103818524Y-104807500D03*
X103818524Y-105767500D03*
%TD*%
D32*
%TO.C,MK3*%
X87130000Y-119212500D03*
D33*
X83970000Y-117882500D03*
X85020000Y-117882500D03*
X86070000Y-117882500D03*
X87120000Y-117882500D03*
X87120000Y-120542500D03*
X86070000Y-120542500D03*
X85020000Y-120542500D03*
X83970000Y-120542500D03*
%TD*%
D15*
%TO.C,R15*%
X143216024Y-107157500D03*
X141566024Y-107157500D03*
%TD*%
D34*
%TO.C,PMOD3*%
X101520000Y-114970000D03*
D35*
X101520000Y-112430000D03*
X104060000Y-114970000D03*
X104060000Y-112430000D03*
X106600000Y-114970000D03*
X106600000Y-112430000D03*
X109140000Y-114970000D03*
X109140000Y-112430000D03*
X111680000Y-114970000D03*
X111680000Y-112430000D03*
X114220000Y-114970000D03*
X114220000Y-112430000D03*
%TD*%
D36*
%TO.C,U5*%
X99373524Y-106085000D03*
X99373524Y-104235000D03*
X100823524Y-104235000D03*
X100823524Y-106085000D03*
%TD*%
D37*
%TO.C,U3*%
X121888524Y-109042500D03*
X122838524Y-109042500D03*
X123788524Y-109042500D03*
X123788524Y-111317500D03*
X121888524Y-111317500D03*
%TD*%
D38*
%TO.C,U6*%
X115808524Y-98475000D03*
X117078524Y-98475000D03*
X118348524Y-98475000D03*
X119618524Y-98475000D03*
X119618524Y-103425000D03*
X118348524Y-103425000D03*
X117078524Y-103425000D03*
X115808524Y-103425000D03*
%TD*%
D15*
%TO.C,R1*%
X154883524Y-110720000D03*
X153233524Y-110720000D03*
%TD*%
D13*
%TO.C,R9*%
X104638524Y-86090000D03*
X104638524Y-87740000D03*
%TD*%
D39*
%TO.C,SW2*%
X126380000Y-73580000D03*
X122230000Y-73580000D03*
X126380000Y-75730000D03*
X122230000Y-75730000D03*
%TD*%
D26*
%TO.C,TP7*%
X155160000Y-121630000D03*
%TD*%
D31*
%TO.C,C30*%
X110538524Y-73760000D03*
X110538524Y-74720000D03*
%TD*%
D32*
%TO.C,MK2*%
X167918524Y-121100000D03*
D33*
X164758524Y-119770000D03*
X165808524Y-119770000D03*
X166858524Y-119770000D03*
X167908524Y-119770000D03*
X167908524Y-122430000D03*
X166858524Y-122430000D03*
X165808524Y-122430000D03*
X164758524Y-122430000D03*
%TD*%
D25*
%TO.C,C8*%
X135150000Y-71320000D03*
X135150000Y-70360000D03*
%TD*%
D31*
%TO.C,C22*%
X106468524Y-104832500D03*
X106468524Y-105792500D03*
%TD*%
D40*
%TO.C,J3*%
X134018524Y-118155000D03*
X128238524Y-118155000D03*
D41*
X134328524Y-117080000D03*
X133528524Y-117080000D03*
D42*
X132378524Y-117080000D03*
X131378524Y-117080000D03*
X130878524Y-117080000D03*
X129878524Y-117080000D03*
D41*
X128728524Y-117080000D03*
X127928524Y-117080000D03*
X127928524Y-117080000D03*
X128728524Y-117080000D03*
D42*
X129378524Y-117080000D03*
X130378524Y-117080000D03*
X131878524Y-117080000D03*
X132878524Y-117080000D03*
D41*
X133528524Y-117080000D03*
X134328524Y-117080000D03*
D43*
X135448524Y-121835000D03*
D44*
X135448524Y-117655000D03*
D43*
X126808524Y-121835000D03*
D44*
X126808524Y-117655000D03*
%TD*%
D32*
%TO.C,MK1*%
X124950000Y-52020000D03*
D45*
X128110000Y-53350000D03*
X127060000Y-53350000D03*
X126010000Y-53350000D03*
X124960000Y-53350000D03*
X124960000Y-50690000D03*
X126010000Y-50690000D03*
X127060000Y-50690000D03*
X128110000Y-50690000D03*
%TD*%
D46*
%TO.C,RN1*%
X101268524Y-90240000D03*
X101768524Y-90240000D03*
X102268524Y-90240000D03*
X102768524Y-90240000D03*
X102768524Y-91240000D03*
X102268524Y-91240000D03*
X101768524Y-91240000D03*
X101268524Y-91240000D03*
%TD*%
D47*
%TO.C,J8*%
X142298318Y-72986870D03*
D48*
X141415371Y-73456342D03*
X140532423Y-73925813D03*
X139649475Y-74395285D03*
X138766527Y-74864755D03*
X137883580Y-75334228D03*
X137000633Y-75803699D03*
X136117685Y-76273171D03*
X135234737Y-76742643D03*
X134351789Y-77212115D03*
X133468842Y-77681586D03*
X132585895Y-78151057D03*
X131702947Y-78620529D03*
X130820000Y-79090000D03*
%TD*%
D46*
%TO.C,RN4*%
X103980000Y-108290000D03*
X103480000Y-108290000D03*
X102980000Y-108290000D03*
X102480000Y-108290000D03*
X102480000Y-107290000D03*
X102980000Y-107290000D03*
X103480000Y-107290000D03*
X103980000Y-107290000D03*
%TD*%
D49*
%TO.C,J4*%
X119440000Y-79860000D03*
D50*
X121980000Y-79860000D03*
X124520000Y-79860000D03*
X127060000Y-79860000D03*
%TD*%
D51*
%TO.C,D5*%
X145176024Y-105270000D03*
X143601024Y-105270000D03*
%TD*%
D52*
%TO.C,C13*%
X155290000Y-93695000D03*
X155290000Y-95245000D03*
%TD*%
D53*
%TO.C,RN6*%
X96533524Y-98025000D03*
X96533524Y-97525000D03*
X96533524Y-97025000D03*
X96533524Y-96525000D03*
X97533524Y-96525000D03*
X97533524Y-97025000D03*
X97533524Y-97525000D03*
X97533524Y-98025000D03*
%TD*%
D31*
%TO.C,C24*%
X105088524Y-104767500D03*
X105088524Y-105727500D03*
%TD*%
D54*
%TO.C,IC1*%
X101348524Y-95800000D03*
X101848524Y-95800000D03*
X102348524Y-95800000D03*
X102848524Y-95800000D03*
X103348524Y-95800000D03*
X103848524Y-95800000D03*
X104348524Y-95800000D03*
X104848524Y-95800000D03*
X105348524Y-95800000D03*
X105848524Y-95800000D03*
X106348524Y-95800000D03*
X106848524Y-95800000D03*
D55*
X107548524Y-96500000D03*
X107548524Y-97000000D03*
X107548524Y-97500000D03*
X107548524Y-98000000D03*
X107548524Y-98500000D03*
X107548524Y-99000000D03*
X107548524Y-99500000D03*
X107548524Y-100000000D03*
X107548524Y-100500000D03*
X107548524Y-101000000D03*
X107548524Y-101500000D03*
X107548524Y-102000000D03*
D54*
X106848524Y-102700000D03*
X106348524Y-102700000D03*
X105848524Y-102700000D03*
X105348524Y-102700000D03*
X104848524Y-102700000D03*
X104348524Y-102700000D03*
X103848524Y-102700000D03*
X103348524Y-102700000D03*
X102848524Y-102700000D03*
X102348524Y-102700000D03*
X101848524Y-102700000D03*
X101348524Y-102700000D03*
D55*
X100648524Y-102000000D03*
X100648524Y-101500000D03*
X100648524Y-101000000D03*
X100648524Y-100500000D03*
X100648524Y-100000000D03*
X100648524Y-99500000D03*
X100648524Y-99000000D03*
X100648524Y-98500000D03*
X100648524Y-98000000D03*
X100648524Y-97500000D03*
X100648524Y-97000000D03*
X100648524Y-96500000D03*
D56*
X104098524Y-99250000D03*
%TD*%
D11*
%TO.C,R4*%
X126130000Y-47980000D03*
X127780000Y-47980000D03*
%TD*%
D57*
%TO.C,D4*%
X102908524Y-86177500D03*
X102908524Y-87752500D03*
%TD*%
D53*
%TO.C,RN3*%
X111960000Y-97850000D03*
X111960000Y-98350000D03*
X111960000Y-98850000D03*
X111960000Y-99350000D03*
X110960000Y-99350000D03*
X110960000Y-98850000D03*
X110960000Y-98350000D03*
X110960000Y-97850000D03*
%TD*%
D13*
%TO.C,R17*%
X141991024Y-103822500D03*
X141991024Y-105472500D03*
%TD*%
D25*
%TO.C,C32*%
X97000000Y-119470000D03*
X97000000Y-118510000D03*
%TD*%
D30*
%TO.C,C6*%
X86840000Y-122182500D03*
X87800000Y-122182500D03*
%TD*%
D14*
%TO.C,R11*%
X118423524Y-107145000D03*
X118423524Y-105495000D03*
%TD*%
D58*
%TO.C,C9*%
X154805000Y-97710000D03*
X156355000Y-97710000D03*
%TD*%
D17*
%TO.C,C3*%
X152723524Y-103260000D03*
X151763524Y-103260000D03*
%TD*%
D59*
%TO.C,U2*%
X131690000Y-70775000D03*
X131690000Y-71425000D03*
X131690000Y-72075000D03*
X131690000Y-72725000D03*
X133630000Y-72725000D03*
X133630000Y-72075000D03*
X133630000Y-71425000D03*
X133630000Y-70775000D03*
%TD*%
D25*
%TO.C,C19*%
X102998524Y-94100000D03*
X102998524Y-93140000D03*
%TD*%
D60*
%TO.C,R2*%
X132938524Y-113085000D03*
X131918524Y-113085000D03*
%TD*%
D61*
%TO.C,PMOD2*%
X92088524Y-107099999D03*
D35*
X94628524Y-107099999D03*
X92088524Y-109639999D03*
X94628524Y-109639999D03*
X92088524Y-112179999D03*
X94628524Y-112179999D03*
X92088524Y-114719999D03*
X94628524Y-114719999D03*
X92088524Y-117259999D03*
X94628524Y-117259999D03*
X92088524Y-119799999D03*
X94628524Y-119799999D03*
%TD*%
D31*
%TO.C,C27*%
X115803524Y-105250000D03*
X115803524Y-106210000D03*
%TD*%
D62*
%TO.C,D6*%
X142708524Y-114160000D03*
X140508524Y-114160000D03*
%TD*%
D63*
%TO.C,C29*%
X149001024Y-111097500D03*
X149001024Y-109197500D03*
%TD*%
D64*
%TO.C,C23*%
X109518524Y-105802500D03*
X109518524Y-107702500D03*
%TD*%
D14*
%TO.C,R5*%
X163178524Y-122640000D03*
X163178524Y-120990000D03*
%TD*%
D46*
%TO.C,RN2*%
X108020000Y-88880000D03*
X108520000Y-88880000D03*
X109020000Y-88880000D03*
X109520000Y-88880000D03*
X109520000Y-89880000D03*
X109020000Y-89880000D03*
X108520000Y-89880000D03*
X108020000Y-89880000D03*
%TD*%
D64*
%TO.C,C10*%
X121988524Y-113387500D03*
X121988524Y-115287500D03*
%TD*%
D15*
%TO.C,R13*%
X147520000Y-102260000D03*
X145870000Y-102260000D03*
%TD*%
D65*
%TO.C,C2*%
X121768524Y-107172500D03*
X121768524Y-105622500D03*
%TD*%
D66*
%TO.C,D7*%
X157251024Y-108840000D03*
X158826024Y-108840000D03*
%TD*%
D63*
%TO.C,C28*%
X141001024Y-110857500D03*
X141001024Y-108957500D03*
%TD*%
D13*
%TO.C,R8*%
X106818524Y-86050000D03*
X106818524Y-87700000D03*
%TD*%
D47*
%TO.C,J2*%
X152470000Y-94100000D03*
D48*
X151587053Y-94569472D03*
X150704105Y-95038943D03*
X149821157Y-95508415D03*
X148938209Y-95977885D03*
X148055262Y-96447358D03*
X147172315Y-96916829D03*
X146289367Y-97386301D03*
X145406419Y-97855773D03*
X144523471Y-98325245D03*
X143640524Y-98794716D03*
X142757577Y-99264187D03*
X141874629Y-99733659D03*
X140991682Y-100203130D03*
%TD*%
D30*
%TO.C,C20*%
X111160000Y-100840000D03*
X112120000Y-100840000D03*
%TD*%
D67*
%TO.C,BT1*%
X143888524Y-117667500D03*
D68*
X146388524Y-117667500D03*
%TD*%
D53*
%TO.C,RN5*%
X96503524Y-101245000D03*
X96503524Y-100745000D03*
X96503524Y-100245000D03*
X96503524Y-99745000D03*
X97503524Y-99745000D03*
X97503524Y-100245000D03*
X97503524Y-100745000D03*
X97503524Y-101245000D03*
%TD*%
D69*
%TO.C,J5*%
X133390000Y-96560000D03*
D48*
X132920528Y-95677053D03*
X132451057Y-94794105D03*
X131981585Y-93911157D03*
X131512115Y-93028209D03*
X131042642Y-92145262D03*
X130573171Y-91262315D03*
X130103699Y-90379367D03*
X129634227Y-89496419D03*
X129164755Y-88613471D03*
X128695284Y-87730524D03*
X128225813Y-86847577D03*
%TD*%
D60*
%TO.C,R7*%
X130078524Y-113085000D03*
X129058524Y-113085000D03*
%TD*%
D13*
%TO.C,R10*%
X107748524Y-105842500D03*
X107748524Y-107492500D03*
%TD*%
D39*
%TO.C,SW1*%
X153143524Y-101910000D03*
X157293524Y-101910000D03*
X153143524Y-99760000D03*
X157293524Y-99760000D03*
%TD*%
D63*
%TO.C,C7*%
X155188524Y-108830000D03*
X155188524Y-106930000D03*
%TD*%
D11*
%TO.C,R3*%
X154403524Y-103745000D03*
X156053524Y-103745000D03*
%TD*%
D70*
%TO.C,PMOD1*%
X115598524Y-84580000D03*
D35*
X113058524Y-84580000D03*
X115598524Y-82040000D03*
X113058524Y-82040000D03*
X115598524Y-79500000D03*
X113058524Y-79500000D03*
X115598524Y-76960000D03*
X113058524Y-76960000D03*
X115598524Y-74420000D03*
X113058524Y-74420000D03*
X115598524Y-71880000D03*
X113058524Y-71880000D03*
%TD*%
M02*
